<?xml version="1.0" encoding="utf-8"?>
<!-- Generator: Adobe Illustrator 25.0.1, SVG Export Plug-In . SVG Version: 6.00 Build 0)  -->
<svg version="1.1" id="Layer_1" xmlns="http://www.w3.org/2000/svg" xmlns:xlink="http://www.w3.org/1999/xlink" x="0px" y="0px"
	 viewBox="0 0 136.1 63.7" enable-background="new 0 0 136.1 63.7" xml:space="preserve">
<g>
	<g>
		<g>
			<g>
				<path fill="#FBB728" d="M52,24.7c2.4-0.5,4.7,0,6.6,0.8l-4.1-3.8c-0.3-0.3-0.7-0.2-1,0l-3.1,3.4C50.9,25,51.4,24.8,52,24.7z"/>
			</g>
			<g>
				<g>
					<path fill="#FBB728" d="M47.5,45.8c-1,2-2.2,3.7-3.6,5.2c-0.3,0.3-0.6,0.7-1,1L41,50c0.3-0.3,0.6-0.6,0.8-0.9
						c1.2-1.3,2.2-2.8,3.1-4.5c-1.1-0.7-1.6-1.2-1.6-1.2c-0.3-0.5-0.5-1-0.7-1.4c-0.7,1-1.4,2-2.1,2.7c-4.7,5.1-13.9,7.9-22.1,0.4
						c-8.1-7.5-6.1-16.9-1.4-22c4.4-4.7,14.2-9.1,17.2-10.3c0,0,0,0,0,0c0,0,0.1,0,0.1,0c0.5-0.2,1-0.6,1.3-1L39,8.3
						c0.3-0.3,0.2-0.7,0-1l-6.6-6.1c-0.3-0.3-0.7-0.2-1,0l-3.3,3.6c-0.3,0.3-0.2,0.7,0,1l0.7,0.7C28.9,6.6,29,6.7,29,6.8
						c0,0.1,0,0.2,0,0.3c0,0,0,0,0,0c0,0.1-0.1,0.2-0.1,0.3c-0.1,0.1-0.2,0.2-0.4,0.3c-5.8,1.4-24.3,7-27.1,23.5
						c-1.9,11.2,4.5,19.2,8.7,23.1c4.2,3.9,12.7,9.6,23.7,6.8c8.4-2.1,13.6-8.3,16.7-14.5C49.4,46.4,48.4,46.1,47.5,45.8z M8.4,45.6
						C6.3,42,5.2,38.2,5.2,34.3l2.8,0c0,3.4,1,6.7,2.9,9.8L8.4,45.6z M11.8,23l-2.2-1.7c0.3-0.4,0.6-0.7,0.9-1.1
						c2.2-2.3,5-4.3,8.4-5.9l1.2,2.5c-3.1,1.4-5.6,3.2-7.5,5.3C12.3,22.4,12,22.7,11.8,23z M18.8,55.1l1.2-2.5
						c3.3,1.6,6.6,2.4,10,2.1l0.2,2.8C26.4,57.8,22.5,57,18.8,55.1z"/>
				</g>
			</g>
		</g>
		<polygon fill="#05CFD5" points="47.8,5.7 49.1,11.8 55.2,13.1 49.1,14.5 47.8,20.6 46.5,14.5 40.4,13.1 46.5,11.8 		"/>
		<g>
			<g>
				<path fill="#152238" d="M40.1,35.1H22.6c0.8,3.6,3.5,5.8,7.2,5.8c2.5,0,4.8-1,6.5-2.7l2.7,2.8c-2.3,2.5-5.6,3.9-9.6,3.9
					c-7.1,0-11.8-4.7-11.8-11.7c0-7,4.8-11.8,11.7-11.8C37.4,21.5,40.7,26.8,40.1,35.1z M35.7,31.5c-0.2-3.7-2.7-6-6.4-6
					c-3.7,0-6.2,2.3-6.8,6H35.7z"/>
			</g>
			<g>
				<path fill="#152238" d="M58.5,28.9L57,32c-1.7-1-3.8-1.6-5.1-1.6c-1,0-1.7,0.4-1.7,1.2c0,2.7,8.4,1.2,8.4,6.9
					c0,3.2-2.8,4.8-6.3,4.8c-2.6,0-5.4-1-7.2-2.5l1.6-3.1c1.6,1.4,4.1,2.4,5.7,2.4c1.3,0,2.1-0.5,2.1-1.4c0-2.8-8.4-1.1-8.4-6.7
					c0-2.9,2.5-4.8,6.3-4.8C54.5,27.1,56.9,27.8,58.5,28.9z"/>
				<path fill="#152238" d="M67.4,38.6h-0.1h-3.1v4.5h-4V27.3h7.1c4.2,0,6.6,2,6.6,5.5c0,2.4-1,4.2-2.9,5.1l3.3,5.2h-4.6L67.4,38.6z
					 M67.3,35.5c1.7,0,2.8-0.9,2.8-2.6c0-1.6-1-2.5-2.8-2.5h-3.1v5H67.3z"/>
				<path fill="#152238" d="M80.1,30.4v3.1h7.5v3.2h-7.5v3.2h8.6v3.2H76.1V27.3h12.4v3.2H80.1z"/>
				<path fill="#152238" d="M104.6,29.8l-2.3,2.8c-1-1.3-2.6-2.1-4-2.1c-2.5,0-4.4,2-4.4,4.6c0,2.6,1.9,4.7,4.4,4.7
					c1.3,0,2.9-0.7,4-1.9l2.4,2.5c-1.7,1.7-4.2,2.9-6.5,2.9c-4.8,0-8.3-3.5-8.3-8.1c0-4.6,3.6-8,8.5-8
					C100.6,27.1,103,28.2,104.6,29.8z M99,25.9h-3l2.4-3.8l3.5,1.2L99,25.9z"/>
				<path fill="#152238" d="M112.1,36.9l-2.1,2.3v3.9h-4V27.3h4v6.8l6.1-6.8h4.7l-5.9,6.6l6.3,9.3h-4.8L112.1,36.9z"/>
				<path fill="#152238" d="M126.4,30.4v3.1h7.5v3.2h-7.5v3.2h8.6v3.2h-12.6V27.3h12.4v3.2H126.4z"/>
			</g>
		</g>
	</g>
</g>
</svg>
