<svg xmlns="http://www.w3.org/2000/svg" viewBox="0 0 165.26 74.95"><defs><style>.cls-1{fill:#fff;}</style></defs><title>Asset 2</title><g id="Layer_2" data-name="Layer 2"><g id="Layer_1-2" data-name="Layer 1"><path class="cls-1" d="M62.85,29.23a14.59,14.59,0,0,1,8.2,1L66,25.55a.85.85,0,0,0-1.21.05l-3.85,4.17a11.14,11.14,0,0,1,1.92-.54"/><path class="cls-1" d="M57.31,55.25a29.47,29.47,0,0,1-4.46,6.43c-.39.42-.79.83-1.2,1.22l-2.36-2.48c.37-.35.71-.7,1.05-1.06a26.3,26.3,0,0,0,3.88-5.58,9.53,9.53,0,0,1-2-1.54,15.54,15.54,0,0,1-.91-1.75,26,26,0,0,1-2.58,3.38c-5.79,6.27-17.16,9.76-27.2.48s-7.48-20.9-1.69-27.17C25.25,21.35,37.41,16,41.07,14.44l0,0,.15-.06a5.38,5.38,0,0,0,1.64-1.2L46.78,9a.85.85,0,0,0-.05-1.2L38.56.22a.86.86,0,0,0-1.2.05L33.3,4.67a.86.86,0,0,0,.05,1.21l.9.83a.86.86,0,0,1,.25.43.78.78,0,0,1,0,.34h0a.72.72,0,0,1-.14.36.85.85,0,0,1-.49.32c-7.12,1.73-30,8.65-33.46,29C-1.89,51,5.93,60.87,11.11,65.65s15.7,11.8,29.23,8.41C50.76,71.45,57.12,63.87,61,56.17a19.1,19.1,0,0,1-3.69-.92M9.1,55A26.79,26.79,0,0,1,5,41.11l3.41,0A23.64,23.64,0,0,0,12,53.18Zm4.13-27.84L10.57,25c.35-.44.73-.88,1.12-1.3a32.45,32.45,0,0,1,10.37-7.28l1.43,3.11A29.13,29.13,0,0,0,14.2,26c-.33.37-.66.74-1,1.13m8.64,39.64,1.53-3.07a23.45,23.45,0,0,0,12.34,2.61L36,69.7a26.91,26.91,0,0,1-14.11-3"/><polygon class="cls-1" points="57.66 5.8 59.27 13.34 66.82 14.96 59.27 16.58 57.66 24.12 56.04 16.58 48.49 14.96 56.04 13.34 57.66 5.8"/><path class="cls-1" d="M48.14,42.1H26.54a8.71,8.71,0,0,0,8.87,7.15,11.15,11.15,0,0,0,8.06-3.33l3.28,3.49a15.58,15.58,0,0,1-11.82,4.84c-8.82,0-14.62-5.86-14.62-14.46s6-14.51,14.45-14.56c10.05,0,14.14,6.55,13.38,16.87m-5.37-4.51c-.21-4.62-3.28-7.42-8-7.42-4.52,0-7.69,2.85-8.38,7.42Z"/><path class="cls-1" d="M70.84,34.34,69,38.21a14.69,14.69,0,0,0-6.25-2c-1.28,0-2.15.47-2.15,1.42,0,3.38,10.32,1.45,10.32,8.51,0,3.9-3.46,6-7.81,6A14.58,14.58,0,0,1,54.17,49l1.92-3.82a12.16,12.16,0,0,0,7.06,2.93c1.56,0,2.54-.59,2.54-1.7,0-3.46-10.32-1.4-10.32-8.31,0-3.6,3.09-5.89,7.78-5.89a14.63,14.63,0,0,1,7.69,2.18"/><path class="cls-1" d="M81.86,46.41H78v5.5H73V32.39h8.72c5.16,0,8.12,2.45,8.12,6.8a6.53,6.53,0,0,1-3.54,6.28l4.1,6.44H84.76Zm-.14-3.9c2.15,0,3.41-1.09,3.41-3.15s-1.26-3.07-3.41-3.07H78v6.22Z"/><polygon class="cls-1" points="97.54 36.29 97.54 40.17 106.85 40.17 106.85 44.07 97.54 44.07 97.54 48 108.16 48 108.16 51.91 92.58 51.91 92.58 32.39 107.86 32.39 107.86 36.29 97.54 36.29"/><path class="cls-1" d="M127.77,35.51l-2.87,3.4A6.69,6.69,0,0,0,120,36.37,5.45,5.45,0,0,0,114.56,42,5.48,5.48,0,0,0,120,47.78a7.3,7.3,0,0,0,4.91-2.29l2.9,3.07a11.78,11.78,0,0,1-8.06,3.57,9.91,9.91,0,0,1-10.26-10c0-5.63,4.49-9.87,10.43-9.87a11.31,11.31,0,0,1,7.86,3.29m-7-4.82h-3.68l3-4.69,4.35,1.54Z"/><polygon class="cls-1" points="137.01 44.24 134.41 47.11 134.41 51.91 129.45 51.91 129.45 32.39 134.41 32.39 134.41 40.84 141.89 32.39 147.63 32.39 140.38 40.47 148.1 51.91 142.17 51.91 137.01 44.24"/><polygon class="cls-1" points="154.64 36.29 154.64 40.17 163.95 40.17 163.95 44.07 154.64 44.07 154.64 48 165.26 48 165.26 51.91 149.67 51.91 149.67 32.39 164.95 32.39 164.95 36.29 154.64 36.29"/></g></g></svg>