<svg xmlns="http://www.w3.org/2000/svg" viewBox="0 0 159.75 101.53"><defs><style>.cls-1{fill:#fff;}.cls-2{fill:#1b1a1e;}.cls-3{fill:#ffc027;}</style></defs><title>Asset 1</title><g id="Layer_2" data-name="Layer 2"><g id="Layer_1-2" data-name="Layer 1"><path class="cls-1" d="M50.23,101.53a22.45,22.45,0,0,1-5.84-.73,14.8,14.8,0,0,1-8.23-5.24,12,12,0,0,1-2.51-7.37,12.16,12.16,0,0,1,.53-3.52A12.9,12.9,0,0,1,37.66,79c-.06-.34-.13-.69-.18-1s-.08-.55-.11-.83a47.84,47.84,0,0,1-15.86,2.51c-1.27,0-12.6-.21-18.4-7.5A14.65,14.65,0,0,1,.44,59.43a15,15,0,0,1,6.2-9.19c-1.78-5.22-1.55-11.58.71-19C16,2.86,39.52,2,42.17,2a21.77,21.77,0,0,1,7.54,1.29A15.84,15.84,0,0,1,59.48,0a13.42,13.42,0,0,1,7.31,2c1.88,1.33,6,5.2,4.78,13,0,.34-.14.79-.28,1.38a16.13,16.13,0,0,1,3.22-.66,15.82,15.82,0,0,1,8.11,1.17c.62-.34,1.27-.66,1.93-1a28.66,28.66,0,0,1,8.51-2.32,21.37,21.37,0,0,1,7.94.49,11.83,11.83,0,0,1,.68-4c1.87-5.49,7-8.16,10.87-8.77,4.72-.72,8.32.75,10.65,3.94a12,12,0,0,1,2.11,6.42,15.25,15.25,0,0,1,10.1,4,9.81,9.81,0,0,1,3.12,7.85,11.33,11.33,0,0,1,1.17,6.77A10,10,0,0,1,143.41,34a11.61,11.61,0,0,1,1.23,3.49,15.85,15.85,0,0,1,8.26,2.38A14.6,14.6,0,0,1,159.46,50a19.68,19.68,0,0,1,.29,3.34A27.06,27.06,0,0,1,158.54,61a34.63,34.63,0,0,1-3.26,7.66,30.89,30.89,0,0,1-5,6.48,26.86,26.86,0,0,1-6.6,4.89,22.82,22.82,0,0,1-8.11,2.49,18.91,18.91,0,0,1-5.22-.1c-.52-.09-1-.2-1.48-.32a13.09,13.09,0,0,1-5.28,1.75,11.14,11.14,0,0,1-7-1.46A29.33,29.33,0,0,1,113.3,84a28.52,28.52,0,0,1-7.61,1.92c-9.14,1-14.21-2.52-16.76-5.62a14.77,14.77,0,0,1-3.7,5.24A13.78,13.78,0,0,1,77.55,89a13.3,13.3,0,0,1-2.68,0,24.62,24.62,0,0,1-5,6,25.46,25.46,0,0,1-7.45,4.36,37,37,0,0,1-8.76,2,31.4,31.4,0,0,1-3.4.19m-8-35.87A4.39,4.39,0,0,1,46.53,71,17.48,17.48,0,0,0,46,74.94a11.71,11.71,0,0,0,.12,1.72,7.85,7.85,0,0,0,.62,2.15,4.39,4.39,0,0,1-1.89,5.71,5.27,5.27,0,0,0-.82.54,4.3,4.3,0,0,0-1.48,2.13,3.58,3.58,0,0,0-.16,1,3.35,3.35,0,0,0,.72,2.05,6.43,6.43,0,0,0,3.54,2.07,16.54,16.54,0,0,0,6,.28,27.58,27.58,0,0,0,6.62-1.48,16.14,16.14,0,0,0,4.84-2.82,15.8,15.8,0,0,0,3.48-4.26A16.86,16.86,0,0,0,68.65,82,4.41,4.41,0,0,1,75,80a2.89,2.89,0,0,0,1.67.28A5.07,5.07,0,0,0,79.36,79a6.81,6.81,0,0,0,1.87-3.2l1.66-5.63c.59-2,1.18-3.78,1.7-5.16a23.71,23.71,0,0,1,1.77-3.7,9.27,9.27,0,0,1,2-2.37,4.54,4.54,0,0,1,6.39.86,4.4,4.4,0,0,1,.56,4c-.12.33-.24.67-.34,1a17.31,17.31,0,0,0-.82,4.92,7.85,7.85,0,0,0,1.48,4.86c1.69,2.21,4.87,3.06,9.1,2.59A19.3,19.3,0,0,0,110,75.83a20.94,20.94,0,0,0,4.23-2.28,4.68,4.68,0,0,1,3.44-.85,4.51,4.51,0,0,1,3,1.75,1.92,1.92,0,0,0,1.53.72l.52,0A4.68,4.68,0,0,0,125.27,74a4.38,4.38,0,0,1,4.83-.69,7.44,7.44,0,0,0,1.75.52,11.08,11.08,0,0,0,2.78,0,14.17,14.17,0,0,0,5-1.55A18.27,18.27,0,0,0,144.11,69a22.23,22.23,0,0,0,3.57-4.69,25,25,0,0,0,2.43-5.71,18.61,18.61,0,0,0,.86-5.21,9.92,9.92,0,0,0-.16-1.84,6,6,0,0,0-2.58-4.18,7.88,7.88,0,0,0-5.42-1,14,14,0,0,0-1.81.29,4.35,4.35,0,0,1-4.26-1.37,4.41,4.41,0,0,1-.84-4.4h0a3.86,3.86,0,0,0-.17-2.59,1.73,1.73,0,0,0-1.47-.67,4.39,4.39,0,0,1-3.94-6.18c.81-1.81.92-3.33.29-4.05a4.42,4.42,0,0,1-.92-4,1.15,1.15,0,0,0-.33-1.35,7,7,0,0,0-4.82-1.63,14.27,14.27,0,0,0-3.06.36,4.39,4.39,0,0,1-5.26-5.17c.75-3.63.08-4.93-.14-5.25a2.45,2.45,0,0,0-2.18-.4,5,5,0,0,0-3.92,3,3.93,3.93,0,0,0,.25,3,15.12,15.12,0,0,1,.58,2,13.8,13.8,0,0,1-.46,6,4.39,4.39,0,0,1-7.85,1.31,6.51,6.51,0,0,0-2.11-1.93,10.56,10.56,0,0,0-6.32-.93,20.07,20.07,0,0,0-5.91,1.6,20.51,20.51,0,0,0-3,1.7,4.37,4.37,0,0,1-5.23-.21A4.09,4.09,0,0,0,79.3,25a7,7,0,0,0-3.83-.59,7.63,7.63,0,0,0-3.21,1.07,4.35,4.35,0,0,1-4.38.12,3.23,3.23,0,0,0-1.59-.18l-.46.06a4.4,4.4,0,0,1-4.55-5.55c1.27-4.57,1.56-5.93,1.62-6.33.35-2.17,0-3.65-1.14-4.43a6.42,6.42,0,0,0-2.28-.38,7.27,7.27,0,0,0-5.64,2.66,4.38,4.38,0,0,1-5.56.89,12,12,0,0,0-6.12-1.51c-2,0-19.61.64-26.41,23-2.14,7-2,12.42.38,16a4.38,4.38,0,0,1-2.34,6.64,6.56,6.56,0,0,0-4.8,5,5.83,5.83,0,0,0,1,5.27c2.74,3.45,9.26,4.2,11.54,4.2,7.22,0,13.43-1.54,18.46-4.59a4.34,4.34,0,0,1,2.28-.63m48.91-1.5v0Z"/><path class="cls-2" d="M155.14,50.75a10.33,10.33,0,0,0-4.59-7.15,11.72,11.72,0,0,0-6.38-1.71,16.3,16.3,0,0,0-1.93.11,22.14,22.14,0,0,0-2.21.37,8.25,8.25,0,0,0-.46-6.22,6.07,6.07,0,0,0-5.24-2.92c1.79-4,1.13-7-.39-8.71a5.52,5.52,0,0,0-1.55-5.67A11.11,11.11,0,0,0,124.55,16a19.13,19.13,0,0,0-4,.47c.79-3.84.5-6.76-.87-8.67a5.7,5.7,0,0,0-4.89-2.32,10.25,10.25,0,0,0-1.53.12,9.38,9.38,0,0,0-7.41,5.87,8.23,8.23,0,0,0,.27,5.84,12.79,12.79,0,0,1,.41,1.38,9.7,9.7,0,0,1-.39,4,10.4,10.4,0,0,0-3.55-3.26,13.18,13.18,0,0,0-6.67-1.61,20.82,20.82,0,0,0-2.35.13,24.14,24.14,0,0,0-7.16,1.95A25.38,25.38,0,0,0,82.67,22,7.47,7.47,0,0,0,81.21,21,10.86,10.86,0,0,0,76.39,20c-.46,0-.94,0-1.41.08a12.13,12.13,0,0,0-5,1.7A6.3,6.3,0,0,0,67,21h-.2c-.29,0-.59,0-.89.06l-.35,0c.91-3.28,1.57-5.82,1.73-6.84.83-5.17-1.49-7.65-2.94-8.67a9.24,9.24,0,0,0-4.82-1.19,11.64,11.64,0,0,0-8.95,4.17,16.12,16.12,0,0,0-8.36-2.13c-2.32,0-22.9.73-30.62,26.09-2.55,8.37-2.23,15,.94,19.72a11,11,0,0,0-7.78,8.18,10.25,10.25,0,0,0,1.83,9c4.6,5.79,14.55,5.85,15,5.85,8.89,0,15.62-2.13,20.73-5.22a21.82,21.82,0,0,0-.6,4.89,16.11,16.11,0,0,0,.17,2.37,12.1,12.1,0,0,0,1,3.35,10.18,10.18,0,0,0-1.53,1A8.58,8.58,0,0,0,38.38,86a7.5,7.5,0,0,0-.33,2.24,7.59,7.59,0,0,0,1.6,4.7,10.62,10.62,0,0,0,5.88,3.66,18.57,18.57,0,0,0,4.7.57A24.73,24.73,0,0,0,53.14,97a32.42,32.42,0,0,0,7.69-1.73A21.13,21.13,0,0,0,67,91.65a20.28,20.28,0,0,0,4.44-5.43,26.12,26.12,0,0,0,1.26-2.48,6.47,6.47,0,0,0,3.4,1h.08c.29,0,.59,0,.9,0a9.34,9.34,0,0,0,5.23-2.41A11.1,11.1,0,0,0,85.45,77l1.65-5.63c.56-1.91,1.1-3.54,1.59-4.83a19.63,19.63,0,0,1,1.43-3,4.56,4.56,0,0,1,1-1.23s0,0,0,0c-.16.44-.31.88-.44,1.33a21.45,21.45,0,0,0-1,6.06,12.24,12.24,0,0,0,2.38,7.53c1.55,2,4.61,4.44,10.36,4.44a25.74,25.74,0,0,0,2.71-.15,23.93,23.93,0,0,0,6.45-1.61,24.78,24.78,0,0,0,5.11-2.78l.27-.19a6.27,6.27,0,0,0,5.15,2.63h.08a7.15,7.15,0,0,0,.9-.06,9,9,0,0,0,5.05-2.29,11.07,11.07,0,0,0,2.88.89,14.71,14.71,0,0,0,2.23.17,16.24,16.24,0,0,0,1.82-.1,18.47,18.47,0,0,0,6.53-2,22.75,22.75,0,0,0,5.55-4.11,26.9,26.9,0,0,0,4.26-5.59,29.87,29.87,0,0,0,2.85-6.68,23.09,23.09,0,0,0,1-6.44,15.33,15.33,0,0,0-.22-2.59"/><path class="cls-3" d="M53.37,46.25s9.1-30.23,9.7-34.08c.08-.54.7-3.85-1.52-5.39-.75-.55-7.27-2.4-11.07,5.17-1-1.08-3.46-3.69-9.07-3.72-.8,0-20.19,0-27.41,23.68-6.06,19.91,7.37,22,10.74,21.87a24.22,24.22,0,0,0,14.12-5c-.24.69-1.73,6.73-6.33,9-1.53.73-8,2.81-10.85,1.17-1.8-1-2.31-5.45-6.54-5.45-2.11,0-6.79,1.21-7.92,6.09-2.1,9.1,10,10.7,13.5,10.7,22.89,0,30.49-15,32.65-24m-22.24-4c-2,.08-6.36-1.09-3.51-9.88C32,18.75,40.88,19.05,41.21,19.05c2.07.05,6.43,1.35,3.6,10.52C44,32.1,39.76,41.88,31.13,42.22M59.91,28.48l-5.5,18.76a7.41,7.41,0,0,0-.32,2,3.19,3.19,0,0,0,.51,1.85,2.94,2.94,0,0,0,2.47,1.24h.07a3.14,3.14,0,0,0,.53,0A6,6,0,0,0,61,50.73a7.7,7.7,0,0,0,2.16-3.66l1.65-5.63q.89-3,1.68-5.09a21.69,21.69,0,0,1,1.7-3.54,7.78,7.78,0,0,1,1.88-2.19,4.22,4.22,0,0,1,2.15-.84,3,3,0,0,1,.53,0,7.07,7.07,0,0,1,1.5.19,10.21,10.21,0,0,0,1.8.3l.2,0a3.75,3.75,0,0,0,1.26-.38A24.26,24.26,0,0,0,75,35.61a18.53,18.53,0,0,0-.82,5.11,8.72,8.72,0,0,0,1.68,5.46c1.62,2.13,4.28,3.11,7.6,3.11h.06c.73,0,1.51,0,2.32-.13a20.44,20.44,0,0,0,5.55-1.38,21.31,21.31,0,0,0,4.4-2.39,16.27,16.27,0,0,0,3-2.76A7.57,7.57,0,0,0,100.34,40a3.94,3.94,0,0,0,.16-1,2.16,2.16,0,0,0-.59-1.52A2.5,2.5,0,0,0,98,36.78a4,4,0,0,0-.5,0,4.1,4.1,0,0,0-2.13.82c-1.09.89-2,1.6-2.61,2.11s-1.32,1-2,1.43a10.36,10.36,0,0,1-2,1,9,9,0,0,1-2.07.48l-.64,0a3.32,3.32,0,0,1-1.76-.42,2.48,2.48,0,0,1-1.14-1.72A4.55,4.55,0,0,1,83,39.45a8.47,8.47,0,0,1,.18-1.65l12.53-1.4a12.64,12.64,0,0,0,4.71-1.33A6.42,6.42,0,0,0,103.37,31a11.38,11.38,0,0,0,.49-3.27,10.65,10.65,0,0,0-.31-2.51,7.08,7.08,0,0,0-3.48-4.47,9.94,9.94,0,0,0-5-1.15,17.13,17.13,0,0,0-2,.11A21.11,21.11,0,0,0,87,21.37a20.33,20.33,0,0,0-5.31,3.46c-.29.26-.56.53-.85.81a2.22,2.22,0,0,0,0-.37A3,3,0,0,0,79,22.51a7.66,7.66,0,0,0-3.36-.76,9.2,9.2,0,0,0-1,.06,8.46,8.46,0,0,0-4.23,1.65,16.41,16.41,0,0,0-1.55,1.34,3.13,3.13,0,0,0-.18-.57A2.62,2.62,0,0,0,66,22.79c-.21,0-.42,0-.62,0-2.73.28-4.61,2.44-5.51,5.65m27.76-.06a7.24,7.24,0,0,1,4.09-1.93,5.62,5.62,0,0,1,.7,0,2.34,2.34,0,0,1,2.11.87A3.06,3.06,0,0,1,95,29.18a8.84,8.84,0,0,1-.14,1.52l-9.72,1.08a11.62,11.62,0,0,1,2.49-3.36M151,49.73a6.93,6.93,0,0,0-3.05-4.86,8.4,8.4,0,0,0-4.56-1.18,13.82,13.82,0,0,0-1.55.09,14.74,14.74,0,0,0-5.61,1.72,22.4,22.4,0,0,0-2.35,1.5L136,39.86l-1-.28,1,.28a6.77,6.77,0,0,0,.31-1.9,3.2,3.2,0,0,0-.43-1.69A2.8,2.8,0,0,0,133.31,35c-.2,0-.39,0-.59,0a5.39,5.39,0,0,0-3.24,1.62,8.42,8.42,0,0,0-2,3.62L118.86,69.7a6.92,6.92,0,0,0-.31,1.93,3.13,3.13,0,0,0,.45,1.71,2.8,2.8,0,0,0,2.39,1.22h.07l.54,0A5.68,5.68,0,0,0,125.2,73a6.8,6.8,0,0,0,1.57-2.17l.13.15a6.42,6.42,0,0,0,3.95,2.12,9.07,9.07,0,0,0,1.68.14c.45,0,.93,0,1.44-.08a15.09,15.09,0,0,0,5.33-1.66A19.26,19.26,0,0,0,144,68.06a24,24,0,0,0,3.72-4.91,26.35,26.35,0,0,0,2.53-5.93,19.56,19.56,0,0,0,.88-5.47,12,12,0,0,0-.16-2m-9.58,7.9A13.4,13.4,0,0,1,138,63.7a7.74,7.74,0,0,1-4.43,2.42c-.26,0-.5,0-.73,0A2.63,2.63,0,0,1,130.34,65a3.71,3.71,0,0,1-.47-2,11.71,11.71,0,0,1,.54-3.16,15.23,15.23,0,0,1,2.12-4.52,10.79,10.79,0,0,1,3-3A7.18,7.18,0,0,1,138.8,51a4,4,0,0,1,.58,0,2.5,2.5,0,0,1,1.65.49,2.86,2.86,0,0,1,.93,2,4.7,4.7,0,0,1,0,.68,12,12,0,0,1-.59,3.42m-22.7,8.77a2.13,2.13,0,0,0-.58-1.53,2.58,2.58,0,0,0-1.89-.72,3.91,3.91,0,0,0-.49,0,4.25,4.25,0,0,0-2.14.82c-1.09.9-2,1.59-2.61,2.1a22.94,22.94,0,0,1-2,1.44,10.21,10.21,0,0,1-2,1,8.86,8.86,0,0,1-2.06.48,4.93,4.93,0,0,1-.65,0,3.45,3.45,0,0,1-1.76-.42,2.51,2.51,0,0,1-1.14-1.72,4.69,4.69,0,0,1-.12-1.1,7.39,7.39,0,0,1,.2-1.65L114,63.78a13,13,0,0,0,4.71-1.34,6.42,6.42,0,0,0,2.93-4.08,11.3,11.3,0,0,0,.49-3.25,10.54,10.54,0,0,0-.31-2.52,7.09,7.09,0,0,0-3.48-4.47,9.81,9.81,0,0,0-5-1.17,17,17,0,0,0-2,.13A20.44,20.44,0,0,0,99.89,52.2c-.3.26-.58.54-.85.82,0-.12,0-.25,0-.37a3,3,0,0,0-1.88-2.75,7.48,7.48,0,0,0-3.38-.77,9,9,0,0,0-1,.06,8.36,8.36,0,0,0-4.23,1.64A18.2,18.2,0,0,0,87,52.18a2.25,2.25,0,0,0-.19-.57,2.6,2.6,0,0,0-2.56-1.44,4.4,4.4,0,0,0-.62,0c-2.71.28-4.6,2.44-5.5,5.65L72.64,74.62a7.29,7.29,0,0,0-.34,2,3.26,3.26,0,0,0,.52,1.85,2.94,2.94,0,0,0,2.47,1.24h.06a5,5,0,0,0,.54,0,5.91,5.91,0,0,0,3.33-1.55,7.75,7.75,0,0,0,2.18-3.66L83,68.81c.59-2,1.15-3.7,1.68-5.08a21,21,0,0,1,1.7-3.55A7.75,7.75,0,0,1,88.29,58a4.45,4.45,0,0,1,2.15-.84,4.71,4.71,0,0,1,.53,0,7,7,0,0,1,1.5.19,9.26,9.26,0,0,0,1.8.28h.21a4,4,0,0,0,1.26-.36A23.82,23.82,0,0,0,93.19,63a17.73,17.73,0,0,0-.84,5.11A8.82,8.82,0,0,0,94,73.56c1.63,2.11,4.28,3.1,7.6,3.1h.06A21.15,21.15,0,0,0,114,72.77,17.37,17.37,0,0,0,117,70a7.9,7.9,0,0,0,1.54-2.58,4.14,4.14,0,0,0,.15-1M105.89,55.79A7.15,7.15,0,0,1,110,53.86a6.06,6.06,0,0,1,.7,0,2.37,2.37,0,0,1,2.12.86,3.17,3.17,0,0,1,.46,1.88,8.67,8.67,0,0,1-.14,1.52l-9.71,1.08a11.81,11.81,0,0,1,2.49-3.36M74.91,57l1,.3a11.6,11.6,0,0,0,.54-3.14,4.75,4.75,0,0,0-.1-1,2.22,2.22,0,0,0-1-1.42,3.33,3.33,0,0,0-1.67-.41c-.23,0-.45,0-.68,0a5.48,5.48,0,0,0-3.1,1.47,6.56,6.56,0,0,0-1.55,2.19,6.85,6.85,0,0,0-2.14-1.63,8.22,8.22,0,0,0-3.64-.74,14.81,14.81,0,0,0-1.59.09,15.92,15.92,0,0,0-5,1.44,18.58,18.58,0,0,0-4.54,3.1,20.82,20.82,0,0,0-3.75,4.61,23.26,23.26,0,0,0-2.55,5.82,19.9,19.9,0,0,0-.9,5.6,12.39,12.39,0,0,0,.13,1.87,7.35,7.35,0,0,0,2.91,5.1A7.86,7.86,0,0,0,52,81.64a12.4,12.4,0,0,0,1.47-.08A14.15,14.15,0,0,0,59,79.75,18.6,18.6,0,0,0,61,78.49l-.39,1.12a10.06,10.06,0,0,1-1.38,2.63,6.34,6.34,0,0,1-2.27,1.94A10.49,10.49,0,0,1,53,85.25a9.68,9.68,0,0,1-1.15.07,6.65,6.65,0,0,1-.81,0,2.38,2.38,0,0,1-1-.35,2.52,2.52,0,0,1-.68-.73c-.24-.38-.48-.78-.7-1.18a3.15,3.15,0,0,0-2.77-1.56,3.59,3.59,0,0,0-.47,0,5.36,5.36,0,0,0-2.8,1.23,5.19,5.19,0,0,0-1.77,2.61,4.6,4.6,0,0,0-.19,1.3,4.39,4.39,0,0,0,.9,2.64,7.43,7.43,0,0,0,4.06,2.42,15.2,15.2,0,0,0,3.81.45A22.87,22.87,0,0,0,52,92a27.91,27.91,0,0,0,6.86-1.53,16.74,16.74,0,0,0,5.14-3,17.11,17.11,0,0,0,3.71-4.53,28.56,28.56,0,0,0,2.5-6.08L75.91,57.3ZM64.75,66.25a12.78,12.78,0,0,1-2.07,4.18,10.72,10.72,0,0,1-3,2.73,7.49,7.49,0,0,1-3,1.1,5.58,5.58,0,0,1-.67,0,2.55,2.55,0,0,1-2.37-1.14,3.59,3.59,0,0,1-.43-1.89A12.37,12.37,0,0,1,53.8,68a13.84,13.84,0,0,1,3.32-6,7.67,7.67,0,0,1,4.67-2.41,5.18,5.18,0,0,1,.66,0,2.45,2.45,0,0,1,2.44,1.27,4.13,4.13,0,0,1,.43,2,12.89,12.89,0,0,1-.57,3.4"/><path class="cls-3" d="M128.69,32.84c2.71-3.16,2.94-6.84,1.15-8.3a18.44,18.44,0,0,1-6,5.05c-3.18,1.75-7.88,3.39-10.76,2.95-2,1.21-3.1,2.78-3.11,4.56s2.18,1.9,3.81,1.88a26.91,26.91,0,0,0,7.88-1.63,15.14,15.14,0,0,0,7.06-4.51M111.6,39.77c-6.91,6.6,3.22,6.08,6.84,5.31,4.55-1,9.35-6.14,9.73-10A23.07,23.07,0,0,1,120,38.85c-2.93.85-6,1.38-8.42.91Zm-3.27-28.08c-.29,1.7.74,3.15,1.07,4.52a12.56,12.56,0,0,1-.38,6c-1.17,4.52-4.93,9.53-6.31,14.13-1.57,5.27-1.28,10.92,5.55,8.25-.77-1.11-.45-2.77,2.08-5.19a4.11,4.11,0,0,1-.78-.4c-2-1.3-1-4.69,2.19-6.86a3,3,0,0,1-.3-.18c-1.32-1-1.58-2.48.67-4.75a9,9,0,0,1,1-.82c0-.74.18-1.62-.29-2-.15-.13-.15-.49.25-.68a.85.85,0,0,1,1,.11,2.19,2.19,0,0,1,.51,1.74c2.65-1.24,5.5-1,8.09-2.89.56-.4,1.64.17,1,.59-3.78,2.75-7.36,1.45-11,5.06s1.74,3.43,3.36,3.15a24.39,24.39,0,0,0,6-2c3.37-1.54,8-5,7.76-8.25-.39-5.19-8.66-4.08-14.2-1.29-.51.27-1.44-.26-.9-.65a26.82,26.82,0,0,0,1.82-7.75,3.67,3.67,0,0,0-2.17-3.83c-2.12-.86-5.48,1.08-6,4.09"/><path class="cls-1" d="M42.42,36.55c-4.61,7-11.71,10.39-15.86,7.64s-3.77-10.62.85-17.58S39.1,16.22,43.26,19,47,29.58,42.42,36.55"/><path class="cls-2" d="M23.39,26.76a38.25,38.25,0,0,1,11.66-2c1-.06.8-1.56-.09-1.64-4.21-.44-8.72.19-12.2,2.71-.57.41,0,1.19.63,1"/><path class="cls-2" d="M38.84,25.23C42,25,45,26,48,26.67c1.09.26,1.71-1.33.59-1.67-3.25-1-6.68-1.93-10.08-1.17a.72.72,0,0,0,.29,1.4"/><path class="cls-2" d="M25.28,34.88s-2.75,7.95,3.83,8.6c7.94.79,14.6-11.14,14.6-11.14s-14.3,12.08-18.43,2.54"/></g></g></svg>