<svg xmlns="http://www.w3.org/2000/svg" viewBox="0 0 127.57 27.85"><defs><style>.cls-1{fill:#fff;}</style></defs><title>Asset 5</title><g id="Layer_2" data-name="Layer 2"><g id="Layer_1-2" data-name="Layer 1"><path class="cls-1" d="M109.64,27.85c12.11,0,17.93-4.45,17.93-13.95S121.71,0,109.64,0,91.75,4.41,91.75,13.9c0,7.78,3.91,12.17,12,13.51l.47-.16V26l.74,1,1.18-.4-.72,1,0,0a40.49,40.49,0,0,0,4.26.21M105.58,16.4a10,10,0,0,1-.17-1.89c0-3.64,1.41-5.48,4.23-5.48s4.24,1.84,4.24,5.48c0,3.14-1.29,5-3.42,5.43l3.35,2.44h-4.42L108,26.58l-1.37-4.2h-4.42l3.58-2.6-1.37-4.2ZM124,9.87l.67,1,1.13-.36-.7.95.68,1L124.7,12,124,13V11.77l-1.11-.38L124,11Zm-8.2,4.91.35,1.07h1.12l-.91.66.34,1.06-.9-.66-.91.66.35-1.06-.91-.66h1.12Zm1.8-12.55,1.29,4h4.2l-3.39,2.46,1.29,4-3.39-2.46-3.39,2.46,1.29-4-3.39-2.46h4.19Zm-17,14.66L101,18h1.12l-.9.65.34,1.07-.91-.66-.91.66.36-1.07L99.17,18h1.12Zm.77-8.5,1.43,2,2.35-.74-1.47,2,1.43,2-2.34-.79-1.47,2,0-2.47L99,11.6l2.36-.74Zm19.23,6.08.06,1.12,1.08.29-1,.4,0,1.12-.7-.87-1,.4.61-.94-.7-.87,1.08.29ZM106.81,3.87,106.87,5l1.09.29-1,.4,0,1.13-.71-.88-1,.4.61-.94-.7-.87,1.08.29ZM1.11,27H3l-.65-.92L5.07,27H6.8L9,24l0,3h14.3a1.35,1.35,0,0,0,1.36-1.37V19a1.35,1.35,0,0,0-1.36-1.35h-8.5a1.35,1.35,0,0,1-1.32-1.32V11.57l-2.1.94.28,2.56L10,13.16,7.6,14.22,8.88,12,7.15,10.08l2.52.52L11,8.37l.28,2.56,2.26.48V2.17A1.36,1.36,0,0,0,12.13.81H1.36A1.36,1.36,0,0,0,0,2.17v9l.05,0,1-.63L.6,11.7l.89.73L.34,12.36,0,13.21v3.52l1.12-.07L0,17.6V26a1.38,1.38,0,0,0,1.11,1m11.27-8.9L13.82,20l2.25-.78L14.71,21.2l1.44,1.9-2.28-.69-1.35,1.95L12.46,22l-2.27-.69,2.25-.78ZM3.56,20.51l.56,1,1.13-.23-.78.85.57,1-1-.48-.79.85.14-1.15-1-.48,1.13-.23ZM5.8,15.14V16.3l1.1.37L5.78,17l0,1.16-.66-1L4,17.56l.69-.92L4,15.7l1.09.37Zm13.94,4.77v1.15l1.1.37-1.11.35v1.15L19,22l-1.1.34.69-.92L18,20.47l1.09.37ZM61.27,9.77v.09a1.36,1.36,0,0,0,1.36,1.36H65.2l-1.11-2Zm0-5.65V8.36l1.47-1.58ZM82.69,18.83v-.76l-.26.27ZM70.53,27h4.18l-1-1.44-2.37.72,1.5-2-1.42-2,2.34.81,1.49-2,0,2.48,2.33.81-2.37.71,0,1.89h6.19a1.36,1.36,0,0,0,1.36-1.36V19.2L82,18.84l-.77.8.15-1.1-1-.49,1.1-.19.15-1.11.52,1,.59-.11v-5c0-.07,0-.13,0-.2L81.86,12l-3.13,3.25.62-4.47-4.07-2L79.73,8l.62-4.47,2.13,4,4.44-.79L83.79,10l.68,1.26h4.77A1.36,1.36,0,0,0,90.6,9.86V2.17A1.36,1.36,0,0,0,89.24.81H71L70.6,1.93,70.23.81h-7.6a1.36,1.36,0,0,0-1.36,1.26V3.16l3.37,1.59,3.09-3.31-.55,4.49,4.08,1.91-4.43.85-.31,2.53h1.29a1.36,1.36,0,0,1,1.36,1.36v13.1A1.36,1.36,0,0,0,70.53,27m4.3-24.86.53,1L76.45,3l-.77.81.52,1-1-.49-.77.8L74.58,4l-1-.49,1.1-.19ZM72.43,10,73,11l1.09-.19-.77.8.52,1-1-.49-.77.8.15-1.1-1-.49,1.08-.19Zm2.71,5.17.25,1.09,1.11.09-1,.58L75.79,18,75,17.28l-1,.58.43-1-.84-.73,1.11.1ZM42.81,27.85c12.11,0,17.93-4.45,17.93-13.95S54.88,0,42.81,0,24.92,4.41,24.92,13.9c0,7.78,3.91,12.17,11.95,13.51l.48-.16,0-1.24.74,1,1.18-.4-.72,1,0,0a40.49,40.49,0,0,0,4.26.21M38.76,16.4a9.19,9.19,0,0,1-.18-1.89C38.58,10.87,40,9,42.81,9s4.24,1.84,4.24,5.48c0,3.14-1.29,5-3.42,5.43L47,22.38H42.56l-1.37,4.2-1.36-4.2H35.41L39,19.78l-1.37-4.2ZM57.2,9.87l.69,1L59,10.47l-.7.95.68,1L57.87,12l-.7.95V11.77l-1.12-.38L57.19,11ZM49,14.78l.35,1.07h1.12l-.91.66.35,1.06L49,16.91l-.91.66.35-1.06-.91-.66h1.12Zm1.8-12.55,1.3,4h4.18L52.9,8.68l1.3,4-3.39-2.46-3.39,2.46,1.29-4L45.32,6.22h4.19Zm-17,14.66L34.15,18h1.13l-.92.65.35,1.07L33.8,19l-.9.66.35-1.07L32.34,18h1.11Zm.77-8.5,1.43,2,2.36-.74-1.48,2,1.43,2L36,12.88l-1.48,2,0-2.47-2.34-.79,2.36-.74ZM53.8,14.47l.06,1.12,1.08.29-1,.4L54,17.4l-.72-.87-1,.4.61-.94-.7-.87,1.08.29ZM40,3.87,40,5l1.08.29-1,.4.05,1.13-.71-.88-1,.4L39,5.39l-.71-.87,1.09.29Z"/></g></g></svg>