<?xml version="1.0" encoding="utf-8"?>
<!-- Generator: Adobe Illustrator 25.0.1, SVG Export Plug-In . SVG Version: 6.00 Build 0)  -->
<svg version="1.1" id="Layer_1" xmlns="http://www.w3.org/2000/svg" xmlns:xlink="http://www.w3.org/1999/xlink" x="0px" y="0px"
	 viewBox="0 0 97.4 62" enable-background="new 0 0 97.4 62" xml:space="preserve">
<path fill="#A73BEC" d="M95.9,46c-1-1.5-3-1.9-4.5-0.9l-15.1,9.9H57.6v-6.1h19.7c0.7,0,1.3-0.2,1.9-0.6l15.9-11.5
	c1.5-1,1.8-3.1,0.7-4.5c-1-1.5-3.1-1.8-4.5-0.7L76.2,42.3H57.6v-6.2h19.7c0.7,0,1.4-0.2,2-0.7l15.9-12.5c1.4-1.1,1.6-3.2,0.5-4.6
	c-1.1-1.4-3.2-1.6-4.6-0.5l-15,11.9H57.6v-6.1h19.7c0.8,0,1.6-0.3,2.2-0.9L95.4,8.1c1-0.9,1.3-2.3,0.8-3.6c-0.5-1.2-1.7-2.1-3-2.1
	H74.3c-0.5-1.1-1.7-1.8-2.9-1.8H43.1c-0.8,0-1.6,0.3-2.2,0.9l-1,1H20.1c-0.8,0-1.6,0.3-2.2,0.9L2,18c-1,0.9-1.3,2.3-0.8,3.6
	c0.5,1.2,1.7,2.1,3,2.1h18.5v6.1H4.2c-1.8,0-3.2,1.5-3.2,3.2c0,1.8,1.5,3.2,3.2,3.2h18.5v6.2H4.2c-1.8,0-3.2,1.5-3.2,3.2
	s1.5,3.2,3.2,3.2h18.5v6.1H4.2c-1.8,0-3.2,1.5-3.2,3.2c0,1.8,1.5,3.2,3.2,3.2h73c0.6,0,1.2-0.2,1.8-0.5l15.9-10.4
	C96.4,49.5,96.9,47.5,95.9,46z M76,17.1H61.9l8.8-8.2h14.2L76,17.1z M21.4,8.9h11.4L24,17.1H12.5L21.4,8.9z M29.2,21.1L44.3,7.1
	h18.8L52.1,17.4c-0.7,0.6-1,1.5-1,2.4v35.2H29.2V21.1z"/>
</svg>
