<?xml version="1.0" encoding="utf-8"?>
<!-- Generator: Adobe Illustrator 25.0.1, SVG Export Plug-In . SVG Version: 6.00 Build 0)  -->
<svg version="1.1" id="Layer_1" xmlns="http://www.w3.org/2000/svg" xmlns:xlink="http://www.w3.org/1999/xlink" x="0px" y="0px"
	 viewBox="0 0 69.5 67.5" enable-background="new 0 0 69.5 67.5" xml:space="preserve">
<g>
	<path fill="#F01B2B" d="M66.5,7.3h-7.8V3.1c0-1.4-1.1-2.5-2.5-2.5H48c-1.4,0-2.5,1.1-2.5,2.5v4.2L24.3,7.4V3.1
		c0-1.4-1.1-2.5-2.5-2.5h-8.1c-1.4,0-2.5,1.1-2.5,2.5v4.2H3.2c-1.4,0-2.5,1.1-2.5,2.5v54.4c0,1.4,1.1,2.5,2.5,2.5h63.3
		c1.4,0,2.5-1.1,2.5-2.5V9.8C69,8.4,67.9,7.3,66.5,7.3z M50.5,5.6h3.1V14h-3.1V5.6z M16.1,5.6h3.1V14h-3.1V5.6z M11.1,12.3v4.2
		c0,1.4,1.1,2.5,2.5,2.5h8.1c1.4,0,2.5-1.1,2.5-2.5v-4l21.2-0.1v4.2c0,1.4,1.1,2.5,2.5,2.5h8.1c1.4,0,2.5-1.1,2.5-2.5v-4.2h5.3v11.8
		H5.7V12.3H11.1z M5.7,61.7V29.2h58.2v32.5H5.7z"/>
	<path fill="#F01B2B" d="M47.9,33.3L30.5,49.9l-8.7-8.7c-1-1-2.6-1-3.6,0c-1,1-1,2.6,0,3.6l10.4,10.4c0.5,0.5,1.1,0.7,1.8,0.7
		c0.6,0,1.3-0.2,1.7-0.7L51.3,37c1-1,1-2.6,0.1-3.6C50.5,32.4,48.9,32.4,47.9,33.3z"/>
</g>
</svg>
