<?xml version="1.0" encoding="utf-8"?>
<!-- Generator: Adobe Illustrator 25.0.1, SVG Export Plug-In . SVG Version: 6.00 Build 0)  -->
<svg version="1.1" id="Layer_1" xmlns="http://www.w3.org/2000/svg" xmlns:xlink="http://www.w3.org/1999/xlink" x="0px" y="0px"
	 viewBox="0 0 72.9 67.5" enable-background="new 0 0 72.9 67.5" xml:space="preserve">
<g>
	<path fill="#00519D" d="M63.9,0.3L63.9,0.3h-45c-4.5,0-8.2,3.6-8.2,8.1l-0.3,39.9H2.8c-1.2,0-2.2,1-2.2,2.2V56
		c0,5.7,4.5,10.4,10.2,10.7v0h0.4c0,0,0,0,0,0v0h37.5v0c0.2,0,0.3,0,0.5,0c5.9,0,10.7-4.8,10.7-10.7v-35h10.3c1.2,0,2.2-1,2.2-2.2
		v-10C72.4,4.2,68.6,0.3,63.9,0.3z M5,56v-3.2h33.6V56c0,2.3,0.7,4.4,2,6.2H11.2C7.8,62.2,5,59.5,5,56z M55.4,56
		c0,3.4-2.8,6.2-6.2,6.2c-3.4,0-6.2-2.8-6.2-6.2v-5.4c0-1.2-1-2.2-2.2-2.2H14.9l0.3-39.9c0-2,1.7-3.7,3.7-3.7h37.5
		c-0.6,1.2-1,2.6-1,4V56z M59.9,16.6V8.8c0-2.2,1.8-4,4-4c2.2,0,4,1.8,4,4v7.8H59.9z"/>
	<path fill="#00519D" d="M22.2,17.3h11.6c1.2,0,2.2-1,2.2-2.2s-1-2.2-2.2-2.2H22.2c-1.2,0-2.2,1-2.2,2.2S21,17.3,22.2,17.3z"/>
	<path fill="#00519D" d="M47.2,21.7h-25c-1.2,0-2.2,1-2.2,2.2s1,2.2,2.2,2.2h25c1.2,0,2.2-1,2.2-2.2S48.4,21.7,47.2,21.7z"/>
	<path fill="#00519D" d="M47.2,30.7h-25c-1.2,0-2.2,1-2.2,2.2c0,1.2,1,2.2,2.2,2.2h25c1.2,0,2.2-1,2.2-2.2
		C49.4,31.7,48.4,30.7,47.2,30.7z"/>
	<path fill="#00519D" d="M47.2,39.6h-25c-1.2,0-2.2,1-2.2,2.2c0,1.2,1,2.2,2.2,2.2h25c1.2,0,2.2-1,2.2-2.2
		C49.4,40.6,48.4,39.6,47.2,39.6z"/>
</g>
</svg>
