<?xml version="1.0" encoding="utf-8"?>
<!-- Generator: Adobe Illustrator 25.0.1, SVG Export Plug-In . SVG Version: 6.00 Build 0)  -->
<svg version="1.1" id="Layer_1" xmlns="http://www.w3.org/2000/svg" xmlns:xlink="http://www.w3.org/1999/xlink" x="0px" y="0px"
	 viewBox="0 0 62.8 59.3" enable-background="new 0 0 62.8 59.3" xml:space="preserve">
<g>
	<g>
		<path fill="#152238" d="M46.7,8.2l1.5,3.8c0.3,0.8,0.9,1.4,1.7,1.7l3.8,1.5c0.6,0.3,0.6,1.2,0,1.4l-3.8,1.5
			c-0.8,0.3-1.4,0.9-1.7,1.7l-1.5,3.8c-0.3,0.6-1.2,0.6-1.4,0l-1.5-3.8c-0.3-0.8-0.9-1.4-1.7-1.7l-3.8-1.5c-0.6-0.3-0.6-1.2,0-1.4
			l3.8-1.5c0.8-0.3,1.4-0.9,1.7-1.7l1.5-3.8C45.5,7.5,46.4,7.5,46.7,8.2z"/>
		<circle fill="#152238" cx="61.2" cy="11.2" r="1.1"/>
		<circle fill="#152238" cx="39.3" cy="30.9" r="1.9"/>
		<circle fill="#152238" cx="33.9" cy="2.8" r="2.3"/>
	</g>
	<rect x="0.6" y="31.9" fill="#152238" width="10.5" height="26.6"/>
	<rect x="18" y="16.7" fill="#152238" width="10.5" height="41.9"/>
	<rect x="34.1" y="43.4" fill="#152238" width="10.5" height="15.1"/>
</g>
</svg>
