<?xml version="1.0" encoding="utf-8"?>
<!-- Generator: Adobe Illustrator 25.0.1, SVG Export Plug-In . SVG Version: 6.00 Build 0)  -->
<svg version="1.1" id="Layer_1" xmlns="http://www.w3.org/2000/svg" xmlns:xlink="http://www.w3.org/1999/xlink" x="0px" y="0px"
	 viewBox="0 0 88.6 93.1" enable-background="new 0 0 88.6 93.1" xml:space="preserve">
<g>
	<path fill="#A73BEC" d="M43.5,22.4L47.8,33c0.9,2.2,2.7,4,4.9,4.9l10.6,4.3c1.8,0.7,1.8,3.2,0,4l-10.6,4.3c-2.2,0.9-4,2.7-4.9,4.9
		L43.5,66c-0.7,1.8-3.2,1.8-4,0l-4.3-10.6c-0.9-2.2-2.7-4-4.9-4.9l-10.6-4.3c-1.8-0.7-1.8-3.2,0-4l10.6-4.3c2.2-0.9,4-2.7,4.9-4.9
		l4.3-10.6C40.3,20.6,42.8,20.6,43.5,22.4z"/>
	<circle fill="#33D970" cx="84.5" cy="30.9" r="3.1"/>
	<circle fill="#E51B2B" cx="22.6" cy="86.3" r="5.4"/>
	<circle fill="#FAD62A" cx="7.6" cy="7.4" r="6.6"/>
</g>
</svg>
