<?xml version="1.0" encoding="utf-8"?>
<!-- Generator: Adobe Illustrator 25.0.1, SVG Export Plug-In . SVG Version: 6.00 Build 0)  -->
<svg version="1.1" id="Layer_1" xmlns="http://www.w3.org/2000/svg" xmlns:xlink="http://www.w3.org/1999/xlink" x="0px" y="0px"
	 viewBox="0 0 92.4 93.5" enable-background="new 0 0 92.4 93.5" xml:space="preserve">
<g>
	<path fill="#FFFFFF" d="M90,80.4H66.1l-4.5-9.3C74,65.3,82.7,52.6,82.7,38c0-20.1-16.4-36.5-36.5-36.5S9.6,17.9,9.6,38
		c0,14.6,8.6,27.3,21.1,33.1l-4.5,9.3H2.3c-0.8,0-1.5,0.7-1.5,1.5v8.8c0,0.8,0.7,1.5,1.5,1.5H90c0.8,0,1.5-0.7,1.5-1.5v-8.8
		C91.4,81,90.8,80.4,90,80.4z M12.5,38c0-18.5,15.1-33.6,33.6-33.6S79.7,19.5,79.7,38c0,13.5-8,25.1-19.4,30.5L59,65.8
		C69.5,60.9,76.8,50.3,76.8,38c0-16.9-13.7-30.7-30.7-30.7S15.5,21.1,15.5,38c0,12.3,7.3,22.9,17.8,27.8L32,68.5
		C20.5,63.1,12.5,51.5,12.5,38z M46.1,45.7l3.4,7c-1.2,1.1-1.9,2.6-1.9,4.3c0,3.2,2.6,5.8,5.8,5.8c0.3,0,0.6,0,0.9-0.1l0.7,1.5
		c-2.8,1-5.8,1.5-8.9,1.5c-3.1,0-6.1-0.5-8.9-1.5L46.1,45.7z M43.2,38c0-1.6,1.3-2.9,2.9-2.9c1.6,0,2.9,1.3,2.9,2.9
		s-1.3,2.9-2.9,2.9C44.5,40.9,43.2,39.6,43.2,38z M50.5,57c0-0.5,0.1-1,0.4-1.4l2,4.3C51.6,59.6,50.5,58.4,50.5,57z M53.4,54.1
		L53.4,54.1c1.7,0,3,1.3,3,2.9c0,0.7-0.3,1.3-0.7,1.9L53.4,54.1z M46.1,68.7c3.6,0,7-0.6,10.2-1.8l1.3,2.7c-3.6,1.3-7.4,2-11.5,2
		s-7.9-0.7-11.5-2l1.3-2.7C39.2,68,42.6,68.7,46.1,68.7z M57,61.6c1.4-1.1,2.3-2.7,2.3-4.6c0-3.2-2.6-5.8-5.8-5.8
		c-0.5,0-0.9,0.1-1.4,0.2l-3.8-7.9c2.2-0.9,3.7-3,3.7-5.4c0-3.2-2.6-5.8-5.8-5.8s-5.8,2.6-5.8,5.8c0,2.5,1.5,4.6,3.7,5.4l-9.6,19.7
		C25,58.8,18.4,49.2,18.4,38c0-15.3,12.5-27.8,27.8-27.8S74,22.7,74,38c0,11.1-6.6,20.8-16.1,25.2L57,61.6z M33.4,72.2
		c4,1.5,8.3,2.3,12.7,2.3s8.8-0.8,12.7-2.3l3.9,8.1H29.5L33.4,72.2z M88.5,89.1H3.8v-5.8h84.7V89.1z"/>
	<path fill="#FFFFFF" d="M31.5,43.8c-3.2,0-5.8,2.6-5.8,5.8s2.6,5.8,5.8,5.8s5.8-2.6,5.8-5.8C37.4,46.5,34.8,43.8,31.5,43.8z
		 M31.5,52.6c-1.6,0-2.9-1.3-2.9-2.9c0-1.6,1.3-2.9,2.9-2.9c1.6,0,2.9,1.3,2.9,2.9C34.5,51.3,33.1,52.6,31.5,52.6z"/>
	<path fill="#FFFFFF" d="M33,36.5c0-3.2-2.6-5.8-5.8-5.8s-5.8,2.6-5.8,5.8s2.6,5.8,5.8,5.8S33,39.7,33,36.5z M24.2,36.5
		c0-1.6,1.3-2.9,2.9-2.9s2.9,1.3,2.9,2.9s-1.3,2.9-2.9,2.9S24.2,38.1,24.2,36.5z"/>
	<path fill="#FFFFFF" d="M63.7,52.6c3.2,0,5.8-2.6,5.8-5.8S66.9,41,63.7,41c-3.2,0-5.8,2.6-5.8,5.8S60.4,52.6,63.7,52.6z M63.7,43.8
		c1.6,0,2.9,1.3,2.9,2.9c0,1.6-1.3,2.9-2.9,2.9c-1.6,0-2.9-1.3-2.9-2.9C60.8,45.1,62.1,43.8,63.7,43.8z"/>
	<path fill="#FFFFFF" d="M65.1,39.4c3.2,0,5.8-2.6,5.8-5.8s-2.6-5.8-5.8-5.8s-5.8,2.6-5.8,5.8S61.9,39.4,65.1,39.4z M65.1,30.7
		c1.6,0,2.9,1.3,2.9,2.9s-1.3,2.9-2.9,2.9c-1.6,0-2.9-1.3-2.9-2.9S63.5,30.7,65.1,30.7z"/>
	<path fill="#FFFFFF" d="M88.5,38h2.9c0-14.4-6.6-27.6-18.1-36.2l-1.8,2.3C82.3,12.2,88.5,24.5,88.5,38z"/>
	<path fill="#FFFFFF" d="M20.7,4.1l-1.8-2.3C7.5,10.4,0.9,23.6,0.9,38h2.9C3.8,24.5,10,12.2,20.7,4.1z"/>
</g>
</svg>
