<?xml version="1.0" encoding="utf-8"?>
<!-- Generator: Adobe Illustrator 25.0.1, SVG Export Plug-In . SVG Version: 6.00 Build 0)  -->
<svg version="1.1" id="Layer_1" xmlns="http://www.w3.org/2000/svg" xmlns:xlink="http://www.w3.org/1999/xlink" x="0px" y="0px"
	 viewBox="0 0 118.1 88.4" enable-background="new 0 0 118.1 88.4" xml:space="preserve">
<g>
	<path fill="none" stroke="#FFFFFF" stroke-width="3.2847" stroke-miterlimit="10" d="M19.3,56.2l13.9,29.3h51.6l13.9-29.3
		c1.4,0.5,2.9,0.9,4.5,0.9c6.8,0,12.3-5.5,12.3-12.3s-5.5-12.3-12.3-12.3S90.9,38,90.9,44.8c0,1.6,0.3,3.1,0.9,4.5l-17.1,8.1
		L64.1,27.6c4.1-2,7-6.2,7-11.1c0-6.8-5.5-12.3-12.3-12.3S46.5,9.7,46.5,16.5c0,5.1,3.1,9.5,7.5,11.3L43.4,57.4l-17.1-8.1
		c0.5-1.4,0.9-2.9,0.9-4.5c0-6.8-5.5-12.3-12.3-12.3S2.5,38,2.5,44.8S8,57.1,14.8,57.1C16.4,57.1,17.9,56.8,19.3,56.2z"/>
	<g>
		<path fill="none" stroke="#FFFFFF" stroke-width="2.3609" stroke-miterlimit="10" d="M34.6,17.7l-4.2,1.7c-0.9,0.4-1.6,1-1.9,1.9
			l-1.7,4.2c-0.3,0.7-1.3,0.7-1.6,0l-1.6-4.2c-0.4-0.9-1-1.6-1.9-1.9l-4.2-1.7c-0.7-0.3-0.7-1.3,0-1.6l4.2-1.7
			c0.9-0.4,1.6-1,1.9-1.9l1.7-4.2c0.3-0.7,1.3-0.7,1.6,0l1.7,4.2c0.4,0.9,1,1.6,1.9,1.9l4.2,1.7C35.3,16.4,35.3,17.4,34.6,17.7z"/>
		<circle fill="#FFFFFF" cx="34.6" cy="31.5" r="1.2"/>
		<circle fill="#FFFFFF" cx="9.4" cy="9.5" r="2.1"/>
		<circle fill="#FFFFFF" cx="40.5" cy="3.6" r="2.6"/>
	</g>
</g>
</svg>
