<?xml version="1.0" encoding="utf-8"?>
<!-- Generator: Adobe Illustrator 25.0.1, SVG Export Plug-In . SVG Version: 6.00 Build 0)  -->
<svg version="1.1" id="Layer_1" xmlns="http://www.w3.org/2000/svg" xmlns:xlink="http://www.w3.org/1999/xlink" x="0px" y="0px"
	 viewBox="0 0 91.7 92.4" enable-background="new 0 0 91.7 92.4" xml:space="preserve">
<path fill="#FFFFFF" d="M85.3,62.9L85.3,62.9L85.3,62.9c-0.4-0.3-0.6-0.5-0.9-0.8c-0.1-0.1-0.2-0.2-0.4-0.3
	c-0.3-0.2-0.6-0.4-0.9-0.6C83,61.1,82.8,61,82.7,61c-0.3-0.2-0.6-0.3-0.9-0.5c-0.1-0.1-0.3-0.1-0.5-0.2c-0.3-0.1-0.6-0.3-0.9-0.4
	c-0.2-0.1-0.3-0.1-0.5-0.2c-0.3-0.1-0.6-0.2-0.9-0.3c-0.2-0.1-0.4-0.1-0.6-0.2c-0.3-0.1-0.5-0.1-0.8-0.2s-0.6-0.1-0.8-0.1
	c-0.2,0-0.4-0.1-0.7-0.1c-0.5-0.1-1-0.1-1.5-0.1s-1,0-1.5,0.1c-0.2,0-0.4,0.1-0.7,0.1c-0.3,0-0.6,0.1-0.8,0.1
	c-0.3,0.1-0.5,0.1-0.8,0.2c-0.2,0.1-0.4,0.1-0.6,0.2c-0.3,0.1-0.6,0.2-0.9,0.3c-0.1,0-0.2,0.1-0.3,0.1c0.2-0.2,0.5-0.3,0.7-0.5
	c0.1-0.1,0.2-0.2,0.4-0.3c0.3-0.2,0.6-0.4,0.8-0.7l0.1-0.1l0,0c3.5-3.1,5.5-7.5,5.5-12.1s-2-9-5.5-12.1l0,0l-0.1-0.1
	c-0.3-0.2-0.5-0.4-0.8-0.7c-0.1-0.1-0.2-0.2-0.4-0.3c-0.3-0.2-0.6-0.4-0.9-0.6c-0.1-0.1-0.3-0.2-0.4-0.2c-0.3-0.2-0.6-0.3-0.9-0.5
	c-0.1-0.1-0.3-0.1-0.5-0.2c-0.3-0.1-0.6-0.3-0.9-0.4c-0.2-0.1-0.3-0.1-0.5-0.2c-0.3-0.1-0.6-0.2-0.9-0.3c-0.2-0.1-0.4-0.1-0.6-0.2
	c-0.3-0.1-0.5-0.1-0.8-0.2C63,30,62.7,30,62.5,30c-0.2,0-0.4-0.1-0.7-0.1c-0.5-0.1-1-0.1-1.5-0.1s-1,0-1.5,0.1
	c-0.2,0-0.4,0.1-0.7,0.1s-0.6,0.1-0.8,0.1c-0.3,0.1-0.5,0.1-0.8,0.2c-0.2,0.1-0.4,0.1-0.6,0.2c-0.3,0.1-0.6,0.2-0.9,0.3
	c-0.2,0.1-0.3,0.1-0.5,0.2c-0.3,0.1-0.6,0.2-0.9,0.4c-0.2,0.1-0.3,0.1-0.5,0.2c-0.3,0.2-0.6,0.3-0.9,0.5c-0.1,0.1-0.3,0.2-0.4,0.2
	c-0.3,0.2-0.6,0.4-0.9,0.6c-0.1,0.1-0.2,0.2-0.4,0.3c-0.3,0.2-0.6,0.4-0.8,0.7L49.6,34l0,0c-1.5,1.3-2.7,2.9-3.7,4.7
	c-0.1-0.3-0.3-0.5-0.4-0.7c-0.1-0.1-0.2-0.3-0.3-0.4c-0.2-0.3-0.4-0.6-0.6-0.9c-0.1-0.1-0.2-0.2-0.3-0.4c-0.2-0.3-0.4-0.6-0.7-0.8
	l-0.1-0.1l0,0c-0.9-1-1.8-1.8-2.9-2.6h0.2c0.2,0.1,0.4,0.1,0.6,0.2c0.3,0.1,0.5,0.1,0.8,0.2c0.3,0.1,0.6,0.1,0.8,0.1
	s0.4,0.1,0.7,0.1c0.5,0.1,1,0.1,1.5,0.1s1,0,1.5-0.1c0.2,0,0.4-0.1,0.7-0.1s0.6-0.1,0.8-0.1c0.3-0.1,0.6-0.1,0.8-0.2
	c0.2-0.1,0.4-0.1,0.6-0.2c0.3-0.1,0.6-0.2,0.9-0.3c0.2-0.1,0.4-0.1,0.5-0.2c0.3-0.1,0.6-0.2,0.9-0.4c0.2-0.1,0.3-0.1,0.5-0.2
	c0.3-0.2,0.6-0.3,0.9-0.5c0.1-0.1,0.3-0.2,0.4-0.2c0.3-0.2,0.6-0.4,0.9-0.6c0.1-0.1,0.2-0.2,0.4-0.3c0.3-0.2,0.6-0.4,0.8-0.7
	l0.1-0.1l0,0c3.5-3.1,5.5-7.5,5.5-12.1s-2-9-5.5-12.1l0,0L55.8,5c-0.3-0.2-0.5-0.4-0.8-0.7c-0.1-0.1-0.2-0.2-0.4-0.3
	c-0.3-0.2-0.6-0.4-0.9-0.6c-0.1-0.1-0.3-0.2-0.4-0.3c-0.3-0.2-0.6-0.3-0.9-0.5c-0.2-0.1-0.3-0.1-0.5-0.2C51.6,2.3,51.3,2.1,51,2
	c-0.2-0.1-0.3-0.1-0.5-0.2c-0.3-0.1-0.6-0.2-0.9-0.3c-0.2-0.1-0.4-0.1-0.6-0.2c-0.3-0.1-0.5-0.1-0.8-0.2C47.9,1,47.6,1,47.4,1
	S47,0.9,46.7,0.9c-0.5,0-1-0.1-1.5-0.1s-1,0-1.5,0.1C43.5,0.9,43.3,1,43,1s-0.6,0.1-0.8,0.1c-0.3,0.1-0.5,0.1-0.8,0.2
	c-0.2,0.1-0.4,0.1-0.6,0.2c-0.3,0.1-0.6,0.2-0.9,0.3c-0.2,0.1-0.3,0.1-0.5,0.2c-0.3,0.1-0.6,0.2-0.9,0.4c-0.2,0.1-0.3,0.1-0.5,0.2
	c-0.3,0.2-0.6,0.3-0.9,0.5c-0.1,0.1-0.3,0.2-0.4,0.2c-0.3,0.2-0.6,0.4-0.9,0.6c-0.1,0.1-0.2,0.2-0.4,0.3c-0.3,0.2-0.6,0.4-0.8,0.7
	L34.5,5l0,0c-3.3,3.5-5.3,7.9-5.3,12.5s2,9,5.5,12.1l0,0l0.1,0.1c0.3,0.2,0.5,0.4,0.8,0.7c0.1,0.1,0.2,0.2,0.4,0.3
	c0.1,0,0.1,0.1,0.2,0.1c-6-1.8-12.6,0-16.7,4.8l0,0l-0.1,0.1c-0.2,0.3-0.4,0.5-0.7,0.8c-0.1,0.1-0.2,0.2-0.3,0.4
	c-0.2,0.3-0.4,0.6-0.6,0.9c-0.1,0.1-0.2,0.3-0.2,0.4c-0.2,0.3-0.3,0.6-0.5,0.9c-0.1,0.2-0.1,0.3-0.2,0.5c-0.1,0.3-0.3,0.6-0.4,0.9
	c-0.1,0.2-0.1,0.3-0.2,0.5c-0.1,0.3-0.2,0.6-0.3,0.9c-0.1,0.2-0.1,0.4-0.2,0.6c-0.1,0.3-0.1,0.5-0.2,0.8s-0.1,0.6-0.1,0.8
	s-0.1,0.4-0.1,0.7c-0.1,0.5-0.1,1-0.1,1.5s0,1,0.1,1.5c0,0.2,0.1,0.4,0.1,0.7s0.1,0.6,0.1,0.8c0.1,0.3,0.1,0.5,0.2,0.8
	c0.1,0.2,0.1,0.4,0.2,0.6c0.1,0.3,0.2,0.6,0.3,0.9c0.1,0.2,0.1,0.4,0.2,0.5c0.1,0.3,0.2,0.6,0.4,0.9c0.1,0.2,0.1,0.3,0.2,0.5
	c0.2,0.3,0.3,0.6,0.5,0.9c0.1,0.1,0.2,0.3,0.2,0.4c0.2,0.3,0.4,0.6,0.6,0.9c0.1,0.1,0.2,0.2,0.3,0.4c0.2,0.3,0.4,0.6,0.7,0.8
	l0.1,0.1l0,0c1,1.1,2.1,2.1,3.4,2.9c-0.1,0-0.2-0.1-0.3-0.1c-0.3-0.1-0.6-0.2-0.9-0.3c-0.2-0.1-0.4-0.1-0.6-0.2
	c-0.3-0.1-0.5-0.1-0.8-0.2S19.7,59,19.5,59c-0.2,0-0.4-0.1-0.7-0.1c-0.5-0.1-1-0.1-1.5-0.1s-1,0-1.5,0.1c-0.2,0-0.4,0.1-0.7,0.1
	c-0.3,0-0.6,0.1-0.8,0.1c-0.3,0.1-0.5,0.1-0.8,0.2c-0.2,0.1-0.4,0.1-0.6,0.2c-0.3,0.1-0.6,0.2-0.9,0.3c-0.2,0.1-0.3,0.1-0.5,0.2
	c-0.3,0.1-0.6,0.2-0.9,0.4c-0.2,0.1-0.3,0.1-0.5,0.2c-0.3,0.2-0.6,0.3-0.9,0.5c-0.1,0.1-0.3,0.2-0.4,0.2c-0.3,0.2-0.6,0.4-0.9,0.6
	c-0.1,0.1-0.2,0.2-0.4,0.3c-0.3,0.2-0.6,0.4-0.8,0.7L6.6,63l0,0c-3.5,3.1-5.5,7.5-5.5,12.1s2,9,5.5,12.1l0,0l0.1,0.1
	C7,87.5,7.2,87.7,7.5,88c0.1,0.1,0.2,0.2,0.4,0.3c0.3,0.2,0.6,0.4,0.9,0.6c0.1,0.1,0.3,0.2,0.4,0.2c0.3,0.2,0.6,0.3,0.9,0.5
	c0.2,0.1,0.3,0.1,0.5,0.2c0.3,0.1,0.6,0.3,0.9,0.4c0.2,0.1,0.3,0.1,0.5,0.2c0.3,0.1,0.6,0.2,0.9,0.3c0.2,0.1,0.4,0.1,0.6,0.2
	c0.3,0.1,0.5,0.1,0.8,0.2c0.3,0.1,0.6,0.1,0.8,0.1c0.2,0,0.4,0.1,0.7,0.1c0.5,0.1,1,0.1,1.5,0.1s1,0,1.5-0.1c0.2,0,0.4-0.1,0.7-0.1
	c0.3,0,0.6-0.1,0.8-0.1c0.3-0.1,0.5-0.1,0.8-0.2c0.2-0.1,0.4-0.1,0.6-0.2c0.3-0.1,0.6-0.2,0.9-0.3c0.2-0.1,0.4-0.1,0.5-0.2
	c0.3-0.1,0.6-0.2,0.9-0.4c0.2-0.1,0.3-0.1,0.5-0.2c0.3-0.2,0.6-0.3,0.9-0.5c0.1-0.1,0.3-0.2,0.4-0.2c0.3-0.2,0.6-0.4,0.9-0.6
	c0.1-0.1,0.2-0.2,0.4-0.3c0.3-0.2,0.6-0.4,0.8-0.7l0.1-0.1l0,0c1.5-1.3,2.7-2.9,3.7-4.7c0.1,0.3,0.3,0.5,0.4,0.7
	c0.1,0.1,0.2,0.3,0.2,0.4c0.2,0.3,0.4,0.6,0.6,0.9c0.1,0.1,0.2,0.2,0.3,0.4c0.2,0.3,0.4,0.6,0.7,0.8l0.1,0.1l0,0
	c3.1,3.5,7.5,5.5,12.1,5.5s9-2,12.1-5.5l0,0l0.1-0.1c0.2-0.3,0.4-0.5,0.7-0.8c0.1-0.1,0.2-0.2,0.3-0.4c0.2-0.3,0.4-0.6,0.6-0.9
	c0.1-0.1,0.2-0.3,0.2-0.4c0.1-0.2,0.3-0.5,0.4-0.7c0.9,1.8,2.2,3.4,3.7,4.7l0,0l0.1,0.1c0.3,0.2,0.5,0.4,0.8,0.7
	c0.1,0.1,0.2,0.2,0.4,0.3c0.3,0.2,0.6,0.4,0.9,0.6c0.1,0.1,0.3,0.2,0.4,0.2c0.3,0.2,0.6,0.3,0.9,0.5c0.2,0.1,0.3,0.1,0.5,0.2
	c0.3,0.1,0.6,0.3,0.9,0.4c0.2,0.1,0.3,0.1,0.5,0.2c0.3,0.1,0.6,0.2,0.9,0.3c0.2,0.1,0.4,0.1,0.6,0.2c0.3,0.1,0.5,0.1,0.8,0.2
	s0.6,0.1,0.8,0.1c0.2,0,0.4,0.1,0.7,0.1c0.5,0.1,1,0.1,1.5,0.1s1,0,1.5-0.1c0.2,0,0.4-0.1,0.7-0.1c0.3,0,0.6-0.1,0.8-0.1
	c0.3-0.1,0.5-0.1,0.8-0.2c0.2-0.1,0.4-0.1,0.6-0.2c0.3-0.1,0.6-0.2,0.9-0.3c0.2-0.1,0.4-0.1,0.5-0.2c0.3-0.1,0.6-0.2,0.9-0.4
	c0.2-0.1,0.3-0.1,0.5-0.2c0.3-0.2,0.6-0.3,0.9-0.5c0.1-0.1,0.3-0.2,0.4-0.2c0.3-0.2,0.6-0.4,0.9-0.6c0.1-0.1,0.2-0.2,0.4-0.3
	c0.3-0.2,0.6-0.4,0.8-0.7l0.1-0.1l0,0c3.5-3.1,5.5-7.5,5.5-12.1C90.8,70.4,88.8,66,85.3,62.9L85.3,62.9z M20.7,52.7L20.7,52.7
	c-0.6-1-1-2-1.3-3c0-0.1,0-0.2-0.1-0.3c-0.1-0.4-0.2-0.8-0.3-1.3c0-0.1,0-0.2-0.1-0.4c-0.1-1-0.1-2.1,0-3.1c0-0.1,0-0.3,0.1-0.4
	c0.1-0.4,0.2-0.8,0.3-1.3c0-0.1,0-0.2,0.1-0.3c0.3-1,0.7-2,1.3-2.9v-0.1C23.1,43.8,23.1,48.7,20.7,52.7z M81,64.2L81,64.2
	c-3.9,2.4-8.8,2.4-12.8,0h0.1C72.2,61.9,77,61.9,81,64.2L81,64.2z M53.8,35.4c3.9-2.3,8.8-2.3,12.8,0h0.1
	C62.7,37.8,57.7,37.8,53.8,35.4L53.8,35.4z M49.4,44.5h-1.7c0.4-2.5,1.4-4.7,3.1-6.6c5.6,4,13.1,4,18.7,0c1.7,1.8,2.7,4.1,3.1,6.6
	h-1.7c-1,0-1.8,0.8-1.8,1.8s0.8,1.8,1.8,1.8h1.7c-0.4,2.5-1.4,4.7-3.1,6.6c-5.6-4-13.1-4-18.7,0c-1.7-1.8-2.7-4.1-3.1-6.6h1.7
	c1,0,1.8-0.8,1.8-1.8C51.2,45.3,50.4,44.5,49.4,44.5z M66.7,57L66.7,57c-4,2.3-8.9,2.3-12.8,0h-0.1C57.7,54.7,62.7,54.7,66.7,57z
	 M44.6,55.6c0.2-0.3,0.4-0.6,0.6-0.9c0.1-0.1,0.2-0.3,0.3-0.4c0.1-0.2,0.3-0.5,0.4-0.7c0.9,1.8,2.2,3.4,3.7,4.7l0,0l0.1,0.1
	c0.3,0.2,0.5,0.4,0.8,0.7c0.1,0.1,0.2,0.2,0.4,0.3c0.2,0.2,0.5,0.3,0.7,0.5c-3.7-1.4-7.8-1.4-11.5,0c1.3-0.8,2.4-1.8,3.5-2.9l0,0
	l0.1-0.1c0.2-0.3,0.4-0.5,0.7-0.8C44.4,55.9,44.5,55.8,44.6,55.6L44.6,55.6z M42.2,39.8L42.2,39.8c0.6,1,1,2,1.3,3
	c0,0.1,0,0.2,0.1,0.3c0.1,0.4,0.2,0.8,0.3,1.3c0,0.1,0,0.2,0.1,0.4c0.1,1,0.1,2.1,0,3.1c0,0.1,0,0.2-0.1,0.4
	c-0.1,0.4-0.2,0.8-0.3,1.3c0,0.1,0,0.2-0.1,0.3c-0.3,1-0.7,2-1.3,2.9v0.1C39.9,48.7,39.9,43.8,42.2,39.8z M51.7,28.3
	c-3.9,2.3-8.8,2.3-12.8,0h-0.1C42.9,26,47.8,26,51.7,28.3L51.7,28.3z M39,6.7c3.9-2.3,8.8-2.3,12.8,0h0.1C47.8,9.1,42.9,9.1,39,6.7
	L39,6.7z M36,25.9c-1.7-1.8-2.7-4.1-3.1-6.6h1.7c1,0,1.8-0.8,1.8-1.8s-0.8-1.8-1.8-1.8h-1.7c0.4-2.5,1.4-4.7,3.1-6.6
	c5.6,4,13.1,4,18.7,0c1.7,1.8,2.7,4.1,3.1,6.6h-1.7c-1,0-1.8,0.8-1.8,1.8s0.8,1.8,1.8,1.8h1.7c-0.4,2.5-1.4,4.7-3.1,6.6
	C49.1,21.9,41.6,21.9,36,25.9z M23.1,36.9c1.8-1.7,4.1-2.7,6.6-3.1v1.7c0,1,0.8,1.8,1.8,1.8s1.8-0.8,1.8-1.8v-1.7
	c2.5,0.4,4.7,1.4,6.6,3.1c-4,5.6-4,13.1,0,18.7c-1.8,1.7-4.1,2.7-6.6,3.1V57c0-1-0.8-1.8-1.8-1.8S29.7,56,29.7,57v1.7
	c-2.5-0.4-4.7-1.4-6.6-3.1C27.1,50,27.1,42.5,23.1,36.9z M10.7,64.2c3.9-2.3,8.8-2.3,12.8,0h0.1C19.6,66.6,14.6,66.6,10.7,64.2
	L10.7,64.2z M23.5,85.8c-3.9,2.3-8.8,2.3-12.8,0h-0.1C14.6,83.4,19.6,83.4,23.5,85.8L23.5,85.8z M27.9,76.8h1.7
	c-0.4,2.5-1.4,4.7-3.1,6.6c-5.6-4-13.1-4-18.7,0c-1.7-1.8-2.7-4.1-3.1-6.6h1.7c1,0,1.8-0.8,1.8-1.8s-0.8-1.8-1.8-1.8H4.7
	c0.4-2.5,1.4-4.7,3.1-6.6c5.6,4,13.1,4,18.7,0c1.7,1.8,2.7,4.1,3.1,6.6h-1.7c-1,0-1.8,0.8-1.8,1.8C26.1,76,26.9,76.8,27.9,76.8z
	 M35.1,81.4L35.1,81.4c-0.6-1-1-2-1.3-3c0-0.1,0-0.2-0.1-0.3c-0.1-0.4-0.2-0.8-0.3-1.3c0-0.1,0-0.2-0.1-0.4c-0.1-1-0.1-2.1,0-3.1
	c0-0.1,0-0.3,0.1-0.4c0.1-0.4,0.2-0.8,0.3-1.3c0-0.1,0-0.2,0.1-0.3c0.3-1,0.7-2,1.3-2.9v-0.1C37.5,72.5,37.5,77.5,35.1,81.4z
	 M33.7,64.3L33.7,64.3L33.7,64.3c-0.3,0.4-0.5,0.6-0.8,0.9c-0.1,0.1-0.2,0.2-0.3,0.4c-0.2,0.3-0.4,0.6-0.6,0.9
	c-0.1,0.1-0.2,0.3-0.2,0.4c-0.1,0.2-0.3,0.5-0.4,0.7c-0.9-1.8-2.2-3.4-3.7-4.7l0,0l-0.1-0.1c-0.3-0.2-0.5-0.4-0.8-0.7
	c-0.1-0.1-0.2-0.2-0.4-0.3c-0.2-0.2-0.5-0.3-0.7-0.5c3.7,1.4,7.8,1.4,11.5,0C35.9,62.2,34.8,63.2,33.7,64.3L33.7,64.3z M54.2,84.3
	c-1.8,1.7-4.1,2.7-6.6,3.1v-1.6c0-1-0.8-1.8-1.8-1.8S44,84.8,44,85.8v1.7c-2.5-0.4-4.7-1.4-6.6-3.1c4-5.6,4-13.1,0-18.7
	c1.8-1.7,4.1-2.7,6.6-3.1v1.7c0,1,0.8,1.8,1.8,1.8s1.8-0.8,1.8-1.8v-1.7c2.5,0.4,4.7,1.4,6.6,3.1C50.2,71.2,50.2,78.8,54.2,84.3z
	 M58.3,76.6c0,0.1,0,0.3-0.1,0.4c-0.1,0.4-0.2,0.8-0.3,1.3c0,0.1,0,0.2-0.1,0.3c-0.3,1-0.7,2-1.3,2.9v0.1c-2.4-4-2.4-8.9,0-12.9v0.1
	c0.5,0.9,1,1.9,1.3,2.9c0,0.1,0,0.2,0.1,0.3c0.1,0.4,0.2,0.8,0.3,1.3c0,0.1,0,0.2,0.1,0.4C58.5,74.5,58.5,75.5,58.3,76.6L58.3,76.6z
	 M59.8,66.9c-0.1-0.1-0.2-0.3-0.2-0.4c-0.2-0.3-0.4-0.6-0.6-0.9c-0.1-0.1-0.2-0.2-0.3-0.4c-0.2-0.3-0.4-0.6-0.7-0.8l-0.1-0.1l0,0
	c-1-1.1-2.1-2.1-3.4-2.9c0.1,0,0.2,0.1,0.3,0.1c0.3,0.1,0.6,0.2,0.9,0.3c0.2,0.1,0.4,0.1,0.6,0.2c0.3,0.1,0.5,0.1,0.8,0.2
	s0.6,0.1,0.8,0.1s0.4,0.1,0.7,0.1c0.5,0.1,1,0.1,1.5,0.1s1,0,1.5-0.1c0.2,0,0.4-0.1,0.7-0.1c0.3,0,0.6-0.1,0.8-0.1
	c0.3-0.1,0.5-0.1,0.8-0.2c0.2-0.1,0.4-0.1,0.6-0.2c0.3-0.1,0.6-0.2,0.9-0.3c0.1,0,0.2-0.1,0.3-0.1c-0.2,0.2-0.5,0.3-0.7,0.5
	c-0.1,0.1-0.2,0.2-0.4,0.3c-0.3,0.2-0.6,0.4-0.8,0.7L63.7,63l0,0c-1.5,1.3-2.8,2.9-3.7,4.7C60.1,67.4,59.9,67.1,59.8,66.9z M81,85.8
	c-3.9,2.3-8.8,2.3-12.8,0h-0.1C72.1,83.4,77.1,83.4,81,85.8L81,85.8z M85.4,76.8h1.7c-0.4,2.5-1.4,4.7-3.1,6.6c-5.6-4-13.1-4-18.7,0
	c-1.7-1.8-2.7-4.1-3.1-6.6h1.7c1,0,1.8-0.8,1.8-1.8s-0.8-1.8-1.8-1.8h-1.7c0.4-2.5,1.4-4.7,3.1-6.6c5.6,4,13.1,4,18.7,0
	c1.7,1.8,2.7,4.1,3.1,6.6h-1.7c-1,0-1.8,0.8-1.8,1.8S84.4,76.8,85.4,76.8z"/>
</svg>
