<?xml version="1.0" encoding="utf-8"?>
<!-- Generator: Adobe Illustrator 25.0.1, SVG Export Plug-In . SVG Version: 6.00 Build 0)  -->
<svg version="1.1" id="Layer_1" xmlns="http://www.w3.org/2000/svg" xmlns:xlink="http://www.w3.org/1999/xlink" x="0px" y="0px"
	 viewBox="0 0 95.8 102.4" enable-background="new 0 0 95.8 102.4" xml:space="preserve">
<g>
	<g>
		<g>
			<path fill="#FFFFFF" d="M24.9,100.9c-3.5,0-7-1.3-9.9-4.7C4.7,84.5,20,68.5,33.5,54.3c1.5-1.6,3-3.2,4.5-4.7l0,0
				c3.7-3.9,5.9-5.8,8.1-5.7c1.7,0,3,1.3,4,2.4c16.2,18.8,22.5,33.4,17.8,41.1c-3,4.9-10.1,6.4-19.5,4.1c-1-0.3-4.1,1.6-6.6,3
				C37.1,97.3,30.9,100.9,24.9,100.9z M40,51.4c-1.5,1.6-3,3.1-4.5,4.8C22.8,69.5,8.4,84.6,17,94.4c6.6,7.6,16.3,1.9,23.4-2.2
				c3.8-2.2,6.6-3.8,8.6-3.3c8,2,14.2,0.9,16.6-2.9c1.9-3.1,4-13-17.5-37.9c-1.1-1.3-1.7-1.5-2-1.5c0,0,0,0,0,0
				C44.8,46.6,42.7,48.5,40,51.4z"/>
		</g>
		<g>
			<path fill="#FFFFFF" d="M71,55.7c-5.8,0-12.6-4.9-17.9-8.7c-0.8-0.6-1.7-1.2-2.4-1.7c-1.2-0.8-2.5-1.8-2.5-3.4
				c0-1.6,1.5-2.9,2.8-3.8c4.2-2.8,11.2-5.5,17.2-3.8c4.5,1.3,5.7,4.7,5.7,6.9c1.5,1.2,5,4.4,4.9,8.1c0,2-1.1,3.7-3.2,5.1
				C74.2,55.3,72.7,55.7,71,55.7z M64.1,36.4c-4.6,0-9.2,2.2-11.6,3.9c-1.5,1.1-1.6,1.5-1.6,1.5c0,0.1,0.2,0.4,1.3,1.1l0,0
				c0.8,0.5,1.6,1.1,2.5,1.7c6.2,4.4,14.6,10.5,19.4,7.3c1.3-0.9,2-1.8,2-2.9c0.1-2.5-3.1-5.4-4.4-6.3l-0.6-0.5l0.1-0.8
				c0-0.4,0.3-3.6-3.7-4.7C66.4,36.6,65.3,36.4,64.1,36.4z"/>
		</g>
		<g>
			<path fill="#FFFFFF" d="M16.1,61.2c-0.7,0-1.5-0.1-2.2-0.2c-3.5-0.6-6.1-2.2-7.7-4.8c-2.2-3.5-1.9-7.7-1.5-9.6
				c-1.3-0.9-3.5-2.8-3.6-6.4C0.6,35.1,4,31,9.5,30c14.7-2.7,31.5,8.3,32.2,8.8l0.1,0c0.9,0.7,2,1.7,2,3.1c0,1.8-1.7,3-4.8,5.2
				c-1.1,0.8-2.3,1.6-3.6,2.6c-1.7,1.3-3.2,2.5-4.6,3.6C25.3,57.9,21.1,61.2,16.1,61.2z M14.3,32.3c-1.4,0-2.9,0.1-4.3,0.4
				c-4.1,0.8-6.6,3.8-6.4,7.5c0.2,3.4,2.9,4.6,3,4.6l1.1,0.5l-0.3,1.1c0,0-1.3,4.9,1,8.5c1.2,1.9,3.2,3,5.9,3.5
				c4.9,1,8.8-2.2,14.8-7.1c1.5-1.2,3-2.4,4.7-3.7c1.4-1.1,2.6-1.9,3.7-2.7c1.7-1.2,3.6-2.5,3.7-3.1c0,0-0.1-0.2-0.9-0.9
				C39.5,40.5,26.5,32.3,14.3,32.3z"/>
		</g>
		<g>
			<path fill="#FFFFFF" d="M46.8,39.1c-0.2,0-0.4,0-0.5,0c-1.7-0.1-3.9-1.2-5.5-2.1c-2.2-1.2-7.6-4.5-11.2-9.7
				c-3.5-4.9-4-9.9-1.7-14.3c1.9-3.6,4.8-5.6,8.5-5.9c4.8-0.4,9.8,2.2,12.1,4.3c2.8-1.1,7.4-1.6,10.2,2.9v0c3.8,6-1.8,16.4-6.7,21.5
				C50.4,37.5,48.9,39.1,46.8,39.1z M37.4,9.7c-0.3,0-0.5,0-0.8,0c-2.7,0.2-4.9,1.8-6.3,4.5c-4.2,7.9,4.8,16.5,11.9,20.4
				c1.8,1,3.5,1.7,4.5,1.7c0.9,0.1,1.7-0.5,3.4-2.4c4.4-4.6,9.2-13.7,6.3-18.3c-0.3-0.4-2.7-4.1-7.6-1.5l-1,0.5L47,13.8
				C45.8,12.3,41.5,9.7,37.4,9.7z"/>
		</g>
		<g>
			<g>
				<path fill="#FFFFFF" d="M46.1,26.4c1.3,0.2,2.7,0.4,4.1,0.5c-0.8,1.5-1.6,2.6-2.2,2.9c-0.2-0.2-0.9-0.8-1.7-2.7
					C46.3,26.9,46.2,26.6,46.1,26.4 M42.5,22.8c0,0,0.2,2.6,1.5,5.4c1.4,3.2,2.8,4.3,4.1,4.3c3.6,0,6.4-8.6,6.4-8.6
					c-1,0.2-2,0.3-3.1,0.3C47.1,24.2,42.5,22.8,42.5,22.8L42.5,22.8z"/>
			</g>
		</g>
		<g>
			<path fill="#FFFFFF" d="M25.2,3.9c-0.2-1.3,0-2.5,1.4-2.5s10.1-0.2,13.2,0.4c0.9,0.2,1,0.8,1.1,1.5c0.1,0.8,0.2,1.9-0.4,2
				c-0.6,0-5.9,0.2-9.2,0.6c-3.3,0.4-4.2,0.6-4.7,0.7C26.2,6.7,25.6,7.1,25.2,3.9L25.2,3.9z"/>
		</g>
		<g>
			<path fill="#FFFFFF" d="M54.9,7.1c0,0-0.8,0.9-0.9,1.2c-0.1,0.3,0,0.4,0.4,0.6c0.5,0.2,5.5,3,6.7,3.8c0.5,0.3,0.4,0.2,0.7-0.1
				c0.3-0.3,1.5-1.3,0.7-2.2c-0.8-0.8-4.2-2.6-7.2-3.5C55.3,7.1,55.1,7,54.9,7.1L54.9,7.1z"/>
		</g>
	</g>
	<g>
		<g>
			<path fill="#FFFFFF" d="M81.7,9.3c0.6,0,1,0.5,1,1v8.4h8.4c0.6,0,1,0.5,1,1v2c0,0.6-0.5,1-1,1h-8.4v8.4c0,0.6-0.5,1-1,1h-2
				c-0.6,0-1-0.5-1-1v-8.4h-8.4c-0.6,0-1-0.5-1-1v-2c0-0.6,0.5-1,1-1h8.3v-8.4c0-0.6,0.5-1,1-1L81.7,9.3 M81.7,6.6h-2
				c-2.1,0-3.7,1.7-3.7,3.7V16h-5.7c-2.1,0-3.7,1.7-3.7,3.7v2c0,2.1,1.7,3.7,3.7,3.7H76v5.7c0,2.1,1.7,3.7,3.7,3.7h2
				c2.1,0,3.7-1.7,3.7-3.7v-5.7h5.7c2.1,0,3.7-1.7,3.7-3.7v-2c0-2.1-1.7-3.7-3.7-3.7h-5.7v-5.7C85.4,8.3,83.7,6.6,81.7,6.6L81.7,6.6
				z"/>
		</g>
	</g>
</g>
</svg>
