<?xml version="1.0" encoding="utf-8"?>
<!-- Generator: Adobe Illustrator 25.0.1, SVG Export Plug-In . SVG Version: 6.00 Build 0)  -->
<svg version="1.1" id="Layer_1" xmlns="http://www.w3.org/2000/svg" xmlns:xlink="http://www.w3.org/1999/xlink" x="0px" y="0px"
	 viewBox="0 0 79 102.8" enable-background="new 0 0 79 102.8" xml:space="preserve">
<g>
	<g>
		<path fill="#FFFFFF" d="M24.1,101.1c-3.5,0-7-1.3-9.9-4.7C3.9,84.7,19.2,68.7,32.7,54.6c1.5-1.6,3-3.2,4.5-4.7
			c3.6-3.8,5.8-5.7,8.1-5.7c1.8,0,3.1,1.3,4,2.4c16.2,18.8,22.5,33.4,17.8,41.1c-3,4.9-10.1,6.4-19.5,4.1c-1-0.3-4.1,1.6-6.6,3
			C36.3,97.5,30.1,101.1,24.1,101.1z M45.2,46.8c-1.3,0-3.7,2.3-6,4.8h0c-1.5,1.6-3,3.1-4.5,4.8C22,69.7,7.6,84.8,16.2,94.7
			c6.6,7.6,16.3,1.9,23.4-2.2c3.8-2.2,6.6-3.8,8.6-3.3c8,2,14.2,0.9,16.6-2.9c1.9-3.1,4-13-17.5-37.9C46.1,47,45.6,46.8,45.2,46.8
			C45.2,46.8,45.2,46.8,45.2,46.8z"/>
	</g>
	<g>
		<path fill="#FFFFFF" d="M70.2,55.9c-5.8,0-12.6-4.9-17.9-8.7c-0.8-0.6-1.7-1.2-2.4-1.7c-1.2-0.8-2.6-1.8-2.6-3.3
			c0-1.6,1.5-2.8,2.9-3.8c4.1-2.8,11.1-5.5,17.2-3.8c4.5,1.3,5.7,4.7,5.7,6.9c1.5,1.2,5,4.4,4.9,8.1c0,2-1.1,3.7-3.2,5.1
			C73.4,55.5,71.9,55.9,70.2,55.9z M63.3,36.7c-4.6,0-9.2,2.2-11.6,3.9c-1.6,1.1-1.7,1.5-1.7,1.6c0,0,0.2,0.3,1.4,1.1l0,0
			c0.8,0.5,1.6,1.1,2.5,1.7c6.2,4.4,14.6,10.5,19.4,7.3c1.3-0.9,2-1.8,2-2.9c0.1-2.5-3.1-5.4-4.4-6.3l-0.6-0.5l0.1-0.8
			c0-0.4,0.3-3.6-3.7-4.7C65.6,36.8,64.5,36.7,63.3,36.7z"/>
	</g>
	<g>
		<path fill="#FFFFFF" d="M15.2,61.6c-0.7,0-1.4-0.1-2.1-0.2c-3.5-0.6-6.1-2.2-7.7-4.8c-2.2-3.5-1.9-7.7-1.5-9.6
			c-1.3-0.9-3.5-2.9-3.7-6.5c-0.4-5.1,3.1-9.3,8.6-10.3c14.7-2.7,31.5,8.3,32.2,8.8l0.1,0c1,0.7,2.1,1.8,2.1,3.2
			c0,1.8-1.7,3-4.6,5.1c-1.1,0.8-2.3,1.7-3.7,2.8c-1.6,1.2-3.1,2.4-4.5,3.5C24.5,58.2,20.2,61.6,15.2,61.6z M13.4,32.5
			c-1.4,0-2.9,0.1-4.3,0.4c-4.1,0.8-6.6,3.8-6.4,7.5c0.2,3.4,3,4.7,3.1,4.8l1,0.5l-0.3,1.1c0,0-1.3,4.9,1,8.5c1.2,1.9,3.2,3,5.9,3.5
			c4.9,0.9,8.9-2.3,14.9-7.2c1.4-1.1,2.9-2.3,4.5-3.6c1.4-1.1,2.7-2,3.8-2.8c1.6-1.1,3.4-2.4,3.5-3c0,0,0,0,0,0c0,0-0.1-0.3-1-1
			C38.5,40.8,25.6,32.5,13.4,32.5z"/>
	</g>
	<g>
		<path fill="#FFFFFF" d="M46,39.3c-0.2,0-0.4,0-0.5,0c-1.7-0.1-3.9-1.2-5.5-2.1c-2.2-1.2-7.6-4.5-11.2-9.7c-3.5-4.9-4-9.9-1.7-14.3
			c1.9-3.6,4.8-5.6,8.5-5.9c4.8-0.4,9.8,2.2,12.1,4.3c2.8-1.1,7.4-1.6,10.2,2.9v0c3.8,6-1.8,16.4-6.7,21.5
			C49.6,37.7,48.1,39.3,46,39.3z M36.6,9.9c-0.3,0-0.5,0-0.8,0c-2.7,0.2-4.9,1.8-6.3,4.5c-4.2,7.9,4.8,16.5,11.9,20.4
			c1.8,1,3.5,1.7,4.5,1.7c0.9,0.1,1.7-0.5,3.4-2.4c4.4-4.6,9.2-13.7,6.3-18.3v0c-0.3-0.4-2.7-4.1-7.6-1.5l-1,0.5l-0.7-0.9
			C45,12.6,40.7,9.9,36.6,9.9z"/>
	</g>
	<g>
		<g>
			<path fill="#FFFFFF" d="M45.3,26.6c1.3,0.2,2.7,0.4,4.1,0.5c-0.8,1.5-1.6,2.6-2.2,2.9c-0.2-0.2-0.9-0.8-1.7-2.7
				C45.5,27.1,45.4,26.8,45.3,26.6 M41.6,23c0,0,0.2,2.6,1.5,5.4c1.4,3.2,2.8,4.3,4.1,4.3c3.6,0,6.4-8.6,6.4-8.6
				c-1,0.2-2,0.3-3.1,0.3C46.3,24.4,41.6,23,41.6,23L41.6,23z"/>
		</g>
	</g>
	<g>
		<path fill="#FFFFFF" d="M24.4,4.1c-0.2-1.3,0-2.5,1.4-2.5S35.9,1.4,39,2c0.9,0.2,1,0.8,1.1,1.5c0.1,0.8,0.2,1.9-0.4,2
			c-0.6,0-5.9,0.2-9.2,0.6c-3.3,0.4-4.2,0.6-4.7,0.7C25.4,6.9,24.8,7.3,24.4,4.1L24.4,4.1z"/>
	</g>
	<g>
		<path fill="#FFFFFF" d="M54.1,7.3c0,0-0.8,0.9-0.9,1.2c-0.1,0.3,0,0.4,0.4,0.6c0.5,0.2,5.5,3,6.7,3.8c0.5,0.3,0.4,0.2,0.7-0.1
			c0.3-0.3,1.5-1.3,0.7-2.2c-0.8-0.8-4.2-2.6-7.2-3.5C54.4,7.3,54.2,7.2,54.1,7.3L54.1,7.3z"/>
	</g>
</g>
</svg>
