<?xml version="1.0" encoding="utf-8"?>
<!-- Generator: Adobe Illustrator 25.0.1, SVG Export Plug-In . SVG Version: 6.00 Build 0)  -->
<svg version="1.1" id="Layer_1" xmlns="http://www.w3.org/2000/svg" xmlns:xlink="http://www.w3.org/1999/xlink" x="0px" y="0px"
	 viewBox="0 0 78.3 89.8" enable-background="new 0 0 78.3 89.8" xml:space="preserve">
<g>
	<path fill="#FFFFFF" d="M2.5,88.8h73.2c0.8,0,1.5-0.7,1.5-1.5V2.4c0-0.8-0.7-1.5-1.5-1.5H2.5C1.7,0.9,1,1.6,1,2.4v84.9
		C1.1,88.1,1.7,88.8,2.5,88.8z M4,3.9h70.3v82H4V3.9z"/>
	<path fill="#FFFFFF" d="M69.9,12.6H8.4c-0.8,0-1.5,0.7-1.5,1.5v61.5c0,0.8,0.7,1.5,1.5,1.5h61.5c0.8,0,1.5-0.7,1.5-1.5V14.1
		C71.4,13.3,70.7,12.6,69.9,12.6z M9.9,36.1h17.6v17.6H9.9V36.1z M30.4,36.1H48v17.6H30.4V36.1z M50.9,36.1h17.6v17.6H50.9V36.1z
		 M68.4,33.1H50.9V15.6h17.6L68.4,33.1L68.4,33.1z M47.9,33.1H30.4V15.6H48L47.9,33.1L47.9,33.1z M9.9,15.6h17.6v17.6H9.9V15.6z
		 M9.9,56.6h17.6v17.6H9.9V56.6z M30.4,56.6H48v17.6H30.4V56.6z M68.4,74.1H50.9V56.6h17.6L68.4,74.1L68.4,74.1z"/>
	<path fill="#FFFFFF" d="M24.1,18.9c-0.6-0.6-1.5-0.6-2.1,0l-3.4,3.4l-3.4-3.4c-0.6-0.6-1.5-0.6-2.1,0s-0.6,1.5,0,2.1l3.4,3.4
		l-3.4,3.4c-0.4,0.4-0.5,0.9-0.4,1.4s0.5,0.9,1,1s1,0,1.4-0.4l3.4-3.4l3.4,3.4c0.6,0.6,1.5,0.6,2.1,0s0.6-1.5,0-2.1l-3.3-3.3
		l3.4-3.4C24.6,20.4,24.6,19.5,24.1,18.9z"/>
	<path fill="#FFFFFF" d="M44.6,39.4c-0.6-0.6-1.5-0.6-2.1,0l-3.4,3.4l-3.3-3.4c-0.6-0.6-1.5-0.6-2.1,0s-0.6,1.5,0,2.1l3.4,3.4
		l-3.4,3.4c-0.4,0.4-0.5,0.9-0.4,1.4s0.5,0.9,1,1s1,0,1.4-0.4l3.4-3.4l3.4,3.4c0.6,0.6,1.5,0.6,2.1,0s0.6-1.5,0-2.1l-3.4-3.4
		l3.4-3.4C45.1,40.9,45.1,40,44.6,39.4z"/>
	<path fill="#FFFFFF" d="M54.2,70.8c0.6,0.6,1.5,0.6,2.1,0l3.4-3.4l3.4,3.4c0.6,0.6,1.5,0.6,2.1,0s0.6-1.5,0-2.1l-3.5-3.3l3.4-3.4
		c0.6-0.6,0.6-1.5,0-2.1s-1.5-0.6-2.1,0l-3.4,3.4l-3.4-3.4c-0.6-0.6-1.5-0.6-2.1,0s-0.6,1.5,0,2.1l3.4,3.4l-3.4,3.4
		C53.6,69.3,53.6,70.2,54.2,70.8z"/>
	<path fill="#FFFFFF" d="M69.9,6.8h-8.8c-0.8,0-1.5,0.7-1.5,1.5s0.7,1.5,1.5,1.5h8.8c0.8,0,1.5-0.7,1.5-1.5
		C71.4,7.4,70.7,6.8,69.9,6.8z"/>
	<path fill="#FFFFFF" d="M17.2,80H8.4c-0.8,0-1.5,0.7-1.5,1.5S7.6,83,8.4,83h8.8c0.8,0,1.5-0.7,1.5-1.5S18,80,17.2,80z"/>
	<path fill="#FFFFFF" d="M18.6,40.5c-2.4,0-4.4,2-4.4,4.4s2,4.4,4.4,4.4s4.4-2,4.4-4.4C23,42.4,21.1,40.5,18.6,40.5z M18.6,46.3
		c-0.8,0-1.5-0.7-1.5-1.5s0.7-1.5,1.5-1.5s1.5,0.7,1.5,1.5C20.1,45.7,19.5,46.3,18.6,46.3z"/>
	<path fill="#FFFFFF" d="M59.6,40.5c-2.4,0-4.4,2-4.4,4.4s2,4.4,4.4,4.4s4.4-2,4.4-4.4C64,42.4,62.1,40.5,59.6,40.5z M59.6,46.3
		c-0.8,0-1.5-0.7-1.5-1.5s0.7-1.5,1.5-1.5s1.5,0.7,1.5,1.5C61.1,45.7,60.4,46.3,59.6,46.3z"/>
	<path fill="#FFFFFF" d="M59.6,28.7c2.4,0,4.4-2,4.4-4.4s-2-4.4-4.4-4.4s-4.4,2-4.4,4.4C55.3,26.8,57.2,28.7,59.6,28.7z M59.6,22.9
		c0.8,0,1.5,0.7,1.5,1.5s-0.7,1.5-1.5,1.5s-1.5-0.7-1.5-1.5C58.2,23.5,58.8,22.9,59.6,22.9z"/>
	<path fill="#FFFFFF" d="M39.1,28.7c2.4,0,4.4-2,4.4-4.4s-2-4.4-4.4-4.4s-4.4,2-4.4,4.4C34.8,26.8,36.7,28.7,39.1,28.7z M39.1,22.9
		c0.8,0,1.5,0.7,1.5,1.5s-0.7,1.5-1.5,1.5s-1.5-0.7-1.5-1.5C37.7,23.5,38.3,22.9,39.1,22.9z"/>
	<path fill="#FFFFFF" d="M18.6,61c-2.4,0-4.4,2-4.4,4.4s2,4.4,4.4,4.4s4.4-2,4.4-4.4C23,62.9,21.1,61,18.6,61z M18.6,66.8
		c-0.8,0-1.5-0.7-1.5-1.5s0.7-1.5,1.5-1.5s1.5,0.7,1.5,1.5C20.1,66.2,19.5,66.8,18.6,66.8z"/>
	<path fill="#FFFFFF" d="M39.1,61c-2.4,0-4.4,2-4.4,4.4s2,4.4,4.4,4.4s4.4-2,4.4-4.4C43.5,62.9,41.6,61,39.1,61z M39.1,66.8
		c-0.8,0-1.5-0.7-1.5-1.5s0.7-1.5,1.5-1.5s1.5,0.7,1.5,1.5C40.6,66.2,40,66.8,39.1,66.8z"/>
</g>
</svg>
