<?xml version="1.0" encoding="utf-8"?>
<!-- Generator: Adobe Illustrator 25.0.1, SVG Export Plug-In . SVG Version: 6.00 Build 0)  -->
<svg version="1.1" id="Layer_1" xmlns="http://www.w3.org/2000/svg" xmlns:xlink="http://www.w3.org/1999/xlink" x="0px" y="0px"
	 viewBox="0 0 165.2 165.9" enable-background="new 0 0 165.2 165.9" xml:space="preserve">
<g>
	<g>
		<circle fill="#FFC027" cx="82.6" cy="83" r="82.2"/>
	</g>
	<g>
		<g>
			<path fill="#FFFFFF" d="M56.2,109.5H45.2V56.3h10.9V109.5z"/>
		</g>
		<g>
			<path fill="#FFFFFF" d="M65.2,95c0-4.9,2.2-10.2,7-13c-4-2.6-5.8-7.1-5.8-11.5c0-8.8,6.4-15.4,17.2-15.4
				c10.7,0,17.3,6.7,17.3,15.5c0,4.4-1.9,8.8-5.9,11.3c4.9,2.9,7,8.2,7,13c0,9.3-7,15.6-18.4,15.6S65.2,104.3,65.2,95z M76.1,94.2
				c0,3.4,2.4,6.9,7.5,6.9c5.1,0,7.5-3.4,7.5-6.9c0-3.9-2.8-6.9-7.5-6.9C78.9,87.3,76.1,90.3,76.1,94.2z M90.7,71
				c0-3-2.2-6.4-7.1-6.4c-4.9,0-7,3.3-7,6.3c0,3.9,2.5,6.7,7,6.7C88,77.5,90.7,74.9,90.7,71z"/>
		</g>
		<g>
			<path fill="#FFFFFF" d="M126.7,67.5v10.8h10.8v7.4h-10.8v10.8h-7.4V85.7h-10.8v-7.4h10.8V67.5H126.7z"/>
		</g>
	</g>
</g>
</svg>
