<svg xmlns="http://www.w3.org/2000/svg" viewBox="0 0 83.19 20.93"><defs><style>.cls-1,.cls-2{fill:#fff;}.cls-2{fill-rule:evenodd;}</style></defs><title>bingo@o-nama</title><g id="Layer_2" data-name="Layer 2"><g id="Layer_1-2" data-name="Layer 1"><path class="cls-1" d="M73.68,20.93a9.51,9.51,0,1,1,9.51-9.51,9.52,9.52,0,0,1-9.51,9.51m0-13.49a4,4,0,1,0,4,4,4,4,0,0,0-4-4"/><path class="cls-1" d="M73.68,8.66a2.77,2.77,0,1,0,2.77,2.76,2.77,2.77,0,0,0-2.77-2.76"/><path class="cls-1" d="M40.76,20.7a2.75,2.75,0,0,1-2.1-1l-6.18-7.28v5.49a2.77,2.77,0,0,1-5.53,0v-13a2.76,2.76,0,0,1,4.87-1.79L38,10.42V4.93a2.77,2.77,0,1,1,5.53,0v13a2.76,2.76,0,0,1-1.81,2.59,2.66,2.66,0,0,1-1,.17"/><path class="cls-1" d="M61,8.66H54.24a2.77,2.77,0,0,0,0,5.53h2.87a4,4,0,1,1-2.87-6.75h3.61a2.76,2.76,0,1,0,0-5.52H54.09a9.51,9.51,0,1,0,9.66,9.5A2.77,2.77,0,0,0,61,8.66"/><polygon class="cls-2" points="19.85 2.16 21.4 0 22.95 2.16 19.85 2.16"/><path class="cls-1" d="M15.05,10.71a5.84,5.84,0,0,0,.58-2.53,6.11,6.11,0,0,0-6.18-6H2.76A2.77,2.77,0,0,0,0,4.93v13A2.76,2.76,0,0,0,2.76,20.7H10.4a3.15,3.15,0,0,0,.44,0,6.1,6.1,0,0,0,5.75-6,5.89,5.89,0,0,0-1.54-4m-9.52-3H9.3a.81.81,0,0,1,0,1.61H5.53V7.69m4.73,7.49H5.53V13.57h4.73a.81.81,0,0,1,0,1.61"/><path class="cls-1" d="M22.82,5A1.86,1.86,0,0,0,20,5a1.18,1.18,0,0,0-1.11-.53,1.15,1.15,0,0,0-.7.37V17.94a2.77,2.77,0,0,0,2.76,2.77h.94a2.77,2.77,0,0,0,2.76-2.77V4.87a1.15,1.15,0,0,0-.7-.37A1.16,1.16,0,0,0,22.82,5"/></g></g></svg>