<?xml version="1.0" encoding="utf-8"?>
<!-- Generator: Adobe Illustrator 25.0.1, SVG Export Plug-In . SVG Version: 6.00 Build 0)  -->
<svg version="1.1" id="Layer_1" xmlns="http://www.w3.org/2000/svg" xmlns:xlink="http://www.w3.org/1999/xlink" x="0px" y="0px"
	 viewBox="0 0 51 65.9" enable-background="new 0 0 51 65.9" xml:space="preserve">
<path fill="#E51B2B" d="M25.1,32.8C15.8,42.7,2.8,54.6,9.8,62.6c7.1,8.1,18.6-4.2,21.7-3.4c13.1,3.3,20.7-4.9,0.3-28.6
	C29.9,28.4,28.7,28.8,25.1,32.8L25.1,32.8z"/>
<path fill="#E51B2B" d="M33.3,28.5c4.4,3,11.4,8.8,15.6,6.1c4.7-3.1-1.5-7.6-1.5-7.6s0.4-3.1-3.1-4.1c-3.9-1.1-8.4,0.8-10.7,2.4
	C31.3,26.8,31.9,27.5,33.3,28.5L33.3,28.5z"/>
<path fill="#E51B2B" d="M26.3,25.7c0,0-11.3-7.4-20.7-5.7c-3.2,0.6-5.2,3-5,5.9c0.2,2.9,2.6,3.9,2.6,3.9s-2,7.8,5.3,9.1
	c4.5,0.8,7.6-2.7,13.6-7.3C26.6,28.2,28.7,27.6,26.3,25.7L26.3,25.7z"/>
<path fill="#E51B2B" d="M37.3,9.2c-2.2-3.5-6.2-1.3-6.3-1.4C29.6,6,21.9,1.7,18.4,8.3c-3.1,5.9,3.3,12,8.2,14.8
	c1.2,0.7,2.4,1.2,3.4,1.3c1,0.1,1.7-0.5,3-1.8C36.1,19.2,39.5,12.7,37.3,9.2L37.3,9.2z M28.3,18c-0.8-1.9-1-3.6-1-3.6s4.8,1.5,8,0.7
	C35.3,15.1,31.8,25.8,28.3,18L28.3,18z"/>
<path fill="#E51B2B" d="M15.9,2.4c-0.1-0.9,0-1.7,0.9-1.7c1,0,6.7-0.1,8.8,0.3c0.6,0.1,0.6,0.5,0.7,1c0.1,0.5,0.1,1.3-0.3,1.3
	c-0.4,0-3.9,0.1-6.1,0.4c-2.2,0.2-2.8,0.4-3.1,0.4C16.5,4.2,16.2,4.5,15.9,2.4L15.9,2.4z"/>
<path fill="#E51B2B" d="M35.6,4c0,0-0.5,0.6-0.6,0.8c-0.1,0.2,0,0.3,0.3,0.4c0.3,0.1,3.6,2,4.5,2.5c0.3,0.2,0.2,0.2,0.4,0
	c0.2-0.2,1-0.9,0.5-1.4c-0.6-0.6-2.8-1.8-4.8-2.3C35.8,3.9,35.7,3.8,35.6,4L35.6,4z"/>
</svg>
