<?xml version="1.0" encoding="utf-8"?>
<!-- Generator: Adobe Illustrator 25.0.1, SVG Export Plug-In . SVG Version: 6.00 Build 0)  -->
<svg version="1.1" id="Layer_1" xmlns="http://www.w3.org/2000/svg" xmlns:xlink="http://www.w3.org/1999/xlink" x="0px" y="0px"
	 viewBox="0 0 200.5 122.6" enable-background="new 0 0 200.5 122.6" xml:space="preserve">
<g>
	<path fill="#FFFFFF" d="M66.5,58.7c0,0,12.2-40.6,13-45.8c0.1-0.7,0.9-5.2-2-7.2c-1-0.7-9.8-3.2-14.9,7c-1.3-1.4-4.6-5-12.2-5
		c-1.1,0-27.1,0-36.8,31.8c-8.1,26.8,9.9,29.5,14.4,29.4c10.8-0.3,17.6-5.7,19-6.7c-0.3,0.9-2.3,9-8.5,12c-2.1,1-10.7,3.8-14.6,1.6
		c-2.4-1.4-3.1-7.3-8.8-7.3c-2.8,0-9.1,1.6-10.6,8.2C1.7,88.8,18,90.9,22.7,90.9C53.4,90.9,63.6,70.8,66.5,58.7 M75.3,34.8L68,60
		c-0.3,1-0.4,1.8-0.4,2.7c0,0.9,0.2,1.8,0.7,2.5c0.7,1.1,2,1.7,3.3,1.7h0.1c0.2,0,0.5,0,0.7,0c1.6-0.2,3.2-0.9,4.5-2.1
		c1.4-1.2,2.3-2.9,2.9-4.9l2.2-7.6c0.8-2.7,1.6-5,2.3-6.8c0.7-1.8,1.5-3.4,2.3-4.8c0.8-1.3,1.6-2.3,2.5-2.9c0.9-0.6,1.8-1,2.9-1.1
		c0.2,0,0.5,0,0.7,0c0.6,0,1.3,0.1,2,0.2c1.1,0.3,1.8,0.4,2.4,0.4c0.1,0,0.2,0,0.3,0c0.6-0.1,1.2-0.2,1.7-0.5
		c-1.5,2.4-2.6,5-3.4,7.8c-0.7,2.5-1.1,4.8-1.1,6.9c0,2.9,0.7,5.4,2.3,7.3c2.2,2.9,5.7,4.2,10.2,4.2h0.1c1,0,2-0.1,3.1-0.2
		c2.7-0.3,5.2-0.9,7.4-1.9c2.2-0.9,4.2-2,5.9-3.2c1.7-1.2,3-2.4,4.1-3.7c1-1.2,1.7-2.3,2.1-3.5c0.1-0.5,0.2-0.9,0.2-1.4
		c0-0.7-0.2-1.5-0.8-2c-0.7-0.7-1.6-1-2.5-1c-0.2,0-0.5,0-0.7,0c-1.1,0.1-2.1,0.5-2.9,1.1c-1.5,1.2-2.6,2.2-3.5,2.8
		c-0.9,0.7-1.8,1.3-2.7,1.9c-0.9,0.6-1.8,1-2.7,1.3c-0.9,0.3-1.8,0.5-2.8,0.6c-0.3,0-0.6,0-0.9,0c-1,0-1.7-0.2-2.4-0.6
		c-0.8-0.5-1.2-1.1-1.5-2.3c-0.1-0.4-0.2-0.9-0.2-1.5c0-0.7,0.1-1.4,0.2-2.2l16.8-1.9c2.5-0.3,4.6-0.8,6.3-1.8
		c1.9-1.1,3.2-3,3.9-5.5c0.4-1.5,0.7-2.9,0.7-4.4c0-1.1-0.1-2.3-0.4-3.4c-0.6-2.6-2.3-4.7-4.7-6c-1.9-1.1-4.1-1.6-6.7-1.6
		c-0.8,0-1.7,0-2.7,0.2c-2.9,0.3-5.6,1.1-8.3,2.2c-2.6,1.2-5,2.7-7.1,4.6c-0.4,0.4-0.8,0.7-1.1,1.1c0-0.2,0-0.3,0-0.5
		c0-1.6-1.1-3-2.5-3.7c-1.4-0.7-2.9-1-4.5-1c-0.4,0-0.9,0-1.4,0.1c-2.1,0.2-4.1,1-5.7,2.2c-0.7,0.5-1.4,1.1-2.1,1.8
		c-0.1-0.3-0.1-0.5-0.2-0.8c-0.6-1.4-2.1-2-3.4-1.9c-0.3,0-0.6,0-0.8,0.1C79.1,27.6,76.5,30.5,75.3,34.8 M112.6,34.7
		c1.7-1.5,3.5-2.4,5.5-2.6c0.3,0,0.6-0.1,0.9-0.1c1.5,0,2.3,0.4,2.8,1.2c0.4,0.5,0.6,1.3,0.6,2.5c0,0.6-0.1,1.3-0.2,2l-13.1,1.4
		C110.3,37.3,111.4,35.8,112.6,34.7 M197.7,63.3c-0.5-2.8-1.9-5.2-4.1-6.5c-1.7-1.1-3.8-1.6-6.1-1.6c-0.7,0-1.4,0-2.1,0.1
		c-2.8,0.3-5.3,1.1-7.5,2.3c-1,0.6-2.1,1.2-3.2,2l2.8-9.6l-1.3-0.4l1.3,0.4c0.3-0.9,0.4-1.8,0.4-2.6c0-0.8-0.2-1.6-0.6-2.3
		c-0.7-1.2-2.1-1.7-3.4-1.7c-0.3,0-0.5,0-0.8,0c-1.6,0.2-3.2,0.9-4.3,2.2c-1.2,1.2-2.1,2.9-2.7,4.9l-11.6,39.5
		c-0.3,0.9-0.4,1.8-0.4,2.6c0,0.8,0.2,1.6,0.6,2.3c0.7,1.1,2,1.6,3.2,1.6h0.1c0.2,0,0.5,0,0.7,0c1.6-0.2,3-0.9,4.3-2
		c0.9-0.8,1.6-1.8,2.1-2.9c0.1,0.1,0.1,0.1,0.2,0.2c0.5,0.6,1.2,1.2,2,1.7c0.9,0.6,2,0.9,3.3,1.2c0.7,0.1,1.5,0.2,2.3,0.2
		c0.6,0,1.3,0,1.9-0.1c2.5-0.3,4.9-1,7.2-2.2c2.3-1.2,4.4-2.8,6.3-4.7c1.9-1.9,3.6-4.1,5-6.6c1.4-2.5,2.6-5.1,3.4-8
		c0.8-2.7,1.2-5.2,1.2-7.4C198,65.1,197.9,64.2,197.7,63.3 M184.9,73.9c-1,3.5-2.6,6.2-4.6,8.2c-2.1,2-4.1,3-6,3.2
		c-0.3,0-0.7,0.1-1,0.1c-1.8,0-2.7-0.5-3.4-1.6c-0.4-0.6-0.6-1.5-0.6-2.7c0-1.2,0.2-2.6,0.7-4.3c0.7-2.3,1.6-4.3,2.8-6.1
		c1.2-1.8,2.5-3.1,4-4.1c1.5-1,2.9-1.5,4.4-1.7c0.3,0,0.5,0,0.8,0c1,0,1.7,0.2,2.2,0.7c0.6,0.5,1.1,1.3,1.2,2.7
		c0,0.3,0.1,0.6,0.1,0.9C185.7,70.6,185.4,72.1,184.9,73.9 M154.4,85.7c0-0.7-0.2-1.5-0.8-2.1c-0.7-0.7-1.6-1-2.5-1
		c-0.2,0-0.4,0-0.7,0.1c-1.1,0.1-2.1,0.5-2.9,1.1c-1.5,1.2-2.6,2.1-3.5,2.8c-0.9,0.7-1.8,1.3-2.7,1.9c-0.9,0.6-1.8,1-2.7,1.3
		c-0.9,0.3-1.8,0.5-2.8,0.6c-0.3,0-0.6,0.1-0.9,0.1c-1,0-1.7-0.2-2.4-0.6c-0.8-0.5-1.2-1.1-1.5-2.3c-0.1-0.5-0.2-0.9-0.2-1.5
		c0-0.7,0.1-1.4,0.3-2.2l16.8-1.9c2.5-0.3,4.6-0.9,6.3-1.8c1.9-1,3.2-3,3.9-5.5c0.4-1.5,0.7-2.9,0.7-4.4c0-1.2-0.1-2.3-0.4-3.4
		c-0.7-2.6-2.3-4.7-4.7-6c-1.9-1.1-4.1-1.6-6.7-1.6c-0.8,0-1.7,0.1-2.6,0.2c-2.9,0.3-5.6,1.1-8.3,2.3c-2.6,1.2-5,2.7-7.1,4.6
		c-0.4,0.3-0.8,0.7-1.2,1.1c0-0.2,0-0.3,0-0.5c0-1.6-1.1-3-2.5-3.7c-1.4-0.7-2.9-1-4.5-1c-0.4,0-0.9,0-1.4,0.1
		c-2.1,0.2-4.1,1-5.7,2.2c-0.7,0.5-1.4,1.1-2.1,1.8c-0.1-0.3-0.1-0.5-0.3-0.8c-0.6-1.4-2.1-2-3.4-1.9c-0.3,0-0.6,0-0.8,0.1
		c-3.6,0.4-6.2,3.3-7.4,7.6l-7.4,25.2c-0.3,0.9-0.4,1.8-0.5,2.7c0,0.9,0.2,1.8,0.7,2.5c0.7,1.1,2,1.7,3.3,1.7h0.1c0.2,0,0.5,0,0.7,0
		c1.6-0.2,3.2-0.9,4.5-2.1c1.4-1.2,2.3-2.9,2.9-4.9l2.2-7.6c0.8-2.7,1.5-5,2.3-6.8c0.7-1.8,1.5-3.4,2.3-4.8c0.8-1.3,1.6-2.3,2.5-2.9
		c0.9-0.6,1.8-1,2.9-1.1c0.2,0,0.5,0,0.7,0c0.6,0,1.3,0.1,2,0.2c1.1,0.2,1.8,0.4,2.4,0.4c0.1,0,0.2,0,0.3,0c0.6-0.1,1.1-0.2,1.7-0.5
		c-1.5,2.4-2.6,5-3.4,7.8c-0.7,2.5-1.1,4.8-1.1,6.9c0,2.8,0.7,5.4,2.3,7.3c2.2,2.8,5.7,4.2,10.2,4.2h0.1c1,0,2-0.1,3.1-0.2
		c2.7-0.3,5.1-0.9,7.4-1.8c2.2-0.9,4.2-2,5.9-3.2c1.7-1.2,3-2.4,4.1-3.7c1-1.2,1.7-2.4,2.1-3.5C154.3,86.6,154.4,86.2,154.4,85.7
		 M137.1,71.5c1.7-1.6,3.5-2.4,5.5-2.6c0.3,0,0.7-0.1,0.9-0.1c1.5,0,2.3,0.4,2.8,1.2c0.4,0.5,0.6,1.3,0.6,2.5c0,0.6-0.1,1.3-0.2,2
		l-13,1.5C134.7,74.1,135.9,72.6,137.1,71.5 M95.5,73.1l1.3,0.4c0.5-1.6,0.7-3,0.7-4.2c0-0.4,0-0.9-0.1-1.3
		c-0.1-0.8-0.7-1.5-1.3-1.9c-0.7-0.4-1.5-0.5-2.3-0.5c-0.3,0-0.6,0-0.9,0.1c-1.5,0.2-3,0.9-4.2,2c-0.9,0.8-1.6,1.8-2.1,2.9
		c-0.8-0.9-1.8-1.7-2.9-2.2c-1.4-0.7-3-1-4.9-1c-0.7,0-1.4,0-2.1,0.1c-2.3,0.3-4.5,0.9-6.7,1.9c-2.2,1-4.2,2.4-6.1,4.2
		c-1.9,1.8-3.6,3.8-5,6.2c-1.5,2.4-2.6,5-3.4,7.8c-0.8,2.7-1.2,5.2-1.2,7.5c0,0.9,0.1,1.7,0.2,2.5c0.4,2.9,1.8,5.3,3.9,6.9
		c1.7,1.2,3.9,1.8,6.3,1.8c0.6,0,1.3,0,2-0.1c2.7-0.3,5.2-1.1,7.5-2.4c0.9-0.5,1.7-1.1,2.6-1.7c-0.2,0.6-0.4,1.1-0.5,1.5
		c-0.4,1.2-1,2.4-1.9,3.5c-0.7,1-1.7,1.9-3,2.6c-1.3,0.7-3,1.2-5.3,1.4c-0.6,0.1-1.1,0.1-1.5,0.1c-0.4,0-0.8,0-1.1-0.1
		c-0.7-0.1-1.1-0.3-1.4-0.5c-0.4-0.3-0.6-0.6-0.9-1c-0.3-0.5-0.6-1.1-0.9-1.6c-0.8-1.3-2.2-2.1-3.7-2.1c-0.2,0-0.4,0-0.6,0
		c-1.4,0.1-2.6,0.7-3.8,1.7c-1.2,0.9-2,2.1-2.4,3.5c-0.2,0.6-0.3,1.2-0.3,1.7c0,1.3,0.4,2.5,1.2,3.5c1.2,1.6,3.1,2.6,5.5,3.2
		c1.6,0.4,3.3,0.6,5.1,0.6c1.1,0,2.2-0.1,3.4-0.2c3.5-0.4,6.6-1.1,9.2-2.1c2.6-1,5-2.3,6.9-4c2-1.7,3.6-3.7,5-6.1
		c1.3-2.3,2.4-5.1,3.4-8.2l7.7-26.3L95.5,73.1z M81.8,85.5c-0.6,2.2-1.6,4-2.8,5.6c-1.2,1.6-2.6,2.8-4,3.7c-1.4,0.9-2.8,1.3-4.1,1.5
		c-0.3,0-0.6,0.1-0.9,0.1c-1.7,0-2.5-0.5-3.2-1.5c-0.4-0.6-0.6-1.4-0.6-2.5c0-1.2,0.2-2.6,0.8-4.4c1-3.4,2.5-6.1,4.5-8.1
		c2-2,4-3,6.3-3.2c0.3,0,0.6-0.1,0.9-0.1c1.8,0,2.6,0.5,3.3,1.7c0.4,0.7,0.6,1.5,0.6,2.7C82.6,82.2,82.4,83.7,81.8,85.5 M167.8,40.6
		c3.6-4.2,4-9.2,1.6-11.2c-1.8,2.5-4.7,4.9-8.1,6.8c-4.3,2.3-10.6,4.6-14.5,4c-2.7,1.6-4.2,3.7-4.2,6.1c0,2.4,2.9,2.6,5.1,2.5
		c3.2,0,7-1,10.6-2.2C161.7,45.5,164.9,43.9,167.8,40.6 M144.8,49.9c-9.3,8.9,4.3,8.2,9.2,7.1c6.1-1.3,12.6-8.2,13.1-13.5
		c-3.3,2.7-7.5,4.1-10.9,5.1C152.2,49.8,148,50.6,144.8,49.9L144.8,49.9z M140.4,12.2c-0.4,2.3,1,4.2,1.4,6.1c0.6,2.3,0.2,5.1-0.5,8
		c-1.6,6.1-6.6,12.8-8.5,19c-2.1,7.1-1.7,14.7,7.5,11.1c-1-1.5-0.6-3.7,2.8-7c-0.4-0.2-0.7-0.3-1.1-0.5c-2.7-1.8-1.3-6.3,2.9-9.2
		c-0.1-0.1-0.3-0.2-0.4-0.3c-1.8-1.4-2.1-3.3,0.9-6.4c0.4-0.4,0.9-0.8,1.3-1.1c0.1-1,0.2-2.2-0.4-2.7c-0.2-0.2-0.2-0.7,0.3-0.9
		c0.6-0.3,1-0.1,1.3,0.2c0.6,0.5,0.7,1.4,0.7,2.3c3.6-1.7,7.4-1.4,10.9-3.9c0.7-0.5,2.2,0.2,1.4,0.8c-5.1,3.7-9.9,1.9-14.7,6.8
		c-4.7,4.7,2.3,4.6,4.5,4.2c2.6-0.4,5.3-1.5,8-2.7c4.5-2.1,10.8-6.7,10.4-11.1c-0.5-7-11.6-5.5-19.1-1.7c-0.7,0.4-1.9-0.4-1.2-0.9
		c1.3-3.7,2.3-7.1,2.4-10.4c0.1-2.5-0.9-4.3-2.9-5.1C145.6,5.5,141.1,8.2,140.4,12.2 M51.8,45.6c-6.2,9.4-15.7,14-21.3,10.3
		c-5.6-3.7-5.1-14.3,1.1-23.6c6.2-9.4,15.7-14,21.3-10.3C58.5,25.7,58,36.2,51.8,45.6"/>
</g>
</svg>
