<svg xmlns="http://www.w3.org/2000/svg" viewBox="0 0 77.83 46.41"><defs><style>.cls-1{fill:#fff;}</style></defs><title>greb@o-nama</title><g id="Layer_2" data-name="Layer 2"><g id="Layer_1-2" data-name="Layer 1"><path class="cls-1" d="M25,21.63S30,5.31,30.28,3.23c0-.29.38-2.07-.82-2.91-.41-.29-3.92-1.29-6,2.8a6,6,0,0,0-4.89-2c-.44,0-10.9,0-14.8,12.78-3.27,10.75,4,11.85,5.8,11.81A13.15,13.15,0,0,0,17.21,23c-.13.36-.93,3.63-3.42,4.83-.82.4-4.31,1.52-5.86.63-1-.55-1.24-2.94-3.52-2.94A4.4,4.4,0,0,0,.13,28.83C-1,33.74,5.54,34.61,7.42,34.61c12.36,0,16.46-8.09,17.62-13M28.58,12l-3,10.13a3.93,3.93,0,0,0-.18,1.07,1.74,1.74,0,0,0,.28,1,1.58,1.58,0,0,0,1.33.67h0a1.46,1.46,0,0,0,.29,0,3.23,3.23,0,0,0,1.8-.84,4.28,4.28,0,0,0,1.17-2l.88-3c.33-1.08.63-2,.91-2.75a11.76,11.76,0,0,1,.92-1.91,4.06,4.06,0,0,1,1-1.18,2.35,2.35,0,0,1,1.17-.46l.28,0a4.15,4.15,0,0,1,.81.1,5.18,5.18,0,0,0,1,.16h.11a2,2,0,0,0,.68-.2,13.19,13.19,0,0,0-1.38,3.12,10,10,0,0,0-.44,2.76,4.71,4.71,0,0,0,.91,3,4.89,4.89,0,0,0,4.1,1.68h0a12.23,12.23,0,0,0,4.25-.82,11.55,11.55,0,0,0,2.37-1.29,8.66,8.66,0,0,0,1.65-1.49,4.11,4.11,0,0,0,.83-1.4,2.11,2.11,0,0,0,.09-.55,1.16,1.16,0,0,0-.32-.82,1.33,1.33,0,0,0-1-.39l-.26,0a2.17,2.17,0,0,0-1.16.44c-.59.48-1,.86-1.41,1.14s-.71.52-1.09.77a5.51,5.51,0,0,1-1.09.54,4.39,4.39,0,0,1-1.11.26l-.35,0a1.78,1.78,0,0,1-1-.23,1.3,1.3,0,0,1-.61-.93,2.17,2.17,0,0,1-.07-.59,4.25,4.25,0,0,1,.1-.89l6.76-.76a7,7,0,0,0,2.55-.71A3.47,3.47,0,0,0,52,13.39a6.41,6.41,0,0,0,.26-1.76,5.55,5.55,0,0,0-.17-1.35,3.8,3.8,0,0,0-1.88-2.42,5.29,5.29,0,0,0-2.68-.62,7.94,7.94,0,0,0-1.07.06,11.28,11.28,0,0,0-3.32.9,11.12,11.12,0,0,0-2.86,1.87c-.16.14-.31.29-.46.44a1.5,1.5,0,0,0,0-.2,1.68,1.68,0,0,0-1-1.5A4.11,4.11,0,0,0,37,8.41a5.07,5.07,0,0,0-.55,0,4.51,4.51,0,0,0-2.29.89,10.45,10.45,0,0,0-.84.72,1.71,1.71,0,0,0-.09-.3A1.42,1.42,0,0,0,31.88,9l-.33,0c-1.47.15-2.49,1.32-3,3m15,0a3.93,3.93,0,0,1,2.21-1l.38,0a1.28,1.28,0,0,1,1.14.47,1.62,1.62,0,0,1,.25,1,5.13,5.13,0,0,1-.07.82l-5.25.58A6.42,6.42,0,0,1,43.56,12M77.75,23.51a3.72,3.72,0,0,0-1.65-2.62,4.51,4.51,0,0,0-2.46-.64,8.21,8.21,0,0,0-.84.05,7.85,7.85,0,0,0-3,.93A13.34,13.34,0,0,0,68.5,22l1.13-3.86L69.09,18l.54.15a3.91,3.91,0,0,0,.16-1,1.73,1.73,0,0,0-.23-.92,1.49,1.49,0,0,0-1.36-.67h-.32a2.82,2.82,0,0,0-1.74.87,4.56,4.56,0,0,0-1.09,2L60.4,34.29a4.16,4.16,0,0,0-.17,1,1.69,1.69,0,0,0,.25.93,1.51,1.51,0,0,0,1.29.66h0l.3,0a3,3,0,0,0,1.72-.81,3.56,3.56,0,0,0,.85-1.16l.07.08a3.71,3.71,0,0,0,.82.68,3.51,3.51,0,0,0,1.31.46,4.47,4.47,0,0,0,.91.08,7.27,7.27,0,0,0,.78,0,8.23,8.23,0,0,0,2.88-.89A10.65,10.65,0,0,0,74,33.41a12.93,12.93,0,0,0,2-2.65,14,14,0,0,0,1.37-3.2,10.53,10.53,0,0,0,.47-3,6.43,6.43,0,0,0-.08-1.09m-5.17,4.26a7.46,7.46,0,0,1-1.85,3.29,4.18,4.18,0,0,1-2.39,1.3l-.4,0a1.44,1.44,0,0,1-1.34-.63,1.94,1.94,0,0,1-.25-1.07A6.21,6.21,0,0,1,66.64,29a8.2,8.2,0,0,1,1.14-2.44,6,6,0,0,1,1.61-1.63,4,4,0,0,1,1.78-.69h.31a1.33,1.33,0,0,1,.89.26,1.56,1.56,0,0,1,.5,1.1,2.12,2.12,0,0,1,0,.37,6.4,6.4,0,0,1-.31,1.84M60.32,32.51a1.12,1.12,0,0,0-.32-.83,1.37,1.37,0,0,0-1-.39,1.18,1.18,0,0,0-.27,0,2.14,2.14,0,0,0-1.15.44c-.59.48-1.06.86-1.41,1.13s-.71.53-1.1.78a6,6,0,0,1-1.08.54,4.46,4.46,0,0,1-1.12.25l-.35,0a1.93,1.93,0,0,1-.95-.23,1.33,1.33,0,0,1-.61-.93,2.17,2.17,0,0,1-.07-.59,3.72,3.72,0,0,1,.11-.89l6.76-.75a7.09,7.09,0,0,0,2.55-.73,3.49,3.49,0,0,0,1.58-2.2,6.34,6.34,0,0,0,.26-1.75A5.57,5.57,0,0,0,62,25.06a3.8,3.8,0,0,0-1.88-2.42A5.3,5.3,0,0,0,57.4,22a10.09,10.09,0,0,0-1.06.07A10.84,10.84,0,0,0,53,23a10.67,10.67,0,0,0-2.86,1.86,4.78,4.78,0,0,0-.46.44,1.41,1.41,0,0,0,0-.2,1.63,1.63,0,0,0-1-1.49,4,4,0,0,0-1.82-.41,5.25,5.25,0,0,0-.56,0,4.48,4.48,0,0,0-2.28.89,10.45,10.45,0,0,0-.84.72,1.51,1.51,0,0,0-.1-.3,1.4,1.4,0,0,0-1.38-.78,2,2,0,0,0-.34,0c-1.46.15-2.48,1.32-3,3.05L35.45,37A3.9,3.9,0,0,0,35.26,38a1.79,1.79,0,0,0,.28,1,1.58,1.58,0,0,0,1.34.68h0l.29,0a3.2,3.2,0,0,0,1.8-.84,4.11,4.11,0,0,0,1.17-2l.89-3c.32-1.08.62-2,.91-2.74a11.48,11.48,0,0,1,.92-1.92,4,4,0,0,1,1-1.18,2.36,2.36,0,0,1,1.16-.45l.28,0a4.07,4.07,0,0,1,.81.1,4.56,4.56,0,0,0,1,.16h.12a2,2,0,0,0,.68-.2,12.79,12.79,0,0,0-1.38,3.12,9.66,9.66,0,0,0-.45,2.76,4.71,4.71,0,0,0,.91,3,4.9,4.9,0,0,0,4.1,1.67h0A11.13,11.13,0,0,0,52.39,38a11,11,0,0,0,3-.74A11.91,11.91,0,0,0,57.76,36a9,9,0,0,0,1.65-1.49,4.28,4.28,0,0,0,.83-1.4,2.09,2.09,0,0,0,.08-.55M53.4,26.79a3.89,3.89,0,0,1,2.2-1.05l.38,0a1.25,1.25,0,0,1,1.14.46,1.67,1.67,0,0,1,.25,1,5.16,5.16,0,0,1-.07.83l-5.24.58a5.89,5.89,0,0,1,1.34-1.81m-16.73.65.54.16a6.29,6.29,0,0,0,.3-1.69,2.48,2.48,0,0,0-.06-.54,1.2,1.2,0,0,0-.54-.77,1.85,1.85,0,0,0-.9-.22c-.13,0-.25,0-.37,0A3,3,0,0,0,34,25.2a3.54,3.54,0,0,0-.84,1.18A3.88,3.88,0,0,0,32,25.5a4.56,4.56,0,0,0-2-.39c-.27,0-.56,0-.86,0a8.71,8.71,0,0,0-2.69.78A10.24,10.24,0,0,0,24,27.6a11.56,11.56,0,0,0-2,2.49,12.83,12.83,0,0,0-1.37,3.14,10.59,10.59,0,0,0-.49,3,6.58,6.58,0,0,0,.07,1A3.94,3.94,0,0,0,21.76,40a4.26,4.26,0,0,0,2.53.72,7.21,7.21,0,0,0,.79,0,7.78,7.78,0,0,0,3-1,10.76,10.76,0,0,0,1-.68c-.08.23-.15.44-.21.6a5.5,5.5,0,0,1-.74,1.42,3.45,3.45,0,0,1-1.23,1,5.74,5.74,0,0,1-2.11.58l-.62,0a3,3,0,0,1-.44,0,1.46,1.46,0,0,1-.55-.18,1.59,1.59,0,0,1-.37-.4c-.13-.21-.25-.42-.37-.64a1.71,1.71,0,0,0-1.5-.84l-.25,0a3,3,0,0,0-1.52.66,2.87,2.87,0,0,0-.95,1.41,2.56,2.56,0,0,0-.11.71,2.44,2.44,0,0,0,.49,1.42,4,4,0,0,0,2.2,1.3,7.73,7.73,0,0,0,2.05.25,13.38,13.38,0,0,0,1.38-.08A15.43,15.43,0,0,0,28,45.5a8.87,8.87,0,0,0,4.78-4.06,15.47,15.47,0,0,0,1.35-3.28L37.21,27.6Zm-5.48,5a6.69,6.69,0,0,1-1.12,2.25,5.78,5.78,0,0,1-1.59,1.48,4,4,0,0,1-1.63.59l-.37,0a1.37,1.37,0,0,1-1.27-.61,1.87,1.87,0,0,1-.24-1,6.45,6.45,0,0,1,.31-1.77,7.42,7.42,0,0,1,1.79-3.24,4.18,4.18,0,0,1,2.52-1.3,2.23,2.23,0,0,1,.36,0,1.31,1.31,0,0,1,1.31.68,2.22,2.22,0,0,1,.23,1.1,6.7,6.7,0,0,1-.3,1.83m34.52-18c1.46-1.7,1.58-3.69.62-4.48a10.12,10.12,0,0,1-3.26,2.73c-1.71.94-4.25,1.83-5.81,1.59a3,3,0,0,0-1.68,2.46c0,1,1.18,1,2.06,1a14.93,14.93,0,0,0,4.26-.88,8.22,8.22,0,0,0,3.81-2.44m-9.23,3.74c-3.73,3.57,1.74,3.29,3.69,2.87,2.46-.52,5-3.31,5.26-5.41A12.49,12.49,0,0,1,61,17.64a10.6,10.6,0,0,1-4.55.49ZM54.72,3a5.69,5.69,0,0,0,.57,2.44,6.85,6.85,0,0,1-.2,3.23c-.63,2.44-2.66,5.14-3.41,7.63-.84,2.84-.69,5.89,3,4.45-.42-.6-.24-1.5,1.12-2.8a2.41,2.41,0,0,1-.42-.22c-1.08-.7-.51-2.53,1.18-3.7l-.16-.1c-.71-.54-.86-1.34.36-2.56a4.36,4.36,0,0,1,.53-.45c0-.39.09-.87-.16-1.09-.08-.08-.08-.27.13-.37a.46.46,0,0,1,.53.06,1.15,1.15,0,0,1,.27.93c1.44-.66,3-.54,4.37-1.56.3-.21.88.1.56.32-2,1.49-4,.79-5.92,2.74s.94,1.84,1.82,1.7a13.59,13.59,0,0,0,3.21-1.1c1.82-.83,4.32-2.7,4.19-4.45-.21-2.8-4.67-2.21-7.67-.7-.27.14-.77-.14-.48-.35a14.63,14.63,0,0,0,1-4.19A2,2,0,0,0,58,.77C56.81.3,55,1.35,54.72,3M19.13,16.39c-2.49,3.77-6.32,5.61-8.56,4.13s-2-5.73.46-9.49,6.31-5.61,8.56-4.13,2,5.73-.46,9.49"/></g></g></svg>