<svg xmlns="http://www.w3.org/2000/svg" viewBox="0 0 120.31 14.7"><defs><style>.cls-1{fill:#fff;}</style></defs><title>joker@o-nama</title><g id="Layer_2" data-name="Layer 2"><g id="Layer_1-2" data-name="Layer 1"><path class="cls-1" d="M28.68,0c-6.37,0-9.45,2.33-9.45,7.34,0,4.1,2.07,6.43,6.31,7.13l.26-.09v-.65l.39.53L26.8,14l-.38.54h0a20,20,0,0,0,2.25.11c6.39,0,9.47-2.35,9.47-7.36S35.05,0,28.68,0M26.86,2.54l.33-.5,0,.59.57.16L27.23,3l0,.59-.38-.46-.55.21.32-.49-.37-.47ZM24.32,5.73V4.43l.75,1.07,1.25-.4-.78,1.05.75,1.07L25.07,6.8l-.78,1,0-1.31-1.24-.42Zm.09,4.66L23.93,10l-.48.35.18-.56-.48-.35h.59l.19-.57.18.57h.59l-.48.35Zm6.47,1.43H28.55L27.83,14l-.72-2.21H24.77l1.89-1.38-.72-2.22.6.44a5.16,5.16,0,0,1-.09-1c0-1.92.74-2.89,2.23-2.89s2.24,1,2.24,2.89c0,1.66-.68,2.67-1.81,2.87Zm1.55-2.55L32,8.93l-.48.34.19-.56-.48-.35h.59L32,7.8l.19.56h.59l-.48.35ZM31.11,6.69l.68-2.11L30,3.28h2.21l.68-2.1.69,2.1H35.8L34,4.58l.68,2.11L32.9,5.39Zm3.45,2.5-.37-.46-.55.21.32-.5L33.59,8l.57.15.32-.49,0,.59.57.15-.56.22Zm2.67-3.66-.37.5.36.51-.59-.21-.37.5V6.21L35.68,6l.59-.19V5.21l.36.5ZM17.16.43H11.47a.71.71,0,0,0-.71.72V6L12,5.77l.15-1.35.67,1.18,1.33-.28-.91,1,.67,1.17L12.63,7l-.91,1,.14-1.35-1.1-.5V7.32c0,1.59-.32,2.54-1.07,2.94l.89.31.76-1,0,1.26,1.19.41-1.2.36,0,1.26-.72-1-1.2.36.76-1-.59-.85a2.31,2.31,0,0,1-.82.14c-1.39,0-2.1-.27-2.1-2.45v0A.65.65,0,0,0,6,7.41H.66A.65.65,0,0,0,0,8.06l0,0c0,6.38,7.11,6.6,8.41,6.6a24,24,0,0,0,4.71-.58l0-1.41.83,1.11a6.32,6.32,0,0,0,2.2-1.46L15.77,12l-.55.26.3-.53-.42-.46.6.13.3-.54.07.61.6.12-.55.25.05.49a6.06,6.06,0,0,0,1.52-3.16l-.41-.34.46,0a10.17,10.17,0,0,0,.1-1.49l0-.36-.18-.46-.61,0,.47-.39-.22-.57.51.34,0,0V1.15a.72.72,0,0,0-.72-.72M4.73,11.36l-.35.5v-.61l-.58-.18.58-.2v-.6l.37.48.57-.19-.35.5.37.49ZM15,9.14l-.35.5V9l-.59-.18.58-.2V8l.37.49.57-.19-.35.49.37.5Zm42.7,3.68L51.45,8.29,51,9.54l-.65-2,0,0H48.25l1-.77h0L50,6.25l-.65-2L51,5.48l5.63-4.07c.61-.41.23-1-.19-1H51.94A1.73,1.73,0,0,0,50.8.86l-4.2,3V1.09A.65.65,0,0,0,46,.44h-3.8l-.47.3.15.6L41.36,1l-.53.33L41.06.7,40.75.44h-.61a.65.65,0,0,0-.65.65V11.81l.33-.23-.28-.86.73.53.73-.52-.28.85.73.53h-.91l-.27.86L40,12.11h-.5v1.53a.64.64,0,0,0,.65.64H46a.64.64,0,0,0,.65-.64V11.89h0l-1.72.46L46,11,45,9.46l1.66.64,1.12-1.39-.09,1.78,1.66.65-1.45.38,3.23,2.34a1.92,1.92,0,0,0,1.08.42h5.13c.68,0,1.31-.77.36-1.46m-17-6.59,0,.59-.32-.5-.58.15L40.18,6l-.32-.49.55.21.37-.46,0,.59.55.21ZM44.6,5l-.28.85L44.05,5h-.91l.73-.53-.27-.86.73.53.73-.53-.28.86.73.53Zm32.16,5.4h0Zm19.12,2.44L91,9.32c2.81-.2,4.83-2.19,4.83-4.37,0-3.55-3.28-4.5-5.84-4.5H77.4a.65.65,0,0,0-.65.65V9.65l.31,0,.49-1.14.27,1.22,1.24.11L78,10.5l.27,1.21-.93-.82-.58.34v2.41a.64.64,0,0,0,.65.64h5.81a.64.64,0,0,0,.65-.64V9.92l5.45,3.94a1.92,1.92,0,0,0,1.08.42h5.13c.68,0,1.31-.77.36-1.46M92,2.18l.55.21.37-.46,0,.59.55.21-.57.16,0,.59L92.54,3,92,3.13l.38-.46ZM79.22,3.92l.49-1.14L78.78,2,80,2.08l.5-1.14.27,1.21L82,2.27,81,2.9l.27,1.21-.93-.82Zm2.06,8.73,0,.59-.32-.5-.58.15.38-.46-.32-.49.55.21.37-.46,0,.59.55.21Zm8.3-4.16L87.4,6.93l-2.16,1.6.61-1.91h-2V4.42h.13c.41,0,.88,0,1.42,0h1.19l.81-2.56.85,2.55,2.68,0L88.73,6Zm2.93,5.07-.63-.26-.43.51,0-.67-.62-.25.65-.16,0-.67.35.57.66-.16-.44.51ZM74,.44H60.1a.64.64,0,0,0-.64.65V2.3l.43.7.88-.22-.58.69.47.77-.84-.34-.36.44v9.3a.63.63,0,0,0,.64.64H74a.67.67,0,0,0,.68-.67V10.53A.67.67,0,0,0,74,9.86H66.56V8.16h3.85a.67.67,0,0,0,.67-.67V6.4a.67.67,0,0,0-.67-.68H66.56l-.3-.41-.5.15L66.07,5l-.31-.42.5.16.3-.41H74a.68.68,0,0,0,.68-.68V1.12A.68.68,0,0,0,74,.44M72.08,12.19l.07-.89.48.76.87-.21-.58.68.47.77L72.56,13l-.58.69.06-.9-.83-.34ZM63.77,2.32l.49.16.31-.42v.52l.49.16-.49.16v.52L64.26,3l-.49.16.3-.42ZM65.92,11l-1.72.46-.1,1.78-1-1.49-1.72.45,1.12-1.38-1-1.5,1.67.64,1.12-1.38-.09,1.78Zm5-8.22-.62-.25L69.9,3l0-.67-.62-.25L70,1.93l0-.66.35.56L71,1.68l-.43.51Z"/><path class="cls-1" d="M118.29,5.26a2,2,0,0,0-1.94,2.57L113,9.1l-1.58-4.76a2,2,0,1,0-1.87,0l-1.46,4,1.3.5-1.44.38-.09,1.49-.8-1.25-1.45.38.87-1.07-1.86-.55a2.07,2.07,0,0,0,0-.35,2,2,0,1,0-2,2,1.91,1.91,0,0,0,.8-.17l2.37,4a.82.82,0,0,0,.69.4h2.39l-1.58-.75,2.59-.49.34-2.6,1.26,2.3,2.59-.47L112.26,14l0,.11h2.09a.81.81,0,0,0,.71-.43l2.41-4.57a2,2,0,0,0,.77.15,2,2,0,0,0,0-4"/></g></g></svg>