<svg xmlns="http://www.w3.org/2000/svg" viewBox="0 0 79.89 17.45"><defs><style>.cls-1{fill:#fff;}</style></defs><title>loto@o-nama</title><g id="Layer_2" data-name="Layer 2"><g id="Layer_1-2" data-name="Layer 1"><path class="cls-1" d="M68.66,17.45c7.59,0,11.23-2.8,11.23-8.74S76.23,0,68.66,0s-11.2,2.76-11.2,8.71c0,4.87,2.45,7.62,7.48,8.46l.3-.1v-.78l.47.62.74-.25L66,17.3h0a24.77,24.77,0,0,0,2.67.14m-2.53-7.18A5.38,5.38,0,0,1,66,9.08c0-2.27.89-3.42,2.65-3.42s2.66,1.15,2.66,3.42c0,2-.81,3.17-2.14,3.41L71.28,14H68.51l-.86,2.63L66.8,14H64l2.24-1.63-.86-2.63ZM77.68,6.18l.43.6.7-.22-.44.59.43.6-.7-.23-.44.59V7.37L77,7.14l.7-.22ZM72.55,9.25l.22.67h.7l-.57.42.21.67-.56-.42L72,11l.22-.67-.57-.42h.7ZM73.67,1.4l.81,2.5h2.63L75,5.44l.81,2.5L73.67,6.39,71.55,7.94l.81-2.5L70.24,3.9h2.62ZM63,10.58l.22.67h.7l-.56.41.21.67L63,11.91l-.57.42.23-.67-.57-.41h.7Zm.48-5.32.9,1.26,1.47-.46L65,7.3l.9,1.26-1.47-.49-.92,1.24V7.76L62,7.26l1.48-.46Zm12,3.8,0,.71.68.18-.65.25,0,.7-.44-.55-.66.26.39-.59-.44-.55.68.18ZM66.89,2.42l0,.71.68.18L67,3.56l0,.7-.45-.55L65.89,4l.38-.59-.44-.55.68.18ZM.7,16.93H1.88l-.41-.57,1.71.57H4.26l1.4-1.88,0,1.88h9a.85.85,0,0,0,.85-.85V11.92a.85.85,0,0,0-.85-.85H9.27a.84.84,0,0,1-.82-.82v-3l-1.31.59.17,1.6L6.23,8.24,4.76,8.9l.8-1.39L4.48,6.31l1.57.33.81-1.4L7,6.85l1.42.29V1.36A.86.86,0,0,0,7.59.51H.85A.85.85,0,0,0,0,1.36V7L0,7l.61-.39-.26.68.55.46-.72,0L0,8.28v2.2l.7-.05L0,11v5.26a.84.84,0,0,0,.7.65m7.06-5.57.9,1.18,1.41-.48-.86,1.22.9,1.18L8.69,14l-.85,1.23,0-1.49-1.43-.43,1.41-.49ZM2.23,12.84l.35.63.71-.14-.49.53.35.63-.65-.3L2,14.72,2.09,14l-.66-.29.71-.15ZM3.64,9.48v.73l.68.23-.69.21v.73l-.42-.59L2.5,11l.44-.58-.42-.59.68.23Zm8.72,3v.72l.69.23-.69.22v.72l-.42-.59-.69.22.43-.58-.41-.59.68.23Zm26-6.35v.06a.85.85,0,0,0,.85.85h1.61l-.69-1.25Zm0-3.54V5.24l.92-1ZM51.79,11.8v-.48l-.17.17Zm-7.62,5.13h2.62l-.63-.9-1.48.45.94-1.23L44.73,14l1.46.51.94-1.23,0,1.55,1.46.51-1.48.44,0,1.18h3.87a.86.86,0,0,0,.86-.85V12l-.47-.22-.48.5.1-.69-.63-.3.68-.12.1-.7.33.62.37-.07V7.76l-.53-.26-2,2,.39-2.8L47.15,5.5,49.93,5l.39-2.8,1.33,2.5,2.78-.5-2,2L52.9,7h3a.85.85,0,0,0,.85-.85V1.36a.85.85,0,0,0-.85-.85H44.43l-.21.7L44,.51H39.22a.85.85,0,0,0-.85.79V2l2.11,1L42.42.9l-.35,2.81,2.56,1.2-2.78.54L41.66,7h.81a.85.85,0,0,1,.85.85v8.2a.85.85,0,0,0,.85.85M46.86,1.36l.33.62.69-.12-.49.5.33.62-.62-.31-.49.5.1-.69-.63-.3.69-.12Zm-1.5,4.91.33.61.69-.12-.49.5.33.62-.63-.31-.48.5.1-.69-.63-.3L45.26,7ZM47.05,9.5l.16.68.7.06-.6.36.16.68-.53-.46-.6.37.27-.65-.52-.46.69.07Zm-20.24,8c7.58,0,11.23-2.8,11.23-8.74S34.37,0,26.81,0s-11.2,2.76-11.2,8.71c0,4.87,2.44,7.62,7.48,8.46l.3-.1v-.78l.46.62.74-.25-.45.64h0a24.77,24.77,0,0,0,2.67.14m-2.54-7.18a6.1,6.1,0,0,1-.11-1.19c0-2.27.88-3.42,2.65-3.42s2.65,1.15,2.65,3.42c0,2-.8,3.17-2.14,3.41L29.42,14H26.66l-.86,2.63L24.94,14H22.18l2.24-1.63-.86-2.63ZM35.82,6.18l.43.6L37,6.56l-.44.59.42.6-.7-.23-.44.59V7.37l-.7-.23.71-.22ZM30.69,9.25l.22.67h.7l-.56.42.21.67-.57-.42-.57.42.22-.67-.57-.42h.71ZM31.82,1.4l.81,2.5h2.62L33.13,5.44l.81,2.5L31.82,6.39,29.7,7.94l.8-2.5L28.38,3.9H31ZM21.17,10.58l.22.67h.7l-.57.41.22.67-.57-.42-.57.42.22-.67-.57-.41H21Zm.48-5.32.9,1.26L24,6.06,23.1,7.3,24,8.56l-1.46-.49L21.6,9.31l0-1.55-1.47-.5,1.48-.46Zm12,3.8,0,.71.68.18-.66.25,0,.7-.44-.55-.66.26.38-.59-.44-.55.68.18ZM25,2.42l0,.71.68.18-.65.25,0,.7-.44-.55L24,4l.38-.59L24,2.83l.68.18Z"/></g></g></svg>