<svg xmlns="http://www.w3.org/2000/svg" viewBox="0 0 101.48 19.17"><defs><style>.cls-1{fill:#fff;}</style></defs><title>lotoPlus@o-nama</title><g id="Layer_2" data-name="Layer 2"><g id="Layer_1-2" data-name="Layer 1"><path class="cls-1" d="M23.74,3.41l0,.69.64.18-.63.25,0,.69-.42-.54-.62.25.36-.58-.41-.54.64.18ZM32,10l0,.69.65.18-.63.25,0,.69-.42-.54-.62.25.36-.58-.42-.54.65.18ZM20.53,6.21l.85,1.25L22.78,7,21.9,8.23l.85,1.24L21.36,9l-.88,1.23,0-1.53-1.39-.49,1.4-.46Zm-.46,5.25.21.66H21l-.54.42.2.65-.54-.41-.54.41.21-.65-.54-.42h.66Zm10.1-9.07.77,2.47h2.49l-2,1.53.77,2.46-2-1.52-2,1.52.77-2.46-2-1.53H29.4ZM29.1,10.16l.21.66H30l-.55.41.21.66-.54-.41-.54.41.21-.66-.54-.41h.67Zm4.87-3,.4.59L35,7.49l-.42.59.41.6-.67-.24L34,9V8.3l-.67-.24L34,7.85Zm-11,4a6,6,0,0,1-.1-1.18c0-2.24.84-3.37,2.51-3.37S27.94,7.74,27.94,10c0,2-.77,3.14-2,3.38l2,1.5H25.27l-.81,2.6-.81-2.6H21l2.13-1.6-.81-2.61Zm2.41,7.09c7.19,0,10.65-2.76,10.65-8.63S32.59,1,25.42,1,14.79,3.74,14.79,9.62c0,4.81,2.33,7.53,7.1,8.36l.28-.1v-.77l.44.62.7-.25-.43.63h0a22.39,22.39,0,0,0,2.53.13m19.2-7.85.15.67.66.06-.57.36.15.67-.5-.45-.57.35.26-.63L43.7,11l.66.06ZM43,7.2l.31.61L44,7.69l-.47.49.32.61-.6-.3-.46.5.09-.68L42.27,8l.65-.11Zm1.42-4.84.32.61.65-.12-.46.49.31.61-.59-.3-.46.49.09-.67-.59-.31L44.34,3ZM41.88,17.74h2.49l-.6-.89-1.41.45.89-1.22-.84-1.26,1.39.5.89-1.22,0,1.54,1.39.5-1.41.44,0,1.16H48.3a.82.82,0,0,0,.8-.83v-4l-.43-.22-.47.5.1-.69-.6-.3.65-.12.09-.68.31.61.35-.07V8.8s0-.09,0-.12l-.5-.26-1.86,2,.37-2.76L44.71,6.45,47.35,6l.37-2.77L49,5.65l2.64-.49-1.86,2,.4.78H53a.83.83,0,0,0,.81-.84V2.35A.82.82,0,0,0,53,1.52H42.13l-.2.68-.23-.68H37.19a.82.82,0,0,0-.81.77V3l2,1,1.83-2-.33,2.77,2.43,1.19-2.64.53L39.5,8h.77a.82.82,0,0,1,.81.84v8.11a.82.82,0,0,0,.8.83m7.22-5.07V12.2l-.15.16ZM36.38,3.56V6.19l.88-1Zm0,3.5v.06a.83.83,0,0,0,.81.84h1.52l-.65-1.24ZM11.72,13.33v.72l.64.23-.65.21v.72l-.4-.58-.65.21.41-.58-.4-.58.65.23ZM3.45,10.38l0,.72.66.23-.66.21v.72L3,11.67l-.66.22.41-.58-.39-.58L3,11ZM2.11,13.7l.34.62.67-.14-.46.54.33.62L2.37,15l-.47.52L2,14.85l-.62-.29L2,14.41Zm5.24-1.46.86,1.17,1.33-.48-.81,1.2.86,1.18-1.36-.43-.8,1.21,0-1.48-1.35-.42,1.33-.48ZM.66,17.74H1.78l-.38-.56L3,17.74H4l1.33-1.85,0,1.85h8.5a.82.82,0,0,0,.81-.83V12.79a.82.82,0,0,0-.81-.83H8.79A.84.84,0,0,1,8,11.14v-3l-1.24.59.16,1.58-1-1.18-1.39.65.76-1.38-1-1.18,1.5.32L6.5,6.2l.16,1.57L8,8.07V2.35a.82.82,0,0,0-.81-.83H.81A.82.82,0,0,0,0,2.35V8L0,8,.6,7.58l-.25.67.53.46L.2,8.66,0,9.19v2.18l.67,0L0,11.9v5.2a.8.8,0,0,0,.66.64M63.43,3.41l0,.69.64.18-.62.25,0,.69-.42-.54-.62.25.36-.58-.42-.54.65.18ZM71.64,10l0,.69.64.18-.62.25,0,.69-.42-.54-.63.25.37-.58-.42-.54.64.18ZM60.22,6.21l.84,1.25L62.46,7l-.87,1.23.84,1.24L61.05,9l-.88,1.23,0-1.53L58.8,8.19l1.4-.46Zm-.46,5.25.2.66h.67l-.54.42.21.65-.54-.41-.54.41.21-.65-.54-.42h.66ZM69.85,2.39l.78,2.47h2.49l-2,1.53.77,2.46-2-1.52-2,1.52.77-2.46-2-1.53h2.49Zm-1.06,7.77.21.66h.66l-.54.41.21.66-.54-.41-.54.41.21-.66-.54-.41h.66Zm4.86-3,.41.59.67-.22-.42.59.4.6-.66-.24L73.63,9V8.3L73,8.06l.67-.21Zm-11,4A6,6,0,0,1,62.59,10c0-2.24.84-3.37,2.52-3.37S67.62,7.74,67.62,10c0,2-.76,3.14-2,3.38l2,1.5H65l-.81,2.6-.81-2.6H60.71l2.13-1.6L62,10.65Zm2.41,7.09c7.19,0,10.65-2.76,10.65-8.63S72.27,1,65.11,1,54.48,3.74,54.48,9.62c0,4.81,2.32,7.53,7.1,8.36l.28-.1v-.77l.44.62.7-.25-.42.63h0a22.27,22.27,0,0,0,2.53.13"/><path class="cls-1" d="M99.9,6.47H97.59l1.59.79Zm-4.72,4.37-1.58-.27-.24-1.66-.74,1.48-1.57-.28,1.12,1.2-.74,1.48L92.86,12,94,13.23l-.23-1.65Zm-3.82,6.07.63-.32-.7-.12-.1-.73-.33.65-.69-.12.49.53-.32.65.63-.33.49.52Zm1.18-15,.38.41-.25.5.48-.25.39.4-.08-.56.48-.25-.53-.09-.09-.57L93.07,2Zm8.94,7.27v2.29a1.18,1.18,0,0,1-1.15,1.21h-5V18a1.19,1.19,0,0,1-1.16,1.21H90.46A1.19,1.19,0,0,1,89.3,18V12.7h-5a1.19,1.19,0,0,1-1.16-1.21V10.8l.44.47-.1-.73.63-.33-.7-.11-.1-.73-.17.34v-2a1.19,1.19,0,0,1,1.16-1.21h4.3l.15.07-.11.81.54-.59.71.36-.37-.72L90,5.81,89.3,6V1.21A1.19,1.19,0,0,1,90.46,0h3.66a1.19,1.19,0,0,1,1.16,1.21V6.47h1.9l1,1.89-1.63,1.8,2.33-.45L100,11.87l.31-2.45Zm-.81-2.67a1.2,1.2,0,0,1,.81,1.15v.73l-1-.49Z"/></g></g></svg>