<?xml version="1.0" encoding="utf-8"?>
<!-- Generator: Adobe Illustrator 25.0.1, SVG Export Plug-In . SVG Version: 6.00 Build 0)  -->
<svg version="1.1" id="Layer_1" xmlns="http://www.w3.org/2000/svg" xmlns:xlink="http://www.w3.org/1999/xlink" x="0px" y="0px"
	 viewBox="0 0 729.5 194.3" enable-background="new 0 0 729.5 194.3" xml:space="preserve">
<path fill="#E51B2B" d="M614.2,150H70.4c-7.6,0-13.8-6.2-13.8-13.8V57c0-7.6,6.2-13.8,13.8-13.8h543.8c7.6,0,13.8,6.2,13.8,13.8
	v79.2C628,143.8,621.8,150,614.2,150z"/>
<g>
	<path fill="#FFEB41" d="M38.1,68.6c9.5-1.1,18.3-5.6,24.7-12.7c1.7-1.9,3.7-2.1,4.5-0.2c0.3,0.6,0.5,1.2,0.7,1.7
		c6.1-9.9,6.9-22.7,1.2-33.8C63.6,12.6,52.7,5.9,41.1,5.1c0.4,0.7,0.8,1.4,1.2,2.1c1,1.8-0.3,3.3-2.8,3.6
		c-9.5,1.1-18.3,5.6-24.7,12.7c-1.7,1.9-3.7,2.1-4.5,0.2c-0.3-0.6-0.5-1.2-0.7-1.7c-5.6,9.8-6.3,22.2-0.8,33
		c5.6,10.8,16,17.4,27.2,18.5c-0.2-0.4-0.5-0.8-0.7-1.2C34.3,70.4,35.6,69,38.1,68.6z M27.8,58.9c-3.8-7.1-7.5-14.2-11.1-21.5
		c-0.9-1.9-0.2-4.8,1.7-6.4c7.2-6.2,15.8-10.7,25.1-12.9c2.4-0.6,5.2,0.5,6.2,2.3c3.8,7.1,7.5,14.2,11.1,21.5
		c0.9,1.9,0.2,4.8-1.7,6.4C52,54.6,43.3,59.1,34.1,61.3C31.7,61.9,28.8,60.8,27.8,58.9z"/>
	<path fill="#152238" d="M60.9,41.9c-3.6-7.2-7.3-14.3-11.1-21.5c-1-1.8-3.8-2.9-6.2-2.3c-9.3,2.2-17.9,6.7-25.1,12.9
		c-1.9,1.6-2.6,4.6-1.7,6.4c3.6,7.2,7.3,14.3,11.1,21.5c1,1.8,3.8,2.9,6.2,2.3c9.3-2.2,17.9-6.7,25.1-12.9
		C61,46.7,61.8,43.8,60.9,41.9z M36,30c-2.9,1.5-4.4,2.2-7.2,3.9c-0.7-1.3-1-1.9-1.7-3.2c4.8-2.9,7.2-4.2,12.4-6.3
		c0.7,8.4,1.5,16.8,2.3,25.1c-1.6,0.8-2.4,1.2-4.1,1.9C37.2,44.3,36.6,37.1,36,30z M38.8,56.4c-0.3-0.6-0.5-1-0.8-1.6
		c5.7-2.3,8.4-3.7,13.6-7c0.3,0.7,0.5,1,0.8,1.6C47.3,52.8,44.6,54.2,38.8,56.4z"/>
	<path fill="#FFEB41" d="M39.5,24.4c-5.2,2.1-7.7,3.3-12.4,6.3c0.7,1.3,1,1.9,1.7,3.2c2.8-1.7,4.3-2.5,7.2-3.9
		c0.6,7.2,1.3,14.3,1.8,21.5c1.6-0.7,2.5-1.1,4.1-1.9C41,41.1,40.2,32.7,39.5,24.4z"/>
	<path fill="#FFEB41" d="M38,54.8c0.3,0.6,0.5,1,0.8,1.6c5.7-2.2,8.5-3.6,13.6-7c-0.3-0.7-0.5-1-0.8-1.6
		C46.4,51.1,43.7,52.5,38,54.8z"/>
	<path fill="#152238" d="M48.3,71.3c5.3-1.5,7.6-2.8,11.8-6.4c0.1,0.5,0.1,1,0.2,1.5c3.1-2.5,5.8-5.5,7.8-8.9
		c-0.3-0.6-0.5-1.2-0.7-1.7c-0.8-1.9-2.8-1.7-4.5,0.2C56.4,63,47.6,67.5,38.1,68.6c-2.5,0.3-3.8,1.8-2.8,3.6
		c0.2,0.4,0.5,0.8,0.7,1.2c0.1,0.2,0.2,0.3,0.3,0.5c4.2,0.3,8.4-0.2,12.5-1.5C48.7,72,48.5,71.7,48.3,71.3z"/>
	<path fill="#FFEB41" d="M48.3,71.3c0.2,0.4,0.4,0.8,0.6,1.1c1.9-0.6,3.8-1.3,5.6-2.3c2.1-1.1,4-2.3,5.8-3.8c-0.1-0.5-0.1-1-0.2-1.5
		C55.9,68.4,53.5,69.7,48.3,71.3z"/>
	<path fill="#152238" d="M14.8,23.5c6.4-7.1,15.2-11.6,24.7-12.7c2.5-0.3,3.8-1.8,2.8-3.6c-0.4-0.7-0.8-1.4-1.2-2.1
		C35,4.7,28.7,5.9,22.9,8.9S12.5,16.3,9.4,21.5c0.1,0.2,0.1,0.3,0.2,0.5c0.3,0.6,0.5,1.2,0.7,1.7C11.2,25.6,13.1,25.4,14.8,23.5z
		 M31.4,9.1c-5.9,1.5-8.5,2.9-13.2,6.8c-0.3-0.7-0.5-1-0.8-1.6c4.6-4,7.3-5.3,13.2-6.8C30.9,8.2,31.1,8.5,31.4,9.1z"/>
	<path fill="#FFEB41" d="M18.2,15.9c4.7-3.9,7.3-5.3,13.2-6.8c-0.3-0.6-0.5-1-0.9-1.6C24.7,9,22,10.3,17.4,14.3
		C17.7,15,17.9,15.3,18.2,15.9z"/>
</g>
<g>
	<g>
		<path fill="#FFEB41" d="M600.6,190.7l-8.9-18.1c-2.5-5-2.8-10.8-1-16.1s5.6-9.7,10.7-12.2c5-2.5,10.8-2.9,16.1-1
			c5.4,1.8,9.7,5.6,12.2,10.7l2.4,5l0,0l2.5,5.2c1.4,2.8,3.7,4.8,6.6,5.8c2.9,1,6.1,0.8,8.8-0.6c2.8-1.4,4.8-3.7,5.8-6.6
			c1-2.9,0.8-6.1-0.6-8.8l-10.7-21.6c-2.5-5-2.8-10.8-1-16.1c1.8-5.4,5.6-9.7,10.7-12.2c5-2.5,10.8-2.8,16.1-1
			c5.4,1.8,9.7,5.6,12.2,10.7l10.7,21.6c1.4,2.8,3.7,4.8,6.6,5.8c2.9,1,6.1,0.8,8.8-0.6c2.8-1.4,4.8-3.7,5.8-6.6
			c1-2.9,0.8-6.1-0.6-8.8l-5.9-12l8.6-4.2l5.9,12c2.5,5,2.8,10.8,1,16.1S718,146.6,713,149c-5,2.5-10.8,2.9-16.1,1
			c-5.4-1.8-9.7-5.6-12.2-10.7L674,117.8c-1.4-2.8-3.7-4.8-6.6-5.8c-2.9-1-6.1-0.8-8.8,0.6c-2.8,1.4-4.8,3.7-5.8,6.6
			c-1,2.9-0.8,6.1,0.6,8.8l10.7,21.6c2.5,5,2.8,10.8,1,16.1c-1.8,5.4-5.6,9.7-10.7,12.2c-5,2.5-10.8,2.9-16.1,1
			c-5.4-1.8-9.7-5.6-12.2-10.7l-2.4-5l0,0l0,0l-2.5-5.2c-1.4-2.8-3.7-4.8-6.6-5.8c-2.9-1-6.1-0.8-8.8,0.6c-2.8,1.4-4.8,3.7-5.8,6.6
			c-1,2.9-0.8,6.1,0.6,8.8l8.9,18.1L600.6,190.7z"/>
	</g>
	<path fill="#E51B2B" d="M716,101.4l-6.7,0.5c-1.4,0.1-2.7,0.8-3.6,1.8l-4.3,5.2c-0.7,0.9-2.1,0.4-2.2-0.7l-0.5-6.7
		c-0.1-1.4-0.8-2.7-1.8-3.6l-5.2-4.3c-0.9-0.7-0.4-2.1,0.7-2.2l6.7-0.5c1.4-0.1,2.7-0.8,3.6-1.8l4.3-5.2c0.7-0.9,2.1-0.4,2.2,0.7
		l0.5,6.7c0.1,1.4,0.8,2.7,1.8,3.6l5.2,4.3C717.6,99.9,717.1,101.3,716,101.4z"/>
</g>
</svg>
