<svg xmlns="http://www.w3.org/2000/svg" viewBox="0 0 12.22 12.22"><defs><style>.cls-1{fill:#e51b2b;}</style></defs><title>red-star@o-nama</title><g id="Layer_2" data-name="Layer 2"><g id="Layer_1-2" data-name="Layer 1"><path class="cls-1" d="M11.86,6.63,9.05,7.76A2.33,2.33,0,0,0,7.76,9.05L6.63,11.86a.56.56,0,0,1-1,0L4.45,9.05A2.32,2.32,0,0,0,3.17,7.76L.35,6.63a.57.57,0,0,1,0-1L3.17,4.45A2.3,2.3,0,0,0,4.45,3.17L5.59.35a.56.56,0,0,1,1,0L7.76,3.17A2.32,2.32,0,0,0,9.05,4.45l2.81,1.13a.57.57,0,0,1,0,1"/></g></g></svg>