<?xml version="1.0" encoding="utf-8"?>
<!-- Generator: Adobe Illustrator 25.0.1, SVG Export Plug-In . SVG Version: 6.00 Build 0)  -->
<svg version="1.1" id="Layer_1" xmlns="http://www.w3.org/2000/svg" xmlns:xlink="http://www.w3.org/1999/xlink" x="0px" y="0px"
	 viewBox="0 0 142.8 162.1" enable-background="new 0 0 142.8 162.1" xml:space="preserve">
<g>
	<g>
		<g>
			<circle fill="#005DFF" cx="137.4" cy="52.1" r="5.4"/>
		</g>
		<g>
			<circle fill="#05CFD5" cx="39.8" cy="152.2" r="9.5"/>
		</g>
		<g>
			<path fill="#FFC027" d="M13.6,27.5C6.1,27.5,0.1,21.4,0.1,14S6.1,0.4,13.6,0.4S27.1,6.5,27.1,14S21,27.5,13.6,27.5z M13.6,4.4
				c-5.2,0-9.5,4.3-9.5,9.5s4.3,9.5,9.5,9.5s9.5-4.3,9.5-9.5S18.8,4.4,13.6,4.4z"/>
		</g>
	</g>
	<g>
		<path fill="#EE126C" d="M101.2,53.8c-4.2-4.5-10-7-16.1-7c-6.1,0-11.9,2.5-16.1,7l-1.4,1.5l-1.4-1.5c-8.3-8.9-22.2-9.4-31.1-1.1
			c-0.4,0.4-0.8,0.7-1.1,1.1c-8.8,9.5-8.8,24.1,0,33.5l31.5,33.3c1.1,1.2,2.9,1.2,4.1,0.1c0,0,0.1-0.1,0.1-0.1l31.5-33.3
			C110,77.8,110,63.2,101.2,53.8"/>
	</g>
</g>
</svg>
