<svg xmlns="http://www.w3.org/2000/svg" viewBox="0 0 101.19 45.89"><defs><style>.cls-1{fill:#fff;}</style></defs><title>srecke@o-nama</title><g id="Layer_2" data-name="Layer 2"><g id="Layer_1-2" data-name="Layer 1"><path class="cls-1" d="M38.48,17.9a8.86,8.86,0,0,1,5,.61l-3.09-2.86a.51.51,0,0,0-.74,0l-2.36,2.55a6.43,6.43,0,0,1,1.17-.33"/><path class="cls-1" d="M35.09,33.83a18.11,18.11,0,0,1-2.73,3.94c-.23.25-.48.51-.74.75L30.18,37c.23-.21.44-.42.65-.64a16.06,16.06,0,0,0,2.37-3.42A5.81,5.81,0,0,1,32,32a8.53,8.53,0,0,1-.56-1.07A15.91,15.91,0,0,1,29.86,33c-3.55,3.84-10.51,6-16.66.3s-4.58-12.8-1-16.64c3.29-3.56,10.74-6.86,13-7.8h0l.09,0a3,3,0,0,0,1-.73l2.37-2.57a.51.51,0,0,0,0-.73l-5-4.62a.51.51,0,0,0-.73,0L20.39,2.86a.53.53,0,0,0,0,.74l.55.51a.46.46,0,0,1,.15.26.5.5,0,0,1,0,.21h0a.37.37,0,0,1-.08.22.52.52,0,0,1-.3.19C16.38,6.06,2.35,10.3.25,22.77-1.16,31.2,3.63,37.27,6.81,40.2s9.6,7.22,17.89,5.15c6.38-1.6,10.28-6.24,12.65-11a13,13,0,0,1-2.26-.57M5.57,33.65a16.51,16.51,0,0,1-2.49-8.47l2.1,0a14.36,14.36,0,0,0,2.18,7.4Zm2.53-17L6.47,15.28c.22-.26.45-.53.69-.79A19.82,19.82,0,0,1,13.51,10l.87,1.9a17.67,17.67,0,0,0-5.68,4q-.31.33-.6.69m5.29,24.27L14.33,39a14.39,14.39,0,0,0,7.55,1.59L22,42.68a16.47,16.47,0,0,1-8.64-1.81"/><polygon class="cls-1" points="35.3 3.55 36.3 8.17 40.91 9.16 36.3 10.15 35.3 14.77 34.31 10.15 29.7 9.16 34.31 8.17 35.3 3.55"/><path class="cls-1" d="M29.48,25.78H16.25a5.33,5.33,0,0,0,5.43,4.38,6.83,6.83,0,0,0,4.94-2l2,2.13a9.54,9.54,0,0,1-7.24,3c-5.4,0-9-3.59-9-8.85a8.5,8.5,0,0,1,8.85-8.92c6.15,0,8.65,4,8.19,10.33M26.19,23a4.5,4.5,0,0,0-4.87-4.54A5,5,0,0,0,16.19,23Z"/><path class="cls-1" d="M43.38,21,42.24,23.4a9,9,0,0,0-3.83-1.25c-.78,0-1.31.29-1.31.87,0,2.07,6.31.89,6.31,5.21,0,2.39-2.11,3.66-4.78,3.66A8.94,8.94,0,0,1,33.17,30l1.18-2.34a7.43,7.43,0,0,0,4.32,1.8c.95,0,1.55-.36,1.55-1,0-2.12-6.32-.86-6.32-5.09,0-2.21,1.9-3.6,4.77-3.6A8.91,8.91,0,0,1,43.38,21"/><path class="cls-1" d="M50.13,28.42H47.74v3.36h-3v-12H50c3.16,0,5,1.5,5,4.17a4,4,0,0,1-2.17,3.84l2.51,3.94H51.9ZM50,26c1.32,0,2.09-.67,2.09-1.93s-.77-1.88-2.09-1.88h-2.3V26Z"/><polygon class="cls-1" points="59.73 22.22 59.73 24.59 65.43 24.59 65.43 26.99 59.73 26.99 59.73 29.39 66.23 29.39 66.23 31.78 56.69 31.78 56.69 19.83 66.05 19.83 66.05 22.22 59.73 22.22"/><path class="cls-1" d="M78.24,21.74l-1.76,2.09a4.08,4.08,0,0,0-3-1.56,3.34,3.34,0,0,0-3.32,3.47,3.35,3.35,0,0,0,3.32,3.52,4.51,4.51,0,0,0,3-1.4l1.78,1.87a7.21,7.21,0,0,1-4.94,2.19,6.1,6.1,0,1,1,.1-12.19,7,7,0,0,1,4.82,2M74,18.79H71.7l1.81-2.87,2.66.94Z"/><polygon class="cls-1" points="83.89 27.09 82.31 28.85 82.31 31.78 79.27 31.78 79.27 19.83 82.31 19.83 82.31 25 86.88 19.83 90.4 19.83 85.96 24.78 90.69 31.78 87.05 31.78 83.89 27.09"/><polygon class="cls-1" points="94.69 22.22 94.69 24.59 100.39 24.59 100.39 26.99 94.69 26.99 94.69 29.39 101.19 29.39 101.19 31.78 91.65 31.78 91.65 19.83 101.01 19.83 101.01 22.22 94.69 22.22"/></g></g></svg>