<svg xmlns="http://www.w3.org/2000/svg" viewBox="0 0 174.56 119.25"><defs><style>.cls-1{fill:#ffc027;}</style></defs><title>zute-tackice@o-nama</title><g id="Layer_2" data-name="Layer 2"><g id="Layer_1-2" data-name="Layer 1"><path class="cls-1" d="M0,1.93H0A1.93,1.93,0,1,0,1.93,0,1.93,1.93,0,0,0,0,1.93"/><path class="cls-1" d="M0,59.62H0a1.93,1.93,0,1,0,1.93-1.93A1.93,1.93,0,0,0,0,59.62"/><path class="cls-1" d="M0,117.31H0a1.93,1.93,0,1,0,1.93-1.93A1.93,1.93,0,0,0,0,117.31"/><path class="cls-1" d="M56.9,1.93h0A1.93,1.93,0,1,0,58.83,0,1.93,1.93,0,0,0,56.9,1.93"/><path class="cls-1" d="M56.9,59.62h0a1.93,1.93,0,1,0,1.93-1.93,1.93,1.93,0,0,0-1.93,1.93"/><path class="cls-1" d="M56.9,117.31h0a1.93,1.93,0,1,0,1.93-1.93,1.93,1.93,0,0,0-1.93,1.93"/><path class="cls-1" d="M113.79,1.93h0A1.94,1.94,0,1,0,115.73,0a1.94,1.94,0,0,0-1.94,1.93"/><path class="cls-1" d="M113.79,59.62h0a1.94,1.94,0,1,0,1.94-1.93,1.94,1.94,0,0,0-1.94,1.93"/><path class="cls-1" d="M113.79,117.31h0a1.94,1.94,0,1,0,1.94-1.93,1.94,1.94,0,0,0-1.94,1.93"/><path class="cls-1" d="M170.69,1.93h0A1.94,1.94,0,1,0,172.62,0a1.94,1.94,0,0,0-1.93,1.93"/><path class="cls-1" d="M170.69,59.62h0a1.94,1.94,0,1,0,1.93-1.93,1.94,1.94,0,0,0-1.93,1.93"/><path class="cls-1" d="M170.69,117.31h0a1.94,1.94,0,1,0,1.93-1.93,1.94,1.94,0,0,0-1.93,1.93"/></g></g></svg>