<?xml version="1.0" encoding="utf-8"?>
<!-- Generator: Adobe Illustrator 25.0.1, SVG Export Plug-In . SVG Version: 6.00 Build 0)  -->
<svg version="1.1" id="Layer_1" xmlns="http://www.w3.org/2000/svg" xmlns:xlink="http://www.w3.org/1999/xlink" x="0px" y="0px"
	 viewBox="0 0 182.5 124.2" enable-background="new 0 0 182.5 124.2" xml:space="preserve">
<g>
	<path fill="#E51B2B" d="M4.4,4.2L4.4,4.2c0,1.1,0.9,1.9,1.9,1.9c1.1,0,1.9-0.9,1.9-1.9c0-1.1-0.9-1.9-1.9-1.9
		C5.3,2.3,4.4,3.1,4.4,4.2"/>
	<path fill="#E51B2B" d="M4.4,61.9L4.4,61.9c0,1.1,0.9,1.9,1.9,1.9c1.1,0,1.9-0.9,1.9-1.9c0-1.1-0.9-1.9-1.9-1.9
		C5.3,60,4.4,60.8,4.4,61.9"/>
	<path fill="#E51B2B" d="M4.4,119.6L4.4,119.6c0,1.1,0.9,1.9,1.9,1.9c1.1,0,1.9-0.9,1.9-1.9c0-1.1-0.9-1.9-1.9-1.9
		C5.3,117.7,4.4,118.5,4.4,119.6"/>
	<path fill="#E51B2B" d="M61.3,4.2L61.3,4.2c0,1.1,0.9,1.9,1.9,1.9c1.1,0,1.9-0.9,1.9-1.9c0-1.1-0.9-1.9-1.9-1.9
		C62.2,2.3,61.3,3.1,61.3,4.2"/>
	<path fill="#E51B2B" d="M61.3,61.9L61.3,61.9c0,1.1,0.9,1.9,1.9,1.9c1.1,0,1.9-0.9,1.9-1.9c0-1.1-0.9-1.9-1.9-1.9
		C62.2,60,61.3,60.8,61.3,61.9"/>
	<path fill="#E51B2B" d="M61.3,119.6L61.3,119.6c0,1.1,0.9,1.9,1.9,1.9c1.1,0,1.9-0.9,1.9-1.9c0-1.1-0.9-1.9-1.9-1.9
		C62.2,117.7,61.3,118.5,61.3,119.6"/>
	<path fill="#E51B2B" d="M118.2,4.2L118.2,4.2c0,1.1,0.9,1.9,1.9,1.9c1.1,0,1.9-0.9,1.9-1.9c0-1.1-0.9-1.9-1.9-1.9
		C119.1,2.3,118.2,3.1,118.2,4.2"/>
	<path fill="#E51B2B" d="M118.2,61.9L118.2,61.9c0,1.1,0.9,1.9,1.9,1.9c1.1,0,1.9-0.9,1.9-1.9c0-1.1-0.9-1.9-1.9-1.9
		C119.1,60,118.2,60.8,118.2,61.9"/>
	<path fill="#E51B2B" d="M118.2,119.6L118.2,119.6c0,1.1,0.9,1.9,1.9,1.9c1.1,0,1.9-0.9,1.9-1.9c0-1.1-0.9-1.9-1.9-1.9
		C119.1,117.7,118.2,118.5,118.2,119.6"/>
	<path fill="#E51B2B" d="M175.1,4.2L175.1,4.2c0,1.1,0.9,1.9,1.9,1.9c1.1,0,1.9-0.9,1.9-1.9c0-1.1-0.9-1.9-1.9-1.9
		C176,2.3,175.1,3.1,175.1,4.2"/>
	<path fill="#E51B2B" d="M175.1,61.9L175.1,61.9c0,1.1,0.9,1.9,1.9,1.9c1.1,0,1.9-0.9,1.9-1.9c0-1.1-0.9-1.9-1.9-1.9
		C176,60,175.1,60.8,175.1,61.9"/>
	<path fill="#E51B2B" d="M175.1,119.6L175.1,119.6c0,1.1,0.9,1.9,1.9,1.9c1.1,0,1.9-0.9,1.9-1.9c0-1.1-0.9-1.9-1.9-1.9
		C176,117.7,175.1,118.5,175.1,119.6"/>
</g>
</svg>
