<?xml version="1.0" encoding="utf-8"?>
<!-- Generator: Adobe Illustrator 25.0.1, SVG Export Plug-In . SVG Version: 6.00 Build 0)  -->
<svg version="1.1" id="Layer_1" xmlns="http://www.w3.org/2000/svg" xmlns:xlink="http://www.w3.org/1999/xlink" x="0px" y="0px"
	 viewBox="0 0 174.4 200.8" enable-background="new 0 0 174.4 200.8" xml:space="preserve">
<g>
	<path fill="#E51B2B" d="M168.4,99.1h-39.3c0.3-0.5,0.7-1.1,1-1.7c5.1-9.6,3.6-21.1-3-29.1l-13.4-23.7c-7.5-13.9-20.5-15.2-33-16.4
		c-1.8-0.2-3.6-0.4-5.5-0.6c-12.7-1.5-15.1-2.9-24.3-7.9c-1.1-0.6-2.3-1.2-3.6-1.9c0.2-1.3,0.1-2.5-0.3-3.8c-0.7-2.2-2.2-4-4.2-5.1
		L31.9,3c-2-1.1-4.4-1.3-6.6-0.6c-2.2,0.7-4,2.2-5.1,4.2l-17,32c-1.1,2-1.3,4.4-0.6,6.6c0.7,2.2,2.2,4,4.2,5.1l11.1,5.9
		c1.3,0.7,2.7,1,4,1c3.1,0,6.1-1.7,7.6-4.6l0.2-0.3c3.5,2.2,5.5,4.2,7.4,7.2c5.5,8.9,10.8,11.5,16,14c1.8,0.9,3.5,1.7,5.3,2.8
		l22.5,14c0.2,0.1,0.3,0.2,0.5,0.3c0.7,3,1.8,5.8,3.4,8.4H49.1c-1.9,0-3.4,1.5-3.4,3.4v85.8c0,6,4.8,10.8,10.8,10.8h104.6
		c6,0,10.8-4.8,10.8-10.8v-85.8C171.9,100.6,170.3,99.1,168.4,99.1 M124.1,94.2c-1,1.8-2.2,3.5-3.7,4.9H93.6
		c-1.8-1.7-3.3-3.8-4.3-6.1c0.3,0,0.6-0.1,0.8-0.2c2.1-0.6,3.8-2,5-4.3c2.3-4.3,1.4-11.4-1.8-17.1c6-6,15.2-7.5,22.8-3.4
		C125.5,73,129.1,84.8,124.1,94.2 M89,65.9L77.7,54.2c0,0-0.1-0.1-0.1-0.1c0.4-0.2,1-0.3,1.9-0.5c9-1.5,11.6,1,15.8,8
		C93,62.7,90.9,64.1,89,65.9 M23.4,49.4c-0.5,0.8-1.5,1.2-2.4,0.7L10,44.2c0,0,0,0,0,0c-0.6-0.3-0.8-0.8-0.9-1
		c-0.1-0.3-0.2-0.8,0.1-1.3l17-32.1c0.3-0.6,0.8-0.8,1-0.9c0.1,0,0.3-0.1,0.5-0.1c0.2,0,0.5,0,0.8,0.2L39.8,15
		c0.5,0.3,0.8,0.8,0.8,1c0.1,0.3,0.2,0.8-0.1,1.3L23.4,49.4z M84.5,84.5L62,70.5c-2.1-1.3-4-2.2-5.9-3.2c-4.9-2.4-8.7-4.2-13.2-11.4
		c-2.8-4.5-6-7.3-10-9.7l11.8-22.2c1.1,0.6,2.1,1.1,3,1.7c9.3,5.1,12.8,7,26.8,8.7c1.9,0.2,3.8,0.4,5.6,0.6
		c12.2,1.2,21.8,2.1,27.6,12.9c0,0,0,0,0,0.1l6.8,11.9c-4.2-1.3-8.5-1.4-12.6-0.6c-5-8.5-9.6-14.8-23.5-12.5
		c-4.2,0.7-6.8,2.3-7.7,4.9c-0.6,1.5-0.7,4,1.8,7c0,0.1,0.1,0.1,0.1,0.2l12.4,12.9c3.9,4.1,5.2,11.1,3.9,13.5
		c-0.4,0.7-0.7,0.9-0.7,0.9C88.2,86.2,87.3,86.3,84.5,84.5 M101.9,126.2H165v62c0,2.2-1.8,3.9-3.9,3.9H56.5c-2.2,0-3.9-1.8-3.9-3.9
		v-62h48.1H101.9z M100.8,119.4H52.6v-13.5H165v13.5h-63.2H100.8z"/>
	<path fill="#AA1420" d="M128,140.8c-2.4-2.6-5.7-4-9.2-4c-3.5,0-6.8,1.5-9.2,4l-0.8,0.9l-0.8-0.9c-4.7-5.1-12.7-5.4-17.8-0.7
		c-0.2,0.2-0.4,0.4-0.7,0.7c-5,5.4-5,13.8,0,19.2l18,19c0.6,0.7,1.7,0.7,2.3,0.1c0,0,0,0,0.1-0.1l18-19
		C133,154.6,133,146.2,128,140.8"/>
</g>
</svg>
