<?xml version="1.0" encoding="utf-8"?>
<!-- Generator: Adobe Illustrator 25.0.1, SVG Export Plug-In . SVG Version: 6.00 Build 0)  -->
<svg version="1.1" id="Layer_1" xmlns="http://www.w3.org/2000/svg" xmlns:xlink="http://www.w3.org/1999/xlink" x="0px" y="0px"
	 viewBox="0 0 170 135.1" enable-background="new 0 0 170 135.1" xml:space="preserve">
<g>
	<g>
		<path fill="#FFD05D" d="M4.1,112c-3-6.1-3.4-12.9-1.2-19.4c2.2-6.4,6.7-11.6,12.8-14.6c3.5-1.7,7.3-2.6,11.1-2.6
			c2.8,0,5.6,0.5,8.2,1.4c6.4,2.2,11.6,6.7,14.6,12.8l6.2,12.6c1.8,3.7,5,6.5,8.9,7.8c1.6,0.6,3.3,0.8,5,0.8c2.4,0,4.6-0.5,6.8-1.6
			c3.7-1.8,6.5-5,7.8-8.9c1.3-3.9,1.1-8.1-0.7-11.8l-13.3-27c-3-6.1-3.4-12.9-1.2-19.4c2.2-6.4,6.7-11.6,12.8-14.6
			C85.4,25.9,89.1,25,93,25c2.8,0,5.6,0.5,8.2,1.4c6.4,2.2,11.6,6.7,14.6,12.8l13.3,27c1.8,3.7,5,6.5,8.9,7.8c1.6,0.6,3.3,0.8,5,0.8
			c2.4,0,4.6-0.5,6.8-1.6c3.7-1.8,6.5-5,7.8-8.9s1.1-8.1-0.7-11.8l-6.9-14l8.9-4.4l6.9,14c3,6.1,3.4,12.9,1.2,19.4
			c-2.2,6.4-6.7,11.6-12.8,14.6c-3.5,1.7-7.3,2.6-11.1,2.6c-2.8,0-5.6-0.5-8.2-1.4c-6.4-2.2-11.6-6.7-14.6-12.8l-13.3-27
			c-1.8-3.7-5-6.5-8.9-7.8c-1.6-0.6-3.3-0.8-5-0.8c-2.4,0-4.6,0.5-6.8,1.6c-3.7,1.8-6.5,5-7.8,8.9c-1.3,3.9-1.1,8.1,0.7,11.8
			l13.3,27c3,6.1,3.4,12.9,1.2,19.4c-2.2,6.4-6.7,11.6-12.8,14.6c-3.5,1.7-7.3,2.6-11.1,2.6c-2.8,0-5.6-0.5-8.2-1.4
			c-6.4-2.2-11.6-6.7-14.6-12.8L40.8,94c-1.8-3.7-5-6.5-8.9-7.8c-1.6-0.6-3.3-0.8-5-0.8c-2.4,0-4.6,0.5-6.8,1.6
			c-3.7,1.8-6.5,5-7.8,8.9c-1.3,3.9-1.1,8.1,0.7,11.8l10.7,21.7l-8.9,4.4L4.1,112z"/>
	</g>
	<path fill="#E51B2B" d="M158.9,10.8l-5.4,6c-1.1,1.2-1.7,2.9-1.6,4.6l0.6,8c0.1,1.3-1.5,2.1-2.5,1.2l-6-5.4
		c-1.2-1.1-2.9-1.7-4.6-1.6l-8,0.6c-1.3,0.1-2.1-1.5-1.2-2.5l5.4-6c1.1-1.2,1.7-2.9,1.6-4.6l-0.6-8c-0.1-1.3,1.5-2.1,2.5-1.2l6,5.4
		c1.2,1.1,2.9,1.7,4.6,1.6l8-0.6C159,8.2,159.8,9.8,158.9,10.8z"/>
</g>
</svg>
