<?xml version="1.0" encoding="utf-8"?>
<!-- Generator: Adobe Illustrator 25.0.1, SVG Export Plug-In . SVG Version: 6.00 Build 0)  -->
<svg version="1.1" id="Layer_1" xmlns="http://www.w3.org/2000/svg" xmlns:xlink="http://www.w3.org/1999/xlink" x="0px" y="0px"
	 viewBox="0 0 181.1 138.1" enable-background="new 0 0 181.1 138.1" xml:space="preserve">
<g>
	<polygon fill="#FAD62A" points="2.5,135.6 133.1,97.1 82.6,23.9 	"/>
	<g>
		
			<ellipse transform="matrix(0.8345 -0.551 0.551 0.8345 -13.3582 71.0285)" fill="#253146" cx="111.6" cy="57.7" rx="28" ry="45.1"/>
	</g>
	<path fill="#FAD62A" d="M177.9,25.2l-8,1.6c-1.7,0.3-3.1,1.3-4,2.8l-4.4,6.9c-0.7,1.2-2.5,0.8-2.8-0.5l-1.6-8
		c-0.3-1.7-1.3-3.1-2.8-4l-6.9-4.4c-1.2-0.7-0.8-2.5,0.5-2.8l8-1.6c1.7-0.3,3.1-1.3,4-2.8l4.4-6.9c0.7-1.2,2.5-0.8,2.8,0.5l1.6,8
		c0.3,1.7,1.3,3.1,2.8,4l6.9,4.4C179.5,23.2,179.2,24.9,177.9,25.2z"/>
	<circle fill="none" stroke="#E51B2B" stroke-width="3.3626" stroke-miterlimit="10" cx="113.8" cy="42.3" r="7.8"/>
	<circle fill="#8D00E6" cx="129.3" cy="6.2" r="4.7"/>
	<circle fill="#E51B2B" cx="153.1" cy="54.3" r="2.8"/>
</g>
</svg>
