<svg xmlns="http://www.w3.org/2000/svg" viewBox="0 0 29.16 29.16"><defs><style>.cls-1{fill:#fff;}</style></defs><title>white-star</title><g id="Layer_2" data-name="Layer 2"><g id="Layer_1-2" data-name="Layer 1"><path class="cls-1" d="M15.83.84l2.7,6.72a5.51,5.51,0,0,0,3.07,3.07l6.72,2.7a1.35,1.35,0,0,1,0,2.5l-6.72,2.7a5.51,5.51,0,0,0-3.07,3.07l-2.7,6.72a1.35,1.35,0,0,1-2.5,0l-2.7-6.72a5.51,5.51,0,0,0-3.07-3.07L.84,15.83a1.35,1.35,0,0,1,0-2.5l6.72-2.7a5.51,5.51,0,0,0,3.07-3.07L13.33.84a1.35,1.35,0,0,1,2.5,0"/></g></g></svg>