<?xml version="1.0" encoding="utf-8"?>
<!-- Generator: Adobe Illustrator 24.3.0, SVG Export Plug-In . SVG Version: 6.00 Build 0)  -->
<svg version="1.1" id="Layer_1" xmlns="http://www.w3.org/2000/svg" xmlns:xlink="http://www.w3.org/1999/xlink" x="0px" y="0px"
	 viewBox="0 0 949.98 652.75" enable-background="new 0 0 949.98 652.75" xml:space="preserve">
<g>
	<g>
		<path fill="#FFFFFF" d="M34.37,631.39c-1.1,0-2-0.9-2-2v-0.06c0-1.1,0.9-2,2-2h0.06c1.1,0,2,0.9,2,2v0.06c0,1.1-0.9,2-2,2H34.37z"
			/>
	</g>
	<g>
		<path fill="#FFFFFF" d="M34.37,570.87c-1.1,0-2-0.9-2-2v-0.06c0-1.1,0.9-2,2-2h0.06c1.1,0,2,0.9,2,2v0.06c0,1.1-0.9,2-2,2H34.37z"
			/>
	</g>
	<g>
		<path fill="#FFFFFF" d="M34.37,510.34c-1.1,0-2-0.9-2-2v-0.06c0-1.1,0.9-2,2-2h0.06c1.1,0,2,0.9,2,2v0.06c0,1.1-0.9,2-2,2H34.37z"
			/>
	</g>
	<g>
		<path fill="#FFFFFF" d="M34.37,449.82c-1.1,0-2-0.9-2-2v-0.06c0-1.1,0.9-2,2-2h0.06c1.1,0,2,0.9,2,2v0.06c0,1.1-0.9,2-2,2H34.37z"
			/>
	</g>
	<g>
		<path fill="#FFFFFF" d="M34.37,389.29c-1.1,0-2-0.9-2-2v-0.06c0-1.1,0.9-2,2-2h0.06c1.1,0,2,0.9,2,2v0.06c0,1.1-0.9,2-2,2H34.37z"
			/>
	</g>
	<g>
		<path fill="#FFFFFF" d="M34.37,328.77c-1.1,0-2-0.9-2-2v-0.06c0-1.1,0.9-2,2-2h0.06c1.1,0,2,0.9,2,2v0.06c0,1.1-0.9,2-2,2H34.37z"
			/>
	</g>
	<g>
		<path fill="#FFFFFF" d="M34.37,268.25c-1.1,0-2-0.9-2-2v-0.06c0-1.1,0.9-2,2-2h0.06c1.1,0,2,0.9,2,2v0.06c0,1.1-0.9,2-2,2H34.37z"
			/>
	</g>
	<g>
		<path fill="#FFFFFF" d="M34.37,207.72c-1.1,0-2-0.9-2-2v-0.06c0-1.1,0.9-2,2-2h0.06c1.1,0,2,0.9,2,2v0.06c0,1.1-0.9,2-2,2H34.37z"
			/>
	</g>
	<g>
		<path fill="#FFFFFF" d="M34.37,147.2c-1.1,0-2-0.9-2-2v-0.06c0-1.1,0.9-2,2-2h0.06c1.1,0,2,0.9,2,2v0.06c0,1.1-0.9,2-2,2H34.37z"
			/>
	</g>
	<g>
		<path fill="#FFFFFF" d="M34.37,86.67c-1.1,0-2-0.9-2-2v-0.06c0-1.1,0.9-2,2-2h0.06c1.1,0,2,0.9,2,2v0.06c0,1.1-0.9,2-2,2H34.37z"
			/>
	</g>
	<g>
		<path fill="#FFFFFF" d="M34.37,26.15c-1.1,0-2-0.9-2-2v-0.06c0-1.1,0.9-2,2-2h0.06c1.1,0,2,0.9,2,2v0.06c0,1.1-0.9,2-2,2H34.37z"
			/>
	</g>
	<g>
		<path fill="#FFFFFF" d="M94.06,631.39c-1.1,0-2-0.9-2-2v-0.06c0-1.1,0.9-2,2-2h0.06c1.1,0,2,0.9,2,2v0.06c0,1.1-0.9,2-2,2H94.06z"
			/>
	</g>
	<g>
		<path fill="#FFFFFF" d="M94.06,570.87c-1.1,0-2-0.9-2-2v-0.06c0-1.1,0.9-2,2-2h0.06c1.1,0,2,0.9,2,2v0.06c0,1.1-0.9,2-2,2H94.06z"
			/>
	</g>
	<g>
		<path fill="#FFFFFF" d="M94.06,510.34c-1.1,0-2-0.9-2-2v-0.06c0-1.1,0.9-2,2-2h0.06c1.1,0,2,0.9,2,2v0.06c0,1.1-0.9,2-2,2H94.06z"
			/>
	</g>
	<g>
		<path fill="#FFFFFF" d="M94.06,449.82c-1.1,0-2-0.9-2-2v-0.06c0-1.1,0.9-2,2-2h0.06c1.1,0,2,0.9,2,2v0.06c0,1.1-0.9,2-2,2H94.06z"
			/>
	</g>
	<g>
		<path fill="#FFFFFF" d="M94.06,389.29c-1.1,0-2-0.9-2-2v-0.06c0-1.1,0.9-2,2-2h0.06c1.1,0,2,0.9,2,2v0.06c0,1.1-0.9,2-2,2H94.06z"
			/>
	</g>
	<g>
		<path fill="#FFFFFF" d="M94.06,328.77c-1.1,0-2-0.9-2-2v-0.06c0-1.1,0.9-2,2-2h0.06c1.1,0,2,0.9,2,2v0.06c0,1.1-0.9,2-2,2H94.06z"
			/>
	</g>
	<g>
		<path fill="#FFFFFF" d="M94.06,268.25c-1.1,0-2-0.9-2-2v-0.06c0-1.1,0.9-2,2-2h0.06c1.1,0,2,0.9,2,2v0.06c0,1.1-0.9,2-2,2H94.06z"
			/>
	</g>
	<g>
		<path fill="#FFFFFF" d="M94.06,207.72c-1.1,0-2-0.9-2-2v-0.06c0-1.1,0.9-2,2-2h0.06c1.1,0,2,0.9,2,2v0.06c0,1.1-0.9,2-2,2H94.06z"
			/>
	</g>
	<g>
		<path fill="#FFFFFF" d="M94.06,147.2c-1.1,0-2-0.9-2-2v-0.06c0-1.1,0.9-2,2-2h0.06c1.1,0,2,0.9,2,2v0.06c0,1.1-0.9,2-2,2H94.06z"
			/>
	</g>
	<g>
		<path fill="#FFFFFF" d="M94.06,86.67c-1.1,0-2-0.9-2-2v-0.06c0-1.1,0.9-2,2-2h0.06c1.1,0,2,0.9,2,2v0.06c0,1.1-0.9,2-2,2H94.06z"
			/>
	</g>
	<g>
		<path fill="#FFFFFF" d="M94.06,26.15c-1.1,0-2-0.9-2-2v-0.06c0-1.1,0.9-2,2-2h0.06c1.1,0,2,0.9,2,2v0.06c0,1.1-0.9,2-2,2H94.06z"
			/>
	</g>
	<g>
		<path fill="#FFFFFF" d="M153.75,631.39c-1.1,0-2-0.9-2-2v-0.06c0-1.1,0.9-2,2-2h0.06c1.1,0,2,0.9,2,2v0.06c0,1.1-0.9,2-2,2H153.75
			z"/>
	</g>
	<g>
		<path fill="#FFFFFF" d="M153.75,570.87c-1.1,0-2-0.9-2-2v-0.06c0-1.1,0.9-2,2-2h0.06c1.1,0,2,0.9,2,2v0.06c0,1.1-0.9,2-2,2H153.75
			z"/>
	</g>
	<g>
		<path fill="#FFFFFF" d="M153.75,510.34c-1.1,0-2-0.9-2-2v-0.06c0-1.1,0.9-2,2-2h0.06c1.1,0,2,0.9,2,2v0.06c0,1.1-0.9,2-2,2H153.75
			z"/>
	</g>
	<g>
		<path fill="#FFFFFF" d="M153.75,449.82c-1.1,0-2-0.9-2-2v-0.06c0-1.1,0.9-2,2-2h0.06c1.1,0,2,0.9,2,2v0.06c0,1.1-0.9,2-2,2H153.75
			z"/>
	</g>
	<g>
		<path fill="#FFFFFF" d="M153.75,389.29c-1.1,0-2-0.9-2-2v-0.06c0-1.1,0.9-2,2-2h0.06c1.1,0,2,0.9,2,2v0.06c0,1.1-0.9,2-2,2H153.75
			z"/>
	</g>
	<g>
		<path fill="#FFFFFF" d="M153.75,328.77c-1.1,0-2-0.9-2-2v-0.06c0-1.1,0.9-2,2-2h0.06c1.1,0,2,0.9,2,2v0.06c0,1.1-0.9,2-2,2H153.75
			z"/>
	</g>
	<g>
		<path fill="#FFFFFF" d="M153.75,268.25c-1.1,0-2-0.9-2-2v-0.06c0-1.1,0.9-2,2-2h0.06c1.1,0,2,0.9,2,2v0.06c0,1.1-0.9,2-2,2H153.75
			z"/>
	</g>
	<g>
		<path fill="#FFFFFF" d="M153.75,207.72c-1.1,0-2-0.9-2-2v-0.06c0-1.1,0.9-2,2-2h0.06c1.1,0,2,0.9,2,2v0.06c0,1.1-0.9,2-2,2H153.75
			z"/>
	</g>
	<g>
		<path fill="#FFFFFF" d="M153.75,147.2c-1.1,0-2-0.9-2-2v-0.06c0-1.1,0.9-2,2-2h0.06c1.1,0,2,0.9,2,2v0.06c0,1.1-0.9,2-2,2H153.75z
			"/>
	</g>
	<g>
		<path fill="#FFFFFF" d="M153.75,86.67c-1.1,0-2-0.9-2-2v-0.06c0-1.1,0.9-2,2-2h0.06c1.1,0,2,0.9,2,2v0.06c0,1.1-0.9,2-2,2H153.75z
			"/>
	</g>
	<g>
		<path fill="#FFFFFF" d="M153.75,26.15c-1.1,0-2-0.9-2-2v-0.06c0-1.1,0.9-2,2-2h0.06c1.1,0,2,0.9,2,2v0.06c0,1.1-0.9,2-2,2H153.75z
			"/>
	</g>
	<g>
		<path fill="#FFFFFF" d="M213.44,631.39c-1.1,0-2-0.9-2-2v-0.06c0-1.1,0.9-2,2-2h0.06c1.1,0,2,0.9,2,2v0.06c0,1.1-0.9,2-2,2H213.44
			z"/>
	</g>
	<g>
		<path fill="#FFFFFF" d="M213.44,570.87c-1.1,0-2-0.9-2-2v-0.06c0-1.1,0.9-2,2-2h0.06c1.1,0,2,0.9,2,2v0.06c0,1.1-0.9,2-2,2H213.44
			z"/>
	</g>
	<g>
		<path fill="#FFFFFF" d="M213.44,510.34c-1.1,0-2-0.9-2-2v-0.06c0-1.1,0.9-2,2-2h0.06c1.1,0,2,0.9,2,2v0.06c0,1.1-0.9,2-2,2H213.44
			z"/>
	</g>
	<g>
		<path fill="#FFFFFF" d="M213.44,449.82c-1.1,0-2-0.9-2-2v-0.06c0-1.1,0.9-2,2-2h0.06c1.1,0,2,0.9,2,2v0.06c0,1.1-0.9,2-2,2H213.44
			z"/>
	</g>
	<g>
		<path fill="#FFFFFF" d="M213.44,389.29c-1.1,0-2-0.9-2-2v-0.06c0-1.1,0.9-2,2-2h0.06c1.1,0,2,0.9,2,2v0.06c0,1.1-0.9,2-2,2H213.44
			z"/>
	</g>
	<g>
		<path fill="#FFFFFF" d="M213.44,328.77c-1.1,0-2-0.9-2-2v-0.06c0-1.1,0.9-2,2-2h0.06c1.1,0,2,0.9,2,2v0.06c0,1.1-0.9,2-2,2H213.44
			z"/>
	</g>
	<g>
		<path fill="#FFFFFF" d="M213.44,268.25c-1.1,0-2-0.9-2-2v-0.06c0-1.1,0.9-2,2-2h0.06c1.1,0,2,0.9,2,2v0.06c0,1.1-0.9,2-2,2H213.44
			z"/>
	</g>
	<g>
		<path fill="#FFFFFF" d="M213.44,207.72c-1.1,0-2-0.9-2-2v-0.06c0-1.1,0.9-2,2-2h0.06c1.1,0,2,0.9,2,2v0.06c0,1.1-0.9,2-2,2H213.44
			z"/>
	</g>
	<g>
		<path fill="#FFFFFF" d="M213.44,147.2c-1.1,0-2-0.9-2-2v-0.06c0-1.1,0.9-2,2-2h0.06c1.1,0,2,0.9,2,2v0.06c0,1.1-0.9,2-2,2H213.44z
			"/>
	</g>
	<g>
		<path fill="#FFFFFF" d="M213.44,86.67c-1.1,0-2-0.9-2-2v-0.06c0-1.1,0.9-2,2-2h0.06c1.1,0,2,0.9,2,2v0.06c0,1.1-0.9,2-2,2H213.44z
			"/>
	</g>
	<g>
		<path fill="#FFFFFF" d="M213.44,26.15c-1.1,0-2-0.9-2-2v-0.06c0-1.1,0.9-2,2-2h0.06c1.1,0,2,0.9,2,2v0.06c0,1.1-0.9,2-2,2H213.44z
			"/>
	</g>
	<g>
		<path fill="#FFFFFF" d="M273.14,631.39c-1.1,0-2-0.9-2-2v-0.06c0-1.1,0.9-2,2-2h0.06c1.1,0,2,0.9,2,2v0.06c0,1.1-0.9,2-2,2H273.14
			z"/>
	</g>
	<g>
		<path fill="#FFFFFF" d="M273.14,570.87c-1.1,0-2-0.9-2-2v-0.06c0-1.1,0.9-2,2-2h0.06c1.1,0,2,0.9,2,2v0.06c0,1.1-0.9,2-2,2H273.14
			z"/>
	</g>
	<g>
		<path fill="#FFFFFF" d="M273.14,510.34c-1.1,0-2-0.9-2-2v-0.06c0-1.1,0.9-2,2-2h0.06c1.1,0,2,0.9,2,2v0.06c0,1.1-0.9,2-2,2H273.14
			z"/>
	</g>
	<g>
		<path fill="#FFFFFF" d="M273.14,449.82c-1.1,0-2-0.9-2-2v-0.06c0-1.1,0.9-2,2-2h0.06c1.1,0,2,0.9,2,2v0.06c0,1.1-0.9,2-2,2H273.14
			z"/>
	</g>
	<g>
		<path fill="#FFFFFF" d="M273.14,389.29c-1.1,0-2-0.9-2-2v-0.06c0-1.1,0.9-2,2-2h0.06c1.1,0,2,0.9,2,2v0.06c0,1.1-0.9,2-2,2H273.14
			z"/>
	</g>
	<g>
		<path fill="#FFFFFF" d="M273.14,328.77c-1.1,0-2-0.9-2-2v-0.06c0-1.1,0.9-2,2-2h0.06c1.1,0,2,0.9,2,2v0.06c0,1.1-0.9,2-2,2H273.14
			z"/>
	</g>
	<g>
		<path fill="#FFFFFF" d="M273.14,268.25c-1.1,0-2-0.9-2-2v-0.06c0-1.1,0.9-2,2-2h0.06c1.1,0,2,0.9,2,2v0.06c0,1.1-0.9,2-2,2H273.14
			z"/>
	</g>
	<g>
		<path fill="#FFFFFF" d="M273.14,207.72c-1.1,0-2-0.9-2-2v-0.06c0-1.1,0.9-2,2-2h0.06c1.1,0,2,0.9,2,2v0.06c0,1.1-0.9,2-2,2H273.14
			z"/>
	</g>
	<g>
		<path fill="#FFFFFF" d="M273.14,147.2c-1.1,0-2-0.9-2-2v-0.06c0-1.1,0.9-2,2-2h0.06c1.1,0,2,0.9,2,2v0.06c0,1.1-0.9,2-2,2H273.14z
			"/>
	</g>
	<g>
		<path fill="#FFFFFF" d="M273.14,86.67c-1.1,0-2-0.9-2-2v-0.06c0-1.1,0.9-2,2-2h0.06c1.1,0,2,0.9,2,2v0.06c0,1.1-0.9,2-2,2H273.14z
			"/>
	</g>
	<g>
		<path fill="#FFFFFF" d="M273.14,26.15c-1.1,0-2-0.9-2-2v-0.06c0-1.1,0.9-2,2-2h0.06c1.1,0,2,0.9,2,2v0.06c0,1.1-0.9,2-2,2H273.14z
			"/>
	</g>
	<g>
		<path fill="#FFFFFF" d="M332.83,631.39c-1.1,0-2-0.9-2-2v-0.06c0-1.1,0.9-2,2-2h0.06c1.1,0,2,0.9,2,2v0.06c0,1.1-0.9,2-2,2H332.83
			z"/>
	</g>
	<g>
		<path fill="#FFFFFF" d="M332.83,570.87c-1.1,0-2-0.9-2-2v-0.06c0-1.1,0.9-2,2-2h0.06c1.1,0,2,0.9,2,2v0.06c0,1.1-0.9,2-2,2H332.83
			z"/>
	</g>
	<g>
		<path fill="#FFFFFF" d="M332.83,510.34c-1.1,0-2-0.9-2-2v-0.06c0-1.1,0.9-2,2-2h0.06c1.1,0,2,0.9,2,2v0.06c0,1.1-0.9,2-2,2H332.83
			z"/>
	</g>
	<g>
		<path fill="#FFFFFF" d="M332.83,449.82c-1.1,0-2-0.9-2-2v-0.06c0-1.1,0.9-2,2-2h0.06c1.1,0,2,0.9,2,2v0.06c0,1.1-0.9,2-2,2H332.83
			z"/>
	</g>
	<g>
		<path fill="#FFFFFF" d="M332.83,389.29c-1.1,0-2-0.9-2-2v-0.06c0-1.1,0.9-2,2-2h0.06c1.1,0,2,0.9,2,2v0.06c0,1.1-0.9,2-2,2H332.83
			z"/>
	</g>
	<g>
		<path fill="#FFFFFF" d="M332.83,328.77c-1.1,0-2-0.9-2-2v-0.06c0-1.1,0.9-2,2-2h0.06c1.1,0,2,0.9,2,2v0.06c0,1.1-0.9,2-2,2H332.83
			z"/>
	</g>
	<g>
		<path fill="#FFFFFF" d="M332.83,268.25c-1.1,0-2-0.9-2-2v-0.06c0-1.1,0.9-2,2-2h0.06c1.1,0,2,0.9,2,2v0.06c0,1.1-0.9,2-2,2H332.83
			z"/>
	</g>
	<g>
		<path fill="#FFFFFF" d="M332.83,207.72c-1.1,0-2-0.9-2-2v-0.06c0-1.1,0.9-2,2-2h0.06c1.1,0,2,0.9,2,2v0.06c0,1.1-0.9,2-2,2H332.83
			z"/>
	</g>
	<g>
		<path fill="#FFFFFF" d="M332.83,147.2c-1.1,0-2-0.9-2-2v-0.06c0-1.1,0.9-2,2-2h0.06c1.1,0,2,0.9,2,2v0.06c0,1.1-0.9,2-2,2H332.83z
			"/>
	</g>
	<g>
		<path fill="#FFFFFF" d="M332.83,86.67c-1.1,0-2-0.9-2-2v-0.06c0-1.1,0.9-2,2-2h0.06c1.1,0,2,0.9,2,2v0.06c0,1.1-0.9,2-2,2H332.83z
			"/>
	</g>
	<g>
		<path fill="#FFFFFF" d="M332.83,26.15c-1.1,0-2-0.9-2-2v-0.06c0-1.1,0.9-2,2-2h0.06c1.1,0,2,0.9,2,2v0.06c0,1.1-0.9,2-2,2H332.83z
			"/>
	</g>
	<g>
		<path fill="#FFFFFF" d="M392.52,631.39c-1.1,0-2-0.9-2-2v-0.06c0-1.1,0.9-2,2-2h0.06c1.1,0,2,0.9,2,2v0.06c0,1.1-0.9,2-2,2H392.52
			z"/>
	</g>
	<g>
		<path fill="#FFFFFF" d="M392.52,570.87c-1.1,0-2-0.9-2-2v-0.06c0-1.1,0.9-2,2-2h0.06c1.1,0,2,0.9,2,2v0.06c0,1.1-0.9,2-2,2H392.52
			z"/>
	</g>
	<g>
		<path fill="#FFFFFF" d="M392.52,510.34c-1.1,0-2-0.9-2-2v-0.06c0-1.1,0.9-2,2-2h0.06c1.1,0,2,0.9,2,2v0.06c0,1.1-0.9,2-2,2H392.52
			z"/>
	</g>
	<g>
		<path fill="#FFFFFF" d="M392.52,449.82c-1.1,0-2-0.9-2-2v-0.06c0-1.1,0.9-2,2-2h0.06c1.1,0,2,0.9,2,2v0.06c0,1.1-0.9,2-2,2H392.52
			z"/>
	</g>
	<g>
		<path fill="#FFFFFF" d="M392.52,389.29c-1.1,0-2-0.9-2-2v-0.06c0-1.1,0.9-2,2-2h0.06c1.1,0,2,0.9,2,2v0.06c0,1.1-0.9,2-2,2H392.52
			z"/>
	</g>
	<g>
		<path fill="#FFFFFF" d="M392.52,328.77c-1.1,0-2-0.9-2-2v-0.06c0-1.1,0.9-2,2-2h0.06c1.1,0,2,0.9,2,2v0.06c0,1.1-0.9,2-2,2H392.52
			z"/>
	</g>
	<g>
		<path fill="#FFFFFF" d="M392.52,268.25c-1.1,0-2-0.9-2-2v-0.06c0-1.1,0.9-2,2-2h0.06c1.1,0,2,0.9,2,2v0.06c0,1.1-0.9,2-2,2H392.52
			z"/>
	</g>
	<g>
		<path fill="#FFFFFF" d="M392.52,207.72c-1.1,0-2-0.9-2-2v-0.06c0-1.1,0.9-2,2-2h0.06c1.1,0,2,0.9,2,2v0.06c0,1.1-0.9,2-2,2H392.52
			z"/>
	</g>
	<g>
		<path fill="#FFFFFF" d="M392.52,147.2c-1.1,0-2-0.9-2-2v-0.06c0-1.1,0.9-2,2-2h0.06c1.1,0,2,0.9,2,2v0.06c0,1.1-0.9,2-2,2H392.52z
			"/>
	</g>
	<g>
		<path fill="#FFFFFF" d="M392.52,86.67c-1.1,0-2-0.9-2-2v-0.06c0-1.1,0.9-2,2-2h0.06c1.1,0,2,0.9,2,2v0.06c0,1.1-0.9,2-2,2H392.52z
			"/>
	</g>
	<g>
		<path fill="#FFFFFF" d="M392.52,26.15c-1.1,0-2-0.9-2-2v-0.06c0-1.1,0.9-2,2-2h0.06c1.1,0,2,0.9,2,2v0.06c0,1.1-0.9,2-2,2H392.52z
			"/>
	</g>
	<g>
		<path fill="#FFFFFF" d="M452.21,631.39c-1.1,0-2-0.9-2-2v-0.06c0-1.1,0.9-2,2-2h0.06c1.1,0,2,0.9,2,2v0.06c0,1.1-0.9,2-2,2H452.21
			z"/>
	</g>
	<g>
		<path fill="#FFFFFF" d="M452.21,570.87c-1.1,0-2-0.9-2-2v-0.06c0-1.1,0.9-2,2-2h0.06c1.1,0,2,0.9,2,2v0.06c0,1.1-0.9,2-2,2H452.21
			z"/>
	</g>
	<g>
		<path fill="#FFFFFF" d="M452.21,510.34c-1.1,0-2-0.9-2-2v-0.06c0-1.1,0.9-2,2-2h0.06c1.1,0,2,0.9,2,2v0.06c0,1.1-0.9,2-2,2H452.21
			z"/>
	</g>
	<g>
		<path fill="#FFFFFF" d="M452.21,449.82c-1.1,0-2-0.9-2-2v-0.06c0-1.1,0.9-2,2-2h0.06c1.1,0,2,0.9,2,2v0.06c0,1.1-0.9,2-2,2H452.21
			z"/>
	</g>
	<g>
		<path fill="#FFFFFF" d="M452.21,389.29c-1.1,0-2-0.9-2-2v-0.06c0-1.1,0.9-2,2-2h0.06c1.1,0,2,0.9,2,2v0.06c0,1.1-0.9,2-2,2H452.21
			z"/>
	</g>
	<g>
		<path fill="#FFFFFF" d="M452.21,328.77c-1.1,0-2-0.9-2-2v-0.06c0-1.1,0.9-2,2-2h0.06c1.1,0,2,0.9,2,2v0.06c0,1.1-0.9,2-2,2H452.21
			z"/>
	</g>
	<g>
		<path fill="#FFFFFF" d="M452.21,268.25c-1.1,0-2-0.9-2-2v-0.06c0-1.1,0.9-2,2-2h0.06c1.1,0,2,0.9,2,2v0.06c0,1.1-0.9,2-2,2H452.21
			z"/>
	</g>
	<g>
		<path fill="#FFFFFF" d="M452.21,207.72c-1.1,0-2-0.9-2-2v-0.06c0-1.1,0.9-2,2-2h0.06c1.1,0,2,0.9,2,2v0.06c0,1.1-0.9,2-2,2H452.21
			z"/>
	</g>
	<g>
		<path fill="#FFFFFF" d="M452.21,147.2c-1.1,0-2-0.9-2-2v-0.06c0-1.1,0.9-2,2-2h0.06c1.1,0,2,0.9,2,2v0.06c0,1.1-0.9,2-2,2H452.21z
			"/>
	</g>
	<g>
		<path fill="#FFFFFF" d="M452.21,86.67c-1.1,0-2-0.9-2-2v-0.06c0-1.1,0.9-2,2-2h0.06c1.1,0,2,0.9,2,2v0.06c0,1.1-0.9,2-2,2H452.21z
			"/>
	</g>
	<g>
		<path fill="#FFFFFF" d="M452.21,26.15c-1.1,0-2-0.9-2-2v-0.06c0-1.1,0.9-2,2-2h0.06c1.1,0,2,0.9,2,2v0.06c0,1.1-0.9,2-2,2H452.21z
			"/>
	</g>
	<g>
		<path fill="#FFFFFF" d="M511.9,631.39c-1.1,0-2-0.9-2-2v-0.06c0-1.1,0.9-2,2-2h0.06c1.1,0,2,0.9,2,2v0.06c0,1.1-0.9,2-2,2H511.9z"
			/>
	</g>
	<g>
		<path fill="#FFFFFF" d="M511.9,570.87c-1.1,0-2-0.9-2-2v-0.06c0-1.1,0.9-2,2-2h0.06c1.1,0,2,0.9,2,2v0.06c0,1.1-0.9,2-2,2H511.9z"
			/>
	</g>
	<g>
		<path fill="#FFFFFF" d="M511.9,510.34c-1.1,0-2-0.9-2-2v-0.06c0-1.1,0.9-2,2-2h0.06c1.1,0,2,0.9,2,2v0.06c0,1.1-0.9,2-2,2H511.9z"
			/>
	</g>
	<g>
		<path fill="#FFFFFF" d="M511.9,449.82c-1.1,0-2-0.9-2-2v-0.06c0-1.1,0.9-2,2-2h0.06c1.1,0,2,0.9,2,2v0.06c0,1.1-0.9,2-2,2H511.9z"
			/>
	</g>
	<g>
		<path fill="#FFFFFF" d="M511.9,389.29c-1.1,0-2-0.9-2-2v-0.06c0-1.1,0.9-2,2-2h0.06c1.1,0,2,0.9,2,2v0.06c0,1.1-0.9,2-2,2H511.9z"
			/>
	</g>
	<g>
		<path fill="#FFFFFF" d="M511.9,328.77c-1.1,0-2-0.9-2-2v-0.06c0-1.1,0.9-2,2-2h0.06c1.1,0,2,0.9,2,2v0.06c0,1.1-0.9,2-2,2H511.9z"
			/>
	</g>
	<g>
		<path fill="#FFFFFF" d="M511.9,268.25c-1.1,0-2-0.9-2-2v-0.06c0-1.1,0.9-2,2-2h0.06c1.1,0,2,0.9,2,2v0.06c0,1.1-0.9,2-2,2H511.9z"
			/>
	</g>
	<g>
		<path fill="#FFFFFF" d="M511.9,207.72c-1.1,0-2-0.9-2-2v-0.06c0-1.1,0.9-2,2-2h0.06c1.1,0,2,0.9,2,2v0.06c0,1.1-0.9,2-2,2H511.9z"
			/>
	</g>
	<g>
		<path fill="#FFFFFF" d="M511.9,147.2c-1.1,0-2-0.9-2-2v-0.06c0-1.1,0.9-2,2-2h0.06c1.1,0,2,0.9,2,2v0.06c0,1.1-0.9,2-2,2H511.9z"
			/>
	</g>
	<g>
		<path fill="#FFFFFF" d="M511.9,86.67c-1.1,0-2-0.9-2-2v-0.06c0-1.1,0.9-2,2-2h0.06c1.1,0,2,0.9,2,2v0.06c0,1.1-0.9,2-2,2H511.9z"
			/>
	</g>
	<g>
		<path fill="#FFFFFF" d="M511.9,26.15c-1.1,0-2-0.9-2-2v-0.06c0-1.1,0.9-2,2-2h0.06c1.1,0,2,0.9,2,2v0.06c0,1.1-0.9,2-2,2H511.9z"
			/>
	</g>
	<g>
		<path fill="#FFFFFF" d="M571.59,631.39c-1.1,0-2-0.9-2-2v-0.06c0-1.1,0.9-2,2-2h0.06c1.1,0,2,0.9,2,2v0.06c0,1.1-0.9,2-2,2H571.59
			z"/>
	</g>
	<g>
		<path fill="#FFFFFF" d="M571.59,570.87c-1.1,0-2-0.9-2-2v-0.06c0-1.1,0.9-2,2-2h0.06c1.1,0,2,0.9,2,2v0.06c0,1.1-0.9,2-2,2H571.59
			z"/>
	</g>
	<g>
		<path fill="#FFFFFF" d="M571.59,510.34c-1.1,0-2-0.9-2-2v-0.06c0-1.1,0.9-2,2-2h0.06c1.1,0,2,0.9,2,2v0.06c0,1.1-0.9,2-2,2H571.59
			z"/>
	</g>
	<g>
		<path fill="#FFFFFF" d="M571.59,449.82c-1.1,0-2-0.9-2-2v-0.06c0-1.1,0.9-2,2-2h0.06c1.1,0,2,0.9,2,2v0.06c0,1.1-0.9,2-2,2H571.59
			z"/>
	</g>
	<g>
		<path fill="#FFFFFF" d="M571.59,389.29c-1.1,0-2-0.9-2-2v-0.06c0-1.1,0.9-2,2-2h0.06c1.1,0,2,0.9,2,2v0.06c0,1.1-0.9,2-2,2H571.59
			z"/>
	</g>
	<g>
		<path fill="#FFFFFF" d="M571.59,328.77c-1.1,0-2-0.9-2-2v-0.06c0-1.1,0.9-2,2-2h0.06c1.1,0,2,0.9,2,2v0.06c0,1.1-0.9,2-2,2H571.59
			z"/>
	</g>
	<g>
		<path fill="#FFFFFF" d="M571.59,268.25c-1.1,0-2-0.9-2-2v-0.06c0-1.1,0.9-2,2-2h0.06c1.1,0,2,0.9,2,2v0.06c0,1.1-0.9,2-2,2H571.59
			z"/>
	</g>
	<g>
		<path fill="#FFFFFF" d="M571.59,207.72c-1.1,0-2-0.9-2-2v-0.06c0-1.1,0.9-2,2-2h0.06c1.1,0,2,0.9,2,2v0.06c0,1.1-0.9,2-2,2H571.59
			z"/>
	</g>
	<g>
		<path fill="#FFFFFF" d="M571.59,147.2c-1.1,0-2-0.9-2-2v-0.06c0-1.1,0.9-2,2-2h0.06c1.1,0,2,0.9,2,2v0.06c0,1.1-0.9,2-2,2H571.59z
			"/>
	</g>
	<g>
		<path fill="#FFFFFF" d="M571.59,86.67c-1.1,0-2-0.9-2-2v-0.06c0-1.1,0.9-2,2-2h0.06c1.1,0,2,0.9,2,2v0.06c0,1.1-0.9,2-2,2H571.59z
			"/>
	</g>
	<g>
		<path fill="#FFFFFF" d="M571.59,26.15c-1.1,0-2-0.9-2-2v-0.06c0-1.1,0.9-2,2-2h0.06c1.1,0,2,0.9,2,2v0.06c0,1.1-0.9,2-2,2H571.59z
			"/>
	</g>
	<g>
		<path fill="#FFFFFF" d="M631.28,631.39c-1.1,0-2-0.9-2-2v-0.06c0-1.1,0.9-2,2-2h0.06c1.1,0,2,0.9,2,2v0.06c0,1.1-0.9,2-2,2H631.28
			z"/>
	</g>
	<g>
		<path fill="#FFFFFF" d="M631.28,570.87c-1.1,0-2-0.9-2-2v-0.06c0-1.1,0.9-2,2-2h0.06c1.1,0,2,0.9,2,2v0.06c0,1.1-0.9,2-2,2H631.28
			z"/>
	</g>
	<g>
		<path fill="#FFFFFF" d="M631.28,510.34c-1.1,0-2-0.9-2-2v-0.06c0-1.1,0.9-2,2-2h0.06c1.1,0,2,0.9,2,2v0.06c0,1.1-0.9,2-2,2H631.28
			z"/>
	</g>
	<g>
		<path fill="#FFFFFF" d="M631.28,449.82c-1.1,0-2-0.9-2-2v-0.06c0-1.1,0.9-2,2-2h0.06c1.1,0,2,0.9,2,2v0.06c0,1.1-0.9,2-2,2H631.28
			z"/>
	</g>
	<g>
		<path fill="#FFFFFF" d="M631.28,389.29c-1.1,0-2-0.9-2-2v-0.06c0-1.1,0.9-2,2-2h0.06c1.1,0,2,0.9,2,2v0.06c0,1.1-0.9,2-2,2H631.28
			z"/>
	</g>
	<g>
		<path fill="#FFFFFF" d="M631.28,328.77c-1.1,0-2-0.9-2-2v-0.06c0-1.1,0.9-2,2-2h0.06c1.1,0,2,0.9,2,2v0.06c0,1.1-0.9,2-2,2H631.28
			z"/>
	</g>
	<g>
		<path fill="#FFFFFF" d="M631.28,268.25c-1.1,0-2-0.9-2-2v-0.06c0-1.1,0.9-2,2-2h0.06c1.1,0,2,0.9,2,2v0.06c0,1.1-0.9,2-2,2H631.28
			z"/>
	</g>
	<g>
		<path fill="#FFFFFF" d="M631.28,207.72c-1.1,0-2-0.9-2-2v-0.06c0-1.1,0.9-2,2-2h0.06c1.1,0,2,0.9,2,2v0.06c0,1.1-0.9,2-2,2H631.28
			z"/>
	</g>
	<g>
		<path fill="#FFFFFF" d="M631.28,147.2c-1.1,0-2-0.9-2-2v-0.06c0-1.1,0.9-2,2-2h0.06c1.1,0,2,0.9,2,2v0.06c0,1.1-0.9,2-2,2H631.28z
			"/>
	</g>
	<g>
		<path fill="#FFFFFF" d="M631.28,86.67c-1.1,0-2-0.9-2-2v-0.06c0-1.1,0.9-2,2-2h0.06c1.1,0,2,0.9,2,2v0.06c0,1.1-0.9,2-2,2H631.28z
			"/>
	</g>
	<g>
		<path fill="#FFFFFF" d="M631.28,26.15c-1.1,0-2-0.9-2-2v-0.06c0-1.1,0.9-2,2-2h0.06c1.1,0,2,0.9,2,2v0.06c0,1.1-0.9,2-2,2H631.28z
			"/>
	</g>
	<g>
		<path fill="#FFFFFF" d="M690.98,631.39c-1.1,0-2-0.9-2-2v-0.06c0-1.1,0.9-2,2-2h0.06c1.1,0,2,0.9,2,2v0.06c0,1.1-0.9,2-2,2H690.98
			z"/>
	</g>
	<g>
		<path fill="#FFFFFF" d="M690.98,570.87c-1.1,0-2-0.9-2-2v-0.06c0-1.1,0.9-2,2-2h0.06c1.1,0,2,0.9,2,2v0.06c0,1.1-0.9,2-2,2H690.98
			z"/>
	</g>
	<g>
		<path fill="#FFFFFF" d="M690.98,510.34c-1.1,0-2-0.9-2-2v-0.06c0-1.1,0.9-2,2-2h0.06c1.1,0,2,0.9,2,2v0.06c0,1.1-0.9,2-2,2H690.98
			z"/>
	</g>
	<g>
		<path fill="#FFFFFF" d="M690.98,449.82c-1.1,0-2-0.9-2-2v-0.06c0-1.1,0.9-2,2-2h0.06c1.1,0,2,0.9,2,2v0.06c0,1.1-0.9,2-2,2H690.98
			z"/>
	</g>
	<g>
		<path fill="#FFFFFF" d="M690.98,389.29c-1.1,0-2-0.9-2-2v-0.06c0-1.1,0.9-2,2-2h0.06c1.1,0,2,0.9,2,2v0.06c0,1.1-0.9,2-2,2H690.98
			z"/>
	</g>
	<g>
		<path fill="#FFFFFF" d="M690.98,328.77c-1.1,0-2-0.9-2-2v-0.06c0-1.1,0.9-2,2-2h0.06c1.1,0,2,0.9,2,2v0.06c0,1.1-0.9,2-2,2H690.98
			z"/>
	</g>
	<g>
		<path fill="#FFFFFF" d="M690.98,268.25c-1.1,0-2-0.9-2-2v-0.06c0-1.1,0.9-2,2-2h0.06c1.1,0,2,0.9,2,2v0.06c0,1.1-0.9,2-2,2H690.98
			z"/>
	</g>
	<g>
		<path fill="#FFFFFF" d="M690.98,207.72c-1.1,0-2-0.9-2-2v-0.06c0-1.1,0.9-2,2-2h0.06c1.1,0,2,0.9,2,2v0.06c0,1.1-0.9,2-2,2H690.98
			z"/>
	</g>
	<g>
		<path fill="#FFFFFF" d="M690.98,147.2c-1.1,0-2-0.9-2-2v-0.06c0-1.1,0.9-2,2-2h0.06c1.1,0,2,0.9,2,2v0.06c0,1.1-0.9,2-2,2H690.98z
			"/>
	</g>
	<g>
		<path fill="#FFFFFF" d="M690.98,86.67c-1.1,0-2-0.9-2-2v-0.06c0-1.1,0.9-2,2-2h0.06c1.1,0,2,0.9,2,2v0.06c0,1.1-0.9,2-2,2H690.98z
			"/>
	</g>
	<g>
		<path fill="#FFFFFF" d="M690.98,26.15c-1.1,0-2-0.9-2-2v-0.06c0-1.1,0.9-2,2-2h0.06c1.1,0,2,0.9,2,2v0.06c0,1.1-0.9,2-2,2H690.98z
			"/>
	</g>
	<g>
		<path fill="#FFFFFF" d="M750.67,631.39c-1.1,0-2-0.9-2-2v-0.06c0-1.1,0.9-2,2-2h0.06c1.1,0,2,0.9,2,2v0.06c0,1.1-0.9,2-2,2H750.67
			z"/>
	</g>
	<g>
		<path fill="#FFFFFF" d="M750.67,570.87c-1.1,0-2-0.9-2-2v-0.06c0-1.1,0.9-2,2-2h0.06c1.1,0,2,0.9,2,2v0.06c0,1.1-0.9,2-2,2H750.67
			z"/>
	</g>
	<g>
		<path fill="#FFFFFF" d="M750.67,510.34c-1.1,0-2-0.9-2-2v-0.06c0-1.1,0.9-2,2-2h0.06c1.1,0,2,0.9,2,2v0.06c0,1.1-0.9,2-2,2H750.67
			z"/>
	</g>
	<g>
		<path fill="#FFFFFF" d="M750.67,449.82c-1.1,0-2-0.9-2-2v-0.06c0-1.1,0.9-2,2-2h0.06c1.1,0,2,0.9,2,2v0.06c0,1.1-0.9,2-2,2H750.67
			z"/>
	</g>
	<g>
		<path fill="#FFFFFF" d="M750.67,389.29c-1.1,0-2-0.9-2-2v-0.06c0-1.1,0.9-2,2-2h0.06c1.1,0,2,0.9,2,2v0.06c0,1.1-0.9,2-2,2H750.67
			z"/>
	</g>
	<g>
		<path fill="#FFFFFF" d="M750.67,328.77c-1.1,0-2-0.9-2-2v-0.06c0-1.1,0.9-2,2-2h0.06c1.1,0,2,0.9,2,2v0.06c0,1.1-0.9,2-2,2H750.67
			z"/>
	</g>
	<g>
		<path fill="#FFFFFF" d="M750.67,268.25c-1.1,0-2-0.9-2-2v-0.06c0-1.1,0.9-2,2-2h0.06c1.1,0,2,0.9,2,2v0.06c0,1.1-0.9,2-2,2H750.67
			z"/>
	</g>
	<g>
		<path fill="#FFFFFF" d="M750.67,207.72c-1.1,0-2-0.9-2-2v-0.06c0-1.1,0.9-2,2-2h0.06c1.1,0,2,0.9,2,2v0.06c0,1.1-0.9,2-2,2H750.67
			z"/>
	</g>
	<g>
		<path fill="#FFFFFF" d="M750.67,147.2c-1.1,0-2-0.9-2-2v-0.06c0-1.1,0.9-2,2-2h0.06c1.1,0,2,0.9,2,2v0.06c0,1.1-0.9,2-2,2H750.67z
			"/>
	</g>
	<g>
		<path fill="#FFFFFF" d="M750.67,86.67c-1.1,0-2-0.9-2-2v-0.06c0-1.1,0.9-2,2-2h0.06c1.1,0,2,0.9,2,2v0.06c0,1.1-0.9,2-2,2H750.67z
			"/>
	</g>
	<g>
		<path fill="#FFFFFF" d="M750.67,26.15c-1.1,0-2-0.9-2-2v-0.06c0-1.1,0.9-2,2-2h0.06c1.1,0,2,0.9,2,2v0.06c0,1.1-0.9,2-2,2H750.67z
			"/>
	</g>
	<g>
		<path fill="#FFFFFF" d="M810.36,631.39c-1.1,0-2-0.9-2-2v-0.06c0-1.1,0.9-2,2-2h0.06c1.1,0,2,0.9,2,2v0.06c0,1.1-0.9,2-2,2H810.36
			z"/>
	</g>
	<g>
		<path fill="#FFFFFF" d="M810.36,570.87c-1.1,0-2-0.9-2-2v-0.06c0-1.1,0.9-2,2-2h0.06c1.1,0,2,0.9,2,2v0.06c0,1.1-0.9,2-2,2H810.36
			z"/>
	</g>
	<g>
		<path fill="#FFFFFF" d="M810.36,510.34c-1.1,0-2-0.9-2-2v-0.06c0-1.1,0.9-2,2-2h0.06c1.1,0,2,0.9,2,2v0.06c0,1.1-0.9,2-2,2H810.36
			z"/>
	</g>
	<g>
		<path fill="#FFFFFF" d="M810.36,449.82c-1.1,0-2-0.9-2-2v-0.06c0-1.1,0.9-2,2-2h0.06c1.1,0,2,0.9,2,2v0.06c0,1.1-0.9,2-2,2H810.36
			z"/>
	</g>
	<g>
		<path fill="#FFFFFF" d="M810.36,389.29c-1.1,0-2-0.9-2-2v-0.06c0-1.1,0.9-2,2-2h0.06c1.1,0,2,0.9,2,2v0.06c0,1.1-0.9,2-2,2H810.36
			z"/>
	</g>
	<g>
		<path fill="#FFFFFF" d="M810.36,328.77c-1.1,0-2-0.9-2-2v-0.06c0-1.1,0.9-2,2-2h0.06c1.1,0,2,0.9,2,2v0.06c0,1.1-0.9,2-2,2H810.36
			z"/>
	</g>
	<g>
		<path fill="#FFFFFF" d="M810.36,268.25c-1.1,0-2-0.9-2-2v-0.06c0-1.1,0.9-2,2-2h0.06c1.1,0,2,0.9,2,2v0.06c0,1.1-0.9,2-2,2H810.36
			z"/>
	</g>
	<g>
		<path fill="#FFFFFF" d="M810.36,207.72c-1.1,0-2-0.9-2-2v-0.06c0-1.1,0.9-2,2-2h0.06c1.1,0,2,0.9,2,2v0.06c0,1.1-0.9,2-2,2H810.36
			z"/>
	</g>
	<g>
		<path fill="#FFFFFF" d="M810.36,147.2c-1.1,0-2-0.9-2-2v-0.06c0-1.1,0.9-2,2-2h0.06c1.1,0,2,0.9,2,2v0.06c0,1.1-0.9,2-2,2H810.36z
			"/>
	</g>
	<g>
		<path fill="#FFFFFF" d="M810.36,86.67c-1.1,0-2-0.9-2-2v-0.06c0-1.1,0.9-2,2-2h0.06c1.1,0,2,0.9,2,2v0.06c0,1.1-0.9,2-2,2H810.36z
			"/>
	</g>
	<g>
		<path fill="#FFFFFF" d="M870.05,86.67c-1.1,0-2-0.9-2-2v-0.06c0-1.1,0.9-2,2-2h0.06c1.1,0,2,0.9,2,2v0.06c0,1.1-0.9,2-2,2H870.05z
			"/>
	</g>
	<g>
		<path fill="#FFFFFF" d="M810.36,26.15c-1.1,0-2-0.9-2-2v-0.06c0-1.1,0.9-2,2-2h0.06c1.1,0,2,0.9,2,2v0.06c0,1.1-0.9,2-2,2H810.36z
			"/>
	</g>
	<g>
		<path fill="#FFFFFF" d="M870.05,631.39c-1.1,0-2-0.9-2-2v-0.06c0-1.1,0.9-2,2-2h0.06c1.1,0,2,0.9,2,2v0.06c0,1.1-0.9,2-2,2H870.05
			z"/>
	</g>
	<g>
		<path fill="#FFFFFF" d="M870.05,570.87c-1.1,0-2-0.9-2-2v-0.06c0-1.1,0.9-2,2-2h0.06c1.1,0,2,0.9,2,2v0.06c0,1.1-0.9,2-2,2H870.05
			z"/>
	</g>
	<g>
		<path fill="#FFFFFF" d="M870.05,510.34c-1.1,0-2-0.9-2-2v-0.06c0-1.1,0.9-2,2-2h0.06c1.1,0,2,0.9,2,2v0.06c0,1.1-0.9,2-2,2H870.05
			z"/>
	</g>
	<g>
		<path fill="#FFFFFF" d="M870.05,449.82c-1.1,0-2-0.9-2-2v-0.06c0-1.1,0.9-2,2-2h0.06c1.1,0,2,0.9,2,2v0.06c0,1.1-0.9,2-2,2H870.05
			z"/>
	</g>
	<g>
		<path fill="#FFFFFF" d="M870.05,389.29c-1.1,0-2-0.9-2-2v-0.06c0-1.1,0.9-2,2-2h0.06c1.1,0,2,0.9,2,2v0.06c0,1.1-0.9,2-2,2H870.05
			z"/>
	</g>
	<g>
		<path fill="#FFFFFF" d="M870.05,328.77c-1.1,0-2-0.9-2-2v-0.06c0-1.1,0.9-2,2-2h0.06c1.1,0,2,0.9,2,2v0.06c0,1.1-0.9,2-2,2H870.05
			z"/>
	</g>
	<g>
		<path fill="#FFFFFF" d="M870.05,268.25c-1.1,0-2-0.9-2-2v-0.06c0-1.1,0.9-2,2-2h0.06c1.1,0,2,0.9,2,2v0.06c0,1.1-0.9,2-2,2H870.05
			z"/>
	</g>
	<g>
		<path fill="#FFFFFF" d="M870.05,207.72c-1.1,0-2-0.9-2-2v-0.06c0-1.1,0.9-2,2-2h0.06c1.1,0,2,0.9,2,2v0.06c0,1.1-0.9,2-2,2H870.05
			z"/>
	</g>
	<g>
		<path fill="#FFFFFF" d="M870.05,147.2c-1.1,0-2-0.9-2-2v-0.06c0-1.1,0.9-2,2-2h0.06c1.1,0,2,0.9,2,2v0.06c0,1.1-0.9,2-2,2H870.05z
			"/>
	</g>
	<g>
		<path fill="#FFFFFF" d="M870.05,26.15c-1.1,0-2-0.9-2-2v-0.06c0-1.1,0.9-2,2-2h0.06c1.1,0,2,0.9,2,2v0.06c0,1.1-0.9,2-2,2H870.05z
			"/>
	</g>
	<g>
		<path fill="#FFFFFF" d="M929.74,631.39c-1.1,0-2-0.9-2-2v-0.06c0-1.1,0.9-2,2-2h0.06c1.1,0,2,0.9,2,2v0.06c0,1.1-0.9,2-2,2H929.74
			z"/>
	</g>
	<g>
		<path fill="#FFFFFF" d="M929.74,570.87c-1.1,0-2-0.9-2-2v-0.06c0-1.1,0.9-2,2-2h0.06c1.1,0,2,0.9,2,2v0.06c0,1.1-0.9,2-2,2H929.74
			z"/>
	</g>
	<g>
		<path fill="#FFFFFF" d="M929.74,510.34c-1.1,0-2-0.9-2-2v-0.06c0-1.1,0.9-2,2-2h0.06c1.1,0,2,0.9,2,2v0.06c0,1.1-0.9,2-2,2H929.74
			z"/>
	</g>
	<g>
		<path fill="#FFFFFF" d="M929.74,449.82c-1.1,0-2-0.9-2-2v-0.06c0-1.1,0.9-2,2-2h0.06c1.1,0,2,0.9,2,2v0.06c0,1.1-0.9,2-2,2H929.74
			z"/>
	</g>
	<g>
		<path fill="#FFFFFF" d="M929.74,389.29c-1.1,0-2-0.9-2-2v-0.06c0-1.1,0.9-2,2-2h0.06c1.1,0,2,0.9,2,2v0.06c0,1.1-0.9,2-2,2H929.74
			z"/>
	</g>
	<g>
		<path fill="#FFFFFF" d="M929.74,328.77c-1.1,0-2-0.9-2-2v-0.06c0-1.1,0.9-2,2-2h0.06c1.1,0,2,0.9,2,2v0.06c0,1.1-0.9,2-2,2H929.74
			z"/>
	</g>
	<g>
		<path fill="#FFFFFF" d="M929.74,268.25c-1.1,0-2-0.9-2-2v-0.06c0-1.1,0.9-2,2-2h0.06c1.1,0,2,0.9,2,2v0.06c0,1.1-0.9,2-2,2H929.74
			z"/>
	</g>
	<g>
		<path fill="#FFFFFF" d="M929.74,207.72c-1.1,0-2-0.9-2-2v-0.06c0-1.1,0.9-2,2-2h0.06c1.1,0,2,0.9,2,2v0.06c0,1.1-0.9,2-2,2H929.74
			z"/>
	</g>
	<g>
		<path fill="#FFFFFF" d="M929.74,147.2c-1.1,0-2-0.9-2-2v-0.06c0-1.1,0.9-2,2-2h0.06c1.1,0,2,0.9,2,2v0.06c0,1.1-0.9,2-2,2H929.74z
			"/>
	</g>
	<g>
		<path fill="#FFFFFF" d="M929.74,86.67c-1.1,0-2-0.9-2-2v-0.06c0-1.1,0.9-2,2-2h0.06c1.1,0,2,0.9,2,2v0.06c0,1.1-0.9,2-2,2H929.74z
			"/>
	</g>
	<g>
		<path fill="#FFFFFF" d="M929.74,26.15c-1.1,0-2-0.9-2-2v-0.06c0-1.1,0.9-2,2-2h0.06c1.1,0,2,0.9,2,2v0.06c0,1.1-0.9,2-2,2H929.74z
			"/>
	</g>
</g>
<g>
	<path fill="#FAD62A" d="M34.4,464.03c-1.93,0-3.49-1.57-3.49-3.49v-10.22H20.68c-1.93,0-3.5-1.57-3.5-3.5s1.57-3.5,3.5-3.5H30.9
		V433.1c0-1.93,1.57-3.49,3.49-3.49s3.49,1.57,3.49,3.49v10.22h10.23c1.93,0,3.49,1.57,3.49,3.5s-1.57,3.5-3.49,3.5H37.89v10.22
		C37.89,462.46,36.32,464.03,34.4,464.03z"/>
	<path fill="#FAD62A" d="M34.4,430.6c1.38,0,2.49,1.12,2.49,2.49v11.22h11.23c1.38,0,2.49,1.12,2.49,2.5c0,1.38-1.12,2.49-2.49,2.49
		H36.89v11.22c0,1.38-1.12,2.49-2.49,2.49c-1.38,0-2.49-1.12-2.49-2.49v-11.22H20.68c-1.38,0-2.5-1.12-2.5-2.49
		c0-1.38,1.12-2.5,2.5-2.5H31.9V433.1C31.9,431.72,33.02,430.6,34.4,430.6 M34.4,428.6c-2.48,0-4.49,2.02-4.49,4.49v9.22h-9.22
		c-2.48,0-4.5,2.02-4.5,4.5c0,2.48,2.02,4.49,4.5,4.49h9.22v9.22c0,2.48,2.02,4.49,4.49,4.49c2.48,0,4.49-2.02,4.49-4.49v-9.22h9.23
		c2.48,0,4.49-2.02,4.49-4.49c0-2.48-2.02-4.5-4.49-4.5h-9.23v-9.22C38.89,430.62,36.87,428.6,34.4,428.6L34.4,428.6z"/>
</g>
<g>
	<circle fill="#E51B2B" cx="214.5" cy="565.84" r="26.98"/>
	<g>
		<path fill="#FFFFFF" d="M204.04,576.34h-4.33v-21.05h4.33V576.34z"/>
		<path fill="#FFFFFF" d="M207.59,570.62c0-1.93,0.86-4.03,2.79-5.16c-1.57-1.04-2.28-2.82-2.28-4.54c0-3.5,2.55-6.08,6.79-6.08
			c4.24,0,6.85,2.64,6.85,6.14c0,1.75-0.74,3.47-2.34,4.48c1.93,1.16,2.79,3.23,2.79,5.16c0,3.68-2.76,6.17-7.29,6.17
			S207.59,574.3,207.59,570.62z M211.92,570.3c0,1.36,0.95,2.73,2.96,2.73c2.02,0,2.96-1.36,2.96-2.73c0-1.54-1.1-2.73-2.96-2.73
			C213.02,567.57,211.92,568.75,211.92,570.3z M217.71,561.11c0-1.19-0.89-2.55-2.82-2.55c-1.93,0-2.76,1.3-2.76,2.49
			c0,1.54,1.01,2.64,2.76,2.64C216.64,563.68,217.71,562.65,217.71,561.11z"/>
		<path fill="#FFFFFF" d="M231.96,559.7v4.28h4.28v2.94h-4.28v4.28h-2.94v-4.28h-4.28v-2.94h4.28v-4.28H231.96z"/>
	</g>
</g>
</svg>
