<?xml version="1.0" encoding="utf-8"?>
<!-- Generator: Adobe Illustrator 25.0.0, SVG Export Plug-In . SVG Version: 6.00 Build 0)  -->
<svg version="1.1" id="Layer_1" xmlns="http://www.w3.org/2000/svg" xmlns:xlink="http://www.w3.org/1999/xlink" x="0px" y="0px"
	 viewBox="0 0 950 652.8" enable-background="new 0 0 950 652.8" xml:space="preserve">
<g>
	<g>
		<path fill="#FFFFFF" d="M34.4,631.4c-1.1,0-2-0.9-2-2v-0.1c0-1.1,0.9-2,2-2h0.1c1.1,0,2,0.9,2,2v0.1
			C36.4,630.5,35.5,631.4,34.4,631.4L34.4,631.4z"/>
	</g>
	<g>
		<path fill="#FFFFFF" d="M34.4,570.9c-1.1,0-2-0.9-2-2v-0.1c0-1.1,0.9-2,2-2h0.1c1.1,0,2,0.9,2,2v0.1
			C36.4,570,35.5,570.9,34.4,570.9L34.4,570.9z"/>
	</g>
	<g>
		<path fill="#FFFFFF" d="M34.4,510.3c-1.1,0-2-0.9-2-2v-0.1c0-1.1,0.9-2,2-2h0.1c1.1,0,2,0.9,2,2v0.1
			C36.4,509.4,35.5,510.3,34.4,510.3L34.4,510.3z"/>
	</g>
	<g>
		<path fill="#FFFFFF" d="M34.4,449.8c-1.1,0-2-0.9-2-2v-0.1c0-1.1,0.9-2,2-2h0.1c1.1,0,2,0.9,2,2v0.1
			C36.4,448.9,35.5,449.8,34.4,449.8L34.4,449.8z"/>
	</g>
	<g>
		<path fill="#FFFFFF" d="M34.4,389.3c-1.1,0-2-0.9-2-2v-0.1c0-1.1,0.9-2,2-2h0.1c1.1,0,2,0.9,2,2v0.1
			C36.4,388.4,35.5,389.3,34.4,389.3L34.4,389.3z"/>
	</g>
	<g>
		<path fill="#FFFFFF" d="M34.4,328.8c-1.1,0-2-0.9-2-2v-0.1c0-1.1,0.9-2,2-2h0.1c1.1,0,2,0.9,2,2v0.1
			C36.4,327.9,35.5,328.8,34.4,328.8L34.4,328.8z"/>
	</g>
	<g>
		<path fill="#FFFFFF" d="M34.4,268.3c-1.1,0-2-0.9-2-2v-0.1c0-1.1,0.9-2,2-2h0.1c1.1,0,2,0.9,2,2v0.1
			C36.4,267.4,35.5,268.3,34.4,268.3L34.4,268.3z"/>
	</g>
	<g>
		<path fill="#FFFFFF" d="M34.4,207.7c-1.1,0-2-0.9-2-2v-0.1c0-1.1,0.9-2,2-2h0.1c1.1,0,2,0.9,2,2v0.1
			C36.4,206.8,35.5,207.7,34.4,207.7L34.4,207.7z"/>
	</g>
	<g>
		<path fill="#FFFFFF" d="M34.4,147.2c-1.1,0-2-0.9-2-2v-0.1c0-1.1,0.9-2,2-2h0.1c1.1,0,2,0.9,2,2v0.1
			C36.4,146.3,35.5,147.2,34.4,147.2L34.4,147.2z"/>
	</g>
	<g>
		<path fill="#FFFFFF" d="M34.4,86.7c-1.1,0-2-0.9-2-2v-0.1c0-1.1,0.9-2,2-2h0.1c1.1,0,2,0.9,2,2v0.1C36.4,85.8,35.5,86.7,34.4,86.7
			L34.4,86.7z"/>
	</g>
	<g>
		<path fill="#FFFFFF" d="M34.4,26.2c-1.1,0-2-0.9-2-2v-0.1c0-1.1,0.9-2,2-2h0.1c1.1,0,2,0.9,2,2v0.1C36.4,25.3,35.5,26.2,34.4,26.2
			L34.4,26.2z"/>
	</g>
	<g>
		<path fill="#FFFFFF" d="M94.1,631.4c-1.1,0-2-0.9-2-2v-0.1c0-1.1,0.9-2,2-2h0.1c1.1,0,2,0.9,2,2v0.1
			C96.1,630.5,95.2,631.4,94.1,631.4L94.1,631.4z"/>
	</g>
	<g>
		<path fill="#FFFFFF" d="M94.1,570.9c-1.1,0-2-0.9-2-2v-0.1c0-1.1,0.9-2,2-2h0.1c1.1,0,2,0.9,2,2v0.1
			C96.1,570,95.2,570.9,94.1,570.9L94.1,570.9z"/>
	</g>
	<g>
		<path fill="#FFFFFF" d="M94.1,510.3c-1.1,0-2-0.9-2-2v-0.1c0-1.1,0.9-2,2-2h0.1c1.1,0,2,0.9,2,2v0.1
			C96.1,509.4,95.2,510.3,94.1,510.3L94.1,510.3z"/>
	</g>
	<g>
		<path fill="#FFFFFF" d="M94.1,449.8c-1.1,0-2-0.9-2-2v-0.1c0-1.1,0.9-2,2-2h0.1c1.1,0,2,0.9,2,2v0.1
			C96.1,448.9,95.2,449.8,94.1,449.8L94.1,449.8z"/>
	</g>
	<g>
		<path fill="#FFFFFF" d="M94.1,389.3c-1.1,0-2-0.9-2-2v-0.1c0-1.1,0.9-2,2-2h0.1c1.1,0,2,0.9,2,2v0.1
			C96.1,388.4,95.2,389.3,94.1,389.3L94.1,389.3z"/>
	</g>
	<g>
		<path fill="#FFFFFF" d="M94.1,328.8c-1.1,0-2-0.9-2-2v-0.1c0-1.1,0.9-2,2-2h0.1c1.1,0,2,0.9,2,2v0.1
			C96.1,327.9,95.2,328.8,94.1,328.8L94.1,328.8z"/>
	</g>
	<g>
		<path fill="#FFFFFF" d="M94.1,268.3c-1.1,0-2-0.9-2-2v-0.1c0-1.1,0.9-2,2-2h0.1c1.1,0,2,0.9,2,2v0.1
			C96.1,267.4,95.2,268.3,94.1,268.3L94.1,268.3z"/>
	</g>
	<g>
		<path fill="#FFFFFF" d="M94.1,207.7c-1.1,0-2-0.9-2-2v-0.1c0-1.1,0.9-2,2-2h0.1c1.1,0,2,0.9,2,2v0.1
			C96.1,206.8,95.2,207.7,94.1,207.7L94.1,207.7z"/>
	</g>
	<g>
		<path fill="#FFFFFF" d="M94.1,147.2c-1.1,0-2-0.9-2-2v-0.1c0-1.1,0.9-2,2-2h0.1c1.1,0,2,0.9,2,2v0.1
			C96.1,146.3,95.2,147.2,94.1,147.2L94.1,147.2z"/>
	</g>
	<g>
		<path fill="#FFFFFF" d="M94.1,86.7c-1.1,0-2-0.9-2-2v-0.1c0-1.1,0.9-2,2-2h0.1c1.1,0,2,0.9,2,2v0.1C96.1,85.8,95.2,86.7,94.1,86.7
			L94.1,86.7z"/>
	</g>
	<g>
		<path fill="#FFFFFF" d="M94.1,26.2c-1.1,0-2-0.9-2-2v-0.1c0-1.1,0.9-2,2-2h0.1c1.1,0,2,0.9,2,2v0.1C96.1,25.3,95.2,26.2,94.1,26.2
			L94.1,26.2z"/>
	</g>
	<g>
		<path fill="#FFFFFF" d="M153.8,631.4c-1.1,0-2-0.9-2-2v-0.1c0-1.1,0.9-2,2-2h0.1c1.1,0,2,0.9,2,2v0.1
			C155.8,630.5,154.9,631.4,153.8,631.4L153.8,631.4z"/>
	</g>
	<g>
		<path fill="#FFFFFF" d="M153.8,570.9c-1.1,0-2-0.9-2-2v-0.1c0-1.1,0.9-2,2-2h0.1c1.1,0,2,0.9,2,2v0.1
			C155.8,570,154.9,570.9,153.8,570.9L153.8,570.9z"/>
	</g>
	<g>
		<path fill="#FFFFFF" d="M153.8,510.3c-1.1,0-2-0.9-2-2v-0.1c0-1.1,0.9-2,2-2h0.1c1.1,0,2,0.9,2,2v0.1
			C155.8,509.4,154.9,510.3,153.8,510.3L153.8,510.3z"/>
	</g>
	<g>
		<path fill="#FFFFFF" d="M153.8,449.8c-1.1,0-2-0.9-2-2v-0.1c0-1.1,0.9-2,2-2h0.1c1.1,0,2,0.9,2,2v0.1
			C155.8,448.9,154.9,449.8,153.8,449.8L153.8,449.8z"/>
	</g>
	<g>
		<path fill="#FFFFFF" d="M153.8,389.3c-1.1,0-2-0.9-2-2v-0.1c0-1.1,0.9-2,2-2h0.1c1.1,0,2,0.9,2,2v0.1
			C155.8,388.4,154.9,389.3,153.8,389.3L153.8,389.3z"/>
	</g>
	<g>
		<path fill="#FFFFFF" d="M153.8,328.8c-1.1,0-2-0.9-2-2v-0.1c0-1.1,0.9-2,2-2h0.1c1.1,0,2,0.9,2,2v0.1
			C155.8,327.9,154.9,328.8,153.8,328.8L153.8,328.8z"/>
	</g>
	<g>
		<path fill="#FFFFFF" d="M153.8,268.3c-1.1,0-2-0.9-2-2v-0.1c0-1.1,0.9-2,2-2h0.1c1.1,0,2,0.9,2,2v0.1
			C155.8,267.4,154.9,268.3,153.8,268.3L153.8,268.3z"/>
	</g>
	<g>
		<path fill="#FFFFFF" d="M153.8,207.7c-1.1,0-2-0.9-2-2v-0.1c0-1.1,0.9-2,2-2h0.1c1.1,0,2,0.9,2,2v0.1
			C155.8,206.8,154.9,207.7,153.8,207.7L153.8,207.7z"/>
	</g>
	<g>
		<path fill="#FFFFFF" d="M153.8,147.2c-1.1,0-2-0.9-2-2v-0.1c0-1.1,0.9-2,2-2h0.1c1.1,0,2,0.9,2,2v0.1
			C155.8,146.3,154.9,147.2,153.8,147.2L153.8,147.2z"/>
	</g>
	<g>
		<path fill="#FFFFFF" d="M153.8,86.7c-1.1,0-2-0.9-2-2v-0.1c0-1.1,0.9-2,2-2h0.1c1.1,0,2,0.9,2,2v0.1
			C155.8,85.8,154.9,86.7,153.8,86.7L153.8,86.7z"/>
	</g>
	<g>
		<path fill="#FFFFFF" d="M153.8,26.2c-1.1,0-2-0.9-2-2v-0.1c0-1.1,0.9-2,2-2h0.1c1.1,0,2,0.9,2,2v0.1
			C155.8,25.3,154.9,26.2,153.8,26.2L153.8,26.2z"/>
	</g>
	<g>
		<path fill="#FFFFFF" d="M213.4,631.4c-1.1,0-2-0.9-2-2v-0.1c0-1.1,0.9-2,2-2h0.1c1.1,0,2,0.9,2,2v0.1
			C215.5,630.5,214.6,631.4,213.4,631.4L213.4,631.4z"/>
	</g>
	<g>
		<path fill="#FFFFFF" d="M213.4,570.9c-1.1,0-2-0.9-2-2v-0.1c0-1.1,0.9-2,2-2h0.1c1.1,0,2,0.9,2,2v0.1
			C215.5,570,214.6,570.9,213.4,570.9L213.4,570.9z"/>
	</g>
	<g>
		<path fill="#FFFFFF" d="M213.4,510.3c-1.1,0-2-0.9-2-2v-0.1c0-1.1,0.9-2,2-2h0.1c1.1,0,2,0.9,2,2v0.1
			C215.5,509.4,214.6,510.3,213.4,510.3L213.4,510.3z"/>
	</g>
	<g>
		<path fill="#FFFFFF" d="M213.4,449.8c-1.1,0-2-0.9-2-2v-0.1c0-1.1,0.9-2,2-2h0.1c1.1,0,2,0.9,2,2v0.1
			C215.5,448.9,214.6,449.8,213.4,449.8L213.4,449.8z"/>
	</g>
	<g>
		<path fill="#FFFFFF" d="M213.4,389.3c-1.1,0-2-0.9-2-2v-0.1c0-1.1,0.9-2,2-2h0.1c1.1,0,2,0.9,2,2v0.1
			C215.5,388.4,214.6,389.3,213.4,389.3L213.4,389.3z"/>
	</g>
	<g>
		<path fill="#FFFFFF" d="M213.4,328.8c-1.1,0-2-0.9-2-2v-0.1c0-1.1,0.9-2,2-2h0.1c1.1,0,2,0.9,2,2v0.1
			C215.5,327.9,214.6,328.8,213.4,328.8L213.4,328.8z"/>
	</g>
	<g>
		<path fill="#FFFFFF" d="M213.4,268.3c-1.1,0-2-0.9-2-2v-0.1c0-1.1,0.9-2,2-2h0.1c1.1,0,2,0.9,2,2v0.1
			C215.5,267.4,214.6,268.3,213.4,268.3L213.4,268.3z"/>
	</g>
	<g>
		<path fill="#FFFFFF" d="M213.4,207.7c-1.1,0-2-0.9-2-2v-0.1c0-1.1,0.9-2,2-2h0.1c1.1,0,2,0.9,2,2v0.1
			C215.5,206.8,214.6,207.7,213.4,207.7L213.4,207.7z"/>
	</g>
	<g>
		<path fill="#FFFFFF" d="M213.4,147.2c-1.1,0-2-0.9-2-2v-0.1c0-1.1,0.9-2,2-2h0.1c1.1,0,2,0.9,2,2v0.1
			C215.5,146.3,214.6,147.2,213.4,147.2L213.4,147.2z"/>
	</g>
	<g>
		<path fill="#FFFFFF" d="M213.4,86.7c-1.1,0-2-0.9-2-2v-0.1c0-1.1,0.9-2,2-2h0.1c1.1,0,2,0.9,2,2v0.1
			C215.5,85.8,214.6,86.7,213.4,86.7L213.4,86.7z"/>
	</g>
	<g>
		<path fill="#FFFFFF" d="M213.4,26.2c-1.1,0-2-0.9-2-2v-0.1c0-1.1,0.9-2,2-2h0.1c1.1,0,2,0.9,2,2v0.1
			C215.5,25.3,214.6,26.2,213.4,26.2L213.4,26.2z"/>
	</g>
	<g>
		<path fill="#FFFFFF" d="M273.1,631.4c-1.1,0-2-0.9-2-2v-0.1c0-1.1,0.9-2,2-2h0.1c1.1,0,2,0.9,2,2v0.1
			C275.2,630.5,274.3,631.4,273.1,631.4L273.1,631.4z"/>
	</g>
	<g>
		<path fill="#FFFFFF" d="M273.1,570.9c-1.1,0-2-0.9-2-2v-0.1c0-1.1,0.9-2,2-2h0.1c1.1,0,2,0.9,2,2v0.1
			C275.2,570,274.3,570.9,273.1,570.9L273.1,570.9z"/>
	</g>
	<g>
		<path fill="#FFFFFF" d="M273.1,510.3c-1.1,0-2-0.9-2-2v-0.1c0-1.1,0.9-2,2-2h0.1c1.1,0,2,0.9,2,2v0.1
			C275.2,509.4,274.3,510.3,273.1,510.3L273.1,510.3z"/>
	</g>
	<g>
		<path fill="#FFFFFF" d="M273.1,449.8c-1.1,0-2-0.9-2-2v-0.1c0-1.1,0.9-2,2-2h0.1c1.1,0,2,0.9,2,2v0.1
			C275.2,448.9,274.3,449.8,273.1,449.8L273.1,449.8z"/>
	</g>
	<g>
		<path fill="#FFFFFF" d="M273.1,389.3c-1.1,0-2-0.9-2-2v-0.1c0-1.1,0.9-2,2-2h0.1c1.1,0,2,0.9,2,2v0.1
			C275.2,388.4,274.3,389.3,273.1,389.3L273.1,389.3z"/>
	</g>
	<g>
		<path fill="#FFFFFF" d="M273.1,328.8c-1.1,0-2-0.9-2-2v-0.1c0-1.1,0.9-2,2-2h0.1c1.1,0,2,0.9,2,2v0.1
			C275.2,327.9,274.3,328.8,273.1,328.8L273.1,328.8z"/>
	</g>
	<g>
		<path fill="#FFFFFF" d="M273.1,268.3c-1.1,0-2-0.9-2-2v-0.1c0-1.1,0.9-2,2-2h0.1c1.1,0,2,0.9,2,2v0.1
			C275.2,267.4,274.3,268.3,273.1,268.3L273.1,268.3z"/>
	</g>
	<g>
		<path fill="#FFFFFF" d="M273.1,207.7c-1.1,0-2-0.9-2-2v-0.1c0-1.1,0.9-2,2-2h0.1c1.1,0,2,0.9,2,2v0.1
			C275.2,206.8,274.3,207.7,273.1,207.7L273.1,207.7z"/>
	</g>
	<g>
		<path fill="#FFFFFF" d="M273.1,147.2c-1.1,0-2-0.9-2-2v-0.1c0-1.1,0.9-2,2-2h0.1c1.1,0,2,0.9,2,2v0.1
			C275.2,146.3,274.3,147.2,273.1,147.2L273.1,147.2z"/>
	</g>
	<g>
		<path fill="#FFFFFF" d="M273.1,86.7c-1.1,0-2-0.9-2-2v-0.1c0-1.1,0.9-2,2-2h0.1c1.1,0,2,0.9,2,2v0.1
			C275.2,85.8,274.3,86.7,273.1,86.7L273.1,86.7z"/>
	</g>
	<g>
		<path fill="#FFFFFF" d="M273.1,26.2c-1.1,0-2-0.9-2-2v-0.1c0-1.1,0.9-2,2-2h0.1c1.1,0,2,0.9,2,2v0.1
			C275.2,25.3,274.3,26.2,273.1,26.2L273.1,26.2z"/>
	</g>
	<g>
		<path fill="#FFFFFF" d="M332.8,631.4c-1.1,0-2-0.9-2-2v-0.1c0-1.1,0.9-2,2-2h0.1c1.1,0,2,0.9,2,2v0.1
			C334.9,630.5,334,631.4,332.8,631.4L332.8,631.4z"/>
	</g>
	<g>
		<path fill="#FFFFFF" d="M332.8,570.9c-1.1,0-2-0.9-2-2v-0.1c0-1.1,0.9-2,2-2h0.1c1.1,0,2,0.9,2,2v0.1
			C334.9,570,334,570.9,332.8,570.9L332.8,570.9z"/>
	</g>
	<g>
		<path fill="#FFFFFF" d="M332.8,510.3c-1.1,0-2-0.9-2-2v-0.1c0-1.1,0.9-2,2-2h0.1c1.1,0,2,0.9,2,2v0.1
			C334.9,509.4,334,510.3,332.8,510.3L332.8,510.3z"/>
	</g>
	<g>
		<path fill="#FFFFFF" d="M332.8,449.8c-1.1,0-2-0.9-2-2v-0.1c0-1.1,0.9-2,2-2h0.1c1.1,0,2,0.9,2,2v0.1
			C334.9,448.9,334,449.8,332.8,449.8L332.8,449.8z"/>
	</g>
	<g>
		<path fill="#FFFFFF" d="M332.8,389.3c-1.1,0-2-0.9-2-2v-0.1c0-1.1,0.9-2,2-2h0.1c1.1,0,2,0.9,2,2v0.1
			C334.9,388.4,334,389.3,332.8,389.3L332.8,389.3z"/>
	</g>
	<g>
		<path fill="#FFFFFF" d="M332.8,328.8c-1.1,0-2-0.9-2-2v-0.1c0-1.1,0.9-2,2-2h0.1c1.1,0,2,0.9,2,2v0.1
			C334.9,327.9,334,328.8,332.8,328.8L332.8,328.8z"/>
	</g>
	<g>
		<path fill="#FFFFFF" d="M332.8,268.3c-1.1,0-2-0.9-2-2v-0.1c0-1.1,0.9-2,2-2h0.1c1.1,0,2,0.9,2,2v0.1
			C334.9,267.4,334,268.3,332.8,268.3L332.8,268.3z"/>
	</g>
	<g>
		<path fill="#FFFFFF" d="M332.8,207.7c-1.1,0-2-0.9-2-2v-0.1c0-1.1,0.9-2,2-2h0.1c1.1,0,2,0.9,2,2v0.1
			C334.9,206.8,334,207.7,332.8,207.7L332.8,207.7z"/>
	</g>
	<g>
		<path fill="#FFFFFF" d="M332.8,147.2c-1.1,0-2-0.9-2-2v-0.1c0-1.1,0.9-2,2-2h0.1c1.1,0,2,0.9,2,2v0.1
			C334.9,146.3,334,147.2,332.8,147.2L332.8,147.2z"/>
	</g>
	<g>
		<path fill="#FFFFFF" d="M332.8,86.7c-1.1,0-2-0.9-2-2v-0.1c0-1.1,0.9-2,2-2h0.1c1.1,0,2,0.9,2,2v0.1
			C334.9,85.8,334,86.7,332.8,86.7L332.8,86.7z"/>
	</g>
	<g>
		<path fill="#FFFFFF" d="M332.8,26.2c-1.1,0-2-0.9-2-2v-0.1c0-1.1,0.9-2,2-2h0.1c1.1,0,2,0.9,2,2v0.1
			C334.9,25.3,334,26.2,332.8,26.2L332.8,26.2z"/>
	</g>
	<g>
		<path fill="#FFFFFF" d="M392.5,631.4c-1.1,0-2-0.9-2-2v-0.1c0-1.1,0.9-2,2-2h0.1c1.1,0,2,0.9,2,2v0.1
			C394.6,630.5,393.7,631.4,392.5,631.4L392.5,631.4z"/>
	</g>
	<g>
		<path fill="#FFFFFF" d="M392.5,570.9c-1.1,0-2-0.9-2-2v-0.1c0-1.1,0.9-2,2-2h0.1c1.1,0,2,0.9,2,2v0.1
			C394.6,570,393.7,570.9,392.5,570.9L392.5,570.9z"/>
	</g>
	<g>
		<path fill="#FFFFFF" d="M392.5,510.3c-1.1,0-2-0.9-2-2v-0.1c0-1.1,0.9-2,2-2h0.1c1.1,0,2,0.9,2,2v0.1
			C394.6,509.4,393.7,510.3,392.5,510.3L392.5,510.3z"/>
	</g>
	<g>
		<path fill="#FFFFFF" d="M392.5,449.8c-1.1,0-2-0.9-2-2v-0.1c0-1.1,0.9-2,2-2h0.1c1.1,0,2,0.9,2,2v0.1
			C394.6,448.9,393.7,449.8,392.5,449.8L392.5,449.8z"/>
	</g>
	<g>
		<path fill="#FFFFFF" d="M392.5,389.3c-1.1,0-2-0.9-2-2v-0.1c0-1.1,0.9-2,2-2h0.1c1.1,0,2,0.9,2,2v0.1
			C394.6,388.4,393.7,389.3,392.5,389.3L392.5,389.3z"/>
	</g>
	<g>
		<path fill="#FFFFFF" d="M392.5,328.8c-1.1,0-2-0.9-2-2v-0.1c0-1.1,0.9-2,2-2h0.1c1.1,0,2,0.9,2,2v0.1
			C394.6,327.9,393.7,328.8,392.5,328.8L392.5,328.8z"/>
	</g>
	<g>
		<path fill="#FFFFFF" d="M392.5,268.3c-1.1,0-2-0.9-2-2v-0.1c0-1.1,0.9-2,2-2h0.1c1.1,0,2,0.9,2,2v0.1
			C394.6,267.4,393.7,268.3,392.5,268.3L392.5,268.3z"/>
	</g>
	<g>
		<path fill="#FFFFFF" d="M392.5,207.7c-1.1,0-2-0.9-2-2v-0.1c0-1.1,0.9-2,2-2h0.1c1.1,0,2,0.9,2,2v0.1
			C394.6,206.8,393.7,207.7,392.5,207.7L392.5,207.7z"/>
	</g>
	<g>
		<path fill="#FFFFFF" d="M392.5,147.2c-1.1,0-2-0.9-2-2v-0.1c0-1.1,0.9-2,2-2h0.1c1.1,0,2,0.9,2,2v0.1
			C394.6,146.3,393.7,147.2,392.5,147.2L392.5,147.2z"/>
	</g>
	<g>
		<path fill="#FFFFFF" d="M392.5,86.7c-1.1,0-2-0.9-2-2v-0.1c0-1.1,0.9-2,2-2h0.1c1.1,0,2,0.9,2,2v0.1
			C394.6,85.8,393.7,86.7,392.5,86.7L392.5,86.7z"/>
	</g>
	<g>
		<path fill="#FFFFFF" d="M392.5,26.2c-1.1,0-2-0.9-2-2v-0.1c0-1.1,0.9-2,2-2h0.1c1.1,0,2,0.9,2,2v0.1
			C394.6,25.3,393.7,26.2,392.5,26.2L392.5,26.2z"/>
	</g>
	<g>
		<path fill="#FFFFFF" d="M452.2,631.4c-1.1,0-2-0.9-2-2v-0.1c0-1.1,0.9-2,2-2h0.1c1.1,0,2,0.9,2,2v0.1
			C454.3,630.5,453.4,631.4,452.2,631.4L452.2,631.4z"/>
	</g>
	<g>
		<path fill="#FFFFFF" d="M452.2,570.9c-1.1,0-2-0.9-2-2v-0.1c0-1.1,0.9-2,2-2h0.1c1.1,0,2,0.9,2,2v0.1
			C454.3,570,453.4,570.9,452.2,570.9L452.2,570.9z"/>
	</g>
	<g>
		<path fill="#FFFFFF" d="M452.2,510.3c-1.1,0-2-0.9-2-2v-0.1c0-1.1,0.9-2,2-2h0.1c1.1,0,2,0.9,2,2v0.1
			C454.3,509.4,453.4,510.3,452.2,510.3L452.2,510.3z"/>
	</g>
	<g>
		<path fill="#FFFFFF" d="M452.2,449.8c-1.1,0-2-0.9-2-2v-0.1c0-1.1,0.9-2,2-2h0.1c1.1,0,2,0.9,2,2v0.1
			C454.3,448.9,453.4,449.8,452.2,449.8L452.2,449.8z"/>
	</g>
	<g>
		<path fill="#FFFFFF" d="M452.2,389.3c-1.1,0-2-0.9-2-2v-0.1c0-1.1,0.9-2,2-2h0.1c1.1,0,2,0.9,2,2v0.1
			C454.3,388.4,453.4,389.3,452.2,389.3L452.2,389.3z"/>
	</g>
	<g>
		<path fill="#FFFFFF" d="M452.2,328.8c-1.1,0-2-0.9-2-2v-0.1c0-1.1,0.9-2,2-2h0.1c1.1,0,2,0.9,2,2v0.1
			C454.3,327.9,453.4,328.8,452.2,328.8L452.2,328.8z"/>
	</g>
	<g>
		<path fill="#FFFFFF" d="M452.2,268.3c-1.1,0-2-0.9-2-2v-0.1c0-1.1,0.9-2,2-2h0.1c1.1,0,2,0.9,2,2v0.1
			C454.3,267.4,453.4,268.3,452.2,268.3L452.2,268.3z"/>
	</g>
	<g>
		<path fill="#FFFFFF" d="M452.2,207.7c-1.1,0-2-0.9-2-2v-0.1c0-1.1,0.9-2,2-2h0.1c1.1,0,2,0.9,2,2v0.1
			C454.3,206.8,453.4,207.7,452.2,207.7L452.2,207.7z"/>
	</g>
	<g>
		<path fill="#FFFFFF" d="M452.2,147.2c-1.1,0-2-0.9-2-2v-0.1c0-1.1,0.9-2,2-2h0.1c1.1,0,2,0.9,2,2v0.1
			C454.3,146.3,453.4,147.2,452.2,147.2L452.2,147.2z"/>
	</g>
	<g>
		<path fill="#FFFFFF" d="M452.2,86.7c-1.1,0-2-0.9-2-2v-0.1c0-1.1,0.9-2,2-2h0.1c1.1,0,2,0.9,2,2v0.1
			C454.3,85.8,453.4,86.7,452.2,86.7L452.2,86.7z"/>
	</g>
	<g>
		<path fill="#FFFFFF" d="M452.2,26.2c-1.1,0-2-0.9-2-2v-0.1c0-1.1,0.9-2,2-2h0.1c1.1,0,2,0.9,2,2v0.1
			C454.3,25.3,453.4,26.2,452.2,26.2L452.2,26.2z"/>
	</g>
	<g>
		<path fill="#FFFFFF" d="M511.9,631.4c-1.1,0-2-0.9-2-2v-0.1c0-1.1,0.9-2,2-2h0.1c1.1,0,2,0.9,2,2v0.1
			C514,630.5,513.1,631.4,511.9,631.4L511.9,631.4z"/>
	</g>
	<g>
		<path fill="#FFFFFF" d="M511.9,570.9c-1.1,0-2-0.9-2-2v-0.1c0-1.1,0.9-2,2-2h0.1c1.1,0,2,0.9,2,2v0.1
			C514,570,513.1,570.9,511.9,570.9L511.9,570.9z"/>
	</g>
	<g>
		<path fill="#FFFFFF" d="M511.9,510.3c-1.1,0-2-0.9-2-2v-0.1c0-1.1,0.9-2,2-2h0.1c1.1,0,2,0.9,2,2v0.1
			C514,509.4,513.1,510.3,511.9,510.3L511.9,510.3z"/>
	</g>
	<g>
		<path fill="#FFFFFF" d="M511.9,449.8c-1.1,0-2-0.9-2-2v-0.1c0-1.1,0.9-2,2-2h0.1c1.1,0,2,0.9,2,2v0.1
			C514,448.9,513.1,449.8,511.9,449.8L511.9,449.8z"/>
	</g>
	<g>
		<path fill="#FFFFFF" d="M511.9,389.3c-1.1,0-2-0.9-2-2v-0.1c0-1.1,0.9-2,2-2h0.1c1.1,0,2,0.9,2,2v0.1
			C514,388.4,513.1,389.3,511.9,389.3L511.9,389.3z"/>
	</g>
	<g>
		<path fill="#FFFFFF" d="M511.9,328.8c-1.1,0-2-0.9-2-2v-0.1c0-1.1,0.9-2,2-2h0.1c1.1,0,2,0.9,2,2v0.1
			C514,327.9,513.1,328.8,511.9,328.8L511.9,328.8z"/>
	</g>
	<g>
		<path fill="#FFFFFF" d="M511.9,268.3c-1.1,0-2-0.9-2-2v-0.1c0-1.1,0.9-2,2-2h0.1c1.1,0,2,0.9,2,2v0.1
			C514,267.4,513.1,268.3,511.9,268.3L511.9,268.3z"/>
	</g>
	<g>
		<path fill="#FFFFFF" d="M511.9,207.7c-1.1,0-2-0.9-2-2v-0.1c0-1.1,0.9-2,2-2h0.1c1.1,0,2,0.9,2,2v0.1
			C514,206.8,513.1,207.7,511.9,207.7L511.9,207.7z"/>
	</g>
	<g>
		<path fill="#FFFFFF" d="M511.9,147.2c-1.1,0-2-0.9-2-2v-0.1c0-1.1,0.9-2,2-2h0.1c1.1,0,2,0.9,2,2v0.1
			C514,146.3,513.1,147.2,511.9,147.2L511.9,147.2z"/>
	</g>
	<g>
		<path fill="#FFFFFF" d="M511.9,86.7c-1.1,0-2-0.9-2-2v-0.1c0-1.1,0.9-2,2-2h0.1c1.1,0,2,0.9,2,2v0.1
			C514,85.8,513.1,86.7,511.9,86.7L511.9,86.7z"/>
	</g>
	<g>
		<path fill="#FFFFFF" d="M511.9,26.2c-1.1,0-2-0.9-2-2v-0.1c0-1.1,0.9-2,2-2h0.1c1.1,0,2,0.9,2,2v0.1
			C514,25.3,513.1,26.2,511.9,26.2L511.9,26.2z"/>
	</g>
	<g>
		<path fill="#FFFFFF" d="M571.6,631.4c-1.1,0-2-0.9-2-2v-0.1c0-1.1,0.9-2,2-2h0.1c1.1,0,2,0.9,2,2v0.1
			C573.7,630.5,572.8,631.4,571.6,631.4L571.6,631.4z"/>
	</g>
	<g>
		<path fill="#FFFFFF" d="M571.6,570.9c-1.1,0-2-0.9-2-2v-0.1c0-1.1,0.9-2,2-2h0.1c1.1,0,2,0.9,2,2v0.1
			C573.7,570,572.8,570.9,571.6,570.9L571.6,570.9z"/>
	</g>
	<g>
		<path fill="#FFFFFF" d="M571.6,510.3c-1.1,0-2-0.9-2-2v-0.1c0-1.1,0.9-2,2-2h0.1c1.1,0,2,0.9,2,2v0.1
			C573.7,509.4,572.8,510.3,571.6,510.3L571.6,510.3z"/>
	</g>
	<g>
		<path fill="#FFFFFF" d="M571.6,449.8c-1.1,0-2-0.9-2-2v-0.1c0-1.1,0.9-2,2-2h0.1c1.1,0,2,0.9,2,2v0.1
			C573.7,448.9,572.8,449.8,571.6,449.8L571.6,449.8z"/>
	</g>
	<g>
		<path fill="#FFFFFF" d="M571.6,389.3c-1.1,0-2-0.9-2-2v-0.1c0-1.1,0.9-2,2-2h0.1c1.1,0,2,0.9,2,2v0.1
			C573.7,388.4,572.8,389.3,571.6,389.3L571.6,389.3z"/>
	</g>
	<g>
		<path fill="#FFFFFF" d="M571.6,328.8c-1.1,0-2-0.9-2-2v-0.1c0-1.1,0.9-2,2-2h0.1c1.1,0,2,0.9,2,2v0.1
			C573.7,327.9,572.8,328.8,571.6,328.8L571.6,328.8z"/>
	</g>
	<g>
		<path fill="#FFFFFF" d="M571.6,268.3c-1.1,0-2-0.9-2-2v-0.1c0-1.1,0.9-2,2-2h0.1c1.1,0,2,0.9,2,2v0.1
			C573.7,267.4,572.8,268.3,571.6,268.3L571.6,268.3z"/>
	</g>
	<g>
		<path fill="#FFFFFF" d="M571.6,207.7c-1.1,0-2-0.9-2-2v-0.1c0-1.1,0.9-2,2-2h0.1c1.1,0,2,0.9,2,2v0.1
			C573.7,206.8,572.8,207.7,571.6,207.7L571.6,207.7z"/>
	</g>
	<g>
		<path fill="#FFFFFF" d="M571.6,147.2c-1.1,0-2-0.9-2-2v-0.1c0-1.1,0.9-2,2-2h0.1c1.1,0,2,0.9,2,2v0.1
			C573.7,146.3,572.8,147.2,571.6,147.2L571.6,147.2z"/>
	</g>
	<g>
		<path fill="#FFFFFF" d="M571.6,86.7c-1.1,0-2-0.9-2-2v-0.1c0-1.1,0.9-2,2-2h0.1c1.1,0,2,0.9,2,2v0.1
			C573.7,85.8,572.8,86.7,571.6,86.7L571.6,86.7z"/>
	</g>
	<g>
		<path fill="#FFFFFF" d="M571.6,26.2c-1.1,0-2-0.9-2-2v-0.1c0-1.1,0.9-2,2-2h0.1c1.1,0,2,0.9,2,2v0.1
			C573.7,25.3,572.8,26.2,571.6,26.2L571.6,26.2z"/>
	</g>
	<g>
		<path fill="#FFFFFF" d="M631.3,631.4c-1.1,0-2-0.9-2-2v-0.1c0-1.1,0.9-2,2-2h0.1c1.1,0,2,0.9,2,2v0.1
			C633.3,630.5,632.4,631.4,631.3,631.4L631.3,631.4z"/>
	</g>
	<g>
		<path fill="#FFFFFF" d="M631.3,570.9c-1.1,0-2-0.9-2-2v-0.1c0-1.1,0.9-2,2-2h0.1c1.1,0,2,0.9,2,2v0.1
			C633.3,570,632.4,570.9,631.3,570.9L631.3,570.9z"/>
	</g>
	<g>
		<path fill="#FFFFFF" d="M631.3,510.3c-1.1,0-2-0.9-2-2v-0.1c0-1.1,0.9-2,2-2h0.1c1.1,0,2,0.9,2,2v0.1
			C633.3,509.4,632.4,510.3,631.3,510.3L631.3,510.3z"/>
	</g>
	<g>
		<path fill="#FFFFFF" d="M631.3,449.8c-1.1,0-2-0.9-2-2v-0.1c0-1.1,0.9-2,2-2h0.1c1.1,0,2,0.9,2,2v0.1
			C633.3,448.9,632.4,449.8,631.3,449.8L631.3,449.8z"/>
	</g>
	<g>
		<path fill="#FFFFFF" d="M631.3,389.3c-1.1,0-2-0.9-2-2v-0.1c0-1.1,0.9-2,2-2h0.1c1.1,0,2,0.9,2,2v0.1
			C633.3,388.4,632.4,389.3,631.3,389.3L631.3,389.3z"/>
	</g>
	<g>
		<path fill="#FFFFFF" d="M631.3,328.8c-1.1,0-2-0.9-2-2v-0.1c0-1.1,0.9-2,2-2h0.1c1.1,0,2,0.9,2,2v0.1
			C633.3,327.9,632.4,328.8,631.3,328.8L631.3,328.8z"/>
	</g>
	<g>
		<path fill="#FFFFFF" d="M631.3,268.3c-1.1,0-2-0.9-2-2v-0.1c0-1.1,0.9-2,2-2h0.1c1.1,0,2,0.9,2,2v0.1
			C633.3,267.4,632.4,268.3,631.3,268.3L631.3,268.3z"/>
	</g>
	<g>
		<path fill="#FFFFFF" d="M631.3,207.7c-1.1,0-2-0.9-2-2v-0.1c0-1.1,0.9-2,2-2h0.1c1.1,0,2,0.9,2,2v0.1
			C633.3,206.8,632.4,207.7,631.3,207.7L631.3,207.7z"/>
	</g>
	<g>
		<path fill="#FFFFFF" d="M631.3,147.2c-1.1,0-2-0.9-2-2v-0.1c0-1.1,0.9-2,2-2h0.1c1.1,0,2,0.9,2,2v0.1
			C633.3,146.3,632.4,147.2,631.3,147.2L631.3,147.2z"/>
	</g>
	<g>
		<path fill="#FFFFFF" d="M631.3,86.7c-1.1,0-2-0.9-2-2v-0.1c0-1.1,0.9-2,2-2h0.1c1.1,0,2,0.9,2,2v0.1
			C633.3,85.8,632.4,86.7,631.3,86.7L631.3,86.7z"/>
	</g>
	<g>
		<path fill="#FFFFFF" d="M631.3,26.2c-1.1,0-2-0.9-2-2v-0.1c0-1.1,0.9-2,2-2h0.1c1.1,0,2,0.9,2,2v0.1
			C633.3,25.3,632.4,26.2,631.3,26.2L631.3,26.2z"/>
	</g>
	<g>
		<path fill="#FFFFFF" d="M691,631.4c-1.1,0-2-0.9-2-2v-0.1c0-1.1,0.9-2,2-2h0.1c1.1,0,2,0.9,2,2v0.1
			C693,630.5,692.1,631.4,691,631.4L691,631.4z"/>
	</g>
	<g>
		<path fill="#FFFFFF" d="M691,570.9c-1.1,0-2-0.9-2-2v-0.1c0-1.1,0.9-2,2-2h0.1c1.1,0,2,0.9,2,2v0.1C693,570,692.1,570.9,691,570.9
			L691,570.9z"/>
	</g>
	<g>
		<path fill="#FFFFFF" d="M691,510.3c-1.1,0-2-0.9-2-2v-0.1c0-1.1,0.9-2,2-2h0.1c1.1,0,2,0.9,2,2v0.1
			C693,509.4,692.1,510.3,691,510.3L691,510.3z"/>
	</g>
	<g>
		<path fill="#FFFFFF" d="M691,449.8c-1.1,0-2-0.9-2-2v-0.1c0-1.1,0.9-2,2-2h0.1c1.1,0,2,0.9,2,2v0.1
			C693,448.9,692.1,449.8,691,449.8L691,449.8z"/>
	</g>
	<g>
		<path fill="#FFFFFF" d="M691,389.3c-1.1,0-2-0.9-2-2v-0.1c0-1.1,0.9-2,2-2h0.1c1.1,0,2,0.9,2,2v0.1
			C693,388.4,692.1,389.3,691,389.3L691,389.3z"/>
	</g>
	<g>
		<path fill="#FFFFFF" d="M691,328.8c-1.1,0-2-0.9-2-2v-0.1c0-1.1,0.9-2,2-2h0.1c1.1,0,2,0.9,2,2v0.1
			C693,327.9,692.1,328.8,691,328.8L691,328.8z"/>
	</g>
	<g>
		<path fill="#FFFFFF" d="M691,268.3c-1.1,0-2-0.9-2-2v-0.1c0-1.1,0.9-2,2-2h0.1c1.1,0,2,0.9,2,2v0.1
			C693,267.4,692.1,268.3,691,268.3L691,268.3z"/>
	</g>
	<g>
		<path fill="#FFFFFF" d="M691,207.7c-1.1,0-2-0.9-2-2v-0.1c0-1.1,0.9-2,2-2h0.1c1.1,0,2,0.9,2,2v0.1
			C693,206.8,692.1,207.7,691,207.7L691,207.7z"/>
	</g>
	<g>
		<path fill="#FFFFFF" d="M691,147.2c-1.1,0-2-0.9-2-2v-0.1c0-1.1,0.9-2,2-2h0.1c1.1,0,2,0.9,2,2v0.1
			C693,146.3,692.1,147.2,691,147.2L691,147.2z"/>
	</g>
	<g>
		<path fill="#FFFFFF" d="M691,86.7c-1.1,0-2-0.9-2-2v-0.1c0-1.1,0.9-2,2-2h0.1c1.1,0,2,0.9,2,2v0.1C693,85.8,692.1,86.7,691,86.7
			L691,86.7z"/>
	</g>
	<g>
		<path fill="#FFFFFF" d="M691,26.2c-1.1,0-2-0.9-2-2v-0.1c0-1.1,0.9-2,2-2h0.1c1.1,0,2,0.9,2,2v0.1C693,25.3,692.1,26.2,691,26.2
			L691,26.2z"/>
	</g>
	<g>
		<path fill="#FFFFFF" d="M750.7,631.4c-1.1,0-2-0.9-2-2v-0.1c0-1.1,0.9-2,2-2h0.1c1.1,0,2,0.9,2,2v0.1
			C752.7,630.5,751.8,631.4,750.7,631.4L750.7,631.4z"/>
	</g>
	<g>
		<path fill="#FFFFFF" d="M750.7,570.9c-1.1,0-2-0.9-2-2v-0.1c0-1.1,0.9-2,2-2h0.1c1.1,0,2,0.9,2,2v0.1
			C752.7,570,751.8,570.9,750.7,570.9L750.7,570.9z"/>
	</g>
	<g>
		<path fill="#FFFFFF" d="M750.7,510.3c-1.1,0-2-0.9-2-2v-0.1c0-1.1,0.9-2,2-2h0.1c1.1,0,2,0.9,2,2v0.1
			C752.7,509.4,751.8,510.3,750.7,510.3L750.7,510.3z"/>
	</g>
	<g>
		<path fill="#FFFFFF" d="M750.7,449.8c-1.1,0-2-0.9-2-2v-0.1c0-1.1,0.9-2,2-2h0.1c1.1,0,2,0.9,2,2v0.1
			C752.7,448.9,751.8,449.8,750.7,449.8L750.7,449.8z"/>
	</g>
	<g>
		<path fill="#FFFFFF" d="M750.7,389.3c-1.1,0-2-0.9-2-2v-0.1c0-1.1,0.9-2,2-2h0.1c1.1,0,2,0.9,2,2v0.1
			C752.7,388.4,751.8,389.3,750.7,389.3L750.7,389.3z"/>
	</g>
	<g>
		<path fill="#FFFFFF" d="M750.7,328.8c-1.1,0-2-0.9-2-2v-0.1c0-1.1,0.9-2,2-2h0.1c1.1,0,2,0.9,2,2v0.1
			C752.7,327.9,751.8,328.8,750.7,328.8L750.7,328.8z"/>
	</g>
	<g>
		<path fill="#FFFFFF" d="M750.7,268.3c-1.1,0-2-0.9-2-2v-0.1c0-1.1,0.9-2,2-2h0.1c1.1,0,2,0.9,2,2v0.1
			C752.7,267.4,751.8,268.3,750.7,268.3L750.7,268.3z"/>
	</g>
	<g>
		<path fill="#FFFFFF" d="M750.7,207.7c-1.1,0-2-0.9-2-2v-0.1c0-1.1,0.9-2,2-2h0.1c1.1,0,2,0.9,2,2v0.1
			C752.7,206.8,751.8,207.7,750.7,207.7L750.7,207.7z"/>
	</g>
	<g>
		<path fill="#FFFFFF" d="M750.7,147.2c-1.1,0-2-0.9-2-2v-0.1c0-1.1,0.9-2,2-2h0.1c1.1,0,2,0.9,2,2v0.1
			C752.7,146.3,751.8,147.2,750.7,147.2L750.7,147.2z"/>
	</g>
	<g>
		<path fill="#FFFFFF" d="M750.7,86.7c-1.1,0-2-0.9-2-2v-0.1c0-1.1,0.9-2,2-2h0.1c1.1,0,2,0.9,2,2v0.1
			C752.7,85.8,751.8,86.7,750.7,86.7L750.7,86.7z"/>
	</g>
	<g>
		<path fill="#FFFFFF" d="M750.7,26.2c-1.1,0-2-0.9-2-2v-0.1c0-1.1,0.9-2,2-2h0.1c1.1,0,2,0.9,2,2v0.1
			C752.7,25.3,751.8,26.2,750.7,26.2L750.7,26.2z"/>
	</g>
	<g>
		<path fill="#FFFFFF" d="M810.4,631.4c-1.1,0-2-0.9-2-2v-0.1c0-1.1,0.9-2,2-2h0.1c1.1,0,2,0.9,2,2v0.1
			C812.4,630.5,811.5,631.4,810.4,631.4L810.4,631.4z"/>
	</g>
	<g>
		<path fill="#FFFFFF" d="M810.4,570.9c-1.1,0-2-0.9-2-2v-0.1c0-1.1,0.9-2,2-2h0.1c1.1,0,2,0.9,2,2v0.1
			C812.4,570,811.5,570.9,810.4,570.9L810.4,570.9z"/>
	</g>
	<g>
		<path fill="#FFFFFF" d="M810.4,510.3c-1.1,0-2-0.9-2-2v-0.1c0-1.1,0.9-2,2-2h0.1c1.1,0,2,0.9,2,2v0.1
			C812.4,509.4,811.5,510.3,810.4,510.3L810.4,510.3z"/>
	</g>
	<g>
		<path fill="#FFFFFF" d="M810.4,449.8c-1.1,0-2-0.9-2-2v-0.1c0-1.1,0.9-2,2-2h0.1c1.1,0,2,0.9,2,2v0.1
			C812.4,448.9,811.5,449.8,810.4,449.8L810.4,449.8z"/>
	</g>
	<g>
		<path fill="#FFFFFF" d="M810.4,389.3c-1.1,0-2-0.9-2-2v-0.1c0-1.1,0.9-2,2-2h0.1c1.1,0,2,0.9,2,2v0.1
			C812.4,388.4,811.5,389.3,810.4,389.3L810.4,389.3z"/>
	</g>
	<g>
		<path fill="#FFFFFF" d="M810.4,328.8c-1.1,0-2-0.9-2-2v-0.1c0-1.1,0.9-2,2-2h0.1c1.1,0,2,0.9,2,2v0.1
			C812.4,327.9,811.5,328.8,810.4,328.8L810.4,328.8z"/>
	</g>
	<g>
		<path fill="#FFFFFF" d="M810.4,268.3c-1.1,0-2-0.9-2-2v-0.1c0-1.1,0.9-2,2-2h0.1c1.1,0,2,0.9,2,2v0.1
			C812.4,267.4,811.5,268.3,810.4,268.3L810.4,268.3z"/>
	</g>
	<g>
		<path fill="#FFFFFF" d="M810.4,207.7c-1.1,0-2-0.9-2-2v-0.1c0-1.1,0.9-2,2-2h0.1c1.1,0,2,0.9,2,2v0.1
			C812.4,206.8,811.5,207.7,810.4,207.7L810.4,207.7z"/>
	</g>
	<g>
		<path fill="#FFFFFF" d="M810.4,147.2c-1.1,0-2-0.9-2-2v-0.1c0-1.1,0.9-2,2-2h0.1c1.1,0,2,0.9,2,2v0.1
			C812.4,146.3,811.5,147.2,810.4,147.2L810.4,147.2z"/>
	</g>
	<g>
		<path fill="#FFFFFF" d="M810.4,86.7c-1.1,0-2-0.9-2-2v-0.1c0-1.1,0.9-2,2-2h0.1c1.1,0,2,0.9,2,2v0.1
			C812.4,85.8,811.5,86.7,810.4,86.7L810.4,86.7z"/>
	</g>
	<g>
		<path fill="#FFFFFF" d="M870,86.7c-1.1,0-2-0.9-2-2v-0.1c0-1.1,0.9-2,2-2h0.1c1.1,0,2,0.9,2,2v0.1C872.1,85.8,871.2,86.7,870,86.7
			L870,86.7z"/>
	</g>
	<g>
		<path fill="#FFFFFF" d="M810.4,26.2c-1.1,0-2-0.9-2-2v-0.1c0-1.1,0.9-2,2-2h0.1c1.1,0,2,0.9,2,2v0.1
			C812.4,25.3,811.5,26.2,810.4,26.2L810.4,26.2z"/>
	</g>
	<g>
		<path fill="#FFFFFF" d="M870,631.4c-1.1,0-2-0.9-2-2v-0.1c0-1.1,0.9-2,2-2h0.1c1.1,0,2,0.9,2,2v0.1
			C872.1,630.5,871.2,631.4,870,631.4L870,631.4z"/>
	</g>
	<g>
		<path fill="#FFFFFF" d="M870,570.9c-1.1,0-2-0.9-2-2v-0.1c0-1.1,0.9-2,2-2h0.1c1.1,0,2,0.9,2,2v0.1
			C872.1,570,871.2,570.9,870,570.9L870,570.9z"/>
	</g>
	<g>
		<path fill="#FFFFFF" d="M870,510.3c-1.1,0-2-0.9-2-2v-0.1c0-1.1,0.9-2,2-2h0.1c1.1,0,2,0.9,2,2v0.1
			C872.1,509.4,871.2,510.3,870,510.3L870,510.3z"/>
	</g>
	<g>
		<path fill="#FFFFFF" d="M870,449.8c-1.1,0-2-0.9-2-2v-0.1c0-1.1,0.9-2,2-2h0.1c1.1,0,2,0.9,2,2v0.1
			C872.1,448.9,871.2,449.8,870,449.8L870,449.8z"/>
	</g>
	<g>
		<path fill="#FFFFFF" d="M870,389.3c-1.1,0-2-0.9-2-2v-0.1c0-1.1,0.9-2,2-2h0.1c1.1,0,2,0.9,2,2v0.1
			C872.1,388.4,871.2,389.3,870,389.3L870,389.3z"/>
	</g>
	<g>
		<path fill="#FFFFFF" d="M870,328.8c-1.1,0-2-0.9-2-2v-0.1c0-1.1,0.9-2,2-2h0.1c1.1,0,2,0.9,2,2v0.1
			C872.1,327.9,871.2,328.8,870,328.8L870,328.8z"/>
	</g>
	<g>
		<path fill="#FFFFFF" d="M870,268.3c-1.1,0-2-0.9-2-2v-0.1c0-1.1,0.9-2,2-2h0.1c1.1,0,2,0.9,2,2v0.1
			C872.1,267.4,871.2,268.3,870,268.3L870,268.3z"/>
	</g>
	<g>
		<path fill="#FFFFFF" d="M870,207.7c-1.1,0-2-0.9-2-2v-0.1c0-1.1,0.9-2,2-2h0.1c1.1,0,2,0.9,2,2v0.1
			C872.1,206.8,871.2,207.7,870,207.7L870,207.7z"/>
	</g>
	<g>
		<path fill="#FFFFFF" d="M870,147.2c-1.1,0-2-0.9-2-2v-0.1c0-1.1,0.9-2,2-2h0.1c1.1,0,2,0.9,2,2v0.1
			C872.1,146.3,871.2,147.2,870,147.2L870,147.2z"/>
	</g>
	<g>
		<path fill="#FFFFFF" d="M870,26.2c-1.1,0-2-0.9-2-2v-0.1c0-1.1,0.9-2,2-2h0.1c1.1,0,2,0.9,2,2v0.1C872.1,25.3,871.2,26.2,870,26.2
			L870,26.2z"/>
	</g>
	<g>
		<path fill="#FFFFFF" d="M929.7,631.4c-1.1,0-2-0.9-2-2v-0.1c0-1.1,0.9-2,2-2h0.1c1.1,0,2,0.9,2,2v0.1
			C931.8,630.5,930.9,631.4,929.7,631.4L929.7,631.4z"/>
	</g>
	<g>
		<path fill="#FFFFFF" d="M929.7,570.9c-1.1,0-2-0.9-2-2v-0.1c0-1.1,0.9-2,2-2h0.1c1.1,0,2,0.9,2,2v0.1
			C931.8,570,930.9,570.9,929.7,570.9L929.7,570.9z"/>
	</g>
	<g>
		<path fill="#FFFFFF" d="M929.7,510.3c-1.1,0-2-0.9-2-2v-0.1c0-1.1,0.9-2,2-2h0.1c1.1,0,2,0.9,2,2v0.1
			C931.8,509.4,930.9,510.3,929.7,510.3L929.7,510.3z"/>
	</g>
	<g>
		<path fill="#FFFFFF" d="M929.7,449.8c-1.1,0-2-0.9-2-2v-0.1c0-1.1,0.9-2,2-2h0.1c1.1,0,2,0.9,2,2v0.1
			C931.8,448.9,930.9,449.8,929.7,449.8L929.7,449.8z"/>
	</g>
	<g>
		<path fill="#FFFFFF" d="M929.7,389.3c-1.1,0-2-0.9-2-2v-0.1c0-1.1,0.9-2,2-2h0.1c1.1,0,2,0.9,2,2v0.1
			C931.8,388.4,930.9,389.3,929.7,389.3L929.7,389.3z"/>
	</g>
	<g>
		<path fill="#FFFFFF" d="M929.7,328.8c-1.1,0-2-0.9-2-2v-0.1c0-1.1,0.9-2,2-2h0.1c1.1,0,2,0.9,2,2v0.1
			C931.8,327.9,930.9,328.8,929.7,328.8L929.7,328.8z"/>
	</g>
	<g>
		<path fill="#FFFFFF" d="M929.7,268.3c-1.1,0-2-0.9-2-2v-0.1c0-1.1,0.9-2,2-2h0.1c1.1,0,2,0.9,2,2v0.1
			C931.8,267.4,930.9,268.3,929.7,268.3L929.7,268.3z"/>
	</g>
	<g>
		<path fill="#FFFFFF" d="M929.7,207.7c-1.1,0-2-0.9-2-2v-0.1c0-1.1,0.9-2,2-2h0.1c1.1,0,2,0.9,2,2v0.1
			C931.8,206.8,930.9,207.7,929.7,207.7L929.7,207.7z"/>
	</g>
	<g>
		<path fill="#FFFFFF" d="M929.7,147.2c-1.1,0-2-0.9-2-2v-0.1c0-1.1,0.9-2,2-2h0.1c1.1,0,2,0.9,2,2v0.1
			C931.8,146.3,930.9,147.2,929.7,147.2L929.7,147.2z"/>
	</g>
	<g>
		<path fill="#FFFFFF" d="M929.7,86.7c-1.1,0-2-0.9-2-2v-0.1c0-1.1,0.9-2,2-2h0.1c1.1,0,2,0.9,2,2v0.1
			C931.8,85.8,930.9,86.7,929.7,86.7L929.7,86.7z"/>
	</g>
	<g>
		<path fill="#FFFFFF" d="M929.7,26.2c-1.1,0-2-0.9-2-2v-0.1c0-1.1,0.9-2,2-2h0.1c1.1,0,2,0.9,2,2v0.1
			C931.8,25.3,930.9,26.2,929.7,26.2L929.7,26.2z"/>
	</g>
</g>
<g>
	<path fill="#FFB9C8" d="M34.4,464c-1.9,0-3.5-1.6-3.5-3.5v-10.2H20.7c-1.9,0-3.5-1.6-3.5-3.5s1.6-3.5,3.5-3.5h10.2v-10.2
		c0-1.9,1.6-3.5,3.5-3.5s3.5,1.6,3.5,3.5v10.2h10.2c1.9,0,3.5,1.6,3.5,3.5s-1.6,3.5-3.5,3.5H37.9v10.2C37.9,462.5,36.3,464,34.4,464
		z"/>
	<path fill="#FFB9C8" d="M34.4,430.6c1.4,0,2.5,1.1,2.5,2.5v11.2h11.2c1.4,0,2.5,1.1,2.5,2.5s-1.1,2.5-2.5,2.5H36.9v11.2
		c0,1.4-1.1,2.5-2.5,2.5c-1.4,0-2.5-1.1-2.5-2.5v-11.2H20.7c-1.4,0-2.5-1.1-2.5-2.5c0-1.4,1.1-2.5,2.5-2.5h11.2v-11.2
		C31.9,431.7,33,430.6,34.4,430.6 M34.4,428.6c-2.5,0-4.5,2-4.5,4.5v9.2h-9.2c-2.5,0-4.5,2-4.5,4.5s2,4.5,4.5,4.5h9.2v9.2
		c0,2.5,2,4.5,4.5,4.5c2.5,0,4.5-2,4.5-4.5v-9.2h9.2c2.5,0,4.5-2,4.5-4.5c0-2.5-2-4.5-4.5-4.5h-9.2v-9.2
		C38.9,430.6,36.9,428.6,34.4,428.6L34.4,428.6z"/>
</g>
<g>
	<circle fill="#E51B2B" cx="214.5" cy="565.8" r="27"/>
	<g>
		<path fill="#FFFFFF" d="M204,576.3h-4.3v-21h4.3V576.3z"/>
		<path fill="#FFFFFF" d="M207.6,570.6c0-1.9,0.9-4,2.8-5.2c-1.6-1-2.3-2.8-2.3-4.5c0-3.5,2.6-6.1,6.8-6.1c4.2,0,6.9,2.6,6.9,6.1
			c0,1.8-0.7,3.5-2.3,4.5c1.9,1.2,2.8,3.2,2.8,5.2c0,3.7-2.8,6.2-7.3,6.2S207.6,574.3,207.6,570.6z M211.9,570.3
			c0,1.4,0.9,2.7,3,2.7c2,0,3-1.4,3-2.7c0-1.5-1.1-2.7-3-2.7S211.9,568.8,211.9,570.3z M217.7,561.1c0-1.2-0.9-2.5-2.8-2.5
			c-1.9,0-2.8,1.3-2.8,2.5c0,1.5,1,2.6,2.8,2.6C216.6,563.7,217.7,562.7,217.7,561.1z"/>
		<path fill="#FFFFFF" d="M232,559.7v4.3h4.3v2.9H232v4.3H229v-4.3h-4.3V564h4.3v-4.3H232z"/>
	</g>
</g>
</svg>
