<?xml version="1.0" encoding="utf-8"?>
<!-- Generator: Adobe Illustrator 24.3.0, SVG Export Plug-In . SVG Version: 6.00 Build 0)  -->
<svg version="1.1" id="Layer_1" xmlns="http://www.w3.org/2000/svg" xmlns:xlink="http://www.w3.org/1999/xlink" x="0px" y="0px"
	 viewBox="0 0 949.98 235.33" enable-background="new 0 0 949.98 235.33" xml:space="preserve">
<g>
	<g>
		<g>
			<g>
				<path fill="#152238" d="M29.52,211.49c-1.1,0-2-0.9-2-2v-0.06c0-1.1,0.9-2,2-2h0.06c1.1,0,2,0.9,2,2v0.06c0,1.1-0.9,2-2,2H29.52
					z"/>
			</g>
			<g>
				<path fill="#152238" d="M29.52,150.97c-1.1,0-2-0.9-2-2v-0.06c0-1.1,0.9-2,2-2h0.06c1.1,0,2,0.9,2,2v0.06c0,1.1-0.9,2-2,2H29.52
					z"/>
			</g>
			<g>
				<path fill="#152238" d="M29.52,90.45c-1.1,0-2-0.9-2-2v-0.06c0-1.1,0.9-2,2-2h0.06c1.1,0,2,0.9,2,2v0.06c0,1.1-0.9,2-2,2H29.52z
					"/>
			</g>
			<g>
				<path fill="#152238" d="M29.52,29.92c-1.1,0-2-0.9-2-2v-0.06c0-1.1,0.9-2,2-2h0.06c1.1,0,2,0.9,2,2v0.06c0,1.1-0.9,2-2,2H29.52z
					"/>
			</g>
			<g>
				<path fill="#152238" d="M89.21,211.49c-1.1,0-2-0.9-2-2v-0.06c0-1.1,0.9-2,2-2h0.06c1.1,0,2,0.9,2,2v0.06c0,1.1-0.9,2-2,2H89.21
					z"/>
			</g>
			<g>
				<path fill="#152238" d="M89.21,150.97c-1.1,0-2-0.9-2-2v-0.06c0-1.1,0.9-2,2-2h0.06c1.1,0,2,0.9,2,2v0.06c0,1.1-0.9,2-2,2H89.21
					z"/>
			</g>
			<g>
				<path fill="#152238" d="M89.21,90.45c-1.1,0-2-0.9-2-2v-0.06c0-1.1,0.9-2,2-2h0.06c1.1,0,2,0.9,2,2v0.06c0,1.1-0.9,2-2,2H89.21z
					"/>
			</g>
			<g>
				<path fill="#152238" d="M89.21,29.92c-1.1,0-2-0.9-2-2v-0.06c0-1.1,0.9-2,2-2h0.06c1.1,0,2,0.9,2,2v0.06c0,1.1-0.9,2-2,2H89.21z
					"/>
			</g>
			<g>
				<path fill="#152238" d="M148.9,211.49c-1.1,0-2-0.9-2-2v-0.06c0-1.1,0.9-2,2-2h0.06c1.1,0,2,0.9,2,2v0.06c0,1.1-0.9,2-2,2H148.9
					z"/>
			</g>
			<g>
				<path fill="#152238" d="M148.9,150.97c-1.1,0-2-0.9-2-2v-0.06c0-1.1,0.9-2,2-2h0.06c1.1,0,2,0.9,2,2v0.06c0,1.1-0.9,2-2,2H148.9
					z"/>
			</g>
			<g>
				<path fill="#152238" d="M148.9,90.45c-1.1,0-2-0.9-2-2v-0.06c0-1.1,0.9-2,2-2h0.06c1.1,0,2,0.9,2,2v0.06c0,1.1-0.9,2-2,2H148.9z
					"/>
			</g>
			<g>
				<path fill="#152238" d="M148.9,29.92c-1.1,0-2-0.9-2-2v-0.06c0-1.1,0.9-2,2-2h0.06c1.1,0,2,0.9,2,2v0.06c0,1.1-0.9,2-2,2H148.9z
					"/>
			</g>
			<g>
				<path fill="#152238" d="M208.59,211.49c-1.1,0-2-0.9-2-2v-0.06c0-1.1,0.9-2,2-2h0.06c1.1,0,2,0.9,2,2v0.06c0,1.1-0.9,2-2,2
					H208.59z"/>
			</g>
			<g>
				<path fill="#152238" d="M208.59,150.97c-1.1,0-2-0.9-2-2v-0.06c0-1.1,0.9-2,2-2h0.06c1.1,0,2,0.9,2,2v0.06c0,1.1-0.9,2-2,2
					H208.59z"/>
			</g>
			<g>
				<path fill="#152238" d="M208.59,90.45c-1.1,0-2-0.9-2-2v-0.06c0-1.1,0.9-2,2-2h0.06c1.1,0,2,0.9,2,2v0.06c0,1.1-0.9,2-2,2
					H208.59z"/>
			</g>
			<g>
				<path fill="#152238" d="M208.59,29.92c-1.1,0-2-0.9-2-2v-0.06c0-1.1,0.9-2,2-2h0.06c1.1,0,2,0.9,2,2v0.06c0,1.1-0.9,2-2,2
					H208.59z"/>
			</g>
			<g>
				<path fill="#152238" d="M268.28,211.49c-1.1,0-2-0.9-2-2v-0.06c0-1.1,0.9-2,2-2h0.06c1.1,0,2,0.9,2,2v0.06c0,1.1-0.9,2-2,2
					H268.28z"/>
			</g>
			<g>
				<path fill="#152238" d="M268.28,150.97c-1.1,0-2-0.9-2-2v-0.06c0-1.1,0.9-2,2-2h0.06c1.1,0,2,0.9,2,2v0.06c0,1.1-0.9,2-2,2
					H268.28z"/>
			</g>
			<g>
				<path fill="#152238" d="M268.28,90.45c-1.1,0-2-0.9-2-2v-0.06c0-1.1,0.9-2,2-2h0.06c1.1,0,2,0.9,2,2v0.06c0,1.1-0.9,2-2,2
					H268.28z"/>
			</g>
			<g>
				<path fill="#152238" d="M268.28,29.92c-1.1,0-2-0.9-2-2v-0.06c0-1.1,0.9-2,2-2h0.06c1.1,0,2,0.9,2,2v0.06c0,1.1-0.9,2-2,2
					H268.28z"/>
			</g>
			<g>
				<path fill="#152238" d="M327.97,211.49c-1.1,0-2-0.9-2-2v-0.06c0-1.1,0.9-2,2-2h0.06c1.1,0,2,0.9,2,2v0.06c0,1.1-0.9,2-2,2
					H327.97z"/>
			</g>
			<g>
				<path fill="#152238" d="M327.97,150.97c-1.1,0-2-0.9-2-2v-0.06c0-1.1,0.9-2,2-2h0.06c1.1,0,2,0.9,2,2v0.06c0,1.1-0.9,2-2,2
					H327.97z"/>
			</g>
			<g>
				<path fill="#152238" d="M327.97,90.45c-1.1,0-2-0.9-2-2v-0.06c0-1.1,0.9-2,2-2h0.06c1.1,0,2,0.9,2,2v0.06c0,1.1-0.9,2-2,2
					H327.97z"/>
			</g>
			<g>
				<path fill="#152238" d="M327.97,29.92c-1.1,0-2-0.9-2-2v-0.06c0-1.1,0.9-2,2-2h0.06c1.1,0,2,0.9,2,2v0.06c0,1.1-0.9,2-2,2
					H327.97z"/>
			</g>
			<g>
				<path fill="#152238" d="M387.66,211.49c-1.1,0-2-0.9-2-2v-0.06c0-1.1,0.9-2,2-2h0.06c1.1,0,2,0.9,2,2v0.06c0,1.1-0.9,2-2,2
					H387.66z"/>
			</g>
			<g>
				<path fill="#152238" d="M387.66,150.97c-1.1,0-2-0.9-2-2v-0.06c0-1.1,0.9-2,2-2h0.06c1.1,0,2,0.9,2,2v0.06c0,1.1-0.9,2-2,2
					H387.66z"/>
			</g>
			<g>
				<path fill="#152238" d="M387.66,90.45c-1.1,0-2-0.9-2-2v-0.06c0-1.1,0.9-2,2-2h0.06c1.1,0,2,0.9,2,2v0.06c0,1.1-0.9,2-2,2
					H387.66z"/>
			</g>
			<g>
				<path fill="#152238" d="M387.66,29.92c-1.1,0-2-0.9-2-2v-0.06c0-1.1,0.9-2,2-2h0.06c1.1,0,2,0.9,2,2v0.06c0,1.1-0.9,2-2,2
					H387.66z"/>
			</g>
			<g>
				<path fill="#152238" d="M447.36,211.49c-1.1,0-2-0.9-2-2v-0.06c0-1.1,0.9-2,2-2h0.06c1.1,0,2,0.9,2,2v0.06c0,1.1-0.9,2-2,2
					H447.36z"/>
			</g>
			<g>
				<path fill="#152238" d="M447.36,150.97c-1.1,0-2-0.9-2-2v-0.06c0-1.1,0.9-2,2-2h0.06c1.1,0,2,0.9,2,2v0.06c0,1.1-0.9,2-2,2
					H447.36z"/>
			</g>
			<g>
				<path fill="#152238" d="M447.36,90.45c-1.1,0-2-0.9-2-2v-0.06c0-1.1,0.9-2,2-2h0.06c1.1,0,2,0.9,2,2v0.06c0,1.1-0.9,2-2,2
					H447.36z"/>
			</g>
			<g>
				<path fill="#152238" d="M447.36,29.92c-1.1,0-2-0.9-2-2v-0.06c0-1.1,0.9-2,2-2h0.06c1.1,0,2,0.9,2,2v0.06c0,1.1-0.9,2-2,2
					H447.36z"/>
			</g>
			<g>
				<path fill="#152238" d="M507.05,211.49c-1.1,0-2-0.9-2-2v-0.06c0-1.1,0.9-2,2-2h0.06c1.1,0,2,0.9,2,2v0.06c0,1.1-0.9,2-2,2
					H507.05z"/>
			</g>
			<g>
				<path fill="#152238" d="M507.05,150.97c-1.1,0-2-0.9-2-2v-0.06c0-1.1,0.9-2,2-2h0.06c1.1,0,2,0.9,2,2v0.06c0,1.1-0.9,2-2,2
					H507.05z"/>
			</g>
			<g>
				<path fill="#152238" d="M507.05,90.45c-1.1,0-2-0.9-2-2v-0.06c0-1.1,0.9-2,2-2h0.06c1.1,0,2,0.9,2,2v0.06c0,1.1-0.9,2-2,2
					H507.05z"/>
			</g>
			<g>
				<path fill="#152238" d="M507.05,29.92c-1.1,0-2-0.9-2-2v-0.06c0-1.1,0.9-2,2-2h0.06c1.1,0,2,0.9,2,2v0.06c0,1.1-0.9,2-2,2
					H507.05z"/>
			</g>
			<g>
				<path fill="#152238" d="M566.74,211.49c-1.1,0-2-0.9-2-2v-0.06c0-1.1,0.9-2,2-2h0.06c1.1,0,2,0.9,2,2v0.06c0,1.1-0.9,2-2,2
					H566.74z"/>
			</g>
			<g>
				<path fill="#152238" d="M566.74,150.97c-1.1,0-2-0.9-2-2v-0.06c0-1.1,0.9-2,2-2h0.06c1.1,0,2,0.9,2,2v0.06c0,1.1-0.9,2-2,2
					H566.74z"/>
			</g>
			<g>
				<path fill="#152238" d="M566.74,90.45c-1.1,0-2-0.9-2-2v-0.06c0-1.1,0.9-2,2-2h0.06c1.1,0,2,0.9,2,2v0.06c0,1.1-0.9,2-2,2
					H566.74z"/>
			</g>
			<g>
				<path fill="#152238" d="M566.74,29.92c-1.1,0-2-0.9-2-2v-0.06c0-1.1,0.9-2,2-2h0.06c1.1,0,2,0.9,2,2v0.06c0,1.1-0.9,2-2,2
					H566.74z"/>
			</g>
			<g>
				<path fill="#152238" d="M626.43,211.49c-1.1,0-2-0.9-2-2v-0.06c0-1.1,0.9-2,2-2h0.06c1.1,0,2,0.9,2,2v0.06c0,1.1-0.9,2-2,2
					H626.43z"/>
			</g>
			<g>
				<path fill="#152238" d="M626.43,150.97c-1.1,0-2-0.9-2-2v-0.06c0-1.1,0.9-2,2-2h0.06c1.1,0,2,0.9,2,2v0.06c0,1.1-0.9,2-2,2
					H626.43z"/>
			</g>
			<g>
				<path fill="#152238" d="M626.43,90.45c-1.1,0-2-0.9-2-2v-0.06c0-1.1,0.9-2,2-2h0.06c1.1,0,2,0.9,2,2v0.06c0,1.1-0.9,2-2,2
					H626.43z"/>
			</g>
			<g>
				<path fill="#152238" d="M626.43,29.92c-1.1,0-2-0.9-2-2v-0.06c0-1.1,0.9-2,2-2h0.06c1.1,0,2,0.9,2,2v0.06c0,1.1-0.9,2-2,2
					H626.43z"/>
			</g>
			<g>
				<path fill="#152238" d="M686.12,211.49c-1.1,0-2-0.9-2-2v-0.06c0-1.1,0.9-2,2-2h0.06c1.1,0,2,0.9,2,2v0.06c0,1.1-0.9,2-2,2
					H686.12z"/>
			</g>
			<g>
				<path fill="#152238" d="M686.12,150.97c-1.1,0-2-0.9-2-2v-0.06c0-1.1,0.9-2,2-2h0.06c1.1,0,2,0.9,2,2v0.06c0,1.1-0.9,2-2,2
					H686.12z"/>
			</g>
			<g>
				<path fill="#152238" d="M686.12,90.45c-1.1,0-2-0.9-2-2v-0.06c0-1.1,0.9-2,2-2h0.06c1.1,0,2,0.9,2,2v0.06c0,1.1-0.9,2-2,2
					H686.12z"/>
			</g>
			<g>
				<path fill="#152238" d="M686.12,29.92c-1.1,0-2-0.9-2-2v-0.06c0-1.1,0.9-2,2-2h0.06c1.1,0,2,0.9,2,2v0.06c0,1.1-0.9,2-2,2
					H686.12z"/>
			</g>
			<g>
				<path fill="#152238" d="M745.81,211.49c-1.1,0-2-0.9-2-2v-0.06c0-1.1,0.9-2,2-2h0.06c1.1,0,2,0.9,2,2v0.06c0,1.1-0.9,2-2,2
					H745.81z"/>
			</g>
			<g>
				<path fill="#152238" d="M745.81,150.97c-1.1,0-2-0.9-2-2v-0.06c0-1.1,0.9-2,2-2h0.06c1.1,0,2,0.9,2,2v0.06c0,1.1-0.9,2-2,2
					H745.81z"/>
			</g>
			<g>
				<path fill="#152238" d="M745.81,90.45c-1.1,0-2-0.9-2-2v-0.06c0-1.1,0.9-2,2-2h0.06c1.1,0,2,0.9,2,2v0.06c0,1.1-0.9,2-2,2
					H745.81z"/>
			</g>
			<g>
				<path fill="#152238" d="M745.81,29.92c-1.1,0-2-0.9-2-2v-0.06c0-1.1,0.9-2,2-2h0.06c1.1,0,2,0.9,2,2v0.06c0,1.1-0.9,2-2,2
					H745.81z"/>
			</g>
			<g>
				<path fill="#152238" d="M805.51,211.49c-1.1,0-2-0.9-2-2v-0.06c0-1.1,0.9-2,2-2h0.06c1.1,0,2,0.9,2,2v0.06c0,1.1-0.9,2-2,2
					H805.51z"/>
			</g>
			<g>
				<path fill="#152238" d="M805.51,150.97c-1.1,0-2-0.9-2-2v-0.06c0-1.1,0.9-2,2-2h0.06c1.1,0,2,0.9,2,2v0.06c0,1.1-0.9,2-2,2
					H805.51z"/>
			</g>
			<g>
				<path fill="#152238" d="M805.51,90.45c-1.1,0-2-0.9-2-2v-0.06c0-1.1,0.9-2,2-2h0.06c1.1,0,2,0.9,2,2v0.06c0,1.1-0.9,2-2,2
					H805.51z"/>
			</g>
			<g>
				<path fill="#152238" d="M805.51,29.92c-1.1,0-2-0.9-2-2v-0.06c0-1.1,0.9-2,2-2h0.06c1.1,0,2,0.9,2,2v0.06c0,1.1-0.9,2-2,2
					H805.51z"/>
			</g>
			<g>
				<path fill="#152238" d="M865.2,211.49c-1.1,0-2-0.9-2-2v-0.06c0-1.1,0.9-2,2-2h0.06c1.1,0,2,0.9,2,2v0.06c0,1.1-0.9,2-2,2H865.2
					z"/>
			</g>
			<g>
				<path fill="#152238" d="M865.2,150.97c-1.1,0-2-0.9-2-2v-0.06c0-1.1,0.9-2,2-2h0.06c1.1,0,2,0.9,2,2v0.06c0,1.1-0.9,2-2,2H865.2
					z"/>
			</g>
			<g>
				<path fill="#152238" d="M865.2,29.92c-1.1,0-2-0.9-2-2v-0.06c0-1.1,0.9-2,2-2h0.06c1.1,0,2,0.9,2,2v0.06c0,1.1-0.9,2-2,2H865.2z
					"/>
			</g>
			<g>
				<path fill="#152238" d="M865.2,90c-1.1,0-2-0.9-2-2v-0.06c0-1.1,0.9-2,2-2h0.06c1.1,0,2,0.9,2,2V88c0,1.1-0.9,2-2,2H865.2z"/>
			</g>
			<g>
				<path fill="#152238" d="M924.89,211.49c-1.1,0-2-0.9-2-2v-0.06c0-1.1,0.9-2,2-2h0.06c1.1,0,2,0.9,2,2v0.06c0,1.1-0.9,2-2,2
					H924.89z"/>
			</g>
			<g>
				<path fill="#152238" d="M924.89,150.97c-1.1,0-2-0.9-2-2v-0.06c0-1.1,0.9-2,2-2h0.06c1.1,0,2,0.9,2,2v0.06c0,1.1-0.9,2-2,2
					H924.89z"/>
			</g>
			<g>
				<path fill="#152238" d="M924.89,90.45c-1.1,0-2-0.9-2-2v-0.06c0-1.1,0.9-2,2-2h0.06c1.1,0,2,0.9,2,2v0.06c0,1.1-0.9,2-2,2
					H924.89z"/>
			</g>
			<g>
				<path fill="#152238" d="M924.89,29.92c-1.1,0-2-0.9-2-2v-0.06c0-1.1,0.9-2,2-2h0.06c1.1,0,2,0.9,2,2v0.06c0,1.1-0.9,2-2,2
					H924.89z"/>
			</g>
		</g>
	</g>
</g>
</svg>
