<?xml version="1.0" encoding="utf-8"?>
<!-- Generator: Adobe Illustrator 24.3.0, SVG Export Plug-In . SVG Version: 6.00 Build 0)  -->
<svg version="1.1" id="Layer_1" xmlns="http://www.w3.org/2000/svg" xmlns:xlink="http://www.w3.org/1999/xlink" x="0px" y="0px"
	 viewBox="0 0 171.17 68.81" enable-background="new 0 0 171.17 68.81" xml:space="preserve">
<g>
	<path fill="#E51B2B" d="M68.92,49.86c-0.08,0.3-0.14,0.5-0.18,0.6c-0.04,0.1-0.11,0.19-0.2,0.26c-0.16,0.14-0.34,0.22-0.55,0.22
		c-0.01,0-0.03,0-0.05,0c-0.02,0-0.08-0.01-0.17-0.02c-0.09-0.01-0.23-0.03-0.4-0.05c-0.18-0.02-0.43-0.05-0.76-0.09
		c-0.3-0.03-0.65-0.05-1.06-0.07c-0.41-0.02-0.86-0.03-1.38-0.03c-1.1,0-1.65,0.32-1.65,0.96c0,0.46,0.41,0.7,1.22,0.71
		c0.89,0,1.6,0.03,2.12,0.09c0.52,0.06,0.92,0.16,1.18,0.31c0.67,0.35,1,0.99,1,1.91c0,0.34-0.04,0.7-0.12,1.07
		c-0.08,0.37-0.19,0.74-0.33,1.1c-0.14,0.36-0.3,0.7-0.49,1.02c-0.19,0.32-0.39,0.59-0.6,0.82c-1,1.05-2.7,1.57-5.11,1.57
		c-0.75,0-1.49-0.04-2.22-0.11c-0.73-0.07-1.55-0.19-2.44-0.34c-0.3-0.07-0.5-0.13-0.61-0.21c-0.1-0.07-0.16-0.18-0.16-0.32
		c0-0.04,0-0.07,0-0.09c0-0.02,0-0.05,0.01-0.09c0.01-0.04,0.02-0.09,0.04-0.17c0.02-0.07,0.04-0.17,0.07-0.3l0.26-1.05
		c0.07-0.3,0.12-0.5,0.17-0.6c0.05-0.1,0.11-0.18,0.21-0.26c0.18-0.14,0.36-0.22,0.53-0.22c0.05,0,0.13,0.01,0.25,0.02
		c0.11,0.01,0.33,0.05,0.66,0.1c0.35,0.07,0.8,0.11,1.34,0.14c0.54,0.03,1.09,0.04,1.65,0.04c0.38,0,0.67-0.04,0.88-0.11
		c0.21-0.07,0.39-0.2,0.53-0.38c0.13-0.17,0.2-0.35,0.2-0.53c0-0.22-0.08-0.38-0.25-0.47c-0.17-0.09-0.46-0.15-0.87-0.16
		c-0.59,0-1.09-0.01-1.51-0.04c-0.41-0.03-0.76-0.06-1.05-0.12c-0.59-0.1-1.04-0.36-1.36-0.78c-0.31-0.41-0.47-0.98-0.47-1.69
		c0-0.46,0.05-0.92,0.15-1.38c0.1-0.46,0.24-0.9,0.41-1.31c0.18-0.41,0.39-0.79,0.63-1.13c0.24-0.34,0.52-0.63,0.82-0.87
		c1.05-0.84,2.68-1.26,4.9-1.26c0.39,0,0.83,0.01,1.32,0.04c0.48,0.03,0.96,0.07,1.42,0.12c0.46,0.05,0.88,0.11,1.28,0.17
		c0.39,0.06,0.69,0.12,0.9,0.19c0.25,0.08,0.37,0.23,0.37,0.45c0,0.09-0.02,0.2-0.06,0.33l-0.06,0.29L68.92,49.86L68.92,49.86z"/>
	<path fill="#E51B2B" d="M78.97,46.88c0.51,0,0.93,0,1.26,0.01c0.33,0.01,0.6,0.02,0.82,0.04c0.22,0.02,0.41,0.05,0.58,0.08
		c0.17,0.03,0.36,0.08,0.55,0.15c0.55,0.16,0.98,0.44,1.29,0.86c0.31,0.41,0.46,0.91,0.46,1.49c0,0.47-0.06,0.94-0.19,1.4
		c-0.12,0.46-0.3,0.88-0.52,1.28c-0.22,0.39-0.49,0.75-0.81,1.06c-0.31,0.32-0.65,0.57-1.02,0.77c-0.3,0.14-0.61,0.26-0.91,0.34
		c-0.31,0.08-0.7,0.16-1.17,0.22c0.39,0.73,0.73,1.37,1.01,1.92c0.28,0.54,0.51,1,0.7,1.37l0.37,0.75c0.1,0.21,0.17,0.34,0.2,0.4
		c0.03,0.06,0.04,0.13,0.04,0.2c0,0.13-0.05,0.27-0.14,0.4c-0.09,0.14-0.2,0.23-0.34,0.28c-0.05,0.03-0.1,0.05-0.14,0.06
		c-0.04,0.01-0.09,0.02-0.14,0.03c-0.05,0.01-0.12,0.01-0.21,0.01c-0.09,0-0.19,0-0.33,0l-3.34,0c-0.2,0-0.35,0-0.46-0.01
		c-0.11-0.01-0.2-0.03-0.28-0.07c-0.07-0.04-0.13-0.1-0.17-0.2c-0.04-0.09-0.09-0.22-0.16-0.39l-0.71-1.79l-0.16-0.41l-0.47-1.18
		c-0.03-0.08-0.05-0.16-0.08-0.24c-0.03-0.08-0.05-0.16-0.08-0.24h-0.1c0,0.07-0.01,0.2-0.03,0.39c-0.02,0.2-0.05,0.42-0.09,0.66
		c-0.04,0.24-0.09,0.5-0.14,0.78c-0.05,0.28-0.11,0.52-0.16,0.75l-0.2,0.85c-0.04,0.17-0.07,0.3-0.1,0.4
		c-0.03,0.1-0.06,0.18-0.09,0.24c-0.03,0.06-0.07,0.11-0.1,0.15c-0.03,0.04-0.07,0.08-0.13,0.12c-0.07,0.04-0.12,0.07-0.16,0.1
		c-0.04,0.03-0.09,0.05-0.16,0.06c-0.07,0.01-0.15,0.02-0.24,0.03c-0.1,0.01-0.23,0.01-0.38,0.01l-3.07,0c-0.13,0-0.23,0-0.3,0
		c-0.07,0-0.13,0-0.17-0.01c-0.04-0.01-0.07-0.01-0.1-0.02c-0.03-0.01-0.06-0.02-0.1-0.03c-0.08-0.03-0.14-0.08-0.2-0.16
		c-0.05-0.08-0.08-0.16-0.08-0.26c0-0.07,0-0.13,0.01-0.18c0.01-0.05,0.04-0.2,0.11-0.45l2.62-10.93c0.08-0.33,0.14-0.53,0.19-0.62
		c0.05-0.09,0.12-0.18,0.23-0.27c0.11-0.09,0.21-0.15,0.31-0.17c0.1-0.02,0.31-0.03,0.64-0.03L78.97,46.88L78.97,46.88z
		 M75.09,53.19l0.61,0c0.36,0,0.66-0.01,0.91-0.03c0.25-0.02,0.47-0.06,0.65-0.12c0.18-0.06,0.34-0.13,0.46-0.23
		c0.12-0.09,0.24-0.21,0.34-0.35c0.25-0.33,0.38-0.72,0.37-1.18c0-0.37-0.14-0.6-0.43-0.71c-0.08-0.03-0.15-0.05-0.21-0.07
		c-0.06-0.02-0.14-0.03-0.25-0.04c-0.11-0.01-0.26-0.01-0.45-0.02c-0.2-0.01-0.47-0.01-0.83-0.01h-0.51L75.09,53.19L75.09,53.19z"/>
	<path fill="#E51B2B" d="M95,53.43c0.24,0.04,0.43,0.07,0.58,0.1c0.15,0.03,0.28,0.05,0.38,0.08c0.1,0.03,0.2,0.06,0.27,0.09
		c0.08,0.03,0.16,0.08,0.24,0.13c0.55,0.35,0.82,0.89,0.83,1.61c0,0.43-0.06,0.86-0.19,1.28c-0.13,0.42-0.3,0.81-0.51,1.18
		c-0.22,0.37-0.48,0.69-0.79,0.97c-0.31,0.28-0.64,0.51-0.99,0.68c-0.34,0.16-0.76,0.27-1.27,0.34C93.04,59.97,92.4,60,91.63,60
		l-7.47,0c-0.13,0-0.23,0-0.31,0c-0.07,0-0.13,0-0.17-0.01c-0.04-0.01-0.07-0.01-0.1-0.02c-0.03-0.01-0.06-0.02-0.1-0.03
		c-0.08-0.02-0.14-0.08-0.2-0.16c-0.05-0.08-0.08-0.16-0.08-0.25c0-0.07,0-0.13,0.01-0.18c0.01-0.05,0.04-0.2,0.11-0.45l2.62-10.93
		c0.08-0.33,0.14-0.53,0.19-0.62c0.05-0.09,0.12-0.18,0.23-0.27c0.1-0.09,0.21-0.15,0.31-0.17c0.1-0.02,0.31-0.03,0.64-0.03l7.1,0
		c0.54,0,0.99,0.01,1.37,0.03c0.37,0.02,0.69,0.05,0.94,0.09c0.26,0.04,0.47,0.1,0.66,0.17c0.18,0.07,0.35,0.17,0.51,0.29
		c0.5,0.35,0.75,0.93,0.75,1.73c0,0.32-0.04,0.64-0.12,0.96c-0.08,0.33-0.19,0.64-0.33,0.93c-0.14,0.29-0.3,0.57-0.49,0.83
		c-0.19,0.25-0.4,0.47-0.62,0.64c-0.24,0.18-0.52,0.34-0.83,0.46c-0.32,0.12-0.73,0.24-1.23,0.34L95,53.43L95,53.43z M88.82,57.15
		l1.67,0c0.29,0,0.52-0.02,0.69-0.05c0.17-0.03,0.34-0.09,0.49-0.17c0.26-0.12,0.46-0.29,0.6-0.51c0.14-0.22,0.21-0.47,0.21-0.73
		c0-0.32-0.13-0.54-0.37-0.67c-0.13-0.06-0.28-0.1-0.44-0.12c-0.16-0.01-0.46-0.02-0.89-0.02l-1.42,0L88.82,57.15L88.82,57.15z
		 M89.94,52.43c0.28,0.02,0.51,0.02,0.71,0.02c0.2,0,0.37,0,0.51,0c0.26,0,0.48,0,0.66-0.01c0.18-0.01,0.33-0.02,0.45-0.04
		c0.13-0.02,0.23-0.05,0.32-0.08c0.09-0.03,0.17-0.08,0.26-0.15c0.46-0.27,0.69-0.67,0.69-1.2c0-0.37-0.14-0.59-0.43-0.67
		c-0.12-0.04-0.25-0.07-0.4-0.08c-0.15-0.01-0.41-0.02-0.78-0.02l-1.45,0L89.94,52.43L89.94,52.43z"/>
	<path fill="#E51B2B" d="M103.17,58.91c-0.04,0.17-0.07,0.3-0.1,0.4c-0.03,0.1-0.06,0.18-0.09,0.24c-0.03,0.06-0.07,0.11-0.1,0.15
		c-0.03,0.04-0.08,0.08-0.13,0.12c-0.11,0.09-0.21,0.15-0.3,0.17c-0.1,0.02-0.31,0.03-0.64,0.03l-3.09,0c-0.13,0-0.23,0-0.3,0
		c-0.07,0-0.13,0-0.17-0.01c-0.04,0-0.07-0.01-0.1-0.02c-0.02-0.01-0.06-0.02-0.1-0.03c-0.08-0.03-0.15-0.08-0.2-0.16
		c-0.05-0.08-0.08-0.16-0.08-0.26c0-0.06,0-0.12,0.01-0.18c0.01-0.05,0.04-0.2,0.11-0.45l2.62-10.91c0.04-0.17,0.07-0.3,0.1-0.4
		c0.03-0.1,0.05-0.18,0.09-0.24c0.03-0.06,0.07-0.11,0.1-0.15c0.03-0.04,0.07-0.08,0.13-0.12c0.1-0.09,0.21-0.15,0.3-0.17
		c0.1-0.02,0.31-0.03,0.64-0.03l3.09,0c0.25,0,0.41,0,0.47,0.01c0.06,0.01,0.13,0.02,0.2,0.05c0.18,0.05,0.28,0.19,0.28,0.41
		c0,0.07-0.01,0.13-0.01,0.18c-0.01,0.05-0.04,0.2-0.11,0.45L103.17,58.91L103.17,58.91z"/>
	<path fill="#E51B2B" d="M113.72,56.02c-0.12,0.5-0.24,0.93-0.38,1.29c-0.13,0.36-0.29,0.68-0.46,0.94c-0.18,0.27-0.38,0.5-0.6,0.71
		c-0.22,0.2-0.49,0.38-0.79,0.54c-0.92,0.48-2.1,0.73-3.56,0.73c-0.59,0-1.19-0.05-1.81-0.15c-0.62-0.1-1.13-0.22-1.55-0.36
		c-0.24-0.09-0.35-0.24-0.35-0.43c0-0.04,0-0.07,0-0.09c0-0.02,0-0.05,0.01-0.09c0.01-0.04,0.02-0.09,0.04-0.17
		c0.02-0.07,0.04-0.17,0.07-0.3l0.29-1.2c0.07-0.3,0.12-0.5,0.17-0.6c0.04-0.1,0.11-0.19,0.21-0.26c0.17-0.14,0.35-0.22,0.53-0.22
		c0.03,0,0.05,0,0.09,0.01c0.03,0.01,0.13,0.02,0.3,0.05c0.07,0.01,0.13,0.02,0.2,0.02c0.07,0,0.15,0,0.26,0
		c0.43,0,0.79-0.03,1.07-0.09c0.28-0.06,0.51-0.18,0.7-0.37c0.18-0.19,0.34-0.45,0.47-0.8c0.13-0.34,0.26-0.79,0.4-1.36
		c0.25-1.06,0.46-1.95,0.63-2.67c0.17-0.72,0.31-1.32,0.42-1.8c0.11-0.48,0.2-0.85,0.27-1.11c0.07-0.26,0.12-0.45,0.15-0.58
		c0.03-0.13,0.06-0.21,0.08-0.25c0.02-0.04,0.04-0.07,0.05-0.1c0.05-0.08,0.12-0.15,0.2-0.22c0.08-0.07,0.16-0.11,0.23-0.14
		c0.08-0.03,0.15-0.04,0.22-0.05c0.06-0.01,0.23-0.01,0.49-0.01l3.07,0c0.25,0,0.41,0,0.47,0.01c0.06,0.01,0.13,0.02,0.2,0.05
		c0.08,0.03,0.14,0.08,0.2,0.16c0.05,0.08,0.08,0.16,0.08,0.25c0,0.07-0.01,0.15-0.03,0.25c-0.02,0.1-0.04,0.23-0.07,0.39
		L113.72,56.02L113.72,56.02z"/>
	<path fill="#E51B2B" d="M121.5,52.27l4.96,0c0.25,0,0.41,0,0.47,0.01c0.07,0.01,0.13,0.02,0.2,0.05c0.18,0.05,0.27,0.19,0.27,0.41
		c0,0.09-0.02,0.2-0.06,0.33l-0.06,0.3l-0.2,0.75c-0.04,0.17-0.07,0.31-0.1,0.4c-0.03,0.1-0.05,0.18-0.08,0.24
		c-0.03,0.06-0.06,0.11-0.09,0.15c-0.04,0.04-0.08,0.08-0.13,0.12c-0.11,0.09-0.21,0.15-0.3,0.17c-0.1,0.02-0.31,0.03-0.64,0.03
		l-4.96,0l-0.37,1.52l4.95,0c0.25,0,0.41,0,0.47,0.01c0.06,0.01,0.13,0.02,0.2,0.05c0.08,0.03,0.14,0.08,0.2,0.16
		c0.05,0.08,0.08,0.16,0.08,0.26c0,0.07-0.01,0.14-0.02,0.22c-0.01,0.08-0.05,0.21-0.1,0.39l-0.26,1.12
		c-0.08,0.33-0.14,0.53-0.19,0.62c-0.05,0.08-0.12,0.17-0.23,0.26c-0.1,0.09-0.21,0.15-0.31,0.17c-0.1,0.02-0.31,0.03-0.64,0.03
		l-8.91,0c-0.13,0-0.23,0-0.31,0c-0.07,0-0.13,0-0.17-0.01c-0.04-0.01-0.07-0.01-0.1-0.02c-0.03-0.01-0.06-0.02-0.1-0.03
		c-0.08-0.03-0.14-0.08-0.2-0.16c-0.05-0.08-0.08-0.16-0.08-0.25c0-0.07,0-0.13,0.01-0.18c0.01-0.05,0.04-0.2,0.11-0.43L117.47,48
		c0.04-0.17,0.07-0.31,0.1-0.4c0.03-0.1,0.05-0.18,0.09-0.24c0.03-0.06,0.07-0.11,0.1-0.15c0.03-0.04,0.07-0.08,0.13-0.12
		c0.1-0.09,0.21-0.15,0.31-0.17c0.1-0.02,0.31-0.03,0.64-0.03l8.91,0.01c0.25,0,0.41,0,0.47,0.01c0.07,0.01,0.13,0.02,0.2,0.05
		c0.18,0.05,0.28,0.19,0.28,0.41c0,0.07,0,0.13-0.01,0.18c-0.01,0.05-0.04,0.2-0.11,0.45l-0.38,1.59c-0.08,0.33-0.14,0.54-0.19,0.63
		c-0.04,0.09-0.12,0.18-0.22,0.28c-0.11,0.09-0.21,0.15-0.31,0.17c-0.1,0.02-0.31,0.03-0.64,0.03l-4.96,0L121.5,52.27L121.5,52.27z"
		/>
	<path fill="#E51B2B" d="M73.88,11.41c0.52,0,0.98,0.01,1.38,0.03c0.39,0.02,0.74,0.06,1.04,0.11c0.3,0.05,0.57,0.12,0.81,0.22
		c0.24,0.09,0.46,0.2,0.67,0.33c0.47,0.29,0.85,0.72,1.14,1.28c0.29,0.56,0.43,1.18,0.43,1.85c0,0.41-0.04,0.85-0.11,1.32
		c-0.07,0.47-0.17,0.95-0.31,1.44c-0.13,0.49-0.29,0.97-0.47,1.45c-0.18,0.47-0.38,0.91-0.59,1.32c-0.97,1.8-2.32,2.94-4.03,3.42
		c-0.5,0.14-1.33,0.25-2.5,0.31c-1.17,0.07-2.75,0.1-4.76,0.1c-0.51,0-0.92-0.01-1.23-0.02c-0.31-0.01-0.54-0.04-0.71-0.07
		c-0.16-0.03-0.27-0.08-0.32-0.16c-0.05-0.07-0.08-0.17-0.08-0.28c0-0.07,0-0.13,0.01-0.18c0.01-0.05,0.04-0.2,0.11-0.45l2.62-10.91
		c0.08-0.33,0.14-0.54,0.19-0.63c0.05-0.09,0.12-0.18,0.23-0.28c0.1-0.09,0.21-0.15,0.31-0.17c0.1-0.02,0.31-0.03,0.64-0.03
		L73.88,11.41L73.88,11.41z M70.04,20.86h0.45c0.69,0,1.26-0.1,1.71-0.29c0.45-0.2,0.81-0.51,1.08-0.94c0.1-0.17,0.2-0.37,0.3-0.6
		c0.1-0.23,0.18-0.47,0.26-0.72c0.07-0.25,0.13-0.5,0.17-0.75c0.04-0.25,0.06-0.49,0.06-0.71c0-0.3-0.07-0.55-0.2-0.76
		c-0.13-0.2-0.31-0.34-0.55-0.4c-0.14-0.04-0.34-0.07-0.59-0.1c-0.25-0.03-0.51-0.04-0.77-0.04h-0.65L70.04,20.86L70.04,20.86z"/>
	<path fill="#E51B2B" d="M89.42,11.41c0.51,0,0.93,0,1.26,0.01c0.33,0.01,0.6,0.02,0.82,0.04c0.22,0.02,0.41,0.05,0.58,0.08
		c0.17,0.03,0.35,0.08,0.55,0.15c0.55,0.16,0.98,0.44,1.29,0.86c0.31,0.41,0.46,0.91,0.46,1.49c0,0.47-0.06,0.94-0.19,1.4
		c-0.12,0.46-0.3,0.88-0.52,1.28c-0.22,0.39-0.49,0.75-0.81,1.06c-0.31,0.32-0.65,0.57-1.02,0.77c-0.3,0.14-0.61,0.26-0.92,0.34
		c-0.31,0.09-0.7,0.16-1.17,0.23c0.39,0.73,0.73,1.37,1.01,1.92c0.28,0.55,0.51,1,0.7,1.37l0.37,0.75c0.1,0.21,0.17,0.34,0.2,0.4
		c0.03,0.06,0.04,0.13,0.04,0.21c0,0.13-0.05,0.26-0.14,0.4c-0.09,0.14-0.2,0.23-0.33,0.28c-0.05,0.03-0.1,0.05-0.14,0.06
		c-0.04,0.01-0.09,0.02-0.14,0.03c-0.05,0.01-0.12,0.01-0.21,0.01c-0.09,0-0.19,0-0.33,0l-3.34,0c-0.2,0-0.35,0-0.46-0.01
		c-0.11-0.01-0.2-0.03-0.28-0.07c-0.07-0.04-0.13-0.11-0.17-0.2c-0.04-0.09-0.09-0.22-0.16-0.39l-0.71-1.79l-0.16-0.41l-0.47-1.18
		c-0.03-0.08-0.05-0.16-0.08-0.24c-0.03-0.08-0.05-0.16-0.08-0.24h-0.1c0,0.06-0.01,0.2-0.03,0.39c-0.02,0.2-0.05,0.42-0.09,0.66
		c-0.04,0.24-0.09,0.5-0.14,0.78c-0.05,0.28-0.1,0.52-0.16,0.75l-0.2,0.85c-0.04,0.17-0.07,0.31-0.1,0.4
		c-0.03,0.1-0.06,0.18-0.09,0.23c-0.03,0.06-0.06,0.11-0.1,0.15c-0.03,0.04-0.08,0.08-0.13,0.12c-0.07,0.04-0.12,0.07-0.16,0.1
		c-0.04,0.03-0.09,0.05-0.16,0.06c-0.07,0.01-0.15,0.02-0.25,0.03c-0.1,0.01-0.23,0.01-0.38,0.01l-3.07,0c-0.13,0-0.23,0-0.31,0
		c-0.07,0-0.13,0-0.17-0.01c-0.04-0.01-0.07-0.01-0.1-0.02c-0.03-0.01-0.06-0.02-0.1-0.03c-0.08-0.02-0.14-0.08-0.19-0.16
		c-0.05-0.08-0.08-0.16-0.08-0.25c0-0.07,0-0.13,0.01-0.18c0.01-0.05,0.04-0.2,0.11-0.45l2.62-10.93c0.08-0.33,0.14-0.53,0.19-0.62
		c0.05-0.08,0.12-0.17,0.23-0.27c0.11-0.09,0.21-0.15,0.3-0.17c0.1-0.02,0.31-0.03,0.64-0.03L89.42,11.41L89.42,11.41z M85.54,17.72
		h0.61c0.35,0,0.66-0.01,0.9-0.03c0.25-0.02,0.47-0.06,0.65-0.12c0.18-0.06,0.34-0.13,0.46-0.23c0.12-0.09,0.24-0.21,0.34-0.35
		c0.25-0.33,0.38-0.72,0.38-1.18c0-0.37-0.14-0.6-0.43-0.71c-0.08-0.03-0.15-0.05-0.21-0.07C88.18,15.02,88.1,15.01,88,15
		c-0.11-0.01-0.26-0.01-0.45-0.02c-0.2-0.01-0.47-0.01-0.83-0.01h-0.51L85.54,17.72L85.54,17.72z"/>
	<path fill="#E51B2B" d="M103.84,20.9c0.25,0,0.41,0,0.47,0.01c0.07,0.01,0.13,0.02,0.2,0.05c0.08,0.03,0.14,0.08,0.2,0.16
		c0.05,0.08,0.08,0.16,0.08,0.26c0,0.06-0.01,0.14-0.02,0.22c-0.01,0.08-0.05,0.21-0.1,0.39l-0.34,1.47
		c-0.08,0.33-0.14,0.54-0.19,0.62c-0.05,0.08-0.12,0.17-0.23,0.26c-0.1,0.09-0.21,0.15-0.3,0.17c-0.1,0.02-0.31,0.03-0.64,0.03
		l-8.77,0c-0.13,0-0.23,0-0.3,0c-0.07,0-0.13,0-0.17-0.01c-0.04-0.01-0.07-0.01-0.1-0.02c-0.03-0.01-0.06-0.02-0.1-0.03
		c-0.08-0.03-0.14-0.08-0.2-0.16c-0.05-0.08-0.08-0.16-0.08-0.26c0-0.06,0-0.12,0.01-0.18c0.01-0.05,0.04-0.2,0.11-0.43l0.41-1.73
		c0.07-0.28,0.11-0.44,0.13-0.5c0.02-0.06,0.05-0.12,0.09-0.19c0.01-0.03,0.03-0.05,0.05-0.07c0.02-0.02,0.05-0.05,0.08-0.08
		c0.03-0.03,0.09-0.08,0.16-0.13c0.07-0.05,0.17-0.13,0.29-0.23l6.29-5.05l-4.48,0c-0.26,0-0.43,0-0.49-0.01
		c-0.07-0.01-0.13-0.02-0.2-0.05c-0.08-0.03-0.14-0.08-0.2-0.16c-0.05-0.08-0.08-0.16-0.08-0.26c0-0.08,0.02-0.19,0.06-0.33
		l0.06-0.29L96,12.52c0.04-0.17,0.07-0.3,0.1-0.4c0.02-0.1,0.06-0.18,0.09-0.24c0.03-0.06,0.07-0.11,0.1-0.15
		c0.03-0.04,0.08-0.08,0.13-0.12c0.11-0.09,0.21-0.15,0.3-0.17c0.1-0.02,0.31-0.03,0.64-0.03l8.77,0c0.25,0,0.4,0,0.47,0.01
		c0.06,0.01,0.13,0.02,0.19,0.05c0.08,0.03,0.14,0.08,0.2,0.16c0.05,0.08,0.08,0.16,0.08,0.26c0,0.07,0,0.12-0.01,0.18
		c-0.01,0.05-0.04,0.2-0.11,0.45l-0.63,2.58l-0.06,0.29c-0.03,0.11-0.05,0.19-0.08,0.26c-0.03,0.07-0.06,0.13-0.11,0.19
		c-0.05,0.06-0.11,0.13-0.19,0.2c-0.08,0.07-0.2,0.17-0.35,0.28l-5.74,4.58L103.84,20.9L103.84,20.9z"/>
	<path fill="#E51B2B" d="M111.06,22.42l-0.61,1.2c-0.15,0.31-0.24,0.51-0.3,0.58c-0.05,0.07-0.13,0.14-0.24,0.21
		c-0.05,0.04-0.1,0.07-0.13,0.08c-0.03,0.01-0.08,0.03-0.14,0.04c-0.06,0.01-0.14,0.02-0.23,0.02c-0.09,0-0.22,0-0.37,0h-2.97
		c-0.26,0-0.43,0-0.5-0.01c-0.07-0.01-0.14-0.02-0.21-0.05c-0.07-0.03-0.12-0.08-0.18-0.17c-0.05-0.08-0.08-0.16-0.08-0.23
		c0-0.12,0.05-0.29,0.16-0.53c0.07-0.09,0.12-0.18,0.16-0.28l5.77-10.95c0.08-0.16,0.14-0.28,0.19-0.36
		c0.04-0.08,0.08-0.15,0.12-0.21c0.03-0.05,0.06-0.09,0.1-0.12c0.03-0.03,0.08-0.05,0.13-0.08c0.09-0.07,0.18-0.11,0.27-0.12
		c0.08-0.01,0.29-0.02,0.6-0.02l5.94,0c0.16,0,0.28,0,0.36,0c0.09,0,0.15,0,0.2,0.01c0.05,0.01,0.08,0.02,0.11,0.03
		c0.03,0.01,0.05,0.03,0.08,0.06c0.13,0.08,0.2,0.25,0.22,0.51v0.3l0.47,10.95l0,0.31c0,0.38-0.14,0.66-0.41,0.83
		c-0.09,0.05-0.18,0.08-0.27,0.1c-0.08,0.01-0.28,0.02-0.58,0.02h-3.11c-0.31,0-0.51-0.01-0.59-0.02c-0.08-0.01-0.15-0.05-0.22-0.12
		c-0.07-0.07-0.1-0.13-0.12-0.21c-0.01-0.07-0.02-0.27-0.02-0.58l0-1.2L111.06,22.42L111.06,22.42z M114.76,14.41l-0.1,0.27
		l-0.65,1.4c-0.05,0.1-0.09,0.2-0.13,0.27c-0.03,0.08-0.07,0.15-0.1,0.23c-0.03,0.07-0.07,0.16-0.12,0.26
		c-0.05,0.1-0.11,0.22-0.19,0.36l-0.97,1.93l2.24,0l0-2.67c0-0.29,0.01-0.59,0.02-0.9c0.01-0.32,0.04-0.7,0.08-1.14L114.76,14.41
		L114.76,14.41z"/>
	<path fill="#E51B2B" d="M126.77,20.93c0.06-0.34,0.15-0.7,0.25-1.07c0.11-0.37,0.25-0.79,0.43-1.26c0.18-0.46,0.4-0.99,0.66-1.58
		c0.26-0.59,0.58-1.27,0.94-2.04l1.24-2.62c0.15-0.3,0.24-0.49,0.3-0.57c0.05-0.08,0.13-0.15,0.24-0.22
		c0.09-0.07,0.18-0.11,0.27-0.12c0.09-0.01,0.29-0.02,0.6-0.02l2.85,0c0.26,0,0.43,0,0.49,0.01c0.06,0.01,0.13,0.02,0.2,0.05
		c0.07,0.03,0.13,0.08,0.18,0.17c0.05,0.09,0.08,0.16,0.08,0.23c0,0.05,0,0.1-0.01,0.14c-0.01,0.04-0.02,0.08-0.04,0.14
		c-0.02,0.05-0.05,0.12-0.09,0.2c-0.04,0.08-0.09,0.18-0.16,0.31l-5.45,10.95c-0.15,0.3-0.25,0.49-0.31,0.57
		c-0.06,0.08-0.13,0.15-0.23,0.22c-0.11,0.07-0.2,0.1-0.28,0.12c-0.08,0.01-0.28,0.02-0.59,0.02l-5.09,0
		c-0.31,0-0.51-0.01-0.59-0.02c-0.08-0.01-0.15-0.05-0.22-0.12c-0.07-0.05-0.11-0.12-0.12-0.2c-0.01-0.08-0.03-0.27-0.04-0.57
		l-0.41-10.95v-0.35c0-0.35,0.14-0.62,0.41-0.79c0.09-0.05,0.18-0.08,0.27-0.1c0.08-0.01,0.28-0.02,0.58-0.02l2.95,0
		c0.17,0,0.31,0,0.41,0.01c0.1,0.01,0.19,0.02,0.25,0.03c0.06,0.01,0.1,0.04,0.14,0.07c0.03,0.03,0.06,0.08,0.09,0.13
		c0.03,0.07,0.05,0.17,0.08,0.32l0.06,3.99c0,0.75-0.04,1.52-0.11,2.33c-0.07,0.81-0.18,1.68-0.33,2.63H126.77L126.77,20.93z"/>
	<path fill="#E51B2B" d="M140.09,17.4c0,0.25-0.05,0.66-0.15,1.25c-0.1,0.58-0.23,1.21-0.41,1.88l-0.69,2.93
		c-0.04,0.17-0.07,0.3-0.1,0.4c-0.03,0.1-0.06,0.18-0.09,0.23c-0.03,0.06-0.06,0.11-0.1,0.15c-0.03,0.04-0.07,0.08-0.13,0.12
		c-0.06,0.04-0.12,0.07-0.16,0.1c-0.04,0.03-0.09,0.05-0.16,0.06c-0.07,0.01-0.15,0.02-0.25,0.03c-0.1,0.01-0.23,0.01-0.38,0.01
		l-2.71,0c-0.13,0-0.23,0-0.31,0c-0.07,0-0.13,0-0.17-0.01c-0.04-0.01-0.07-0.01-0.1-0.02c-0.03-0.01-0.06-0.02-0.1-0.03
		c-0.08-0.03-0.14-0.08-0.2-0.16c-0.05-0.08-0.08-0.16-0.08-0.25c0-0.07,0-0.13,0.01-0.18c0.01-0.05,0.04-0.2,0.11-0.45l2.62-10.91
		c0.04-0.17,0.07-0.31,0.1-0.4c0.03-0.1,0.05-0.18,0.09-0.24c0.03-0.06,0.07-0.11,0.1-0.15c0.03-0.04,0.07-0.08,0.13-0.12
		c0.1-0.09,0.21-0.15,0.3-0.17c0.1-0.02,0.31-0.03,0.64-0.03l4.05,0c0.21,0,0.37,0,0.48,0.01c0.11,0.01,0.2,0.04,0.27,0.09
		c0.07,0.05,0.12,0.13,0.15,0.23c0.03,0.1,0.08,0.25,0.13,0.44l0.35,1.38c0.12,0.42,0.21,0.78,0.28,1.07
		c0.07,0.29,0.14,0.58,0.2,0.85c0.06,0.28,0.12,0.56,0.17,0.87c0.05,0.3,0.11,0.67,0.18,1.1h0.1c0.03-0.35,0.1-0.84,0.22-1.45
		c0.12-0.62,0.26-1.27,0.43-1.95l0.37-1.53c0.04-0.17,0.07-0.3,0.1-0.4c0.03-0.1,0.05-0.18,0.08-0.24c0.03-0.06,0.05-0.11,0.09-0.15
		c0.03-0.04,0.07-0.08,0.13-0.12c0.05-0.04,0.1-0.07,0.15-0.1c0.05-0.03,0.1-0.05,0.17-0.06c0.07-0.01,0.15-0.02,0.25-0.03
		c0.1-0.01,0.23-0.01,0.38-0.01l2.62,0c0.26,0,0.43,0,0.49,0.01c0.07,0.01,0.13,0.02,0.2,0.05c0.18,0.05,0.28,0.19,0.27,0.41
		c0,0.09-0.02,0.2-0.06,0.34l-0.06,0.3l-2.64,10.91c-0.04,0.17-0.07,0.31-0.1,0.4c-0.03,0.1-0.05,0.18-0.08,0.24
		c-0.03,0.06-0.06,0.11-0.1,0.15c-0.04,0.04-0.08,0.08-0.14,0.12c-0.11,0.09-0.21,0.15-0.3,0.17c-0.1,0.02-0.31,0.03-0.64,0.03
		l-3.34,0c-0.21,0-0.37,0-0.48-0.01c-0.11-0.01-0.2-0.03-0.26-0.08c-0.07-0.05-0.12-0.12-0.16-0.23c-0.04-0.1-0.09-0.25-0.14-0.43
		l-0.61-2.34c-0.07-0.26-0.14-0.56-0.22-0.9c-0.09-0.33-0.17-0.68-0.25-1.04c-0.08-0.36-0.16-0.72-0.24-1.08
		c-0.08-0.36-0.15-0.71-0.21-1.05H140.09L140.09,17.4z"/>
	<path fill="#E51B2B" d="M154.58,22.44l-0.61,1.2c-0.15,0.32-0.24,0.51-0.3,0.58c-0.05,0.07-0.13,0.14-0.24,0.21
		c-0.05,0.04-0.1,0.07-0.13,0.08c-0.03,0.01-0.08,0.03-0.14,0.04c-0.06,0.01-0.13,0.02-0.23,0.02c-0.09,0-0.22,0-0.37,0l-2.97,0
		c-0.26,0-0.43,0-0.5-0.01c-0.07-0.01-0.14-0.02-0.2-0.05c-0.07-0.03-0.12-0.08-0.18-0.17c-0.05-0.08-0.08-0.16-0.08-0.23
		c0-0.12,0.05-0.29,0.16-0.53c0.07-0.09,0.12-0.18,0.16-0.28l5.77-10.95c0.08-0.16,0.14-0.28,0.19-0.36
		c0.05-0.08,0.09-0.15,0.12-0.21c0.03-0.05,0.07-0.09,0.1-0.12c0.03-0.03,0.08-0.05,0.13-0.08c0.09-0.07,0.18-0.11,0.26-0.12
		c0.09-0.01,0.29-0.02,0.6-0.02l5.94,0c0.16,0,0.28,0,0.36,0c0.08,0,0.15,0,0.2,0.01c0.04,0.01,0.08,0.02,0.11,0.03
		c0.03,0.01,0.05,0.03,0.08,0.06c0.13,0.08,0.2,0.25,0.22,0.51l0,0.29l0.47,10.95v0.31c0,0.38-0.14,0.66-0.41,0.82
		c-0.09,0.05-0.18,0.09-0.26,0.1c-0.09,0.01-0.28,0.02-0.58,0.02l-3.11,0c-0.31,0-0.51-0.01-0.59-0.02
		c-0.08-0.01-0.15-0.05-0.22-0.12c-0.06-0.07-0.1-0.13-0.12-0.21c-0.01-0.07-0.02-0.26-0.02-0.58l0-1.2L154.58,22.44L154.58,22.44z
		 M158.28,14.43l-0.1,0.28l-0.65,1.4c-0.05,0.11-0.1,0.2-0.13,0.28c-0.03,0.08-0.07,0.15-0.1,0.23c-0.03,0.07-0.07,0.16-0.12,0.26
		c-0.05,0.1-0.11,0.22-0.19,0.36l-0.97,1.93l2.24,0l0-2.67c0-0.29,0.01-0.59,0.02-0.9c0.01-0.31,0.04-0.69,0.08-1.14L158.28,14.43
		L158.28,14.43z"/>
	<path fill="#E51B2B" d="M103.06,8.23c0.12-0.14,0.2-0.23,0.26-0.25c0.05-0.02,0.17-0.03,0.35-0.03l1.51,0
		c0.37,0,0.55,0.11,0.55,0.31c0,0.11-0.08,0.24-0.24,0.39l-1.22,1.32c-0.12,0.13-0.2,0.21-0.24,0.23c-0.05,0.02-0.16,0.03-0.34,0.03
		l-3.32,0c-0.22,0-0.36-0.02-0.41-0.05c-0.05-0.03-0.12-0.16-0.2-0.36l-0.43-1.22c-0.07-0.17-0.1-0.29-0.1-0.37
		c0-0.18,0.18-0.27,0.55-0.27l1.63,0c0.21,0,0.34,0.02,0.39,0.05c0.05,0.03,0.12,0.14,0.22,0.32l0.35,0.73L103.06,8.23L103.06,8.23z
		"/>
	<path fill="#E51B2B" d="M69.68,38.16c0.26,0,0.42,0,0.49,0.01c0.07,0.01,0.13,0.02,0.2,0.05c0.08,0.03,0.14,0.08,0.2,0.16
		c0.05,0.08,0.08,0.16,0.08,0.26c0,0.09-0.02,0.2-0.06,0.33l-0.06,0.28l-0.47,1.99c-0.08,0.33-0.14,0.53-0.19,0.62
		c-0.05,0.09-0.12,0.17-0.22,0.27c-0.07,0.04-0.12,0.07-0.16,0.1c-0.04,0.03-0.09,0.05-0.16,0.06c-0.06,0.02-0.15,0.02-0.24,0.03
		c-0.1,0.01-0.23,0.01-0.38,0.01l-7.43,0c-0.13,0-0.23,0-0.3,0c-0.07,0-0.13,0-0.17-0.01c-0.04-0.01-0.07-0.01-0.1-0.02
		c-0.03,0-0.06-0.02-0.1-0.03c-0.08-0.03-0.15-0.08-0.2-0.16c-0.05-0.08-0.08-0.16-0.08-0.26c0-0.07,0-0.12,0.01-0.18
		c0.01-0.05,0.04-0.2,0.11-0.43l2.61-10.93c0.04-0.17,0.07-0.3,0.1-0.4c0.03-0.1,0.06-0.18,0.09-0.24c0.03-0.06,0.06-0.11,0.1-0.15
		c0.03-0.04,0.08-0.08,0.13-0.12c0.1-0.09,0.21-0.15,0.3-0.17c0.1-0.02,0.31-0.03,0.64-0.03h3.07c0.25,0,0.41,0,0.47,0.01
		c0.06,0.01,0.13,0.02,0.2,0.05c0.18,0.05,0.28,0.19,0.28,0.41c0,0.07,0,0.12-0.01,0.18c-0.01,0.05-0.04,0.2-0.11,0.45l-1.89,7.86
		H69.68L69.68,38.16z"/>
	<path fill="#E51B2B" d="M85.09,37.28c-0.19,0.83-0.39,1.48-0.57,1.95c-0.19,0.47-0.4,0.87-0.65,1.2c-0.56,0.75-1.4,1.31-2.52,1.69
		c-1.11,0.38-2.49,0.57-4.13,0.57c-1.85,0-3.19-0.27-4.02-0.82c-0.83-0.55-1.25-1.44-1.25-2.67c0-0.34,0.04-0.74,0.11-1.21
		c0.07-0.47,0.19-1.05,0.36-1.74l1.43-5.94c0.07-0.3,0.12-0.5,0.15-0.59c0.03-0.09,0.1-0.18,0.19-0.26c0.1-0.09,0.21-0.16,0.3-0.2
		c0.1-0.04,0.23-0.06,0.38-0.06h0.33l3.07,0.04c0.26,0.01,0.42,0.02,0.47,0.02s0.11,0.01,0.18,0.04c0.18,0.07,0.28,0.2,0.28,0.41
		c0,0.07,0,0.13-0.01,0.19c-0.01,0.06-0.04,0.21-0.11,0.44l-1.65,6.94c-0.07,0.26-0.11,0.46-0.14,0.61
		c-0.03,0.14-0.05,0.26-0.07,0.33c-0.02,0.08-0.03,0.14-0.03,0.19c0,0.05,0,0.1,0,0.15c0,0.21,0.09,0.38,0.28,0.51
		c0.19,0.13,0.44,0.2,0.74,0.2c0.22,0,0.43-0.04,0.63-0.13c0.2-0.09,0.37-0.2,0.51-0.35c0.15-0.14,0.26-0.32,0.35-0.54
		c0.09-0.22,0.19-0.54,0.29-0.97l1.67-6.92c0.04-0.17,0.07-0.3,0.1-0.4c0.03-0.1,0.05-0.18,0.08-0.24c0.03-0.06,0.06-0.11,0.09-0.15
		c0.03-0.04,0.08-0.08,0.13-0.12c0.05-0.04,0.1-0.07,0.15-0.1c0.05-0.03,0.1-0.05,0.17-0.06c0.07-0.01,0.15-0.02,0.24-0.03
		c0.1-0.01,0.23-0.01,0.38-0.01h2.89c0.25,0,0.4,0,0.47,0.01c0.07,0.01,0.13,0.02,0.2,0.05c0.08,0.03,0.14,0.08,0.2,0.16
		c0.05,0.08,0.08,0.17,0.08,0.26c0,0.04,0,0.09-0.01,0.15c0,0.06-0.02,0.12-0.03,0.19l-0.08,0.29L85.09,37.28L85.09,37.28z"/>
	<path fill="#E51B2B" d="M94.06,41.21c-0.04,0.17-0.07,0.31-0.1,0.4c-0.03,0.1-0.06,0.18-0.09,0.24c-0.03,0.06-0.07,0.11-0.1,0.15
		c-0.03,0.04-0.08,0.08-0.13,0.12c-0.11,0.09-0.21,0.15-0.3,0.17c-0.1,0.02-0.31,0.03-0.64,0.03h-3.07c-0.13,0-0.23,0-0.3,0
		c-0.07,0-0.13,0-0.17-0.01c-0.04-0.01-0.07-0.01-0.1-0.02c-0.03-0.01-0.06-0.02-0.1-0.03c-0.08-0.03-0.14-0.08-0.2-0.16
		c-0.05-0.08-0.08-0.16-0.08-0.26c0-0.06,0.01-0.14,0.03-0.24c0.02-0.09,0.05-0.22,0.09-0.39l1.81-7.61h-2.26c-0.13,0-0.23,0-0.3,0
		c-0.07,0-0.13,0-0.17-0.01c-0.04-0.01-0.07-0.01-0.1-0.02c-0.03-0.01-0.06-0.02-0.1-0.03c-0.08-0.03-0.15-0.08-0.2-0.16
		c-0.05-0.08-0.08-0.16-0.08-0.25c0-0.07,0-0.12,0.01-0.18c0.01-0.05,0.04-0.2,0.11-0.43l0.53-2.25c0.08-0.31,0.14-0.51,0.19-0.61
		c0.04-0.09,0.12-0.18,0.22-0.27c0.1-0.09,0.21-0.15,0.3-0.17c0.1-0.02,0.31-0.03,0.64-0.03l9.71,0c0.26,0,0.43,0,0.49,0.01
		c0.07,0.01,0.13,0.02,0.2,0.05c0.08,0.03,0.15,0.08,0.2,0.16c0.05,0.08,0.08,0.16,0.08,0.26c0,0.09-0.02,0.2-0.06,0.33l-0.06,0.27
		l-0.55,2.25c-0.08,0.33-0.14,0.53-0.18,0.62c-0.04,0.08-0.12,0.17-0.23,0.26c-0.11,0.09-0.21,0.15-0.31,0.17
		c-0.1,0.02-0.31,0.03-0.64,0.03l-2.18,0L94.06,41.21L94.06,41.21z"/>
	<path fill="#E51B2B" d="M109.12,29.19c0.51,0,0.93,0,1.26,0.01c0.33,0.01,0.6,0.02,0.82,0.04c0.22,0.02,0.41,0.05,0.58,0.08
		c0.17,0.03,0.35,0.08,0.55,0.15c0.55,0.16,0.98,0.44,1.29,0.85c0.31,0.41,0.46,0.91,0.46,1.49c0,0.47-0.06,0.94-0.19,1.39
		c-0.13,0.46-0.3,0.89-0.52,1.28c-0.22,0.39-0.49,0.75-0.81,1.06c-0.31,0.31-0.65,0.57-1.02,0.77c-0.3,0.14-0.61,0.26-0.91,0.34
		c-0.31,0.09-0.7,0.16-1.17,0.23c0.39,0.73,0.73,1.37,1.01,1.92c0.28,0.54,0.51,1,0.7,1.37l0.37,0.75c0.1,0.21,0.17,0.34,0.2,0.4
		c0.02,0.06,0.04,0.13,0.04,0.21c0,0.13-0.05,0.26-0.14,0.4c-0.09,0.14-0.2,0.23-0.33,0.29c-0.05,0.03-0.1,0.05-0.14,0.06
		c-0.04,0.01-0.08,0.02-0.14,0.03c-0.05,0.01-0.12,0.01-0.21,0.01c-0.08,0-0.19,0-0.32,0l-3.34,0c-0.2,0-0.35,0-0.46-0.01
		c-0.11-0.01-0.2-0.03-0.28-0.07c-0.07-0.04-0.13-0.11-0.17-0.2c-0.04-0.09-0.09-0.22-0.16-0.39l-0.71-1.79l-0.16-0.41l-0.47-1.18
		c-0.03-0.08-0.05-0.16-0.08-0.24c-0.03-0.08-0.05-0.16-0.08-0.24h-0.1c0,0.07-0.01,0.2-0.03,0.39c-0.02,0.2-0.05,0.42-0.09,0.66
		c-0.04,0.24-0.09,0.5-0.14,0.78c-0.05,0.27-0.1,0.52-0.16,0.75l-0.2,0.85c-0.04,0.17-0.07,0.3-0.1,0.4
		c-0.03,0.1-0.06,0.18-0.09,0.24c-0.03,0.06-0.07,0.11-0.1,0.15c-0.03,0.04-0.08,0.08-0.13,0.12c-0.06,0.04-0.12,0.07-0.16,0.1
		c-0.04,0.03-0.09,0.05-0.16,0.06c-0.07,0.01-0.15,0.02-0.25,0.03c-0.1,0.01-0.23,0.01-0.38,0.01h-3.07c-0.13,0-0.23,0-0.31,0
		c-0.07,0-0.13,0-0.17-0.01c-0.04-0.01-0.07-0.01-0.1-0.02c-0.03-0.01-0.06-0.02-0.1-0.03c-0.08-0.03-0.14-0.08-0.2-0.16
		c-0.05-0.08-0.08-0.16-0.08-0.26c0-0.06,0-0.12,0.01-0.18c0.01-0.05,0.04-0.2,0.11-0.45l2.61-10.93c0.08-0.33,0.14-0.54,0.19-0.62
		c0.04-0.09,0.12-0.17,0.22-0.27c0.11-0.09,0.21-0.15,0.31-0.17c0.1-0.02,0.31-0.03,0.64-0.03H109.12L109.12,29.19z M105.25,35.51
		h0.61c0.35,0,0.66-0.01,0.9-0.03c0.25-0.02,0.46-0.06,0.65-0.12c0.18-0.06,0.34-0.14,0.46-0.23c0.12-0.09,0.24-0.21,0.34-0.35
		c0.25-0.33,0.37-0.72,0.37-1.18c0-0.37-0.15-0.6-0.43-0.71c-0.08-0.03-0.15-0.05-0.21-0.07c-0.06-0.02-0.14-0.03-0.25-0.04
		c-0.1-0.01-0.25-0.01-0.45-0.02c-0.2-0.01-0.47-0.01-0.83-0.01h-0.51L105.25,35.51L105.25,35.51z"/>
	<path fill="#E51B2B" d="M118.76,41.21c-0.04,0.17-0.07,0.3-0.1,0.4c-0.03,0.1-0.06,0.18-0.09,0.24c-0.03,0.06-0.06,0.11-0.1,0.15
		c-0.03,0.04-0.08,0.08-0.13,0.12c-0.1,0.09-0.21,0.15-0.3,0.17c-0.1,0.02-0.31,0.03-0.64,0.03l-3.09,0c-0.13,0-0.23,0-0.3,0
		c-0.07,0-0.13,0-0.17-0.01c-0.04-0.01-0.07-0.01-0.1-0.02c-0.03-0.01-0.06-0.02-0.1-0.03c-0.08-0.03-0.14-0.08-0.2-0.16
		c-0.05-0.08-0.08-0.16-0.08-0.26c0-0.07,0-0.13,0.01-0.18c0.01-0.05,0.04-0.2,0.11-0.45l2.61-10.91c0.04-0.17,0.07-0.3,0.1-0.4
		c0.03-0.1,0.06-0.18,0.09-0.24c0.03-0.06,0.07-0.11,0.1-0.15c0.03-0.04,0.07-0.08,0.13-0.12c0.11-0.09,0.21-0.15,0.3-0.17
		c0.1-0.02,0.31-0.03,0.64-0.03l3.09,0c0.25,0,0.41,0,0.47,0.01c0.06,0.01,0.13,0.02,0.2,0.05c0.18,0.05,0.28,0.19,0.28,0.41
		c0,0.07,0,0.12-0.01,0.18c-0.01,0.05-0.04,0.2-0.11,0.45L118.76,41.21L118.76,41.21z"/>
	<path fill="#E51B2B" d="M129.3,38.31c-0.12,0.5-0.24,0.93-0.37,1.29c-0.13,0.36-0.29,0.68-0.46,0.94c-0.18,0.27-0.38,0.51-0.6,0.71
		c-0.22,0.2-0.49,0.38-0.79,0.54c-0.92,0.48-2.1,0.73-3.56,0.73c-0.59,0-1.19-0.05-1.81-0.15c-0.62-0.1-1.13-0.22-1.55-0.36
		c-0.24-0.09-0.35-0.24-0.35-0.43c0-0.04,0-0.07,0-0.09c0-0.02,0-0.05,0.01-0.09c0-0.04,0.02-0.09,0.04-0.17
		c0.02-0.07,0.04-0.17,0.07-0.3l0.29-1.2c0.07-0.3,0.12-0.5,0.17-0.6c0.05-0.1,0.11-0.19,0.2-0.27c0.17-0.14,0.35-0.22,0.53-0.22
		c0.02,0,0.06,0,0.09,0.01c0.03,0.01,0.13,0.02,0.3,0.05c0.07,0.01,0.13,0.02,0.2,0.02c0.07,0,0.15,0,0.25,0
		c0.43,0,0.79-0.03,1.07-0.09c0.28-0.06,0.51-0.18,0.7-0.37c0.18-0.19,0.34-0.46,0.47-0.8c0.13-0.34,0.26-0.79,0.39-1.36
		c0.25-1.06,0.46-1.95,0.63-2.67c0.17-0.72,0.31-1.32,0.42-1.8c0.11-0.48,0.2-0.85,0.26-1.11c0.07-0.26,0.12-0.46,0.15-0.58
		c0.03-0.13,0.06-0.21,0.08-0.25c0.02-0.04,0.04-0.07,0.05-0.1c0.05-0.08,0.12-0.15,0.2-0.22c0.08-0.07,0.16-0.11,0.24-0.14
		c0.08-0.02,0.15-0.04,0.22-0.05c0.07-0.01,0.23-0.01,0.49-0.01h3.07c0.25,0,0.41,0,0.47,0.01c0.06,0.01,0.13,0.02,0.2,0.05
		c0.08,0.03,0.14,0.08,0.2,0.16c0.05,0.08,0.08,0.16,0.08,0.26c0,0.07-0.01,0.15-0.03,0.25c-0.02,0.1-0.04,0.23-0.07,0.38
		L129.3,38.31L129.3,38.31z"/>
	<path fill="#E51B2B" d="M135.73,40.18l-0.61,1.2c-0.14,0.32-0.24,0.51-0.29,0.58c-0.05,0.07-0.13,0.14-0.24,0.21
		c-0.05,0.04-0.09,0.07-0.13,0.08c-0.03,0.01-0.08,0.03-0.14,0.04c-0.06,0.01-0.13,0.02-0.23,0.02c-0.09,0-0.22,0-0.37,0l-2.97,0
		c-0.26,0-0.43,0-0.5-0.01c-0.07-0.01-0.14-0.02-0.21-0.05c-0.07-0.03-0.12-0.08-0.18-0.17c-0.05-0.08-0.08-0.16-0.08-0.23
		c0-0.12,0.05-0.3,0.16-0.53c0.07-0.09,0.12-0.18,0.16-0.27l5.76-10.95c0.08-0.16,0.14-0.28,0.19-0.36
		c0.05-0.09,0.09-0.15,0.12-0.21c0.03-0.05,0.07-0.09,0.1-0.12c0.03-0.03,0.08-0.05,0.13-0.08c0.09-0.07,0.18-0.1,0.26-0.12
		c0.09-0.01,0.29-0.02,0.6-0.02h5.94c0.16,0,0.28,0,0.37,0c0.08,0,0.15,0,0.2,0.01c0.05,0.01,0.08,0.02,0.11,0.03
		c0.02,0.01,0.05,0.03,0.08,0.06c0.13,0.08,0.2,0.25,0.22,0.51v0.29l0.47,10.95l0,0.31c0,0.38-0.14,0.66-0.41,0.82
		c-0.09,0.05-0.18,0.09-0.27,0.1c-0.08,0.01-0.28,0.02-0.58,0.02h-3.11c-0.31,0-0.51-0.01-0.59-0.02c-0.08-0.01-0.15-0.05-0.22-0.12
		c-0.07-0.07-0.11-0.13-0.12-0.21c-0.01-0.07-0.02-0.26-0.02-0.58v-1.2L135.73,40.18L135.73,40.18z M139.43,32.18l-0.1,0.28
		l-0.65,1.4c-0.05,0.11-0.09,0.2-0.13,0.28c-0.03,0.08-0.07,0.15-0.1,0.23c-0.03,0.07-0.07,0.16-0.12,0.25
		c-0.05,0.1-0.11,0.22-0.19,0.36l-0.96,1.93h2.24l0-2.67c0-0.29,0.01-0.59,0.02-0.91c0.01-0.31,0.04-0.69,0.08-1.14H139.43
		L139.43,32.18z"/>
	<path fill="#E51B2B" d="M46.89,22.46l0.01-2.16l0.92,0c0.23,0,0.4,0.02,0.5,0.06c0.11,0.04,0.19,0.11,0.25,0.21
		c0.06,0.1,0.09,0.21,0.09,0.34c0,0.16-0.05,0.3-0.14,0.4c-0.1,0.1-0.24,0.17-0.43,0.2c0.09,0.06,0.17,0.12,0.23,0.18
		c0.06,0.07,0.14,0.18,0.25,0.35l0.26,0.43l-0.52,0l-0.31-0.47c-0.11-0.17-0.19-0.27-0.23-0.32c-0.04-0.05-0.08-0.08-0.13-0.09
		c-0.05-0.02-0.12-0.03-0.22-0.03h-0.09l0,0.9L46.89,22.46L46.89,22.46z M47.33,21.21h0.32c0.21,0,0.34-0.01,0.39-0.02
		c0.05-0.02,0.09-0.05,0.12-0.09c0.03-0.04,0.05-0.1,0.05-0.16c0-0.07-0.02-0.13-0.06-0.18c-0.04-0.04-0.09-0.07-0.16-0.08
		c-0.04,0-0.14-0.01-0.32-0.01h-0.34L47.33,21.21L47.33,21.21z"/>
	<g>
		<path fill="#E51B2B" d="M167.16,11.42c-0.95,0.01-1.71,0.78-1.7,1.72c0.01,0.95,0.78,1.71,1.72,1.7c0.95-0.01,1.71-0.78,1.71-1.72
			C168.88,12.18,168.11,11.42,167.16,11.42z M167.18,14.52c-0.76,0-1.38-0.61-1.38-1.37c0-0.76,0.61-1.38,1.37-1.39
			c0.76,0,1.38,0.61,1.39,1.37C168.56,13.89,167.94,14.51,167.18,14.52z"/>
		<path fill="#E51B2B" d="M166.39,14.13l-0.01-1.96l0.84,0c0.21,0,0.36,0.02,0.46,0.05c0.09,0.03,0.17,0.1,0.23,0.19
			c0.06,0.09,0.09,0.19,0.09,0.31c0,0.15-0.04,0.27-0.13,0.37c-0.09,0.1-0.22,0.16-0.39,0.18c0.08,0.05,0.16,0.1,0.21,0.16
			c0.06,0.06,0.13,0.17,0.23,0.32l0.24,0.38l-0.48,0l-0.29-0.43c-0.1-0.15-0.17-0.25-0.21-0.29c-0.04-0.04-0.08-0.07-0.12-0.08
			c-0.04-0.02-0.11-0.02-0.2-0.02l-0.08,0l0,0.82L166.39,14.13L166.39,14.13z M166.78,13l0.29,0c0.19,0,0.31-0.01,0.36-0.03
			c0.05-0.02,0.08-0.04,0.11-0.08c0.03-0.04,0.04-0.09,0.04-0.15c0-0.07-0.02-0.12-0.05-0.16c-0.03-0.04-0.09-0.07-0.15-0.08
			c-0.03,0-0.13-0.01-0.29,0l-0.31,0L166.78,13L166.78,13z"/>
	</g>
	<path fill="#E51B2B" d="M26.26,34.4c-9.27,9.94-22.28,21.79-15.29,29.79c7.12,8.14,18.58-4.16,21.73-3.37
		c13.12,3.28,20.74-4.87,0.25-28.6C31.09,30.04,29.94,30.47,26.26,34.4L26.26,34.4z"/>
	<path fill="#E51B2B" d="M34.53,30.16c4.38,3.02,11.38,8.81,15.55,6.07c4.68-3.07-1.54-7.57-1.54-7.57s0.38-3.09-3.1-4.09
		c-3.92-1.13-8.39,0.82-10.73,2.38C32.51,28.43,33.06,29.15,34.53,30.16L34.53,30.16z"/>
	<path fill="#E51B2B" d="M27.54,27.32c0,0-11.26-7.42-20.73-5.71c-3.17,0.57-5.2,2.99-5.01,5.9c0.19,2.87,2.57,3.92,2.57,3.92
		s-2.04,7.79,5.32,9.12c4.47,0.81,7.63-2.75,13.59-7.32C27.78,29.79,29.94,29.18,27.54,27.32L27.54,27.32z"/>
	<path fill="#E51B2B" d="M38.52,10.82c-2.19-3.49-6.23-1.32-6.26-1.36c-1.48-1.86-9.2-6.12-12.65,0.43
		c-3.11,5.91,3.26,12.01,8.25,14.76c1.18,0.65,2.45,1.17,3.35,1.27c1.02,0.12,1.73-0.51,2.99-1.83
		C37.28,20.86,40.73,14.35,38.52,10.82L38.52,10.82z M29.52,19.58c-0.83-1.87-0.99-3.61-0.99-3.61s4.83,1.49,8,0.74
		C36.54,16.71,32.98,27.41,29.52,19.58L29.52,19.58z"/>
	<path fill="#E51B2B" d="M17.07,4.05c-0.12-0.86-0.01-1.68,0.94-1.68c0.95,0,6.73-0.12,8.79,0.25c0.59,0.11,0.64,0.53,0.72,1.03
		c0.08,0.5,0.12,1.29-0.29,1.32c-0.41,0.03-3.9,0.14-6.11,0.4c-2.21,0.25-2.82,0.37-3.09,0.44C17.74,5.87,17.35,6.13,17.07,4.05
		L17.07,4.05z"/>
	<path fill="#E51B2B" d="M36.8,5.59c0,0-0.54,0.61-0.63,0.83c-0.09,0.21-0.03,0.29,0.28,0.43c0.31,0.14,3.63,1.97,4.47,2.51
		c0.34,0.21,0.24,0.15,0.44-0.05c0.2-0.2,1.01-0.88,0.46-1.43C41.27,7.32,39,6.11,37.04,5.54C37.04,5.54,36.9,5.46,36.8,5.59
		L36.8,5.59z"/>
	<path fill="#E51B2B" d="M49.65,21.38c0-1.04-0.84-1.89-1.88-1.89c-1.04,0-1.89,0.84-1.89,1.88c0,1.04,0.84,1.89,1.88,1.89
		C48.8,23.26,49.64,22.42,49.65,21.38L49.65,21.38z M49.28,21.38c0,0.84-0.68,1.51-1.52,1.51c-0.84,0-1.51-0.68-1.51-1.52
		c0-0.84,0.68-1.51,1.52-1.51C48.61,19.86,49.28,20.54,49.28,21.38L49.28,21.38z"/>
</g>
</svg>
