<?xml version="1.0" encoding="utf-8"?>
<!-- Generator: Adobe Illustrator 25.0.0, SVG Export Plug-In . SVG Version: 6.00 Build 0)  -->
<svg version="1.1" id="Layer_1" xmlns="http://www.w3.org/2000/svg" xmlns:xlink="http://www.w3.org/1999/xlink" x="0px" y="0px"
	 viewBox="0 0 97.4 20.4" enable-background="new 0 0 97.4 20.4" xml:space="preserve">
<g>
	<path fill="#FFFFFF" d="M95,5.4h0.2c0.1,0,0.2,0,0.2,0c0,0,0,0,0.1,0c0,0,0,0,0-0.1c0,0,0-0.1,0-0.1c0,0,0,0-0.1,0c0,0-0.1,0-0.1,0
		H95L95,5.4z M94.8,6l0-1l0.4,0c0.1,0,0.2,0,0.2,0c0,0,0.1,0.1,0.1,0.1c0,0,0,0.1,0,0.2c0,0.1,0,0.1-0.1,0.2c0,0-0.1,0.1-0.2,0.1
		c0,0,0.1,0.1,0.1,0.1c0,0,0.1,0.1,0.1,0.2L95.7,6h-0.2l-0.1-0.2c-0.1-0.1-0.1-0.1-0.1-0.1c0,0,0,0-0.1,0c0,0-0.1,0-0.1,0h0V6H94.8z
		"/>
	<path fill="#FFFFFF" d="M15.6,7.6h0.2c0.1,0,0.2,0,0.2,0c0,0,0,0,0.1,0c0,0,0,0,0-0.1c0,0,0-0.1,0-0.1c0,0,0,0-0.1,0
		c0,0-0.1,0-0.1,0h-0.2V7.6z M15.4,8.1l0-1l0.4,0c0.1,0,0.2,0,0.2,0c0,0,0.1,0.1,0.1,0.1c0,0,0,0.1,0,0.2c0,0.1,0,0.1-0.1,0.2
		c0,0-0.1,0.1-0.2,0.1c0,0,0.1,0.1,0.1,0.1c0,0,0.1,0.1,0.1,0.2l0.1,0.2H16l-0.1-0.2c-0.1-0.1-0.1-0.1-0.1-0.1c0,0,0,0-0.1,0
		c0,0-0.1,0-0.1,0h0l0,0.4H15.4z"/>
	<path fill="#FFFFFF" d="M7.9,10.1c-2.6,2.8-6.3,6.2-4.3,8.4c2,2.3,5.3-1.2,6.1-1c3.7,0.9,5.9-1.4,0.1-8.1C9.2,8.8,8.9,8.9,7.9,10.1
		"/>
	<path fill="#FFFFFF" d="M10.2,8.9c1.2,0.9,3.2,2.5,4.4,1.7c1.3-0.9-0.4-2.1-0.4-2.1s0.1-0.9-0.9-1.2c-1.1-0.3-2.4,0.2-3,0.7
		C9.6,8.4,9.8,8.6,10.2,8.9"/>
	<path fill="#FFFFFF" d="M8.2,8.1c0,0-3.2-2.1-5.9-1.6C1.5,6.6,0.9,7.3,0.9,8.1C1,8.9,1.7,9.2,1.7,9.2s-0.6,2.2,1.5,2.6
		C4.4,12,5.3,11,7,9.7C8.3,8.8,8.9,8.6,8.2,8.1"/>
	<path fill="#FFFFFF" d="M8.8,5.9c-0.2-0.5-0.3-1-0.3-1S9.9,5.3,10.8,5C10.8,5,9.8,8.1,8.8,5.9 M11.3,3.4C10.7,2.4,9.6,3,9.6,3
		C9.1,2.5,7,1.3,6,3.1C5.1,4.8,6.9,6.5,8.3,7.3C8.7,7.5,9,7.6,9.3,7.7c0.3,0,0.5-0.1,0.8-0.5C11,6.2,12,4.4,11.3,3.4"/>
	<path fill="#FFFFFF" d="M5.3,1.5c0-0.2,0-0.5,0.3-0.5C5.8,1,7.4,0.9,8,1c0.2,0,0.2,0.2,0.2,0.3c0,0.1,0,0.4-0.1,0.4
		C8,1.7,7,1.8,6.4,1.8C5.8,1.9,5.6,1.9,5.5,1.9C5.5,2,5.3,2,5.3,1.5"/>
	<path fill="#FFFFFF" d="M10.8,1.9c0,0-0.2,0.2-0.2,0.2c0,0.1,0,0.1,0.1,0.1c0.1,0,1,0.6,1.3,0.7c0.1,0.1,0.1,0,0.1,0
		c0.1-0.1,0.3-0.3,0.1-0.4C12.1,2.4,11.5,2,10.8,1.9C10.9,1.9,10.9,1.9,10.8,1.9"/>
	<path fill="#FFFFFF" d="M21.2,12.9c0,0.1-0.1,0.2-0.1,0.2c0,0,0,0.1-0.1,0.1c-0.1,0.1-0.1,0.1-0.2,0.1c0,0,0,0,0,0c0,0,0,0-0.1,0
		c0,0-0.1,0-0.2,0c-0.1,0-0.2,0-0.3,0c-0.1,0-0.3,0-0.4,0c-0.2,0-0.3,0-0.5,0c-0.4,0-0.7,0.1-0.7,0.4c0,0.2,0.2,0.3,0.5,0.3
		c0.4,0,0.6,0,0.8,0c0.2,0,0.4,0.1,0.5,0.1c0.3,0.1,0.4,0.4,0.4,0.8c0,0.1,0,0.3,0,0.4c0,0.1-0.1,0.3-0.1,0.4
		c-0.1,0.1-0.1,0.3-0.2,0.4c-0.1,0.1-0.2,0.2-0.2,0.3c-0.4,0.4-1.1,0.6-2,0.6c-0.3,0-0.6,0-0.9,0c-0.3,0-0.6-0.1-1-0.1
		c-0.1,0-0.2-0.1-0.2-0.1c0,0-0.1-0.1-0.1-0.1c0,0,0,0,0,0c0,0,0,0,0,0c0,0,0,0,0-0.1c0,0,0-0.1,0-0.1l0.1-0.4c0-0.1,0-0.2,0.1-0.2
		c0,0,0-0.1,0.1-0.1c0.1-0.1,0.1-0.1,0.2-0.1c0,0,0.1,0,0.1,0c0,0,0.1,0,0.3,0c0.1,0,0.3,0,0.5,0.1c0.2,0,0.4,0,0.7,0
		c0.2,0,0.3,0,0.3,0c0.1,0,0.2-0.1,0.2-0.2c0.1-0.1,0.1-0.1,0.1-0.2c0-0.1,0-0.2-0.1-0.2c-0.1,0-0.2-0.1-0.3-0.1c-0.2,0-0.4,0-0.6,0
		c-0.2,0-0.3,0-0.4,0c-0.2,0-0.4-0.1-0.5-0.3c-0.1-0.2-0.2-0.4-0.2-0.7c0-0.2,0-0.4,0.1-0.5c0-0.2,0.1-0.4,0.2-0.5
		c0.1-0.2,0.2-0.3,0.2-0.4c0.1-0.1,0.2-0.2,0.3-0.3c0.4-0.3,1.1-0.5,1.9-0.5c0.2,0,0.3,0,0.5,0c0.2,0,0.4,0,0.6,0
		c0.2,0,0.4,0,0.5,0.1c0.2,0,0.3,0,0.4,0.1c0.1,0,0.1,0.1,0.1,0.2c0,0,0,0.1,0,0.1l0,0.1L21.2,12.9z"/>
	<path fill="#FFFFFF" d="M23.7,14.3h0.2c0.1,0,0.3,0,0.4,0c0.1,0,0.2,0,0.3,0c0.1,0,0.1-0.1,0.2-0.1c0,0,0.1-0.1,0.1-0.1
		c0.1-0.1,0.1-0.3,0.1-0.5c0-0.1-0.1-0.2-0.2-0.3c0,0-0.1,0-0.1,0c0,0-0.1,0-0.1,0c0,0-0.1,0-0.2,0c-0.1,0-0.2,0-0.3,0h-0.2
		L23.7,14.3z M25.2,11.8c0.2,0,0.4,0,0.5,0c0.1,0,0.2,0,0.3,0c0.1,0,0.2,0,0.2,0c0.1,0,0.1,0,0.2,0.1c0.2,0.1,0.4,0.2,0.5,0.3
		c0.1,0.2,0.2,0.4,0.2,0.6c0,0.2,0,0.4-0.1,0.6c0,0.2-0.1,0.4-0.2,0.5c-0.1,0.2-0.2,0.3-0.3,0.4c-0.1,0.1-0.3,0.2-0.4,0.3
		c-0.1,0.1-0.2,0.1-0.4,0.1c-0.1,0-0.3,0.1-0.5,0.1c0.2,0.3,0.3,0.5,0.4,0.8c0.1,0.2,0.2,0.4,0.3,0.5l0.1,0.3c0,0.1,0.1,0.1,0.1,0.2
		c0,0,0,0.1,0,0.1c0,0.1,0,0.1-0.1,0.2c0,0.1-0.1,0.1-0.1,0.1c0,0,0,0-0.1,0c0,0,0,0-0.1,0c0,0,0,0-0.1,0c0,0-0.1,0-0.1,0l-1.3,0
		c-0.1,0-0.1,0-0.2,0c0,0-0.1,0-0.1,0c0,0-0.1,0-0.1-0.1c0,0,0-0.1-0.1-0.2L23.7,16l-0.1-0.2l-0.2-0.5c0,0,0-0.1,0-0.1
		c0,0,0-0.1,0-0.1l0,0c0,0,0,0.1,0,0.2c0,0.1,0,0.2,0,0.3c0,0.1,0,0.2-0.1,0.3c0,0.1,0,0.2-0.1,0.3l-0.1,0.3c0,0.1,0,0.1,0,0.2
		c0,0,0,0.1,0,0.1c0,0,0,0,0,0.1c0,0,0,0-0.1,0c0,0,0,0-0.1,0c0,0,0,0-0.1,0c0,0-0.1,0-0.1,0c0,0-0.1,0-0.2,0l-1.2,0
		c-0.1,0-0.1,0-0.1,0c0,0-0.1,0-0.1,0c0,0,0,0,0,0c0,0,0,0,0,0c0,0-0.1,0-0.1-0.1c0,0,0-0.1,0-0.1c0,0,0-0.1,0-0.1c0,0,0-0.1,0-0.2
		l1-4.3c0-0.1,0.1-0.2,0.1-0.2c0,0,0-0.1,0.1-0.1c0,0,0.1-0.1,0.1-0.1c0,0,0.1,0,0.3,0L25.2,11.8z"/>
	<path fill="#FFFFFF" d="M29.5,14c0.1,0,0.2,0,0.3,0c0.1,0,0.1,0,0.2,0c0.1,0,0.2,0,0.3,0c0.1,0,0.1,0,0.2,0c0,0,0.1,0,0.1,0
		c0,0,0.1,0,0.1-0.1c0.2-0.1,0.3-0.3,0.3-0.5c0-0.1-0.1-0.2-0.2-0.3c0,0-0.1,0-0.2,0c-0.1,0-0.2,0-0.3,0h-0.6L29.5,14z M29.1,15.8
		l0.7,0c0.1,0,0.2,0,0.3,0c0.1,0,0.1,0,0.2-0.1c0.1,0,0.2-0.1,0.2-0.2c0.1-0.1,0.1-0.2,0.1-0.3c0-0.1-0.1-0.2-0.1-0.3
		c-0.1,0-0.1,0-0.2,0c-0.1,0-0.2,0-0.4,0h-0.6L29.1,15.8z M31.5,14.4c0.1,0,0.2,0,0.2,0c0.1,0,0.1,0,0.2,0c0,0,0.1,0,0.1,0
		c0,0,0.1,0,0.1,0.1c0.2,0.1,0.3,0.4,0.3,0.6c0,0.2,0,0.3-0.1,0.5c-0.1,0.2-0.1,0.3-0.2,0.5c-0.1,0.1-0.2,0.3-0.3,0.4
		c-0.1,0.1-0.3,0.2-0.4,0.3c-0.1,0.1-0.3,0.1-0.5,0.1c-0.2,0-0.5,0-0.8,0l-3,0c-0.1,0-0.1,0-0.1,0c0,0-0.1,0-0.1,0c0,0,0,0,0,0
		c0,0,0,0,0,0c0,0-0.1,0-0.1-0.1c0,0,0-0.1,0-0.1c0,0,0,0,0-0.1c0,0,0-0.1,0-0.2l1-4.3c0-0.1,0.1-0.2,0.1-0.2c0,0,0-0.1,0.1-0.1
		c0,0,0.1-0.1,0.1-0.1c0,0,0.1,0,0.3,0l2.8,0c0.2,0,0.4,0,0.5,0c0.1,0,0.3,0,0.4,0c0.1,0,0.2,0,0.3,0.1c0.1,0,0.1,0.1,0.2,0.1
		c0.2,0.1,0.3,0.4,0.3,0.7c0,0.1,0,0.3,0,0.4c0,0.1-0.1,0.3-0.1,0.4c-0.1,0.1-0.1,0.2-0.2,0.3c-0.1,0.1-0.2,0.2-0.2,0.3
		c-0.1,0.1-0.2,0.1-0.3,0.2C31.9,14.2,31.7,14.3,31.5,14.4L31.5,14.4z"/>
	<path fill="#FFFFFF" d="M34.8,16.5c0,0.1,0,0.1,0,0.2c0,0,0,0.1,0,0.1c0,0,0,0,0,0.1c0,0,0,0-0.1,0c0,0-0.1,0.1-0.1,0.1
		c0,0-0.1,0-0.3,0L33,17c-0.1,0-0.1,0-0.1,0c0,0-0.1,0-0.1,0c0,0,0,0,0,0c0,0,0,0,0,0c0,0-0.1,0-0.1-0.1c0,0,0-0.1,0-0.1
		c0,0,0-0.1,0-0.1c0,0,0-0.1,0-0.2l1-4.3c0-0.1,0-0.1,0-0.2c0,0,0-0.1,0-0.1c0,0,0,0,0-0.1c0,0,0,0,0.1,0c0,0,0.1-0.1,0.1-0.1
		c0,0,0.1,0,0.3,0l1.2,0c0.1,0,0.2,0,0.2,0c0,0,0.1,0,0.1,0c0.1,0,0.1,0.1,0.1,0.2c0,0,0,0,0,0.1c0,0,0,0.1,0,0.2L34.8,16.5z"/>
	<path fill="#FFFFFF" d="M38.9,15.4c0,0.2-0.1,0.4-0.1,0.5c-0.1,0.1-0.1,0.3-0.2,0.4c-0.1,0.1-0.2,0.2-0.2,0.3
		c-0.1,0.1-0.2,0.2-0.3,0.2C37.7,17,37.2,17,36.7,17c-0.2,0-0.5,0-0.7-0.1c-0.2,0-0.4-0.1-0.6-0.1c-0.1,0-0.1-0.1-0.1-0.2
		c0,0,0,0,0,0c0,0,0,0,0,0c0,0,0,0,0-0.1c0,0,0-0.1,0-0.1l0.1-0.5c0-0.1,0-0.2,0.1-0.2c0,0,0-0.1,0.1-0.1c0.1-0.1,0.1-0.1,0.2-0.1
		c0,0,0,0,0,0c0,0,0.1,0,0.1,0c0,0,0.1,0,0.1,0c0,0,0.1,0,0.1,0c0.2,0,0.3,0,0.4,0c0.1,0,0.2-0.1,0.3-0.1c0.1-0.1,0.1-0.2,0.2-0.3
		c0.1-0.1,0.1-0.3,0.2-0.5c0.1-0.4,0.2-0.8,0.2-1.1c0.1-0.3,0.1-0.5,0.2-0.7c0-0.2,0.1-0.3,0.1-0.4c0-0.1,0-0.2,0.1-0.2
		c0,0,0-0.1,0-0.1c0,0,0,0,0,0c0,0,0-0.1,0.1-0.1c0,0,0.1,0,0.1-0.1c0,0,0.1,0,0.1,0c0,0,0.1,0,0.2,0l1.2,0c0.1,0,0.2,0,0.2,0
		c0,0,0.1,0,0.1,0c0,0,0.1,0,0.1,0.1c0,0,0,0.1,0,0.1c0,0,0,0.1,0,0.1c0,0,0,0.1,0,0.2L38.9,15.4z"/>
	<path fill="#FFFFFF" d="M42,13.9l2,0c0.1,0,0.2,0,0.2,0c0,0,0.1,0,0.1,0c0.1,0,0.1,0.1,0.1,0.2c0,0,0,0.1,0,0.1l0,0.1l-0.1,0.3
		c0,0.1,0,0.1,0,0.2c0,0,0,0.1,0,0.1c0,0,0,0,0,0.1c0,0,0,0-0.1,0c0,0-0.1,0.1-0.1,0.1c0,0-0.1,0-0.3,0l-2,0l-0.1,0.6l2,0
		c0.1,0,0.2,0,0.2,0c0,0,0.1,0,0.1,0c0,0,0.1,0,0.1,0.1c0,0,0,0.1,0,0.1c0,0,0,0.1,0,0.1c0,0,0,0.1,0,0.2l-0.1,0.4
		c0,0.1-0.1,0.2-0.1,0.2c0,0,0,0.1-0.1,0.1c0,0-0.1,0.1-0.1,0.1c0,0-0.1,0-0.3,0l-3.5,0c-0.1,0-0.1,0-0.1,0c0,0-0.1,0-0.1,0
		c0,0,0,0,0,0c0,0,0,0,0,0c0,0-0.1,0-0.1-0.1c0,0,0-0.1,0-0.1c0,0,0,0,0-0.1c0,0,0-0.1,0-0.2l1-4.3c0-0.1,0-0.1,0-0.2
		c0,0,0-0.1,0-0.1c0,0,0,0,0-0.1c0,0,0,0,0.1,0c0,0,0.1-0.1,0.1-0.1c0,0,0.1,0,0.3,0l3.5,0c0.1,0,0.2,0,0.2,0c0,0,0.1,0,0.1,0
		c0.1,0,0.1,0.1,0.1,0.2c0,0,0,0,0,0.1c0,0,0,0.1,0,0.2l-0.1,0.6c0,0.1-0.1,0.2-0.1,0.2c0,0,0,0.1-0.1,0.1c0,0-0.1,0.1-0.1,0.1
		c0,0-0.1,0-0.3,0l-2,0L42,13.9z"/>
	<path fill="#FFFFFF" d="M20,8.3h0.2c0.3,0,0.5,0,0.7-0.1C21,8.1,21.1,8,21.3,7.8c0-0.1,0.1-0.1,0.1-0.2c0-0.1,0.1-0.2,0.1-0.3
		c0-0.1,0.1-0.2,0.1-0.3c0-0.1,0-0.2,0-0.3c0-0.1,0-0.2-0.1-0.3c-0.1-0.1-0.1-0.1-0.2-0.2c-0.1,0-0.1,0-0.2,0c-0.1,0-0.2,0-0.3,0
		h-0.3L20,8.3z M21.5,4.6c0.2,0,0.4,0,0.5,0c0.2,0,0.3,0,0.4,0c0.1,0,0.2,0,0.3,0.1c0.1,0,0.2,0.1,0.3,0.1c0.2,0.1,0.3,0.3,0.5,0.5
		c0.1,0.2,0.2,0.5,0.2,0.7c0,0.2,0,0.3,0,0.5c0,0.2-0.1,0.4-0.1,0.6c-0.1,0.2-0.1,0.4-0.2,0.6c-0.1,0.2-0.2,0.4-0.2,0.5
		c-0.4,0.7-0.9,1.2-1.6,1.4c-0.2,0.1-0.5,0.1-1,0.1c-0.5,0-1.1,0-1.9,0c-0.2,0-0.4,0-0.5,0c-0.1,0-0.2,0-0.3,0c-0.1,0-0.1,0-0.1-0.1
		c0,0,0-0.1,0-0.1c0,0,0,0,0-0.1c0,0,0-0.1,0-0.2l1-4.3c0-0.1,0.1-0.2,0.1-0.2c0,0,0-0.1,0.1-0.1c0,0,0.1-0.1,0.1-0.1
		c0,0,0.1,0,0.3,0L21.5,4.6z"/>
	<path fill="#FFFFFF" d="M26.1,7.1h0.2c0.1,0,0.3,0,0.4,0c0.1,0,0.2,0,0.3,0C27,7,27.1,7,27.1,6.9c0,0,0.1-0.1,0.1-0.1
		c0.1-0.1,0.1-0.3,0.1-0.5c0-0.1-0.1-0.2-0.2-0.3c0,0-0.1,0-0.1,0c0,0-0.1,0-0.1,0c0,0-0.1,0-0.2,0c-0.1,0-0.2,0-0.3,0h-0.2
		L26.1,7.1z M27.6,4.6c0.2,0,0.4,0,0.5,0c0.1,0,0.2,0,0.3,0c0.1,0,0.2,0,0.2,0c0.1,0,0.1,0,0.2,0.1c0.2,0.1,0.4,0.2,0.5,0.3
		c0.1,0.2,0.2,0.4,0.2,0.6c0,0.2,0,0.4-0.1,0.6c0,0.2-0.1,0.4-0.2,0.5C29.2,6.8,29.1,7,29,7.1c-0.1,0.1-0.3,0.2-0.4,0.3
		c-0.1,0.1-0.2,0.1-0.4,0.1c-0.1,0-0.3,0.1-0.5,0.1c0.2,0.3,0.3,0.5,0.4,0.8c0.1,0.2,0.2,0.4,0.3,0.5l0.1,0.3c0,0.1,0.1,0.1,0.1,0.2
		c0,0,0,0.1,0,0.1c0,0.1,0,0.1-0.1,0.2c0,0.1-0.1,0.1-0.1,0.1c0,0,0,0-0.1,0c0,0,0,0-0.1,0c0,0,0,0-0.1,0c0,0-0.1,0-0.1,0l-1.3,0
		c-0.1,0-0.1,0-0.2,0c0,0-0.1,0-0.1,0c0,0-0.1,0-0.1-0.1c0,0,0-0.1-0.1-0.2l-0.3-0.7l-0.1-0.2l-0.2-0.5c0,0,0-0.1,0-0.1
		c0,0,0-0.1,0-0.1h0c0,0,0,0.1,0,0.2c0,0.1,0,0.2,0,0.3c0,0.1,0,0.2-0.1,0.3c0,0.1,0,0.2-0.1,0.3l-0.1,0.3c0,0.1,0,0.1,0,0.2
		c0,0,0,0.1,0,0.1c0,0,0,0,0,0.1c0,0,0,0-0.1,0c0,0,0,0-0.1,0c0,0,0,0-0.1,0c0,0-0.1,0-0.1,0c0,0-0.1,0-0.2,0l-1.2,0
		c-0.1,0-0.1,0-0.1,0c0,0-0.1,0-0.1,0c0,0,0,0,0,0c0,0,0,0,0,0c0,0-0.1,0-0.1-0.1c0,0,0-0.1,0-0.1c0,0,0-0.1,0-0.1c0,0,0-0.1,0-0.2
		l1-4.3c0-0.1,0.1-0.2,0.1-0.2c0,0,0-0.1,0.1-0.1c0,0,0.1-0.1,0.1-0.1c0,0,0.1,0,0.3,0L27.6,4.6z"/>
	<path fill="#FFFFFF" d="M33.4,8.3c0.1,0,0.2,0,0.2,0c0,0,0.1,0,0.1,0c0,0,0.1,0,0.1,0.1c0,0,0,0.1,0,0.1c0,0,0,0.1,0,0.1
		c0,0,0,0.1,0,0.2l-0.1,0.6c0,0.1-0.1,0.2-0.1,0.2c0,0,0,0.1-0.1,0.1c0,0-0.1,0.1-0.1,0.1c0,0-0.1,0-0.3,0l-3.5,0
		c-0.1,0-0.1,0-0.1,0c0,0-0.1,0-0.1,0c0,0,0,0,0,0c0,0,0,0,0,0c0,0-0.1,0-0.1-0.1c0,0,0-0.1,0-0.1c0,0,0-0.1,0-0.1c0,0,0-0.1,0-0.2
		l0.2-0.7c0-0.1,0-0.2,0.1-0.2c0,0,0,0,0-0.1c0,0,0,0,0,0c0,0,0,0,0,0c0,0,0,0,0.1-0.1c0,0,0.1-0.1,0.1-0.1l2.5-2l-1.8,0
		c-0.1,0-0.2,0-0.2,0c0,0-0.1,0-0.1,0c0,0-0.1,0-0.1-0.1c0,0,0-0.1,0-0.1c0,0,0-0.1,0-0.1l0-0.1L30.3,5c0-0.1,0-0.1,0-0.2
		c0,0,0-0.1,0-0.1c0,0,0,0,0-0.1c0,0,0,0,0,0c0,0,0.1-0.1,0.1-0.1c0,0,0.1,0,0.3,0l3.5,0c0.1,0,0.2,0,0.2,0c0,0,0.1,0,0.1,0
		c0,0,0.1,0,0.1,0.1c0,0,0,0.1,0,0.1c0,0,0,0,0,0.1c0,0,0,0.1,0,0.2l-0.2,1l0,0.1c0,0,0,0.1,0,0.1c0,0,0,0.1,0,0.1
		c0,0,0,0.1-0.1,0.1c0,0-0.1,0.1-0.1,0.1l-2.3,1.8L33.4,8.3z"/>
	<path fill="#FFFFFF" d="M37.7,5.8l0,0.1l-0.3,0.6c0,0,0,0.1-0.1,0.1c0,0,0,0.1,0,0.1c0,0,0,0.1,0,0.1c0,0,0,0.1-0.1,0.1l-0.4,0.8
		l0.9,0V6.6c0-0.1,0-0.2,0-0.4C37.7,6.1,37.7,5.9,37.7,5.8L37.7,5.8z M36.2,8.9L36,9.4c-0.1,0.1-0.1,0.2-0.1,0.2
		c0,0-0.1,0.1-0.1,0.1c0,0,0,0-0.1,0c0,0,0,0-0.1,0c0,0-0.1,0-0.1,0c0,0-0.1,0-0.1,0h-1.2c-0.1,0-0.2,0-0.2,0c0,0-0.1,0-0.1,0
		c0,0,0,0-0.1-0.1c0,0,0-0.1,0-0.1c0,0,0-0.1,0.1-0.2c0,0,0-0.1,0.1-0.1l2.3-4.3c0-0.1,0.1-0.1,0.1-0.1c0,0,0-0.1,0-0.1c0,0,0,0,0,0
		c0,0,0,0,0,0c0,0,0.1,0,0.1,0c0,0,0.1,0,0.2,0l2.4,0c0.1,0,0.1,0,0.1,0c0,0,0.1,0,0.1,0c0,0,0,0,0,0c0,0,0,0,0,0
		c0.1,0,0.1,0.1,0.1,0.2v0.1l0.2,4.3l0,0.1c0,0.2-0.1,0.3-0.2,0.3c0,0-0.1,0-0.1,0c0,0-0.1,0-0.2,0H38c-0.1,0-0.2,0-0.2,0
		c0,0-0.1,0-0.1,0c0,0,0-0.1,0-0.1c0,0,0-0.1,0-0.2V8.9L36.2,8.9z"/>
	<path fill="#FFFFFF" d="M42.4,8.3c0-0.1,0.1-0.3,0.1-0.4c0-0.1,0.1-0.3,0.2-0.5C42.8,7.2,42.9,7,43,6.8c0.1-0.2,0.2-0.5,0.4-0.8
		l0.5-1c0.1-0.1,0.1-0.2,0.1-0.2c0,0,0.1-0.1,0.1-0.1c0,0,0.1,0,0.1,0c0,0,0.1,0,0.2,0h1.1c0.1,0,0.2,0,0.2,0c0,0,0.1,0,0.1,0
		c0,0,0,0,0.1,0.1c0,0,0,0.1,0,0.1c0,0,0,0,0,0.1c0,0,0,0,0,0.1c0,0,0,0,0,0.1c0,0,0,0.1-0.1,0.1l-2.2,4.3c-0.1,0.1-0.1,0.2-0.1,0.2
		c0,0-0.1,0.1-0.1,0.1c0,0-0.1,0-0.1,0c0,0-0.1,0-0.2,0l-2,0c-0.1,0-0.2,0-0.2,0c0,0-0.1,0-0.1,0c0,0,0,0,0-0.1c0,0,0-0.1,0-0.2
		l-0.2-4.3V4.9c0-0.1,0.1-0.2,0.2-0.3c0,0,0.1,0,0.1,0c0,0,0.1,0,0.2,0l1.2,0c0.1,0,0.1,0,0.2,0c0,0,0.1,0,0.1,0c0,0,0,0,0.1,0
		c0,0,0,0,0,0.1c0,0,0,0.1,0,0.1l0,1.6c0,0.3,0,0.6,0,0.9C42.5,7.6,42.5,8,42.4,8.3L42.4,8.3z"/>
	<path fill="#FFFFFF" d="M47.7,6.9c0,0.1,0,0.3-0.1,0.5c0,0.2-0.1,0.5-0.2,0.7l-0.3,1.2c0,0.1,0,0.1,0,0.2c0,0,0,0.1,0,0.1
		c0,0,0,0,0,0.1c0,0,0,0-0.1,0c0,0,0,0-0.1,0c0,0,0,0-0.1,0c0,0-0.1,0-0.1,0c0,0-0.1,0-0.2,0l-1.1,0c-0.1,0-0.1,0-0.1,0
		c0,0-0.1,0-0.1,0c0,0,0,0,0,0c0,0,0,0,0,0c0,0-0.1,0-0.1-0.1c0,0,0-0.1,0-0.1c0,0,0,0,0-0.1c0,0,0-0.1,0-0.2l1-4.3
		c0-0.1,0-0.1,0-0.2c0,0,0-0.1,0-0.1c0,0,0,0,0-0.1c0,0,0,0,0,0c0,0,0.1-0.1,0.1-0.1c0,0,0.1,0,0.3,0h1.6c0.1,0,0.1,0,0.2,0
		c0,0,0.1,0,0.1,0c0,0,0,0.1,0.1,0.1c0,0,0,0.1,0.1,0.2L49,5.4c0,0.2,0.1,0.3,0.1,0.4c0,0.1,0.1,0.2,0.1,0.3c0,0.1,0,0.2,0.1,0.3
		c0,0.1,0,0.3,0.1,0.4h0c0-0.1,0-0.3,0.1-0.6c0-0.2,0.1-0.5,0.2-0.8L49.8,5c0-0.1,0-0.1,0-0.2c0,0,0-0.1,0-0.1c0,0,0,0,0-0.1
		c0,0,0,0,0.1,0c0,0,0,0,0.1,0c0,0,0,0,0.1,0c0,0,0.1,0,0.1,0c0,0,0.1,0,0.2,0h1c0.1,0,0.2,0,0.2,0c0,0,0.1,0,0.1,0
		c0.1,0,0.1,0.1,0.1,0.2c0,0,0,0.1,0,0.1l0,0.1l-1,4.3c0,0.1,0,0.1,0,0.2c0,0,0,0.1,0,0.1c0,0,0,0,0,0.1c0,0,0,0-0.1,0
		c0,0-0.1,0.1-0.1,0.1c0,0-0.1,0-0.3,0l-1.3,0c-0.1,0-0.1,0-0.2,0c0,0-0.1,0-0.1,0c0,0,0,0-0.1-0.1c0,0,0-0.1-0.1-0.2l-0.2-0.9
		c0-0.1-0.1-0.2-0.1-0.4c0-0.1-0.1-0.3-0.1-0.4c0-0.1-0.1-0.3-0.1-0.4C47.8,7.2,47.8,7.1,47.7,6.9L47.7,6.9z"/>
	<path fill="#FFFFFF" d="M54.9,5.8l0,0.1l-0.3,0.6c0,0,0,0.1-0.1,0.1c0,0,0,0.1,0,0.1c0,0,0,0.1,0,0.1c0,0,0,0.1-0.1,0.1L54,7.6
		l0.9,0V6.6c0-0.1,0-0.2,0-0.4C54.9,6.1,54.9,5.9,54.9,5.8L54.9,5.8z M53.5,8.9l-0.2,0.5c-0.1,0.1-0.1,0.2-0.1,0.2
		c0,0-0.1,0.1-0.1,0.1c0,0,0,0-0.1,0c0,0,0,0-0.1,0c0,0-0.1,0-0.1,0c0,0-0.1,0-0.1,0h-1.2c-0.1,0-0.2,0-0.2,0c0,0-0.1,0-0.1,0
		c0,0-0.1,0-0.1-0.1c0,0,0-0.1,0-0.1c0,0,0-0.1,0.1-0.2c0,0,0-0.1,0.1-0.1l2.3-4.3c0-0.1,0.1-0.1,0.1-0.1c0,0,0-0.1,0-0.1
		c0,0,0,0,0,0c0,0,0,0,0.1,0c0,0,0.1,0,0.1,0c0,0,0.1,0,0.2,0l2.4,0c0.1,0,0.1,0,0.1,0c0,0,0.1,0,0.1,0c0,0,0,0,0,0c0,0,0,0,0,0
		c0.1,0,0.1,0.1,0.1,0.2v0.1L57,9.3v0.1c0,0.1-0.1,0.3-0.2,0.3c0,0-0.1,0-0.1,0c0,0-0.1,0-0.2,0l-1.2,0c-0.1,0-0.2,0-0.2,0
		c0,0-0.1,0-0.1,0c0,0,0-0.1,0-0.1c0,0,0-0.1,0-0.2V8.9L53.5,8.9z"/>
	<path fill="#FFFFFF" d="M33.1,3.3c0-0.1,0.1-0.1,0.1-0.1c0,0,0.1,0,0.1,0h0.6c0.1,0,0.2,0,0.2,0.1c0,0,0,0.1-0.1,0.2L33.5,4
		c0,0.1-0.1,0.1-0.1,0.1c0,0-0.1,0-0.1,0l-1.3,0c-0.1,0-0.1,0-0.2,0c0,0,0-0.1-0.1-0.1l-0.2-0.5c0-0.1,0-0.1,0-0.1
		c0-0.1,0.1-0.1,0.2-0.1h0.6c0.1,0,0.1,0,0.2,0c0,0,0,0.1,0.1,0.1l0.1,0.3L33.1,3.3z"/>
	<path fill="#FFFFFF" d="M63.9,8.1c0.1,0,0.2,0,0.2,0c0,0,0.1,0,0.1,0c0,0,0.1,0,0.1,0.1c0,0,0,0.1,0,0.1c0,0,0,0.1,0,0.1l0,0.1
		L64,9.4C64,9.5,64,9.6,64,9.6c0,0,0,0.1-0.1,0.1c0,0,0,0-0.1,0c0,0,0,0-0.1,0c0,0-0.1,0-0.1,0c0,0-0.1,0-0.2,0l-2.9,0
		c-0.1,0-0.1,0-0.1,0c0,0,0,0-0.1,0c0,0,0,0,0,0c0,0,0,0,0,0c0,0-0.1,0-0.1-0.1c0,0,0-0.1,0-0.1c0,0,0-0.1,0-0.1c0,0,0-0.1,0-0.2
		l1-4.3c0-0.1,0-0.1,0-0.2c0,0,0-0.1,0-0.1c0,0,0,0,0-0.1c0,0,0,0,0.1,0c0,0,0.1-0.1,0.1-0.1c0,0,0.1,0,0.3,0H63c0.1,0,0.2,0,0.2,0
		c0,0,0.1,0,0.1,0c0.1,0,0.1,0.1,0.1,0.2c0,0,0,0,0,0.1c0,0,0,0.1,0,0.2l-0.7,3.1H63.9z"/>
	<path fill="#FFFFFF" d="M70,7.8c-0.1,0.3-0.2,0.6-0.2,0.8c-0.1,0.2-0.2,0.3-0.3,0.5c-0.2,0.3-0.6,0.5-1,0.7c-0.4,0.2-1,0.2-1.6,0.2
		c-0.7,0-1.3-0.1-1.6-0.3C65,9.4,64.8,9,64.8,8.5c0-0.1,0-0.3,0-0.5c0-0.2,0.1-0.4,0.1-0.7L65.6,5c0-0.1,0-0.2,0.1-0.2
		c0,0,0-0.1,0.1-0.1c0,0,0.1-0.1,0.1-0.1c0,0,0.1,0,0.2,0h0.1l1.2,0c0.1,0,0.2,0,0.2,0c0,0,0,0,0.1,0c0.1,0,0.1,0.1,0.1,0.2
		c0,0,0,0.1,0,0.1c0,0,0,0.1,0,0.2L67,7.8c0,0.1,0,0.2-0.1,0.2c0,0.1,0,0.1,0,0.1c0,0,0,0.1,0,0.1c0,0,0,0,0,0.1
		c0,0.1,0,0.2,0.1,0.2c0.1,0.1,0.2,0.1,0.3,0.1c0.1,0,0.2,0,0.2-0.1c0.1,0,0.1-0.1,0.2-0.1c0.1-0.1,0.1-0.1,0.1-0.2
		c0-0.1,0.1-0.2,0.1-0.4l0.7-2.7c0-0.1,0-0.1,0-0.2c0,0,0-0.1,0-0.1c0,0,0,0,0-0.1c0,0,0,0,0,0c0,0,0,0,0.1,0c0,0,0,0,0.1,0
		c0,0,0.1,0,0.1,0c0,0,0.1,0,0.2,0h1.1c0.1,0,0.2,0,0.2,0c0,0,0.1,0,0.1,0c0,0,0.1,0,0.1,0.1c0,0,0,0.1,0,0.1c0,0,0,0,0,0.1
		c0,0,0,0,0,0.1l0,0.1L70,7.8z"/>
	<path fill="#FFFFFF" d="M73.6,9.3c0,0.1,0,0.1,0,0.2c0,0,0,0.1,0,0.1c0,0,0,0,0,0.1c0,0,0,0-0.1,0c0,0-0.1,0.1-0.1,0.1
		c0,0-0.1,0-0.3,0h-1.2c-0.1,0-0.1,0-0.1,0c0,0-0.1,0-0.1,0c0,0,0,0,0,0c0,0,0,0,0,0c0,0-0.1,0-0.1-0.1c0,0,0-0.1,0-0.1
		c0,0,0-0.1,0-0.1c0,0,0-0.1,0-0.2l0.7-3h-0.9c-0.1,0-0.1,0-0.1,0c0,0-0.1,0-0.1,0c0,0,0,0,0,0c0,0,0,0,0,0c0,0-0.1,0-0.1-0.1
		c0,0,0-0.1,0-0.1c0,0,0,0,0-0.1c0,0,0-0.1,0-0.2L71.2,5c0-0.1,0.1-0.2,0.1-0.2c0,0,0-0.1,0.1-0.1c0,0,0.1-0.1,0.1-0.1
		c0,0,0.1,0,0.3,0h3.8c0.1,0,0.2,0,0.2,0c0,0,0.1,0,0.1,0c0,0,0.1,0,0.1,0.1c0,0,0,0.1,0,0.1c0,0,0,0.1,0,0.1l0,0.1l-0.2,0.9
		c0,0.1-0.1,0.2-0.1,0.2c0,0,0,0.1-0.1,0.1c0,0-0.1,0.1-0.1,0.1c0,0-0.1,0-0.3,0h-0.9L73.6,9.3z"/>
	<path fill="#FFFFFF" d="M78,7.1h0.2c0.1,0,0.3,0,0.4,0c0.1,0,0.2,0,0.3,0C78.9,7,79,7,79,6.9c0.1,0,0.1-0.1,0.1-0.1
		c0.1-0.1,0.1-0.3,0.1-0.5c0-0.1-0.1-0.2-0.2-0.3c0,0-0.1,0-0.1,0C79,6,79,6,79,6c0,0-0.1,0-0.2,0c-0.1,0-0.2,0-0.3,0h-0.2L78,7.1z
		 M79.5,4.6c0.2,0,0.4,0,0.5,0c0.1,0,0.2,0,0.3,0c0.1,0,0.2,0,0.2,0c0.1,0,0.1,0,0.2,0.1C81,4.8,81.2,4.9,81.3,5
		c0.1,0.2,0.2,0.4,0.2,0.6c0,0.2,0,0.4-0.1,0.6c0,0.2-0.1,0.4-0.2,0.5C81.1,6.8,81,7,80.9,7.1c-0.1,0.1-0.3,0.2-0.4,0.3
		c-0.1,0.1-0.2,0.1-0.4,0.1c-0.1,0-0.3,0.1-0.5,0.1c0.2,0.3,0.3,0.5,0.4,0.8c0.1,0.2,0.2,0.4,0.3,0.5l0.1,0.3c0,0.1,0.1,0.1,0.1,0.2
		c0,0,0,0.1,0,0.1c0,0.1,0,0.1-0.1,0.2c0,0.1-0.1,0.1-0.1,0.1c0,0,0,0-0.1,0c0,0,0,0-0.1,0c0,0,0,0-0.1,0c0,0-0.1,0-0.1,0l-1.3,0
		c-0.1,0-0.1,0-0.2,0c0,0-0.1,0-0.1,0c0,0-0.1,0-0.1-0.1c0,0,0-0.1-0.1-0.2L78,8.8L78,8.6l-0.2-0.5c0,0,0-0.1,0-0.1c0,0,0-0.1,0-0.1
		h0c0,0,0,0.1,0,0.2c0,0.1,0,0.2,0,0.3c0,0.1,0,0.2-0.1,0.3c0,0.1,0,0.2-0.1,0.3l-0.1,0.3c0,0.1,0,0.1,0,0.2c0,0,0,0.1,0,0.1
		c0,0,0,0,0,0.1c0,0,0,0-0.1,0c0,0,0,0-0.1,0c0,0,0,0-0.1,0c0,0-0.1,0-0.1,0c0,0-0.1,0-0.2,0h-1.2c-0.1,0-0.1,0-0.1,0c0,0,0,0-0.1,0
		c0,0,0,0,0,0c0,0,0,0,0,0c0,0-0.1,0-0.1-0.1c0,0,0-0.1,0-0.1c0,0,0,0,0-0.1c0,0,0-0.1,0-0.2l1-4.3c0-0.1,0.1-0.2,0.1-0.2
		c0,0,0-0.1,0.1-0.1c0,0,0.1-0.1,0.1-0.1c0,0,0.1,0,0.3,0H79.5z"/>
	<path fill="#FFFFFF" d="M83.3,9.3c0,0.1,0,0.1,0,0.2c0,0,0,0.1,0,0.1c0,0,0,0,0,0.1c0,0,0,0-0.1,0c0,0-0.1,0.1-0.1,0.1
		c0,0-0.1,0-0.3,0h-1.2c-0.1,0-0.1,0-0.1,0c0,0-0.1,0-0.1,0c0,0,0,0,0,0c0,0,0,0,0,0c0,0-0.1,0-0.1-0.1c0,0,0-0.1,0-0.1
		c0,0,0,0,0-0.1c0,0,0-0.1,0-0.2l1-4.3c0-0.1,0-0.1,0-0.2c0,0,0-0.1,0-0.1c0,0,0,0,0-0.1c0,0,0,0,0.1,0c0,0,0.1-0.1,0.1-0.1
		c0,0,0.1,0,0.3,0H84c0.1,0,0.2,0,0.2,0c0,0,0.1,0,0.1,0c0.1,0,0.1,0.1,0.1,0.2c0,0,0,0,0,0.1c0,0,0,0.1,0,0.2L83.3,9.3z"/>
	<path fill="#FFFFFF" d="M87.5,8.2c0,0.2-0.1,0.4-0.1,0.5c-0.1,0.1-0.1,0.3-0.2,0.4c-0.1,0.1-0.1,0.2-0.2,0.3
		c-0.1,0.1-0.2,0.2-0.3,0.2c-0.4,0.2-0.8,0.3-1.4,0.3c-0.2,0-0.5,0-0.7-0.1c-0.2,0-0.5-0.1-0.6-0.1c-0.1,0-0.1-0.1-0.1-0.2
		c0,0,0,0,0,0c0,0,0,0,0,0c0,0,0,0,0-0.1c0,0,0-0.1,0-0.1l0.1-0.5c0-0.1,0-0.2,0.1-0.2c0,0,0-0.1,0.1-0.1c0.1-0.1,0.1-0.1,0.2-0.1
		c0,0,0,0,0,0c0,0,0.1,0,0.1,0c0,0,0.1,0,0.1,0c0,0,0.1,0,0.1,0c0.2,0,0.3,0,0.4,0c0.1,0,0.2-0.1,0.3-0.1c0.1-0.1,0.1-0.2,0.2-0.3
		c0.1-0.1,0.1-0.3,0.2-0.5c0.1-0.4,0.2-0.8,0.3-1.1C86,6,86,5.7,86.1,5.6c0-0.2,0.1-0.3,0.1-0.4c0-0.1,0-0.2,0.1-0.2
		c0-0.1,0-0.1,0-0.1c0,0,0,0,0,0c0,0,0-0.1,0.1-0.1c0,0,0.1,0,0.1-0.1c0,0,0.1,0,0.1,0c0,0,0.1,0,0.2,0h1.2c0.1,0,0.2,0,0.2,0
		c0,0,0.1,0,0.1,0c0,0,0.1,0,0.1,0.1c0,0,0,0.1,0,0.1c0,0,0,0.1,0,0.1c0,0,0,0.1,0,0.2L87.5,8.2z"/>
	<path fill="#FFFFFF" d="M91.5,5.8l0,0.1l-0.3,0.6c0,0,0,0.1-0.1,0.1c0,0,0,0.1,0,0.1c0,0,0,0.1,0,0.1c0,0,0,0.1-0.1,0.1l-0.4,0.8
		l0.9,0V6.6c0-0.1,0-0.2,0-0.4C91.5,6.1,91.5,5.9,91.5,5.8L91.5,5.8z M90.1,8.9l-0.2,0.5c-0.1,0.1-0.1,0.2-0.1,0.2
		c0,0-0.1,0.1-0.1,0.1c0,0,0,0-0.1,0c0,0,0,0-0.1,0c0,0-0.1,0-0.1,0c0,0-0.1,0-0.1,0h-1.2c-0.1,0-0.2,0-0.2,0c0,0-0.1,0-0.1,0
		c0,0,0,0-0.1-0.1c0,0,0-0.1,0-0.1c0,0,0-0.1,0.1-0.2c0,0,0-0.1,0.1-0.1l2.3-4.3c0-0.1,0.1-0.1,0.1-0.1c0,0,0-0.1,0-0.1c0,0,0,0,0,0
		c0,0,0,0,0.1,0c0,0,0.1,0,0.1,0c0,0,0.1,0,0.2,0l2.4,0c0.1,0,0.1,0,0.1,0c0,0,0.1,0,0.1,0c0,0,0,0,0,0c0,0,0,0,0,0
		c0.1,0,0.1,0.1,0.1,0.2v0.1l0.2,4.3v0.1c0,0.2-0.1,0.3-0.2,0.3c0,0-0.1,0-0.1,0c0,0-0.1,0-0.2,0h-1.2c-0.1,0-0.2,0-0.2,0
		c0,0-0.1,0-0.1,0c0,0,0-0.1,0-0.1c0,0,0-0.1,0-0.2l0-0.5L90.1,8.9z"/>
	<path fill="#FFFFFF" d="M16.5,7.6c0,0.4-0.3,0.7-0.7,0.7c-0.4,0-0.7-0.3-0.7-0.7c0-0.4,0.3-0.7,0.7-0.7C16.2,6.9,16.5,7.2,16.5,7.6
		 M16.7,7.6c0-0.5-0.4-0.9-0.9-0.9c-0.5,0-0.9,0.4-0.9,0.9c0,0.5,0.4,0.9,0.9,0.9C16.3,8.5,16.7,8.1,16.7,7.6"/>
	<path fill="#FFFFFF" d="M95.9,5.5c0,0.4-0.3,0.7-0.7,0.7c-0.4,0-0.7-0.3-0.7-0.7c0-0.4,0.3-0.7,0.7-0.7C95.6,4.8,95.9,5.1,95.9,5.5
		 M96.1,5.5c0-0.5-0.4-0.9-0.9-0.9c-0.5,0-0.9,0.4-0.9,0.9c0,0.5,0.4,0.9,0.9,0.9C95.7,6.4,96.1,6,96.1,5.5"/>
</g>
</svg>
