<?xml version="1.0" encoding="utf-8"?>
<!-- Generator: Adobe Illustrator 25.0.1, SVG Export Plug-In . SVG Version: 6.00 Build 0)  -->
<svg version="1.1" id="Layer_1" xmlns="http://www.w3.org/2000/svg" xmlns:xlink="http://www.w3.org/1999/xlink" x="0px" y="0px"
	 viewBox="0 0 79.7 79.6" enable-background="new 0 0 79.7 79.6" xml:space="preserve">
<g>
	<circle fill="#152238" cx="39.8" cy="39.8" r="39.5"/>
	<path fill="#FFFFFF" d="M55,25.8l-7.2-7.2c-0.8-0.8-1.8-1.2-2.9-1.2H27.5c-2.3,0-4.1,1.8-4.1,4.1V57c0,2.3,1.8,4.1,4.1,4.1h24.6
		c2.3,0,4.1-1.8,4.1-4.1V28.7C56.2,27.6,55.8,26.5,55,25.8z M53.1,27.7c0.2,0.2,0.3,0.4,0.4,0.6h-8.2v-8.2c0.2,0.1,0.5,0.2,0.6,0.4
		L53.1,27.7z M52.1,58.4H27.5c-0.8,0-1.4-0.6-1.4-1.4V21.5c0-0.8,0.6-1.4,1.4-1.4h15V29c0,1.1,0.9,2.1,2.1,2.1h8.9v26
		C53.5,57.8,52.9,58.4,52.1,58.4z M48,37.6v0.7c0,0.6-0.5,1-1,1H32.6c-0.6,0-1-0.5-1-1v-0.7c0-0.6,0.5-1,1-1H47
		C47.6,36.5,48,37,48,37.6z M48,43v0.7c0,0.6-0.5,1-1,1H32.6c-0.6,0-1-0.5-1-1V43c0-0.6,0.5-1,1-1H47C47.6,42,48,42.5,48,43z
		 M48,48.5v0.7c0,0.6-0.5,1-1,1H32.6c-0.6,0-1-0.5-1-1v-0.7c0-0.6,0.5-1,1-1H47C47.6,47.5,48,47.9,48,48.5z"/>
</g>
</svg>
