<?xml version="1.0" encoding="utf-8"?>
<!-- Generator: Adobe Illustrator 25.0.1, SVG Export Plug-In . SVG Version: 6.00 Build 0)  -->
<svg version="1.1" id="Layer_1" xmlns="http://www.w3.org/2000/svg" xmlns:xlink="http://www.w3.org/1999/xlink" x="0px" y="0px"
	 viewBox="0 0 20.6 24.6" enable-background="new 0 0 20.6 24.6" xml:space="preserve">
<path fill="#005DFF" d="M12.4,2c0.5,0,0.9,0.4,0.9,0.9v7.7h5c0.4,0,0.6,0.5,0.3,0.7L10.9,19c-0.3,0.3-0.9,0.3-1.2,0L2,11.3
	c-0.3-0.3-0.1-0.7,0.3-0.7h5V2.9C7.4,2.4,7.7,2,8.2,2H12.4 M12.4,0.3H8.2c-1.4,0-2.6,1.2-2.6,2.6v6H2.3c-1.9,0-2.9,2.3-1.5,3.7
	l7.7,7.7c1,1,2.6,1,3.6,0l7.7-7.7c1.3-1.3,0.4-3.7-1.5-3.7h-3.3v-6C14.9,1.4,13.8,0.3,12.4,0.3L12.4,0.3z M20.6,23.6v-0.4
	c0-0.4-0.3-0.6-0.6-0.6H0.6c-0.4,0-0.6,0.3-0.6,0.6v0.4c0,0.4,0.3,0.6,0.6,0.6h19.3C20.3,24.3,20.6,24,20.6,23.6z"/>
</svg>
