<?xml version="1.0" encoding="utf-8"?>
<!-- Generator: Adobe Illustrator 25.1.0, SVG Export Plug-In . SVG Version: 6.00 Build 0)  -->
<svg version="1.1" id="Layer_1" xmlns="http://www.w3.org/2000/svg" xmlns:xlink="http://www.w3.org/1999/xlink" x="0px" y="0px"
	 viewBox="0 0 124.3 91.9" enable-background="new 0 0 124.3 91.9" xml:space="preserve">
<g>
	<path fill="#FFC027" d="M59.5,78.3h54.8c5,0,9-4,9-9V34.3c0-5-4-9-9-9H59.5c-5,0-9,4-9,9v34.9C50.5,74.2,54.5,78.3,59.5,78.3z"/>
	<polygon fill="#FFC027" points="109.3,65.2 109.3,91.3 74,65.2 	"/>
</g>
<path fill="#FF9A00" d="M109.1,43H64.7c-1,0-1.8-0.8-1.8-1.8v0c0-1,0.8-1.8,1.8-1.8h44.4c1,0,1.8,0.8,1.8,1.8v0
	C110.9,42.2,110.1,43,109.1,43z"/>
<path fill="#FF9A00" d="M109.1,52.4H64.7c-1,0-1.8-0.8-1.8-1.8v0c0-1,0.8-1.8,1.8-1.8h44.4c1,0,1.8,0.8,1.8,1.8v0
	C110.9,51.7,110.1,52.4,109.1,52.4z"/>
<path fill="#FF9A00" d="M93.3,61.9H64.7c-1,0-1.8-0.8-1.8-1.8v0c0-1,0.8-1.8,1.8-1.8h28.6c1,0,1.8,0.8,1.8,1.8v0
	C95,61.1,94.2,61.9,93.3,61.9z"/>
<g>
	<g>
		<path fill="#005DFF" d="M65,54H10.2c-5,0-9-4-9-9V10.1c0-5,4-9,9-9H65c5,0,9,4,9,9V45C74,50,70,54,65,54z"/>
		<polygon fill="#005DFF" points="15.2,41 15.2,67.1 50.5,41 		"/>
	</g>
	<g>
		<path fill="#FFFFFF" d="M36.7,39.7h0.7c1.6,0,2.9-1.3,2.9-2.9v0c0-1.6-1.3-2.9-2.9-2.9h-0.7c-1.6,0-2.9,1.3-2.9,2.9v0
			C33.9,38.5,35.2,39.7,36.7,39.7z"/>
		<path fill="#FFFFFF" d="M45.7,16.9c-0.7-1.2-1.7-2.1-3-2.8c-1.3-0.7-2.9-1-4.6-1c-1.9,0-3.6,0.4-5,1.1c-1.4,0.8-2.4,1.8-3.1,3
			c-0.7,1.3-1,2.7-1,4.2h5.4c0-0.7,0.1-1.3,0.4-1.8c0.3-0.5,0.7-0.9,1.2-1.3c0.5-0.3,1.2-0.5,1.9-0.5c0.7,0,1.3,0.1,1.8,0.4
			c0.5,0.3,0.9,0.7,1.2,1.2c0.3,0.5,0.4,1.1,0.4,1.8c0,1-0.3,1.8-0.9,2.5c-0.6,0.7-1.5,1-2.8,1h-3.3V31h5.6l0-2.2
			c1-0.2,1.8-0.4,2.6-0.8c1.4-0.7,2.4-1.5,3.1-2.7c0.7-1.1,1.1-2.5,1.1-4v-0.4C46.8,19.4,46.4,18,45.7,16.9z"/>
	</g>
</g>
</svg>
