<?xml version="1.0" encoding="utf-8"?>
<!-- Generator: Adobe Illustrator 24.3.0, SVG Export Plug-In . SVG Version: 6.00 Build 0)  -->
<svg version="1.1" id="Layer_1" xmlns="http://www.w3.org/2000/svg" xmlns:xlink="http://www.w3.org/1999/xlink" x="0px" y="0px"
	 viewBox="0 0 326.8 208.62" enable-background="new 0 0 326.8 208.62" xml:space="preserve">
<g>
	<path fill="#FFFFFF" d="M315.84,104.27c-1.1-6.33-4.41-11.49-9.31-14.53c-3.63-2.3-7.98-3.47-12.96-3.47
		c-1.23,0-2.56,0.06-3.92,0.23c-1.53,0.17-3.04,0.41-4.5,0.75c0,0,2.4-6.63-0.93-12.63c-2.04-3.65-6.18-5.87-10.64-5.95
		c3.63-8.17,2.28-14.12-0.8-17.68c1.16-4.36,0.11-8.42-3.15-11.51c-3.98-3.79-9.5-5.79-15.92-5.79c-2.62,0-5.37,0.33-8.17,0.96
		c1.6-7.82,1.01-13.73-1.77-17.62c-1.55-2.14-4.51-4.71-9.93-4.71c-1,0-2.03,0.08-3.11,0.25c-5.35,0.85-12.5,4.48-15.06,11.92
		c-1.78,5.19-0.43,9.04,0.54,11.86c0.35,1.04,0.66,1.93,0.83,2.8c0.38,2.41,0.04,5.13-0.78,8.07c-1.84-2.7-4.26-4.96-7.21-6.63
		c-3.77-2.16-8.33-3.26-13.56-3.26c-1.56,0-3.17,0.08-4.77,0.27c-5.06,0.56-9.95,1.91-14.55,3.96c-2.64,1.2-5.16,2.61-7.53,4.22
		c-0.89-0.72-1.89-1.35-2.97-1.86c-2.98-1.45-6.28-2.2-9.79-2.2c-0.93,0-1.91,0.06-2.86,0.16c-3.73,0.42-7.17,1.58-10.2,3.45
		c-1.8-0.97-3.89-1.5-6.11-1.5h-0.41c-0.59,0-1.2,0.05-1.81,0.11c-0.23,0.03-0.46,0.06-0.7,0.08c1.84-6.65,3.19-11.81,3.5-13.88
		c1.7-10.5-3.02-15.54-5.97-17.61c-2.14-1.47-5.98-2.43-9.8-2.43c-4.43,0-11.88,1.25-18.18,8.49c-4.75-2.84-10.43-4.32-16.96-4.33
		c-4.72,0-46.52,1.49-62.2,53c-5.18,17-4.54,30.46,1.91,40.05c-6.3,1.95-13.51,6.7-15.8,16.61c-1.6,6.91-0.33,13.22,3.71,18.29
		c9.35,11.75,29.56,11.88,30.42,11.88c18.05,0,31.74-4.33,42.1-10.62c-0.8,3.52-1.21,6.86-1.21,9.95c0,1.68,0.12,3.32,0.34,4.81
		c0.37,2.47,1.04,4.75,1.99,6.81c-1.07,0.58-2.13,1.26-3.1,2.07c-2.88,2.32-4.89,5.35-5.87,8.71c-0.46,1.49-0.68,3.04-0.68,4.56
		c-0.03,3.4,1.11,6.7,3.27,9.54c2.64,3.49,6.64,5.97,11.94,7.42c2.86,0.77,6.06,1.16,9.54,1.16c1.86,0,3.86-0.11,5.9-0.33
		c5.88-0.67,11.14-1.85,15.62-3.53c4.72-1.81,8.94-4.25,12.5-7.29c3.56-3.05,6.59-6.76,9.02-11.01c0.91-1.6,1.76-3.25,2.54-5.04
		c2.01,1.23,4.4,1.93,6.92,1.93h0.16c0.58,0,1.2-0.04,1.82-0.11c3.87-0.44,7.55-2.11,10.64-4.89c2.96-2.67,5.12-6.24,6.41-10.64
		l3.36-11.43c1.14-3.9,2.24-7.19,3.23-9.8c0.91-2.36,1.88-4.41,2.91-6.09c0.88-1.45,1.62-2.16,2.06-2.51c0,0,0.01-0.03,0.04-0.03
		c-0.32,0.89-0.62,1.8-0.88,2.72c-1.33,4.48-1.97,8.52-1.97,12.29c0,5.9,1.68,11.2,4.83,15.3c3.15,4.11,9.35,9.03,21.04,9.03
		c1.74,0,3.59-0.11,5.5-0.32c4.67-0.52,9.06-1.62,13.11-3.28c3.89-1.57,7.37-3.49,10.38-5.64c0.19-0.14,0.38-0.26,0.54-0.39
		c2.26,3.29,6.24,5.34,10.47,5.34h0.15c0.58,0,1.2-0.04,1.84-0.12c3.76-0.4,7.31-2.01,10.25-4.65c1.72,0.83,3.63,1.41,5.85,1.8
		c1.45,0.22,2.99,0.35,4.54,0.35c1.2,0,2.43-0.06,3.69-0.2c4.56-0.5,9.04-1.89,13.27-4.08c4.06-2.14,7.87-4.94,11.27-8.36
		c3.29-3.29,6.2-7.11,8.65-11.34c2.43-4.19,4.38-8.76,5.79-13.59c1.41-4.83,2.09-9.1,2.09-13.06
		C316.3,107.69,316.13,105.91,315.84,104.27"/>
	<path fill="#FFFFFF" d="M102.76,207.4c-4.25,0-8.24-0.5-11.86-1.48c-7.25-1.97-12.86-5.54-16.72-10.63
		c-3.36-4.42-5.11-9.6-5.09-14.97c0-2.39,0.37-4.81,1.08-7.15c1.26-4.32,3.69-8.29,7.07-11.51c-0.13-0.68-0.27-1.39-0.37-2.1
		c-0.09-0.54-0.17-1.1-0.22-1.67c-9.7,3.4-20.48,5.1-32.22,5.1c-2.58,0-25.59-0.43-37.38-15.25c-5.71-7.13-7.64-16.32-5.42-25.85
		c1.79-7.83,6.22-14.29,12.59-18.67c-3.63-10.59-3.15-23.52,1.44-38.58C33.23,6.99,81.01,5.33,86.4,5.33
		c5.53,0.03,10.65,0.89,15.3,2.62c5.71-4.4,12.57-6.76,19.84-6.76c5.67,0,11.23,1.5,14.86,4c3.82,2.71,12.26,10.57,9.71,26.38
		c-0.1,0.69-0.29,1.62-0.56,2.82c2.09-0.65,4.27-1.11,6.53-1.35c5.8-0.62,11.44,0.17,16.47,2.39c1.26-0.69,2.58-1.35,3.93-1.97
		c5.58-2.49,11.37-4.06,17.29-4.71c5.47-0.68,11.24-0.33,16.13,0.98c-0.03-2.44,0.33-5.15,1.37-8.13
		c3.82-11.17,14.28-16.59,22.08-17.83c9.59-1.46,16.92,1.53,21.64,8.01c2.55,3.58,3.98,7.94,4.29,13.05
		c8.12,0.31,15.17,3.14,20.51,8.2c4.52,4.3,6.73,9.94,6.34,15.94c1.68,3.17,3.11,7.77,2.38,13.76c3.15,1.81,5.77,4.41,7.53,7.57
		c1.32,2.38,2.09,4.8,2.51,7.08c6.3,0.14,11.94,1.78,16.78,4.84c7.01,4.37,11.77,11.68,13.32,20.53c0.36,2.12,0.58,4.42,0.58,6.8
		c0,4.81-0.79,9.9-2.45,15.56c-1.59,5.47-3.82,10.72-6.63,15.56c-2.86,4.95-6.24,9.38-10.07,13.18c-3.97,4-8.49,7.35-13.41,9.93
		c-5.3,2.75-10.83,4.45-16.47,5.06c-3.61,0.41-7.27,0.33-10.6-0.21c-1.06-0.19-2.06-0.4-3.01-0.66c-3.31,1.94-6.93,3.16-10.72,3.57
		c-4.95,0.63-10.19-0.49-14.3-2.97c-2.11,1.16-4.34,2.22-6.68,3.17c-4.78,1.96-9.99,3.27-15.47,3.89
		c-18.56,1.96-28.86-5.11-34.03-11.42c-1.78,4.17-4.3,7.73-7.51,10.64c-4.48,4.03-9.87,6.49-15.62,7.13
		c-2.08,0.19-3.73,0.2-5.43,0.01c-2.8,4.63-6.25,8.72-10.23,12.13c-4.32,3.69-9.41,6.66-15.13,8.85c-5.2,1.95-11.17,3.3-17.79,4.05
		C107.25,207.28,104.94,207.4,102.76,207.4 M86.55,134.54c1.84,0,3.66,0.56,5.23,1.69c2.9,2.09,4.27,5.72,3.47,9.22
		c-0.67,2.87-0.99,5.55-0.99,7.96c0,1.21,0.08,2.4,0.24,3.48c0.25,1.64,0.68,3.12,1.26,4.37c2,4.28,0.31,9.37-3.84,11.61
		c-0.57,0.31-1.14,0.67-1.65,1.09c-1.53,1.23-2.53,2.7-3.01,4.33c-0.23,0.76-0.32,1.43-0.32,2.08c-0.01,1.48,0.49,2.86,1.46,4.16
		c1.42,1.87,3.84,3.28,7.18,4.2c3.3,0.89,7.47,1.08,12.13,0.57c5.14-0.57,9.67-1.59,13.45-3.01c3.76-1.43,7.08-3.36,9.84-5.72
		c2.78-2.37,5.16-5.28,7.07-8.66c0.78-1.34,1.49-2.72,2.13-4.21c1.04-2.35,3.04-4.14,5.5-4.91c2.44-0.76,5.12-0.44,7.32,0.89
		c1.04,0.62,2.43,0.68,3.38,0.57c1.91-0.22,3.87-1.14,5.56-2.66c1.71-1.53,2.98-3.73,3.79-6.49l3.37-11.45
		c1.21-4.15,2.4-7.66,3.46-10.46c1.12-2.89,2.32-5.42,3.59-7.53c1.28-2.08,2.59-3.61,4.04-4.8c3.82-3.15,10.11-2.33,12.97,1.73
		c1.67,2.36,2.09,5.38,1.14,8.11c-0.24,0.68-0.48,1.36-0.68,2.05c-1.15,3.87-1.67,7.06-1.67,9.99c0,3.91,1.04,7.33,3,9.89
		c3.44,4.49,9.89,6.21,18.5,5.26c3.82-0.42,7.42-1.32,10.71-2.66c3.2-1.3,6.08-2.86,8.57-4.63c1.94-1.4,4.6-2.17,7.01-1.73
		c2.37,0.42,4.72,1.57,6.07,3.55c0.6,0.88,1.86,1.47,3.11,1.47c0.04-0.01,1-0.07,1.04-0.07c1.88-0.2,3.69-1.04,5.23-2.42
		c2.69-2.41,6.57-2.96,9.81-1.4c0.97,0.46,2.12,0.8,3.55,1.06c1.56,0.25,3.6,0.3,5.64,0.07c3.5-0.38,6.92-1.44,10.21-3.14
		c3.27-1.72,6.33-4,9.05-6.73c2.75-2.73,5.17-5.92,7.25-9.51c2.08-3.59,3.75-7.5,4.94-11.6c1.17-4.03,1.74-7.48,1.74-10.58
		c0-1.31-0.11-2.57-0.33-3.74c-0.66-3.78-2.52-6.8-5.24-8.49c-2.84-1.81-6.51-2.57-11.02-1.95c-1.37,0.15-2.55,0.32-3.67,0.58
		c-3.13,0.76-6.51-0.33-8.66-2.78c-2.15-2.45-2.81-5.88-1.71-8.94v0.01c0,0,0.88-3.05-0.34-5.25c-0.36-0.67-1.51-1.35-3-1.37
		c-3-0.05-5.76-1.6-7.36-4.12c-1.62-2.53-1.85-5.69-0.64-8.42c1.65-3.69,1.87-6.77,0.6-8.23c-1.94-2.24-2.63-5.29-1.88-8.14
		c0.38-1.4,0.05-2.05-0.68-2.73c-2.89-2.75-6.91-3.33-9.79-3.33c-1.92,0-4.01,0.25-6.22,0.74c-2.95,0.66-6.04-0.22-8.2-2.34
		c-2.15-2.12-3.09-5.18-2.48-8.15c1.52-7.39,0.16-10.03-0.29-10.67c-0.26-0.35-1.67-1.26-4.43-0.81c-2.28,0.36-6.62,2.05-7.96,6
		c-0.75,2.16-0.34,3.56,0.51,6.01c0.59,1.73,0.96,2.93,1.18,4.09c0.61,3.75,0.3,7.65-0.93,12.1c-0.91,3.35-3.7,5.87-7.12,6.43
		c-3.48,0.55-6.87-0.9-8.83-3.76c-1.11-1.62-2.54-2.93-4.29-3.93c-3.21-1.85-7.87-2.47-12.84-1.88c-4.18,0.46-8.18,1.55-11.99,3.25
		c-2.16,0.98-4.23,2.15-6.13,3.45c-3.23,2.22-7.56,2.06-10.62-0.42c-0.35-0.28-0.78-0.54-1.25-0.78c-2.29-1.12-4.96-1.51-7.78-1.19
		c-2.4,0.26-4.6,0.99-6.52,2.17c-2.7,1.68-6.1,1.77-8.9,0.25c-1.02-0.56-2.6-0.42-3.21-0.37c-0.09,0.01-0.87,0.11-0.95,0.11
		c-2.87,0.25-5.71-1.01-7.53-3.24c-1.84-2.24-2.47-5.24-1.71-8.02c2.57-9.29,3.16-12.04,3.29-12.85c0.71-4.41-0.07-7.41-2.31-8.99
		c-0.32-0.17-2.19-0.79-4.64-0.79c-4.47,0-8.32,1.82-11.45,5.42c-2.84,3.26-7.62,4.02-11.3,1.81c-3.39-2.02-7.57-3.06-12.43-3.08
		c-4.01,0-39.82,1.31-53.63,46.68c-4.36,14.3-4.1,25.23,0.78,32.49c1.57,2.35,1.94,5.29,1,7.94c-0.94,2.66-3.08,4.72-5.77,5.54
		c-5.3,1.64-8.58,5.04-9.74,10.1c-1,4.3-0.35,7.8,1.98,10.71c5.57,7.01,18.82,8.54,23.45,8.54c14.66,0,27.28-3.14,37.49-9.33
		C83.35,134.96,84.96,134.54,86.55,134.54 M185.89,131.51v-0.32V131.51z"/>
	<path fill="#1B1A1E" d="M315.84,104.27c-1.1-6.33-4.41-11.49-9.31-14.53c-3.63-2.3-7.98-3.47-12.96-3.47
		c-1.23,0-2.56,0.06-3.92,0.23c-1.53,0.17-3.04,0.41-4.5,0.75c0,0,2.4-6.63-0.93-12.63c-2.04-3.65-6.18-5.87-10.64-5.95
		c3.63-8.17,2.28-14.12-0.8-17.68c1.16-4.36,0.11-8.42-3.15-11.51c-3.98-3.79-9.5-5.79-15.92-5.79c-2.62,0-5.37,0.33-8.17,0.96
		c1.6-7.82,1.01-13.73-1.77-17.62c-1.55-2.14-4.51-4.71-9.93-4.71c-1,0-2.03,0.08-3.11,0.25c-5.35,0.85-12.5,4.48-15.06,11.92
		c-1.78,5.19-0.43,9.04,0.54,11.86c0.35,1.04,0.66,1.93,0.83,2.8c0.38,2.41,0.04,5.13-0.78,8.07c-1.84-2.7-4.26-4.96-7.21-6.63
		c-3.77-2.16-8.33-3.26-13.56-3.26c-1.56,0-3.17,0.08-4.77,0.27c-5.06,0.56-9.95,1.91-14.55,3.96c-2.64,1.2-5.16,2.61-7.53,4.22
		c-0.89-0.72-1.89-1.35-2.97-1.86c-2.98-1.45-6.28-2.2-9.79-2.2c-0.93,0-1.91,0.06-2.86,0.16c-3.73,0.42-7.17,1.58-10.2,3.45
		c-1.8-0.97-3.9-1.5-6.11-1.5h-0.41c-0.58,0-1.2,0.05-1.81,0.11c-0.23,0.03-0.46,0.06-0.7,0.08c1.84-6.65,3.19-11.81,3.5-13.88
		c1.7-10.5-3.02-15.54-5.97-17.61c-2.14-1.47-5.98-2.43-9.79-2.43c-4.44,0-11.89,1.25-18.19,8.49c-4.75-2.84-10.43-4.32-16.96-4.33
		c-4.72,0-46.52,1.49-62.2,53c-5.18,17-4.54,30.46,1.91,40.05c-6.3,1.95-13.51,6.7-15.8,16.61c-1.6,6.91-0.33,13.22,3.71,18.29
		c9.35,11.75,29.56,11.88,30.42,11.88c18.05,0,31.74-4.33,42.1-10.62c-0.8,3.52-1.21,6.86-1.21,9.95c0,1.68,0.12,3.32,0.34,4.81
		c0.37,2.47,1.04,4.75,1.99,6.81c-1.07,0.58-2.13,1.26-3.1,2.07c-2.88,2.32-4.89,5.35-5.87,8.71c-0.46,1.49-0.68,3.04-0.68,4.56
		c-0.03,3.4,1.11,6.7,3.27,9.54c2.64,3.49,6.64,5.97,11.94,7.42c2.86,0.77,6.06,1.16,9.53,1.16c1.87,0,3.86-0.11,5.91-0.33
		c5.88-0.67,11.14-1.85,15.62-3.53c4.72-1.8,8.94-4.25,12.5-7.29c3.56-3.05,6.59-6.76,9.02-11.01c0.91-1.6,1.76-3.25,2.54-5.04
		c2.01,1.23,4.4,1.93,6.92,1.93h0.16c0.58,0,1.2-0.04,1.82-0.11c3.87-0.44,7.55-2.11,10.64-4.89c2.96-2.67,5.12-6.24,6.41-10.64
		l3.36-11.43c1.14-3.89,2.24-7.19,3.23-9.8c0.91-2.36,1.88-4.41,2.91-6.09c0.88-1.45,1.62-2.16,2.06-2.51c0,0,0.01-0.03,0.04-0.03
		c-0.32,0.89-0.62,1.8-0.88,2.72c-1.33,4.48-1.97,8.52-1.97,12.29c0,5.9,1.68,11.2,4.83,15.3c3.15,4.11,9.35,9.03,21.04,9.03
		c1.74,0,3.59-0.11,5.5-0.32c4.67-0.52,9.06-1.62,13.11-3.28c3.89-1.57,7.37-3.49,10.38-5.64c0.19-0.14,0.38-0.26,0.54-0.39
		c2.26,3.29,6.24,5.34,10.47,5.34h0.15c0.58,0,1.2-0.04,1.84-0.12c3.76-0.4,7.31-2.01,10.25-4.65c1.72,0.83,3.63,1.41,5.85,1.8
		c1.45,0.22,2.99,0.35,4.54,0.35c1.2,0,2.43-0.06,3.69-0.2c4.56-0.5,9.04-1.89,13.27-4.08c4.06-2.14,7.87-4.94,11.27-8.36
		c3.29-3.29,6.2-7.11,8.65-11.34c2.43-4.19,4.38-8.76,5.79-13.59c1.41-4.83,2.09-9.1,2.09-13.06
		C316.3,107.69,316.13,105.91,315.84,104.27"/>
	<path fill="#FFC827" d="M109.13,95.13c0,0,18.49-61.41,19.72-69.23c0.16-1.1,1.43-7.82-3.09-10.95c-1.53-1.1-14.77-4.88-22.5,10.51
		c-1.95-2.19-7.02-7.5-18.42-7.55c-1.63-0.02-41-0.04-55.67,48.09c-12.31,40.43,14.97,44.59,21.81,44.41
		c16.3-0.41,26.67-8.58,28.69-10.08c-0.49,1.39-3.51,13.67-12.86,18.19c-3.12,1.49-16.21,5.72-22.05,2.38
		c-3.65-2.1-4.68-11.08-13.27-11.08c-4.29,0-13.8,2.48-16.09,12.39c-4.27,18.47,20.36,21.73,27.41,21.73
		C89.32,143.94,104.75,113.5,109.13,95.13 M63.97,86.94c-4,0.16-12.92-2.22-7.13-20.08c8.94-27.6,26.94-26.99,27.6-26.99
		c4.21,0.1,13.08,2.75,7.32,21.38C90.17,66.39,81.49,86.26,63.97,86.94 M122.43,59.03l-11.17,38.11c-0.41,1.44-0.66,2.77-0.66,4.02
		c0,1.35,0.29,2.68,1.05,3.75c1.08,1.66,3.05,2.53,5.01,2.53h0.14c0.36,0,0.71,0,1.08-0.06c2.49-0.27,4.78-1.39,6.78-3.15
		c2.05-1.84,3.5-4.4,4.4-7.44l3.34-11.43c1.21-4.06,2.35-7.53,3.42-10.35c1.07-2.78,2.21-5.18,3.46-7.2
		c1.21-1.99,2.49-3.44,3.8-4.44c1.31-0.97,2.72-1.53,4.38-1.72c0.34-0.05,0.7-0.06,1.08-0.06c0.93,0,1.92,0.13,3.04,0.37
		c1.61,0.38,2.68,0.58,3.65,0.6c0.12,0,0.26-0.03,0.41-0.03c0.89-0.12,1.74-0.37,2.57-0.77c-2.26,3.69-3.98,7.61-5.2,11.73
		c-1.1,3.78-1.68,7.24-1.68,10.37c0,4.32,1.1,8.11,3.42,11.1c3.28,4.32,8.68,6.32,15.43,6.32h0.11c1.5,0,3.07-0.1,4.73-0.27
		c4.05-0.45,7.8-1.38,11.26-2.8c3.4-1.39,6.36-3.01,8.95-4.85c2.52-1.81,4.57-3.67,6.19-5.62c1.55-1.89,2.64-3.54,3.13-5.24
		c0.18-0.7,0.33-1.36,0.33-2.07c0-1.08-0.38-2.27-1.21-3.09c-1.01-1.07-2.47-1.49-3.83-1.47c-0.36,0-0.68,0.03-1,0.06
		c-1.61,0.17-3.1,0.71-4.33,1.66c-2.22,1.82-3.98,3.26-5.31,4.29c-1.3,1-2.67,1.98-4.13,2.91c-1.41,0.9-2.75,1.56-4.08,2.03
		c-1.31,0.48-2.68,0.81-4.19,0.97c-0.45,0.04-0.89,0.06-1.31,0.06c-1.49,0-2.63-0.29-3.56-0.85c-1.15-0.69-1.89-1.66-2.32-3.48
		c-0.17-0.67-0.25-1.41-0.25-2.22c0-1.01,0.13-2.13,0.37-3.36l25.45-2.84c3.79-0.43,6.99-1.28,9.58-2.69
		c2.92-1.6,4.85-4.52,5.95-8.3c0.66-2.26,0.99-4.45,0.99-6.63c0-1.72-0.23-3.44-0.64-5.1c-0.97-3.88-3.47-7.05-7.07-9.08
		c-2.8-1.62-6.22-2.35-10.1-2.35c-1.28,0-2.63,0.06-4.02,0.24c-4.33,0.48-8.5,1.63-12.49,3.39c-3.96,1.79-7.56,4.13-10.78,7.02
		c-0.59,0.53-1.15,1.09-1.72,1.65c0.03-0.24,0.06-0.5,0.06-0.74c0.06-2.45-1.6-4.6-3.82-5.62c-2.09-1.01-4.41-1.54-6.84-1.54
		c-0.68,0-1.39,0.04-2.09,0.13c-3.23,0.35-6.14,1.48-8.6,3.34c-1.04,0.79-2.08,1.7-3.15,2.74c-0.08-0.4-0.21-0.79-0.35-1.16
		c-0.88-2.06-3.15-3.01-5.21-2.92c-0.43,0-0.85,0.04-1.26,0.08C128.08,48.12,124.24,52.52,122.43,59.03 M178.81,58.9
		c2.64-2.34,5.33-3.58,8.3-3.92c0.49-0.06,0.97-0.1,1.43-0.1c2.3,0.03,3.44,0.64,4.29,1.76c0.56,0.75,0.96,1.95,0.96,3.81
		c0,0.89-0.1,1.93-0.29,3.09l-19.74,2.17C175.21,62.88,176.91,60.63,178.81,58.9 M307.43,102.2c-0.75-4.29-2.86-7.8-6.2-9.87
		c-2.59-1.66-5.74-2.41-9.27-2.41c-1.01,0-2.07,0.06-3.14,0.19c-4.22,0.46-8.04,1.62-11.39,3.48c-1.57,0.87-3.17,1.89-4.77,3.06
		l4.23-14.51l-2.03-0.58l2.03,0.58c0.4-1.39,0.62-2.65,0.62-3.85c0-1.23-0.24-2.41-0.87-3.45c-1.04-1.78-3.13-2.59-5.12-2.55
		c-0.41,0-0.79,0.04-1.21,0.06c-2.48,0.27-4.77,1.43-6.57,3.27c-1.86,1.86-3.19,4.35-4.08,7.36l-17.5,59.76
		c-0.39,1.41-0.62,2.69-0.62,3.92c0,1.22,0.25,2.43,0.91,3.48c1.04,1.63,2.97,2.46,4.86,2.46h0.15c0.35,0,0.71-0.02,1.1-0.06
		c2.38-0.24,4.6-1.33,6.49-3.03c1.32-1.2,2.38-2.68,3.19-4.4c0.08,0.1,0.19,0.21,0.27,0.31c0.83,0.96,1.87,1.81,3.07,2.56
		c1.39,0.89,3.05,1.43,4.96,1.74c1.07,0.21,2.2,0.29,3.41,0.29c0.92,0,1.9-0.06,2.92-0.17c3.73-0.41,7.36-1.55,10.84-3.36
		c3.48-1.82,6.67-4.19,9.58-7.09c2.88-2.91,5.41-6.22,7.57-9.96c2.16-3.73,3.88-7.75,5.13-12.04c1.2-4.09,1.79-7.8,1.79-11.13
		C307.75,104.85,307.66,103.51,307.43,102.2 M287.97,118.23c-1.55,5.31-3.9,9.39-6.96,12.35c-3.16,3.05-6.17,4.6-9,4.9
		c-0.52,0.04-1.02,0.08-1.47,0.08c-2.7-0.06-4.03-0.81-5.06-2.38c-0.58-0.94-0.95-2.22-0.95-4.01c0-1.74,0.35-3.9,1.09-6.43
		c1.04-3.52,2.47-6.57,4.31-9.18c1.81-2.65,3.85-4.68,6.07-6.16c2.21-1.5,4.43-2.33,6.67-2.57c0.41-0.06,0.81-0.06,1.16-0.06
		c1.55,0,2.57,0.37,3.36,0.99c0.97,0.79,1.64,2.01,1.89,4.15c0.06,0.41,0.08,0.87,0.08,1.37
		C289.16,113.16,288.8,115.52,287.97,118.23 M241.87,136.06c0.02-1.08-0.35-2.28-1.19-3.11c-1-1.06-2.45-1.47-3.83-1.47
		c-0.35,0-0.68,0.02-1.01,0.08c-1.6,0.17-3.1,0.71-4.33,1.66c-2.22,1.82-3.98,3.23-5.31,4.27c-1.29,1.02-2.65,1.99-4.11,2.92
		c-1.41,0.88-2.78,1.55-4.09,2.03c-1.3,0.48-2.69,0.79-4.19,0.96c-0.45,0.06-0.91,0.08-1.33,0.08c-1.46,0-2.62-0.31-3.57-0.85
		c-1.14-0.69-1.86-1.66-2.32-3.49c-0.16-0.69-0.24-1.41-0.24-2.24c0-0.99,0.12-2.11,0.41-3.36l25.44-2.81
		c3.75-0.44,6.95-1.31,9.57-2.72c2.92-1.58,4.85-4.52,5.95-8.3c0.67-2.22,1-4.44,1-6.6c0-1.76-0.23-3.46-0.64-5.12
		c-0.99-3.9-3.47-7.05-7.07-9.08c-2.8-1.61-6.22-2.37-10.12-2.37c-1.26,0-2.62,0.1-4,0.25c-4.34,0.48-8.53,1.61-12.48,3.4
		c-3.98,1.78-7.57,4.12-10.76,7.01c-0.62,0.51-1.18,1.1-1.74,1.66c0.03-0.25,0.06-0.51,0.06-0.75c0.06-2.47-1.6-4.6-3.82-5.6
		c-2.09-1.06-4.41-1.55-6.86-1.55c-0.68,0-1.37,0.04-2.09,0.12c-3.21,0.35-6.14,1.47-8.58,3.34c-1.04,0.79-2.08,1.7-3.15,2.74
		c-0.08-0.41-0.21-0.79-0.38-1.16c-0.87-2.05-3.12-3.01-5.2-2.93c-0.42,0-0.83,0.02-1.26,0.08c-5.51,0.56-9.35,4.96-11.17,11.46
		l-11.16,38.11c-0.42,1.42-0.66,2.75-0.69,4.02c0,1.35,0.32,2.65,1.06,3.75c1.08,1.66,3.06,2.53,5.02,2.53h0.13
		c0.35,0,0.72-0.02,1.1-0.06c2.48-0.26,4.79-1.38,6.76-3.15c2.07-1.86,3.53-4.4,4.42-7.44l3.35-11.45
		c1.19-4.06,2.33-7.51,3.41-10.33c1.06-2.77,2.21-5.2,3.44-7.21c1.2-1.97,2.48-3.45,3.81-4.44c1.31-0.95,2.7-1.51,4.37-1.7
		c0.36-0.05,0.71-0.06,1.07-0.06c0.94,0,1.95,0.13,3.05,0.37c1.61,0.35,2.7,0.59,3.65,0.59c0.13,0,0.25,0,0.43-0.03
		c0.89-0.08,1.73-0.37,2.56-0.74c-2.25,3.68-3.99,7.58-5.19,11.73c-1.12,3.75-1.71,7.21-1.71,10.36c0,4.3,1.12,8.09,3.43,11.09
		c3.29,4.29,8.69,6.3,15.44,6.3h0.11c1.49,0,3.09-0.08,4.75-0.27c4.02-0.45,7.77-1.36,11.25-2.78c3.38-1.38,6.36-3.01,8.94-4.85
		c2.51-1.82,4.6-3.69,6.2-5.61c1.55-1.89,2.59-3.57,3.13-5.25C241.74,137.42,241.87,136.76,241.87,136.06 M215.82,114.51
		c2.62-2.36,5.34-3.6,8.29-3.93c0.51-0.05,0.98-0.08,1.42-0.08c2.32,0.03,3.47,0.62,4.3,1.74c0.56,0.74,0.95,1.97,0.95,3.81
		c0,0.91-0.08,1.95-0.29,3.1l-19.71,2.19C212.22,118.49,213.92,116.23,215.82,114.51 M152.89,116.96l2.03,0.6
		c0.7-2.47,1.1-4.54,1.1-6.36c0-0.68-0.06-1.35-0.21-2.01c-0.23-1.14-0.99-2.25-2.03-2.88c-1.04-0.62-2.19-0.81-3.4-0.83
		c-0.47,0-0.91,0.05-1.38,0.1c-2.33,0.25-4.49,1.31-6.28,2.99c-1.35,1.23-2.39,2.73-3.16,4.44c-1.26-1.41-2.71-2.54-4.33-3.32
		c-2.13-1.04-4.6-1.49-7.4-1.49c-1.03,0-2.09,0.06-3.23,0.18c-3.49,0.4-6.86,1.37-10.14,2.93c-3.26,1.56-6.33,3.65-9.21,6.28
		c-2.9,2.65-5.45,5.79-7.63,9.37c-2.22,3.6-3.94,7.56-5.18,11.83c-1.22,4.13-1.82,7.92-1.82,11.38c0,1.33,0.08,2.59,0.26,3.79
		c0.65,4.41,2.65,8.04,5.91,10.36c2.61,1.85,5.85,2.72,9.52,2.7c0.96,0,1.95-0.04,2.97-0.16c4.1-0.44,7.92-1.68,11.38-3.67
		c1.33-0.75,2.61-1.62,3.9-2.57c-0.32,0.89-0.57,1.66-0.79,2.28c-0.66,1.87-1.57,3.63-2.8,5.35c-1.1,1.56-2.61,2.86-4.6,3.94
		c-1.92,1.04-4.56,1.81-7.96,2.16c-0.85,0.1-1.66,0.15-2.34,0.15c-0.62,0-1.16-0.02-1.64-0.08c-0.99-0.14-1.65-0.41-2.07-0.7
		c-0.54-0.38-0.97-0.86-1.37-1.48c-0.5-0.79-0.97-1.59-1.43-2.4c-1.18-2.01-3.37-3.23-5.62-3.17c-0.33,0-0.64,0.02-0.96,0.06
		c-2.05,0.23-4,1.12-5.7,2.5c-1.74,1.4-2.98,3.21-3.59,5.31c-0.26,0.88-0.39,1.77-0.39,2.64c-0.02,1.9,0.66,3.75,1.84,5.35
		c1.82,2.38,4.67,3.92,8.25,4.91c2.35,0.62,4.92,0.93,7.74,0.93c1.64,0,3.36-0.1,5.16-0.3c5.31-0.58,9.97-1.62,13.94-3.11
		c3.98-1.5,7.49-3.53,10.45-6.08c2.96-2.55,5.5-5.61,7.54-9.2c2.02-3.55,3.7-7.67,5.07-12.34l11.64-39.75L152.89,116.96z
		 M132.25,135.74c-0.97,3.31-2.36,6.1-4.19,8.49c-1.87,2.42-3.85,4.25-5.99,5.55c-2.18,1.31-4.23,2.03-6.14,2.24
		c-0.5,0.06-0.96,0.1-1.37,0.1c-2.54-0.07-3.79-0.79-4.8-2.31c-0.54-0.87-0.87-2.09-0.87-3.84c0-1.74,0.37-3.98,1.14-6.66
		c1.53-5.2,3.8-9.23,6.74-12.17c2.99-2.96,6.08-4.52,9.48-4.89c0.47-0.06,0.93-0.08,1.35-0.08c2.67,0.06,3.92,0.8,4.96,2.57
		c0.54,0.99,0.87,2.32,0.87,4.11C133.41,130.71,133.04,133.02,132.25,135.74"/>
	<path fill="#FFC827" d="M262.12,67.88c5.51-6.41,5.97-13.89,2.35-16.86c-2.65,3.74-7.11,7.43-12.26,10.26
		c-6.45,3.55-16,6.89-21.85,6c-4.1,2.47-6.29,5.64-6.32,9.25c-0.04,3.6,4.43,3.86,7.74,3.83c4.83-0.02,10.53-1.49,16.02-3.31
		C252.99,75.29,257.83,72.86,262.12,67.88 M227.41,81.96c-14.04,13.41,6.54,12.36,13.89,10.79c9.24-1.98,18.99-12.47,19.76-20.35
		c-5.02,4.09-11.4,6.2-16.55,7.7c-5.95,1.72-12.27,2.79-17.11,1.84V81.96z M220.78,24.92c-0.6,3.46,1.5,6.4,2.18,9.18
		c0.86,3.55,0.35,7.69-0.78,12.13c-2.37,9.18-10.01,19.35-12.81,28.7c-3.18,10.7-2.6,22.18,11.27,16.75
		c-1.57-2.25-0.91-5.62,4.23-10.53c-0.56-0.23-1.08-0.48-1.59-0.81c-4.07-2.65-1.93-9.53,4.45-13.93c-0.22-0.13-0.44-0.23-0.62-0.38
		c-2.68-2.05-3.21-5.04,1.36-9.64c0.65-0.64,1.31-1.18,1.98-1.68c0.08-1.49,0.35-3.28-0.59-4.12c-0.31-0.27-0.31-0.99,0.5-1.39
		c0.86-0.42,1.58-0.12,1.98,0.23c0.91,0.8,1.06,2.13,1.03,3.52c5.4-2.51,11.18-2.05,16.45-5.87c1.12-0.81,3.31,0.35,2.11,1.2
		c-7.69,5.58-14.97,2.94-22.27,10.28c-7.08,7.11,3.53,6.95,6.83,6.39c3.85-0.64,8.01-2.24,12.09-4.12
		c6.84-3.13,16.26-10.17,15.76-16.76c-0.79-10.53-17.58-8.29-28.84-2.61c-1.03,0.53-2.92-0.54-1.82-1.33
		c2-5.54,3.46-10.8,3.68-15.74c0.16-3.73-1.36-6.53-4.39-7.77C228.64,14.87,221.82,18.82,220.78,24.92"/>
	<path fill="#FFFFFF" d="M86.9,75.41c-9.37,14.16-23.78,21.11-32.22,15.53c-8.42-5.58-7.65-21.57,1.72-35.7
		c9.35-14.16,23.76-21.1,32.2-15.53C97.02,45.28,96.28,61.27,86.9,75.41"/>
	<path fill="#1B1A1E" d="M48.25,55.54c7.67-2.96,15.57-3.65,23.68-4.13c1.97-0.13,1.61-3.17-0.19-3.34
		c-8.54-0.89-17.7,0.38-24.77,5.52C45.81,54.43,47.07,56.01,48.25,55.54"/>
	<path fill="#1B1A1E" d="M79.62,52.44c6.36-0.44,12.55,1.49,18.69,2.92c2.21,0.52,3.49-2.71,1.2-3.39
		c-6.6-2.08-13.56-3.92-20.46-2.38C77.17,50.01,77.8,52.56,79.62,52.44"/>
	<path fill="#1B1A1E" d="M52.09,72.03c0,0-5.6,16.15,7.77,17.48c16.13,1.6,29.65-22.62,29.65-22.62S60.47,91.42,52.09,72.03"/>
</g>
</svg>
