<?xml version="1.0" encoding="utf-8"?>
<!-- Generator: Adobe Illustrator 24.3.0, SVG Export Plug-In . SVG Version: 6.00 Build 0)  -->
<svg version="1.1" id="Layer_1" xmlns="http://www.w3.org/2000/svg" xmlns:xlink="http://www.w3.org/1999/xlink" x="0px" y="0px"
	 viewBox="0 0 316.56 71.86" enable-background="new 0 0 316.56 71.86" xml:space="preserve">
<g>
	<g>
		<path fill="#FFFFFF" d="M35.53,4.9C52.36,4.9,66,18.54,66,35.37S52.36,65.85,35.53,65.85C18.7,65.85,5.05,52.2,5.05,35.37
			S18.7,4.9,35.53,4.9 M35.53,1.91c-18.45,0-33.46,15.01-33.46,33.46s15.01,33.46,33.46,33.46c18.45,0,33.46-15.01,33.46-33.46
			S53.98,1.91,35.53,1.91L35.53,1.91z"/>
		<g>
			<g>
				<path fill="#FFFFFF" d="M23.71,47.24h-4.89V23.46h4.89V47.24z"/>
			</g>
			<g>
				<path fill="#FFFFFF" d="M27.73,40.78c0-2.18,0.97-4.55,3.15-5.83c-1.77-1.17-2.58-3.18-2.58-5.12c0-3.95,2.88-6.87,7.67-6.87
					c4.79,0,7.74,2.98,7.74,6.93c0,1.98-0.84,3.92-2.65,5.06c2.18,1.31,3.15,3.65,3.15,5.83c0,4.15-3.11,6.97-8.24,6.97
					S27.73,44.93,27.73,40.78z M32.62,40.41c0,1.54,1.07,3.08,3.35,3.08c2.28,0,3.35-1.54,3.35-3.08c0-1.74-1.24-3.08-3.35-3.08
					C33.86,37.33,32.62,38.67,32.62,40.41z M39.15,30.03c0-1.34-1-2.88-3.18-2.88c-2.18,0-3.12,1.47-3.12,2.81
					c0,1.74,1.14,2.98,3.12,2.98C37.94,32.94,39.15,31.77,39.15,30.03z"/>
			</g>
			<g>
				<path fill="#FFFFFF" d="M55.25,28.44v4.83h4.83v3.32h-4.83v4.83h-3.32v-4.83H47.1v-3.32h4.83v-4.83H55.25z"/>
			</g>
		</g>
	</g>
	<g>
		<path fill="#FFFFFF" d="M94.98,30.95V9.97h5.34v20.98H94.98z"/>
		<path fill="#FFFFFF" d="M114.78,31.52c-1.97,0-3.67-0.33-5.09-0.99c-1.42-0.66-2.58-1.53-3.48-2.6c-0.9-1.07-1.56-2.24-1.98-3.51
			c-0.42-1.26-0.63-2.5-0.63-3.71v-0.63c0-1.3,0.22-2.59,0.66-3.86c0.44-1.27,1.11-2.43,2-3.46s2.01-1.86,3.35-2.49
			c1.34-0.62,2.91-0.93,4.71-0.93c1.93,0,3.64,0.36,5.13,1.06c1.48,0.71,2.68,1.69,3.58,2.95c0.9,1.26,1.43,2.71,1.58,4.35h-5.35
			c-0.11-0.63-0.39-1.2-0.83-1.71c-0.44-0.51-1.01-0.91-1.71-1.21c-0.7-0.3-1.5-0.45-2.4-0.45c-0.86,0-1.62,0.15-2.28,0.45
			c-0.66,0.3-1.22,0.72-1.67,1.26c-0.45,0.55-0.79,1.19-1.02,1.94c-0.23,0.75-0.34,1.56-0.34,2.44c0,0.88,0.12,1.7,0.37,2.46
			c0.25,0.76,0.61,1.42,1.09,1.98c0.48,0.57,1.08,1,1.81,1.31c0.73,0.31,1.56,0.46,2.5,0.46c1.19,0,2.21-0.25,3.08-0.75
			c0.86-0.5,1.47-1.16,1.81-1.98l-0.4,3.16V22.5h4.89v4.31c-0.88,1.51-2.13,2.68-3.75,3.49C118.78,31.11,116.91,31.52,114.78,31.52z
			 M114.21,23.53v-3.74h11.67v3.74H114.21z"/>
		<path fill="#FFFFFF" d="M128.58,30.95V9.79h5.35v21.15H128.58z M132.57,24.51V20.4h5.03c0.63,0,1.18-0.12,1.64-0.37
			s0.82-0.6,1.08-1.06c0.26-0.46,0.39-1,0.39-1.61c0-0.63-0.13-1.18-0.39-1.64s-0.62-0.81-1.08-1.06c-0.46-0.25-1.01-0.37-1.64-0.37
			h-5.03V9.79h4.71c1.82,0,3.39,0.27,4.71,0.82c1.32,0.54,2.34,1.35,3.05,2.41c0.71,1.06,1.06,2.38,1.06,3.95v0.46
			c0,1.57-0.36,2.88-1.08,3.92c-0.72,1.04-1.73,1.83-3.05,2.36c-1.31,0.53-2.88,0.79-4.7,0.79H132.57z M141.22,30.95l-5.89-8.91
			h5.81l6.24,8.91H141.22z"/>
		<path fill="#FFFFFF" d="M147.95,30.95l6.73-20.98h8.56l6.95,20.98h-5.52l-5.4-17.24l1.52,0.57H157l1.55-0.57l-5.26,17.24H147.95z
			 M153.44,26.09l1.61-4.37h7.96l1.61,4.37H153.44z"/>
		<path fill="#FFFFFF" d="M179.01,31.52c-1.67,0-3.09-0.31-4.27-0.92c-1.18-0.61-2.08-1.5-2.7-2.66c-0.62-1.16-0.93-2.56-0.93-4.21
			v-1.15h5.29v1.32c0,0.77,0.22,1.39,0.67,1.88c0.45,0.49,1.09,0.73,1.91,0.73c0.82,0,1.46-0.24,1.91-0.73
			c0.45-0.49,0.67-1.12,0.67-1.88v-9.86h5.35v9.69c0,1.65-0.31,3.05-0.93,4.21c-0.62,1.16-1.52,2.05-2.69,2.66
			C182.13,31.21,180.7,31.52,179.01,31.52z M173.47,14.62V9.97h13.45v4.66H173.47z"/>
		<path fill="#FFFFFF" d="M105.21,61.41c-1.92,0-3.58-0.33-5-0.99s-2.6-1.53-3.54-2.61c-0.94-1.08-1.64-2.26-2.1-3.52
			c-0.46-1.26-0.69-2.49-0.69-3.68v-0.63c0-1.32,0.24-2.62,0.72-3.89c0.48-1.27,1.2-2.43,2.16-3.46c0.96-1.04,2.14-1.86,3.55-2.47
			c1.41-0.61,3.04-0.92,4.9-0.92c1.84,0,3.46,0.31,4.87,0.92c1.41,0.61,2.59,1.44,3.55,2.47c0.96,1.03,1.68,2.19,2.17,3.46
			c0.49,1.27,0.73,2.57,0.73,3.89v0.63c0,1.19-0.23,2.42-0.7,3.68c-0.47,1.26-1.17,2.44-2.11,3.52c-0.94,1.08-2.12,1.95-3.54,2.61
			C108.77,61.08,107.11,61.41,105.21,61.41z M105.21,56.41c0.92,0,1.74-0.15,2.47-0.46c0.73-0.31,1.35-0.74,1.87-1.29
			c0.52-0.56,0.91-1.2,1.18-1.94c0.27-0.74,0.4-1.54,0.4-2.4c0-0.92-0.14-1.75-0.42-2.5c-0.28-0.75-0.68-1.39-1.19-1.93
			s-1.14-0.95-1.87-1.24c-0.73-0.29-1.54-0.43-2.44-0.43c-0.92,0-1.74,0.14-2.47,0.43c-0.73,0.29-1.35,0.7-1.87,1.24
			c-0.52,0.54-0.91,1.18-1.18,1.93c-0.27,0.75-0.4,1.58-0.4,2.5c0,0.86,0.13,1.66,0.4,2.4c0.27,0.74,0.66,1.38,1.18,1.94
			c0.52,0.56,1.14,0.99,1.87,1.29C103.47,56.26,104.29,56.41,105.21,56.41z"/>
		<path fill="#FFFFFF" d="M119.76,60.95V39.69h5.35v21.27H119.76z M124.53,60.95v-5h3.45c0.9,0,1.71-0.13,2.43-0.39
			c0.72-0.26,1.33-0.63,1.83-1.12c0.5-0.49,0.88-1.08,1.15-1.78c0.27-0.7,0.4-1.49,0.4-2.37c0-0.92-0.13-1.73-0.4-2.43
			c-0.27-0.7-0.65-1.28-1.15-1.75c-0.5-0.47-1.11-0.82-1.83-1.06c-0.72-0.24-1.53-0.36-2.43-0.36h-3.45v-5h3.22
			c1.9,0,3.56,0.27,4.99,0.81c1.43,0.54,2.62,1.28,3.58,2.23c0.96,0.95,1.68,2.05,2.15,3.29s0.72,2.57,0.72,3.97v0.63
			c0,1.28-0.24,2.54-0.72,3.78c-0.48,1.24-1.2,2.35-2.15,3.33c-0.96,0.99-2.15,1.77-3.58,2.36c-1.43,0.58-3.09,0.88-4.99,0.88
			H124.53z"/>
		<path fill="#FFFFFF" d="M152.26,61.41c-1.97,0-3.67-0.33-5.09-0.99c-1.42-0.66-2.58-1.53-3.48-2.6c-0.9-1.07-1.56-2.24-1.98-3.51
			c-0.42-1.26-0.63-2.5-0.63-3.71v-0.63c0-1.3,0.22-2.59,0.66-3.86c0.44-1.27,1.11-2.43,2-3.46s2.01-1.86,3.35-2.49
			c1.34-0.62,2.91-0.93,4.71-0.93c1.93,0,3.64,0.36,5.13,1.06c1.48,0.71,2.68,1.69,3.58,2.95c0.9,1.26,1.43,2.71,1.58,4.35h-5.35
			c-0.11-0.63-0.39-1.2-0.83-1.71c-0.44-0.51-1.01-0.91-1.71-1.21c-0.7-0.3-1.5-0.45-2.4-0.45c-0.86,0-1.62,0.15-2.28,0.45
			c-0.66,0.3-1.22,0.72-1.67,1.26c-0.45,0.55-0.79,1.19-1.02,1.94c-0.23,0.75-0.34,1.56-0.34,2.44c0,0.88,0.12,1.7,0.37,2.46
			c0.25,0.76,0.61,1.42,1.09,1.98c0.48,0.57,1.08,1,1.81,1.31c0.73,0.31,1.56,0.46,2.5,0.46c1.19,0,2.21-0.25,3.08-0.75
			c0.86-0.5,1.47-1.16,1.81-1.98l-0.4,3.16v-4.57h4.89v4.31c-0.88,1.51-2.13,2.68-3.75,3.49C156.26,61.01,154.39,61.41,152.26,61.41
			z M151.68,53.43v-3.74h11.67v3.74H151.68z"/>
		<path fill="#FFFFFF" d="M176.28,61.41c-1.92,0-3.58-0.33-5-0.99c-1.42-0.66-2.6-1.53-3.54-2.61c-0.94-1.08-1.64-2.26-2.1-3.52
			c-0.46-1.26-0.69-2.49-0.69-3.68v-0.63c0-1.32,0.24-2.62,0.72-3.89c0.48-1.27,1.2-2.43,2.16-3.46c0.96-1.04,2.14-1.86,3.55-2.47
			c1.41-0.61,3.04-0.92,4.9-0.92c1.84,0,3.46,0.31,4.87,0.92c1.41,0.61,2.59,1.44,3.55,2.47c0.96,1.03,1.68,2.19,2.17,3.46
			c0.49,1.27,0.73,2.57,0.73,3.89v0.63c0,1.19-0.23,2.42-0.7,3.68c-0.47,1.26-1.17,2.44-2.11,3.52c-0.94,1.08-2.12,1.95-3.54,2.61
			S178.18,61.41,176.28,61.41z M176.28,56.41c0.92,0,1.74-0.15,2.47-0.46c0.73-0.31,1.35-0.74,1.87-1.29
			c0.52-0.56,0.91-1.2,1.18-1.94c0.27-0.74,0.4-1.54,0.4-2.4c0-0.92-0.14-1.75-0.42-2.5c-0.28-0.75-0.68-1.39-1.19-1.93
			c-0.52-0.54-1.14-0.95-1.87-1.24c-0.73-0.29-1.54-0.43-2.44-0.43c-0.92,0-1.74,0.14-2.47,0.43c-0.73,0.29-1.35,0.7-1.87,1.24
			c-0.52,0.54-0.91,1.18-1.18,1.93c-0.27,0.75-0.4,1.58-0.4,2.5c0,0.86,0.13,1.66,0.4,2.4c0.27,0.74,0.66,1.38,1.18,1.94
			c0.52,0.56,1.14,0.99,1.87,1.29C174.54,56.26,175.37,56.41,176.28,56.41z"/>
		<path fill="#FFFFFF" d="M194.97,60.84l-6.09-20.98h5.52l4.57,17.21l-1.01-0.49h2.76l-1.03,0.49l4.25-17.21h5.35l-5.69,20.98
			H194.97z"/>
		<path fill="#FFFFFF" d="M221.86,61.41c-1.92,0-3.58-0.33-5-0.99s-2.6-1.53-3.54-2.61c-0.94-1.08-1.64-2.26-2.1-3.52
			c-0.46-1.26-0.69-2.49-0.69-3.68v-0.63c0-1.32,0.24-2.62,0.72-3.89c0.48-1.27,1.2-2.43,2.16-3.46c0.96-1.04,2.14-1.86,3.55-2.47
			c1.41-0.61,3.04-0.92,4.9-0.92c1.84,0,3.46,0.31,4.87,0.92c1.41,0.61,2.59,1.44,3.55,2.47c0.96,1.03,1.68,2.19,2.17,3.46
			c0.49,1.27,0.73,2.57,0.73,3.89v0.63c0,1.19-0.23,2.42-0.7,3.68c-0.47,1.26-1.17,2.44-2.11,3.52c-0.94,1.08-2.12,1.95-3.54,2.61
			S223.76,61.41,221.86,61.41z M221.86,56.41c0.92,0,1.74-0.15,2.47-0.46c0.73-0.31,1.35-0.74,1.87-1.29
			c0.52-0.56,0.91-1.2,1.18-1.94c0.27-0.74,0.4-1.54,0.4-2.4c0-0.92-0.14-1.75-0.42-2.5c-0.28-0.75-0.68-1.39-1.19-1.93
			s-1.14-0.95-1.87-1.24c-0.73-0.29-1.54-0.43-2.44-0.43c-0.92,0-1.74,0.14-2.47,0.43c-0.73,0.29-1.35,0.7-1.87,1.24
			c-0.52,0.54-0.91,1.18-1.18,1.93c-0.27,0.75-0.4,1.58-0.4,2.5c0,0.86,0.13,1.66,0.4,2.4c0.27,0.74,0.66,1.38,1.18,1.94
			c0.52,0.56,1.14,0.99,1.87,1.29C220.12,56.26,220.95,56.41,221.86,56.41z"/>
		<path fill="#FFFFFF" d="M236.41,60.84V39.69h5.35v21.15H236.41z M240.4,54.4v-4.11h5.03c0.63,0,1.18-0.12,1.64-0.37
			c0.46-0.25,0.82-0.6,1.08-1.06s0.39-1,0.39-1.61c0-0.63-0.13-1.18-0.39-1.64s-0.62-0.81-1.08-1.06c-0.46-0.25-1.01-0.37-1.64-0.37
			h-5.03v-4.48h4.71c1.82,0,3.39,0.27,4.71,0.82c1.32,0.54,2.34,1.35,3.05,2.41c0.71,1.06,1.06,2.38,1.06,3.95v0.46
			c0,1.57-0.36,2.88-1.08,3.92c-0.72,1.04-1.73,1.83-3.05,2.36s-2.88,0.79-4.7,0.79H240.4z M249.05,60.84l-5.89-8.91h5.81l6.24,8.91
			H249.05z"/>
		<path fill="#FFFFFF" d="M257.67,60.84V39.86h8.77l6.98,16.73h1.01l-0.58,0.52V39.86h5v20.98h-8.82l-6.98-16.73h-1.01l0.57-0.52
			v17.24H257.67z"/>
		<path fill="#FFFFFF" d="M293.4,61.41c-1.92,0-3.58-0.33-5-0.99c-1.42-0.66-2.6-1.53-3.54-2.61c-0.94-1.08-1.64-2.26-2.1-3.52
			c-0.46-1.26-0.69-2.49-0.69-3.68v-0.63c0-1.32,0.24-2.62,0.72-3.89c0.48-1.27,1.2-2.43,2.16-3.46c0.96-1.04,2.14-1.86,3.55-2.47
			c1.41-0.61,3.04-0.92,4.9-0.92c1.84,0,3.46,0.31,4.87,0.92c1.41,0.61,2.59,1.44,3.55,2.47c0.96,1.03,1.68,2.19,2.17,3.46
			c0.49,1.27,0.73,2.57,0.73,3.89v0.63c0,1.19-0.23,2.42-0.7,3.68c-0.47,1.26-1.17,2.44-2.11,3.52c-0.94,1.08-2.12,1.95-3.54,2.61
			C296.95,61.08,295.29,61.41,293.4,61.41z M293.4,56.41c0.92,0,1.74-0.15,2.47-0.46c0.73-0.31,1.35-0.74,1.87-1.29
			c0.52-0.56,0.91-1.2,1.18-1.94c0.27-0.74,0.4-1.54,0.4-2.4c0-0.92-0.14-1.75-0.42-2.5c-0.28-0.75-0.68-1.39-1.19-1.93
			s-1.14-0.95-1.87-1.24c-0.73-0.29-1.54-0.43-2.44-0.43c-0.92,0-1.74,0.14-2.47,0.43c-0.73,0.29-1.35,0.7-1.87,1.24
			c-0.52,0.54-0.91,1.18-1.18,1.93c-0.27,0.75-0.4,1.58-0.4,2.5c0,0.86,0.13,1.66,0.4,2.4c0.27,0.74,0.66,1.38,1.18,1.94
			c0.52,0.56,1.14,0.99,1.87,1.29C291.65,56.26,292.48,56.41,293.4,56.41z"/>
		<path fill="#FFFFFF" d="M307.42,60.84v-5h6.09v5H307.42z M307.79,53.48V39.86h5.34v13.62H307.79z"/>
	</g>
</g>
</svg>
