<?xml version="1.0" encoding="utf-8"?>
<!-- Generator: Adobe Illustrator 24.3.0, SVG Export Plug-In . SVG Version: 6.00 Build 0)  -->
<svg version="1.1" id="Layer_1" xmlns="http://www.w3.org/2000/svg" xmlns:xlink="http://www.w3.org/1999/xlink" x="0px" y="0px"
	 viewBox="0 0 196.42 200.27" enable-background="new 0 0 196.42 200.27" xml:space="preserve">
<path fill="none" stroke="#000000" stroke-width="1.9562" stroke-miterlimit="10" stroke-dasharray="4,4" d="M157.18,3.26H39.25
	C19.62,3.26,3.71,19.17,3.71,38.8v77.35c0,19.63,15.91,35.53,35.53,35.53h16.92c0.81,0,1.46,0.65,1.46,1.46v38.15
	c0,4.51,5.52,6.7,8.61,3.41l40.03-42.56c0.28-0.29,0.66-0.46,1.06-0.46h49.85c19.63,0,35.53-15.91,35.53-35.53V38.8
	C192.71,19.17,176.8,3.26,157.18,3.26z M143.06,82.1l-42.42,42.42c-1.36,1.36-3.58,1.36-4.94,0L53.37,82.19
	c-10.13-10.13-10.13-26.56,0-36.7c10.13-10.13,26.56-10.13,36.7,0l5.63,5.63c1.36,1.36,3.58,1.36,4.94,0l5.72-5.72
	c10.13-10.13,26.56-10.13,36.7,0C153.19,55.53,153.19,71.96,143.06,82.1z"/>
</svg>
