<?xml version="1.0" encoding="utf-8"?>
<!-- Generator: Adobe Illustrator 25.0.0, SVG Export Plug-In . SVG Version: 6.00 Build 0)  -->
<svg version="1.1" id="Layer_1" xmlns="http://www.w3.org/2000/svg" xmlns:xlink="http://www.w3.org/1999/xlink" x="0px" y="0px"
	 viewBox="0 0 130 28.4" enable-background="new 0 0 130 28.4" xml:space="preserve">
<g>
	<g>
		<path d="M111.7,28.4c12.3,0,18.3-4.5,18.3-14.2S124,0,111.7,0S93.5,4.5,93.5,14.2c0,7.9,4,12.4,12.2,13.8l0.5-0.2v-1.3l0.8,1
			l1.2-0.4l-0.7,1l0,0C108.7,28.3,110.2,28.4,111.7,28.4 M107.6,16.7c-0.1-0.6-0.2-1.2-0.2-1.9c0-3.7,1.4-5.6,4.3-5.6
			c2.9,0,4.3,1.9,4.3,5.6c0,3.2-1.3,5.2-3.5,5.5l3.4,2.5h-4.5l-1.4,4.3l-1.4-4.3h-4.5l3.6-2.6l-1.4-4.3L107.6,16.7z M126.4,10.1
			l0.7,1l1.1-0.4l-0.7,1l0.7,1l-1.1-0.4l-0.7,1v-1.2l-1.1-0.4l1.1-0.4V10.1z M118,15.1l0.4,1.1h1.1l-0.9,0.7l0.3,1.1l-0.9-0.7
			l-0.9,0.7l0.4-1.1l-0.9-0.7h1.1L118,15.1z M119.9,2.3l1.3,4.1h4.3L122,8.9l1.3,4.1l-3.5-2.5l-3.5,2.5l1.3-4.1l-3.5-2.5h4.3
			L119.9,2.3z M102.5,17.2l0.4,1.1h1.1l-0.9,0.7l0.4,1.1l-0.9-0.7l-0.9,0.7l0.4-1.1l-0.9-0.7h1.1L102.5,17.2z M103.3,8.6l1.5,2.1
			l2.4-0.8l-1.5,2l1.5,2.1l-2.4-0.8l-1.5,2v-2.5l-2.4-0.8l2.4-0.8V8.6z M122.9,14.8l0.1,1.1l1.1,0.3l-1.1,0.4l0.1,1.1l-0.7-0.9
			l-1.1,0.4l0.6-1l-0.7-0.9l1.1,0.3L122.9,14.8z M108.8,4l0.1,1.1l1.1,0.3l-1.1,0.4l0.1,1.1L108.3,6l-1.1,0.4l0.6-1l-0.7-0.9
			l1.1,0.3L108.8,4z M1.1,27.6H3l-0.7-0.9l2.8,0.9h1.8l2.3-3.1v3.1h14.6c0.8,0,1.4-0.6,1.4-1.4v-6.8c0-0.8-0.6-1.4-1.4-1.4h-8.6l0,0
			c-0.7,0-1.3-0.6-1.3-1.3l0,0v-4.8l-2.1,1l0.3,2.6l-1.8-1.9l-2.6,0.9L9,12.2l-1.7-1.9l2.6,0.5l1.3-2.3l0.3,2.6l2.3,0.5V2.2
			c0-0.8-0.6-1.4-1.4-1.4h-11C0.6,0.8,0,1.4,0,2.2v9.2l0,0l1-0.6l-0.4,1.1l0.9,0.7H0.3L0,13.5v3.6L1.1,17L0,18v8.5
			C0.1,27,0.6,27.5,1.1,27.6 M12.6,18.5l1.5,1.9l2.3-0.8l-1.4,2l1.5,1.9l-2.3-0.7l-1.4,2l-0.1-2.4l-2.3-0.7l2.3-0.8L12.6,18.5z
			 M3.6,20.9l0.6,1l1.2-0.2l-0.8,0.9l0.6,1l-1.1-0.5L3.3,24l0.1-1.2l-1.1-0.5l1.2-0.2L3.6,20.9z M5.9,15.4v1.2L7,17l-1.1,0.3v1.2
			l-0.7-1l-1.1,0.3l0.7-0.9l-0.7-1l1.1,0.4L5.9,15.4z M20.1,20.3v1.2l1.1,0.4l-1.1,0.4v1.2l-0.7-1l-1.1,0.3l0.7-0.9l-0.7-1l1.1,0.4
			L20.1,20.3z M62.4,10L62.4,10c0,0.9,0.6,1.5,1.4,1.5h2.6l-1.1-2L62.4,10z M62.4,4.2v4.3l1.5-1.6L62.4,4.2z M84.2,19.2v-0.8
			l-0.3,0.3L84.2,19.2z M71.9,27.6h4.3l-1-1.5l-2.4,0.7l1.5-2l-1.4-2.1l2.4,0.8l1.5-2V24l2.4,0.8l-2.4,0.7v1.9h6.3
			c0.8,0,1.4-0.6,1.4-1.4v-6.6L83.7,19l-0.8,0.8l0.2-1.1l-1-0.5l1.1-0.2l0.2-1.1l0.5,1l0.6-0.1v-5.1c0-0.1,0-0.1,0-0.2l-0.9-0.4
			l-3.2,3.3l0.6-4.6l-4.1-2L81.4,8L82,3.4l2.2,4.1l4.5-0.8L85.5,10l0.7,1.3h4.9c0.8,0,1.4-0.6,1.4-1.4V2.2c0-0.8-0.6-1.4-1.4-1.4
			H72.3l-0.4,1.1l-0.4-1.1h-7.7c-0.7,0-1.3,0.6-1.4,1.3v1.1l3.4,1.6l3.1-3.4L68.3,6l4.2,2L68,8.9l-0.3,2.6H69c0.8,0,1.4,0.6,1.4,1.4
			v13.3C70.5,26.9,71.1,27.6,71.9,27.6 M76.2,2.2l0.5,1L77.8,3L77,3.8l0.5,1l-1-0.5l-0.8,0.8L75.9,4l-1-0.5L76,3.3L76.2,2.2z
			 M73.8,10.2l0.5,1l1.1-0.2l-0.8,0.8l0.5,1l-1-0.5l-0.8,0.8l0.2-1.1l-1-0.5l1.1-0.2L73.8,10.2z M76.5,15.5l0.3,1.1l1.1,0.1l-1,0.6
			l0.3,1.1l-0.9-0.7l-1,0.6l0.4-1l-0.9-0.7l1.1,0.1L76.5,15.5z M43.6,28.4c12.3,0,18.3-4.5,18.3-14.2S55.9,0,43.6,0
			C31.3,0,25.4,4.5,25.4,14.2c0,7.9,4,12.4,12.2,13.8l0.5-0.2v-1.3l0.8,1l1.2-0.4l-0.7,1l0,0C40.6,28.3,42.1,28.4,43.6,28.4
			 M39.5,16.7c-0.1-0.6-0.2-1.2-0.2-1.9c0-3.7,1.4-5.6,4.3-5.6s4.3,1.9,4.3,5.6c0,3.2-1.3,5.2-3.5,5.5l3.4,2.5h-4.5l-1.4,4.3
			l-1.4-4.3H36l3.6-2.6l-1.3-4.3L39.5,16.7z M58.3,10.1l0.7,1l1.1-0.4l-0.7,1l0.7,1L59,12.3l-0.7,1v-1.2l-1.1-0.4l1.1-0.4V10.1z
			 M49.9,15.1l0.4,1.1h1.1l-0.9,0.7l0.4,1.1L50,17.3L49.1,18l0.4-1.1l-0.9-0.7h1.1L49.9,15.1z M51.8,2.3l1.3,4.1h4.3l-3.5,2.5
			l1.3,4.1l-3.5-2.5l-3.4,2.4l1.3-4.1l-3.5-2.5h4.3L51.8,2.3z M34.4,17.2l0.4,1.1h1.1L35,19l0.4,1.1l-0.9-0.7l-0.9,0.7L34,19
			l-0.9-0.7h1.1L34.4,17.2z M35.2,8.6l1.5,2.1l2.4-0.8l-1.5,2l1.5,2.1l-2.4-0.8l-1.5,2v-2.5l-2.4-0.8l2.4-0.8V8.6z M54.8,14.8
			l0.1,1.1l1.1,0.3l-1.1,0.4l0.1,1.1l-0.7-0.9l-1.1,0.4l0.6-1l-0.7-0.9l1.1,0.3L54.8,14.8z M40.7,4l0.1,1.1l1.1,0.3l-1.1,0.4
			l0.1,1.1L40.2,6l-1.1,0.5l0.6-1L39,4.6l1.1,0.3L40.7,4z"/>
	</g>
</g>
</svg>
