<?xml version="1.0" encoding="utf-8"?>
<!-- Generator: Adobe Illustrator 25.0.0, SVG Export Plug-In . SVG Version: 6.00 Build 0)  -->
<svg version="1.1" id="Layer_1" xmlns="http://www.w3.org/2000/svg" xmlns:xlink="http://www.w3.org/1999/xlink" x="0px" y="0px"
	 viewBox="0 0 174 32.1" enable-background="new 0 0 174 32.1" xml:space="preserve">
	<path d="M41.1,5.5l0.1,1.2L42.3,7l-1.1,0.4l0.1,1.2l-0.7-0.9l-1.1,0.4l0.6-1l-0.7-0.9l1.1,0.3L41.1,5.5z M55,16.7l0.1,1.2l1.1,0.3
	l-1.1,0.4l0.1,1.2l-0.7-0.9l-1,0.4l0.6-1l-0.8-1l1.1,0.3L55,16.7z M35.6,10.3l1.4,2.1l2.4-0.8l-1.5,2.1l1.4,2.1L36.9,15l-1.5,2.1
	v-2.6L33,13.7l2.4-0.8L35.6,10.3z M34.9,19.2l0.3,1.1h1.1L35.4,21l0.4,1.1l-0.9-0.7L34,22.1l0.4-1.1l-1-0.7h1.1L34.9,19.2z
		M52,3.8L53.3,8h4.2l-3.4,2.6l1.3,4.2L52,12.2l-3.4,2.6l1.3-4.2L46.5,8h4.2L52,3.8z M50.2,17l0.4,1.1h1l-0.9,0.7l0.4,1.1l-0.9-0.7
	l-0.9,0.7l0.3-1.1l-0.9-0.7h1.1L50.2,17z M58.4,11.8l0.7,1l1.1-0.4l-0.7,1l0.7,1L59.1,14l-0.7,1v-1.2l-1.1-0.4l1.1-0.4V11.8z
		M39.8,18.7c-0.1-0.6-0.2-1.3-0.2-2c0-3.8,1.4-5.7,4.3-5.7c2.8,0,4.3,1.9,4.3,5.7c0,3.3-1.3,5.3-3.4,5.7l3.4,2.6h-4.5l-1.4,4.4
	L40.9,25h-4.5l3.6-2.7l-1.4-4.4L39.8,18.7z M43.9,30.7c12.2,0,18-4.7,18-14.6c0-10-5.9-14.6-18-14.6c-12.2,0-18,4.6-18,14.6
	c0,8.2,3.9,12.8,12,14.2l0.5-0.2v-1.3l0.7,1l1.2-0.4l-0.7,1.1l0,0C41,30.6,42.4,30.7,43.9,30.7 M76.5,17.4l0.3,1.1l1.1,0.1l-1,0.6
	l0.3,1.1l-0.8-0.8l-1,0.6l0.4-1.1L75,18.2l1.1,0.1L76.5,17.4z M73.7,12l0.5,1l1.1-0.2l-0.8,0.8l0.5,1l-1-0.5l-0.8,0.8l0.2-1.2
	l-1-0.5l1.1-0.2L73.7,12z M76.2,3.8l0.5,1l1.1-0.2L77,5.4l0.5,1l-1-0.5l-0.8,0.8l0.1-1.1l-1-0.5l1.1-0.2L76.2,3.8z M71.8,29.8H76
	l-1-1.5l-2.4,0.8l1.5-2.1l-1.4-2.1l2.4,0.9l1.5-2.1l-0.1,2.6l2.4,0.9l-2.4,0.7v2h6.2c0.8,0,1.4-0.6,1.4-1.4v-6.8l-0.7-0.4
	l-0.8,0.8l0.2-1.2l-1-0.5l1.1-0.2l0.2-1.2l0.5,1l0.6-0.1v-5.3c0-0.1,0-0.1,0-0.2L83.3,14l-3.2,3.4l0.6-4.7l-4.1-2.1l4.5-0.8
	l0.6-4.7l2.1,4.2l4.5-0.8l-3.2,3.4l0.7,1.3h4.8c0.8,0,1.4-0.6,1.4-1.4v-8c0-0.8-0.6-1.4-1.4-1.4H72.2l-0.3,1.2l-0.4-1.3h-7.7
	c-0.7,0-1.3,0.6-1.4,1.3v1.1l3.4,1.7l3.1-3.5l-0.6,4.7l4.1,2l-4.5,0.9l-0.1,2.8h1.3c0.8,0,1.4,0.6,1.4,1.4v13.7
	C70.5,29.2,71.1,29.8,71.8,29.8 M84.1,21.2v-0.8l-0.3,0.3L84.1,21.2z M62.5,5.8v4.5L64,8.6L62.5,5.8z M62.5,11.7v0.1
	c0,0.8,0.6,1.4,1.4,1.4h2.6l-1.1-2.1L62.5,11.7z M20.7,22.4v1.2l1.1,0.4l-1.1,0.3v1.2l-0.7-1l-1.1,0.4l0.7-1l-0.7-1l1.1,0.4
	L20.7,22.4z M6.7,17.4v1.2L7.8,19l-1.2,0.3v1.2l-0.7-1l-1.1,0.4l0.7-1l-0.7-1l1.1,0.4L6.7,17.4z M4.4,23L5,24.1l1.1-0.2l-0.8,0.9
	l0.6,1.1l-1.1-0.6L4,26.2L4.1,25L3,24.5l1.1-0.2L4.4,23z M13.3,20.5l1.4,2l2.3-0.8l-1.4,2l1.4,2L14.7,25l-1.4,2l-0.1-2.5l-2.3-0.7
	l2.3-0.8L13.3,20.5z M1.9,29.8h1.9l-0.7-1l2.7,1h1.7l2.3-3.1v3.1h14.4c0.8,0,1.4-0.6,1.4-1.4v-7c0-0.8-0.6-1.4-1.4-1.4h-8.5l0,0
	c-0.7,0-1.3-0.6-1.3-1.4l0,0v-5l-2.1,1l0.3,2.7l-1.7-2l-2.4,1.1l1.3-2.3l-1.7-2l2.5,0.5l1.3-2.3l0.3,2.7l2.3,0.5V3.8
	c0-0.8-0.6-1.4-1.4-1.4H2.2C1.4,2.4,0.8,3,0.8,3.8v9.5l0,0l1-0.7l-0.4,1.1l0.9,0.8l-1.2-0.1l-0.3,0.9V19l1.1-0.1l-1.1,1v8.8
	C0.9,29.3,1.4,29.8,1.9,29.8 M108.4,5.5l0.1,1.2l1.1,0.3l-1.1,0.4l0.1,1.2l-0.7-0.9l-1.1,0.4l0.6-1l-0.8-0.9l1.1,0.3L108.4,5.5z
		M122.3,16.7l0.1,1.2l1.1,0.3l-1.1,0.4l0.1,1.2l-0.7-0.9l-1.1,0.4l0.6-1l-0.7-1l1.1,0.3L122.3,16.7z M102.9,10.3l1.4,2.1l2.4-0.8
	l-1.5,2.1l1.4,2.1l-2.4-0.8l-1.5,2.1v-2.6l-2.4-0.8l2.4-0.8L102.9,10.3z M102.1,19.2l0.3,1.1h1.1l-0.9,0.7l0.3,1.1l-0.9-0.7
	l-0.9,0.7l0.4-1.1l-0.9-0.7h1.1L102.1,19.2z M119.3,3.8l1.3,4.2h4.2l-3.4,2.6l1.3,4.2l-3.4-2.6l-3.4,2.6l1.3-4.2L113.8,8h4.2
	L119.3,3.8z M117.4,17l0.4,1.1h1.1l-0.9,0.7l0.4,1.1l-0.9-0.7l-0.9,0.7l0.3-1.1l-0.9-0.7h1.1L117.4,17z M125.7,11.8l0.7,1l1.1-0.4
	l-0.7,1l0.7,1l-1.1-0.4l-0.7,1v-1.2l-1.1-0.4l1.1-0.4V11.8z M107.1,18.7c-0.1-0.6-0.2-1.3-0.2-2c0-3.8,1.4-5.7,4.3-5.7
	c2.8,0,4.3,1.9,4.3,5.7c0,3.3-1.3,5.3-3.4,5.7l3.4,2.6h-4.4l-1.4,4.4l-1.4-4.4h-4.5l3.6-2.7l-1.4-4.4L107.1,18.7z M111.2,30.7
	c12.2,0,18.1-4.7,18.1-14.6c0-10-5.9-14.6-18.1-14.6c-12.2,0-18,4.6-18,14.6c0,8.2,3.9,12.8,12,14.2l0.5-0.2v-1.3l0.7,1l1.2-0.4
	l-0.7,1.1l0,0C108.2,30.6,109.7,30.7,111.2,30.7"/>
	<path d="M170.2,10.7h-3.9L169,12L170.2,10.7z M162.2,18.1l-2.7-0.5l-0.4-2.8l-1.3,2.5l-2.7-0.5l1.9,2l-1.3,2.5l2.4-1.3l1.9,2
	l-0.4-2.8L162.2,18.1z M155.7,28.4l1.1-0.6l-1.2-0.2l-0.2-1.2l-0.6,1.1l-1.2-0.2l0.8,0.9l-0.5,1.1l1.1-0.6l0.8,0.9L155.7,28.4z
		M157.7,3l0.6,0.7l-0.4,0.9l0.8-0.4l0.6,0.7L159.2,4l0.8-0.4l-0.8-0.3l-0.1-1l-0.5,0.9L157.7,3z M172.9,15.3v3.9c0,1.1-0.9,2-2,2
	h-8.6v8.9c0,1.1-0.9,2-2,2h-6.2c-1.1,0-2-0.9-2-2v-8.8h-8.6c-1.1,0-2-0.9-2-2v-1.2l0.8,0.8l-0.2-1.2l1.1-0.6l-1.2-0.2l-0.2-1.2
	l-0.3,0.6v-3.4c0-1.1,0.9-2,2-2h7.3l0.3,0.1l-0.2,1.4l0.9-1L153,12l-0.6-1.2l0.9-1l-1.2,0.2V2c0-1.1,0.9-2,2-2h6.2
	c1.1,0,2,0.9,2,2v8.9h3.2l1.7,3.2l-2.8,3l3.9-0.8l1.9,3.7l0.5-4.1L172.9,15.3z M171.5,10.8c0.8,0.3,1.4,1,1.4,1.9v1.2l-1.7-0.8
	L171.5,10.8z"/>
</svg>
