<?xml version="1.0" encoding="utf-8"?>
<!-- Generator: Adobe Illustrator 25.0.1, SVG Export Plug-In . SVG Version: 6.00 Build 0)  -->
<svg version="1.1" id="Layer_1" xmlns="http://www.w3.org/2000/svg" xmlns:xlink="http://www.w3.org/1999/xlink" x="0px" y="0px"
	 viewBox="0 0 69.2 50" enable-background="new 0 0 69.2 50" xml:space="preserve">
<g>
	<g>
		<path fill="#0048D0" d="M33.5,19.1c-1.9,1-5.3,0.9-5.3,0.9s0.4,1.1,1.3,2.1C33.2,26.6,33.5,19.1,33.5,19.1z"/>
		<path fill="#0048D0" d="M54.4,0.9l-43,11.9c-2.9,0.8-4.5,3.8-3.8,6.6l7.1,25.7c0.8,2.9,3.8,4.5,6.6,3.8l1.8-0.5
			c0.5-4.7,4.1-10.8,6.9-16.1c1.7-3.2,2.3-3.7,3.9-2.6c7.7,5.1,11.3,9.3,12.2,12.3l18.2-5c2.9-0.8,4.5-3.8,3.8-6.6L61,4.7
			C60.2,1.8,57.3,0.1,54.4,0.9z M31.5,12.6c0-0.2,0.3-0.6,0.3-0.6c0-0.1,0.1-0.1,0.1-0.1c1.4,0,3,0.4,3.5,0.6c0.5,0.3,0.1,0.8,0,1
			c-0.1,0.2,0,0.2-0.3,0.1c-0.6-0.2-3.1-0.8-3.3-0.8C31.5,12.7,31.4,12.7,31.5,12.6z M19.1,13.2c0.6-0.2,4.3-1.3,5.7-1.4
			c0.4,0,0.5,0.2,0.6,0.5c0.1,0.3,0.3,0.8,0,0.9c-0.3,0.1-2.5,0.8-3.9,1.3c-1.4,0.6-1.7,0.7-1.9,0.8c-0.2,0.1-0.4,0.3-0.9-1
			C18.5,13.9,18.5,13.4,19.1,13.2z M28,32.1c-3,4-4.4,6.9-7.4,7.1c-5,0.5-5-4.9-5-4.9s-1.7-0.2-2.4-2.1c-0.6-1.8,0.2-3.8,2.2-4.7
			c5.8-2.8,14.3,0,14.3,0C31.5,28.3,30.2,29.1,28,32.1z M31.7,26c-0.6,0.1-1.5,0-2.4-0.2c-3.7-0.9-8.9-3.7-7.9-8
			c1-4.8,6.8-3.5,8.1-2.5c0,0,2.2-2.1,4.3-0.2c2.1,1.9,1,6.7-0.4,9.3C32.8,25.3,32.4,25.9,31.7,26z M45.7,29.2
			c-2.2,2.5-7.7,0-11.1-1.1c-1.1-0.4-1.6-0.8-0.5-2.1c1.2-1.4,3.8-3.5,6.5-3.4c2.4,0,2.7,2.1,2.7,2.1S48.2,26.4,45.7,29.2z"/>
		<path fill="#FFFFFF" d="M34,29.7c-1.6-1.1-2.3-0.6-3.9,2.6c-2.8,5.3-6.4,11.4-6.9,16.1l23-6.4C45.3,39,41.7,34.8,34,29.7z"/>
		<path fill="#FFFFFF" d="M43.4,24.7c0,0-0.3-2.1-2.7-2.1c-2.7,0-5.3,2-6.5,3.4c-1.1,1.3-0.7,1.7,0.5,2.1c3.4,1.2,8.9,3.6,11.1,1.1
			C48.2,26.4,43.4,24.7,43.4,24.7z"/>
		<path fill="#FFFFFF" d="M29.6,27.5c0,0-8.6-2.8-14.3,0c-1.9,0.9-2.8,2.8-2.2,4.7c0.6,1.8,2.4,2.1,2.4,2.1s0.1,5.4,5,4.9
			c3-0.3,4.4-3.1,7.4-7.1C30.2,29.1,31.5,28.3,29.6,27.5z"/>
		<path fill="#FFFFFF" d="M33.3,24.3c1.4-2.6,2.5-7.4,0.4-9.3c-2-1.9-4.2,0.3-4.3,0.2c-1.3-0.9-7-2.3-8.1,2.5
			c-0.9,4.4,4.2,7.1,7.9,8c0.9,0.2,1.8,0.3,2.4,0.2C32.4,25.9,32.8,25.3,33.3,24.3z M29.5,22.2c-0.9-1.1-1.3-2.1-1.3-2.1
			s3.4,0.1,5.3-0.9C33.5,19.1,33.2,26.6,29.5,22.2z"/>
		<path fill="#FFFFFF" d="M19.7,15.4c0.2-0.1,0.5-0.3,1.9-0.8c1.4-0.6,3.6-1.3,3.9-1.3c0.3-0.1,0.1-0.6,0-0.9
			c-0.1-0.3-0.2-0.6-0.6-0.5c-1.4,0.1-5.1,1.2-5.7,1.4c-0.6,0.2-0.5,0.7-0.3,1.2C19.3,15.7,19.5,15.5,19.7,15.4z"/>
		<path fill="#FFFFFF" d="M35,13.6c0.3,0.1,0.2,0.1,0.3-0.1c0.1-0.2,0.5-0.7,0-1c-0.5-0.3-2.1-0.6-3.5-0.6c0,0-0.1,0-0.1,0.1
			c0,0-0.2,0.5-0.3,0.6c0,0.2,0,0.2,0.3,0.2C31.9,12.8,34.4,13.4,35,13.6z"/>
	</g>
	<circle fill="#E51B2B" cx="3.7" cy="8.6" r="2.7"/>
	<circle fill="#FFC027" cx="57.9" cy="45.4" r="2.1"/>
	<path fill="#57DF89" d="M52.9,9l1.1,2.8c0.2,0.6,0.7,1.1,1.3,1.3l2.8,1.1c0.5,0.2,0.5,0.9,0,1.1l-2.8,1.1c-0.6,0.2-1.1,0.7-1.3,1.3
		l-1.1,2.8c-0.2,0.5-0.9,0.5-1.1,0l-1.1-2.8c-0.2-0.6-0.7-1.1-1.3-1.3l-2.8-1.1c-0.5-0.2-0.5-0.9,0-1.1l2.8-1.1
		c0.6-0.2,1.1-0.7,1.3-1.3L51.9,9C52.1,8.5,52.7,8.5,52.9,9z"/>
</g>
</svg>
