<?xml version="1.0" encoding="utf-8"?>
<!-- Generator: Adobe Illustrator 25.0.1, SVG Export Plug-In . SVG Version: 6.00 Build 0)  -->
<svg version="1.1" id="Layer_1" xmlns="http://www.w3.org/2000/svg" xmlns:xlink="http://www.w3.org/1999/xlink" x="0px" y="0px"
	 viewBox="0 0 75.5 42.5" enable-background="new 0 0 75.5 42.5" xml:space="preserve">
<g>
	<g>
		<path fill="#0048D0" d="M68.9,3.6v35c0,1.8-1.4,3.2-3.2,3.2H10.9c-0.7,0-1.4-0.3-2-0.7L68.2,1.5C68.6,2.1,68.9,2.8,68.9,3.6z"/>
		<g>
			<path fill="#005DFF" d="M68.2,1.5L8.9,41.1c-0.7-0.6-1.2-1.5-1.2-2.5v-35c0-1.8,1.4-3.2,3.2-3.2h54.9C66.7,0.4,67.6,0.8,68.2,1.5
				z"/>
			<g>
				<defs>
					<path id="SVGID_1_" d="M65.8,41.8H10.9c-1.7,0-3.2-1.4-3.2-3.2V3.6c0-1.7,1.4-3.2,3.2-3.2h54.9c1.7,0,3.2,1.4,3.2,3.2v35.1
						C68.9,40.4,67.5,41.8,65.8,41.8z"/>
				</defs>
				<clipPath id="SVGID_2_">
					<use xlink:href="#SVGID_1_"  overflow="visible"/>
				</clipPath>
				<g clip-path="url(#SVGID_2_)">
					<path fill="#E51B2B" d="M22.4,28.9c-7.4,8-17.9,17.5-12.3,23.9c5.7,6.5,14.9-3.3,17.4-2.7c10.5,2.6,16.6-3.9,0.2-22.9
						C26.3,25.4,25.3,25.8,22.4,28.9L22.4,28.9z"/>
					<path fill="#E51B2B" d="M29,25.5c3.5,2.4,9.1,7.1,12.5,4.9c3.8-2.5-1.2-6.1-1.2-6.1s0.3-2.5-2.5-3.3c-3.1-0.9-6.7,0.7-8.6,1.9
						C27.4,24.1,27.8,24.7,29,25.5L29,25.5z"/>
					<path fill="#E51B2B" d="M23.4,23.3c0,0-9-6-16.6-4.6c-2.5,0.5-4.2,2.4-4,4.7c0.1,2.3,2.1,3.1,2.1,3.1s-1.6,6.2,4.3,7.3
						c3.6,0.7,6.1-2.2,10.9-5.9C23.6,25.2,25.3,24.8,23.4,23.3L23.4,23.3z"/>
					<path fill="#E51B2B" d="M32.2,10c-1.8-2.8-5-1.1-5-1.1C26,7.4,19.8,4,17.1,9.3c-2.5,4.7,2.6,9.6,6.6,11.8c0.9,0.5,2,0.9,2.7,1
						c0.8,0.1,1.4-0.4,2.4-1.5C31.2,18.1,34,12.9,32.2,10L32.2,10z M25,17.1c-0.7-1.5-0.8-2.9-0.8-2.9s3.9,1.2,6.4,0.6
						C30.6,14.8,27.8,23.3,25,17.1L25,17.1z"/>
					<path fill="#E51B2B" d="M15,4.6c-0.1-0.7,0-1.3,0.8-1.3c0.8,0,5.4-0.1,7.1,0.2c0.5,0.1,0.5,0.4,0.6,0.8c0.1,0.4,0.1,1-0.2,1.1
						c-0.3,0-3.1,0.1-4.9,0.3C16.5,5.9,16,6,15.8,6C15.6,6.1,15.2,6.3,15,4.6L15,4.6z"/>
					<path fill="#E51B2B" d="M30.8,5.8c0,0-0.4,0.5-0.5,0.7c-0.1,0.2,0,0.2,0.2,0.3c0.2,0.1,2.9,1.6,3.6,2c0.3,0.2,0.2,0.1,0.4,0
						c0.2-0.2,0.8-0.7,0.4-1.2c-0.4-0.4-2.3-1.4-3.8-1.9C31,5.8,30.9,5.7,30.8,5.8L30.8,5.8z"/>
				</g>
			</g>
		</g>
	</g>
	<path fill="#152238" d="M71.6,41.9H4c-1.8,0-3.3-1.5-3.3-3.3l0,0H75l0,0C75,40.4,73.5,41.9,71.6,41.9z"/>
</g>
</svg>
