<?xml version="1.0" encoding="utf-8"?>
<!-- Generator: Adobe Illustrator 25.0.1, SVG Export Plug-In . SVG Version: 6.00 Build 0)  -->
<svg version="1.1" id="Layer_1" xmlns="http://www.w3.org/2000/svg" xmlns:xlink="http://www.w3.org/1999/xlink" x="0px" y="0px"
	 viewBox="0 0 50.4 68.8" enable-background="new 0 0 50.4 68.8" xml:space="preserve">
<g>
	<path fill="#E51B2B" d="M46,38.7L46,38.7c2.7-4.2,4.2-9.3,3.9-14.7C49.4,11.3,38.9,1,26.2,0.5C12,0,0.4,11.3,0.4,25.3
		c0,5,1.5,9.6,4,13.5h0l0,0c0.1,0.2,0.3,0.5,0.5,0.7l18.9,28.2c0.7,1,2.2,1,2.9,0l19-28.3c0.1-0.1,0.2-0.3,0.3-0.4L46,38.7z"/>
	<g>
		<path fill="#FFFFFF" d="M24.9,26.4c-4.8,5.1-11.5,11.2-7.9,15.3c3.7,4.2,9.6-2.1,11.2-1.7c6.8,1.7,10.7-2.5,0.1-14.7
			C27.4,24.2,26.8,24.4,24.9,26.4L24.9,26.4z"/>
		<path fill="#FFFFFF" d="M29.2,24.2c2.3,1.6,5.9,4.5,8,3.1c2.4-1.6-0.8-3.9-0.8-3.9s0.2-1.6-1.6-2.1c-2-0.6-4.3,0.4-5.5,1.2
			C28.2,23.4,28.4,23.7,29.2,24.2L29.2,24.2z"/>
		<path fill="#FFFFFF" d="M25.6,22.8c0,0-5.8-3.8-10.7-2.9c-1.6,0.3-2.7,1.5-2.6,3c0.1,1.5,1.3,2,1.3,2s-1.1,4,2.7,4.7
			c2.3,0.4,3.9-1.4,7-3.8C25.7,24.1,26.8,23.7,25.6,22.8L25.6,22.8z"/>
		<path fill="#FFFFFF" d="M31.3,14.3c-1.1-1.8-3.2-0.7-3.2-0.7c-0.8-1-4.7-3.2-6.5,0.2c-1.6,3,1.7,6.2,4.2,7.6
			c0.6,0.3,1.3,0.6,1.7,0.7c0.5,0.1,0.9-0.3,1.5-0.9C30.6,19.5,32.4,16.1,31.3,14.3L31.3,14.3z M26.6,18.8c-0.4-1-0.5-1.9-0.5-1.9
			s2.5,0.8,4.1,0.4C30.2,17.3,28.4,22.8,26.6,18.8L26.6,18.8z"/>
		<path fill="#FFFFFF" d="M20.2,10.8c-0.1-0.4,0-0.9,0.5-0.9c0.5,0,3.5-0.1,4.5,0.1c0.3,0.1,0.3,0.3,0.4,0.5c0,0.3,0.1,0.7-0.1,0.7
			c-0.2,0-2,0.1-3.1,0.2c-1.1,0.1-1.5,0.2-1.6,0.2C20.6,11.7,20.4,11.9,20.2,10.8L20.2,10.8z"/>
		<path fill="#FFFFFF" d="M30.4,11.6c0,0-0.3,0.3-0.3,0.4c0,0.1,0,0.1,0.1,0.2c0.2,0.1,1.9,1,2.3,1.3c0.2,0.1,0.1,0.1,0.2,0
			c0.1-0.1,0.5-0.5,0.2-0.7c-0.3-0.3-1.5-0.9-2.5-1.2C30.5,11.6,30.4,11.5,30.4,11.6L30.4,11.6z"/>
	</g>
</g>
</svg>
