<?xml version="1.0" encoding="utf-8"?>
<!-- Generator: Adobe Illustrator 24.3.0, SVG Export Plug-In . SVG Version: 6.00 Build 0)  -->
<svg version="1.1" id="Layer_1" xmlns="http://www.w3.org/2000/svg" xmlns:xlink="http://www.w3.org/1999/xlink" x="0px" y="0px"
	 viewBox="0 0 898.57 447.13" enable-background="new 0 0 898.57 447.13" xml:space="preserve" style="background: #fff">
<g>
	<g>
		<g>
			<g>
				<path fill="#005DFF" d="M22.1,20.23c-1.05,0-1.91,0.86-1.91,1.91v0.05c0,1.05,0.86,1.91,1.91,1.91h0.05
					c1.05,0,1.91-0.86,1.91-1.91v-0.05c0-1.05-0.86-1.91-1.91-1.91H22.1z"/>
			</g>
			<g>
				<path fill="#005DFF" d="M22.1,77.92c-1.05,0-1.91,0.86-1.91,1.91v0.05c0,1.05,0.86,1.91,1.91,1.91h0.05
					c1.05,0,1.91-0.86,1.91-1.91v-0.05c0-1.05-0.86-1.91-1.91-1.91H22.1z"/>
			</g>
			<g>
				<path fill="#005DFF" d="M22.1,135.61c-1.05,0-1.91,0.86-1.91,1.91v0.05c0,1.05,0.86,1.91,1.91,1.91h0.05
					c1.05,0,1.91-0.86,1.91-1.91v-0.05c0-1.05-0.86-1.91-1.91-1.91H22.1z"/>
			</g>
			<g>
				<path fill="#005DFF" d="M22.1,193.3c-1.05,0-1.91,0.86-1.91,1.91v0.05c0,1.05,0.86,1.91,1.91,1.91h0.05
					c1.05,0,1.91-0.86,1.91-1.91v-0.05c0-1.05-0.86-1.91-1.91-1.91H22.1z"/>
			</g>
			<g>
				<path fill="#005DFF" d="M22.1,250.99c-1.05,0-1.91,0.86-1.91,1.91v0.05c0,1.05,0.86,1.91,1.91,1.91h0.05
					c1.05,0,1.91-0.86,1.91-1.91v-0.05c0-1.05-0.86-1.91-1.91-1.91H22.1z"/>
			</g>
			<g>
				<path fill="#005DFF" d="M22.1,308.68c-1.05,0-1.91,0.86-1.91,1.91v0.05c0,1.05,0.86,1.91,1.91,1.91h0.05
					c1.05,0,1.91-0.86,1.91-1.91v-0.05c0-1.05-0.86-1.91-1.91-1.91H22.1z"/>
			</g>
			<g>
				<path fill="#005DFF" d="M22.1,366.37c-1.05,0-1.91,0.86-1.91,1.91v0.05c0,1.05,0.86,1.91,1.91,1.91h0.05
					c1.05,0,1.91-0.86,1.91-1.91v-0.05c0-1.05-0.86-1.91-1.91-1.91H22.1z"/>
			</g>
			<g>
				<path fill="#005DFF" d="M22.1,424.06c-1.05,0-1.91,0.86-1.91,1.91v0.05c0,1.05,0.86,1.91,1.91,1.91h0.05
					c1.05,0,1.91-0.86,1.91-1.91v-0.05c0-1.05-0.86-1.91-1.91-1.91H22.1z"/>
			</g>
			<g>
				<path fill="#005DFF" d="M79,20.23c-1.05,0-1.91,0.86-1.91,1.91v0.05c0,1.05,0.86,1.91,1.91,1.91h0.05
					c1.05,0,1.91-0.86,1.91-1.91v-0.05c0-1.05-0.86-1.91-1.91-1.91H79z"/>
			</g>
			<g>
				<path fill="#005DFF" d="M79,77.92c-1.05,0-1.91,0.86-1.91,1.91v0.05c0,1.05,0.86,1.91,1.91,1.91h0.05
					c1.05,0,1.91-0.86,1.91-1.91v-0.05c0-1.05-0.86-1.91-1.91-1.91H79z"/>
			</g>
			<g>
				<path fill="#005DFF" d="M79,135.61c-1.05,0-1.91,0.86-1.91,1.91v0.05c0,1.05,0.86,1.91,1.91,1.91h0.05
					c1.05,0,1.91-0.86,1.91-1.91v-0.05c0-1.05-0.86-1.91-1.91-1.91H79z"/>
			</g>
			<g>
				<path fill="#005DFF" d="M79,193.3c-1.05,0-1.91,0.86-1.91,1.91v0.05c0,1.05,0.86,1.91,1.91,1.91h0.05
					c1.05,0,1.91-0.86,1.91-1.91v-0.05c0-1.05-0.86-1.91-1.91-1.91H79z"/>
			</g>
			<g>
				<path fill="#005DFF" d="M79,250.99c-1.05,0-1.91,0.86-1.91,1.91v0.05c0,1.05,0.86,1.91,1.91,1.91h0.05
					c1.05,0,1.91-0.86,1.91-1.91v-0.05c0-1.05-0.86-1.91-1.91-1.91H79z"/>
			</g>
			<g>
				<path fill="#005DFF" d="M79,308.68c-1.05,0-1.91,0.86-1.91,1.91v0.05c0,1.05,0.86,1.91,1.91,1.91h0.05
					c1.05,0,1.91-0.86,1.91-1.91v-0.05c0-1.05-0.86-1.91-1.91-1.91H79z"/>
			</g>
			<g>
				<path fill="#005DFF" d="M79,366.37c-1.05,0-1.91,0.86-1.91,1.91v0.05c0,1.05,0.86,1.91,1.91,1.91h0.05
					c1.05,0,1.91-0.86,1.91-1.91v-0.05c0-1.05-0.86-1.91-1.91-1.91H79z"/>
			</g>
			<g>
				<path fill="#005DFF" d="M79,424.06c-1.05,0-1.91,0.86-1.91,1.91v0.05c0,1.05,0.86,1.91,1.91,1.91h0.05
					c1.05,0,1.91-0.86,1.91-1.91v-0.05c0-1.05-0.86-1.91-1.91-1.91H79z"/>
			</g>
			<g>
				<path fill="#005DFF" d="M135.89,20.23c-1.05,0-1.91,0.86-1.91,1.91v0.05c0,1.05,0.86,1.91,1.91,1.91h0.05
					c1.05,0,1.91-0.86,1.91-1.91v-0.05c0-1.05-0.86-1.91-1.91-1.91H135.89z"/>
			</g>
			<g>
				<path fill="#005DFF" d="M135.89,77.92c-1.05,0-1.91,0.86-1.91,1.91v0.05c0,1.05,0.86,1.91,1.91,1.91h0.05
					c1.05,0,1.91-0.86,1.91-1.91v-0.05c0-1.05-0.86-1.91-1.91-1.91H135.89z"/>
			</g>
			<g>
				<path fill="#005DFF" d="M135.89,135.61c-1.05,0-1.91,0.86-1.91,1.91v0.05c0,1.05,0.86,1.91,1.91,1.91h0.05
					c1.05,0,1.91-0.86,1.91-1.91v-0.05c0-1.05-0.86-1.91-1.91-1.91H135.89z"/>
			</g>
			<g>
				<path fill="#005DFF" d="M135.89,193.3c-1.05,0-1.91,0.86-1.91,1.91v0.05c0,1.05,0.86,1.91,1.91,1.91h0.05
					c1.05,0,1.91-0.86,1.91-1.91v-0.05c0-1.05-0.86-1.91-1.91-1.91H135.89z"/>
			</g>
			<g>
				<path fill="#005DFF" d="M135.89,250.99c-1.05,0-1.91,0.86-1.91,1.91v0.05c0,1.05,0.86,1.91,1.91,1.91h0.05
					c1.05,0,1.91-0.86,1.91-1.91v-0.05c0-1.05-0.86-1.91-1.91-1.91H135.89z"/>
			</g>
			<g>
				<path fill="#005DFF" d="M135.89,308.68c-1.05,0-1.91,0.86-1.91,1.91v0.05c0,1.05,0.86,1.91,1.91,1.91h0.05
					c1.05,0,1.91-0.86,1.91-1.91v-0.05c0-1.05-0.86-1.91-1.91-1.91H135.89z"/>
			</g>
			<g>
				<path fill="#005DFF" d="M135.89,366.37c-1.05,0-1.91,0.86-1.91,1.91v0.05c0,1.05,0.86,1.91,1.91,1.91h0.05
					c1.05,0,1.91-0.86,1.91-1.91v-0.05c0-1.05-0.86-1.91-1.91-1.91H135.89z"/>
			</g>
			<g>
				<path fill="#005DFF" d="M135.89,424.06c-1.05,0-1.91,0.86-1.91,1.91v0.05c0,1.05,0.86,1.91,1.91,1.91h0.05
					c1.05,0,1.91-0.86,1.91-1.91v-0.05c0-1.05-0.86-1.91-1.91-1.91H135.89z"/>
			</g>
			<g>
				<path fill="#005DFF" d="M192.79,20.23c-1.05,0-1.91,0.86-1.91,1.91v0.05c0,1.05,0.86,1.91,1.91,1.91h0.05
					c1.05,0,1.91-0.86,1.91-1.91v-0.05c0-1.05-0.86-1.91-1.91-1.91H192.79z"/>
			</g>
			<g>
				<path fill="#005DFF" d="M192.79,77.92c-1.05,0-1.91,0.86-1.91,1.91v0.05c0,1.05,0.86,1.91,1.91,1.91h0.05
					c1.05,0,1.91-0.86,1.91-1.91v-0.05c0-1.05-0.86-1.91-1.91-1.91H192.79z"/>
			</g>
			<g>
				<path fill="#005DFF" d="M192.79,135.61c-1.05,0-1.91,0.86-1.91,1.91v0.05c0,1.05,0.86,1.91,1.91,1.91h0.05
					c1.05,0,1.91-0.86,1.91-1.91v-0.05c0-1.05-0.86-1.91-1.91-1.91H192.79z"/>
			</g>
			<g>
				<path fill="#005DFF" d="M192.79,193.3c-1.05,0-1.91,0.86-1.91,1.91v0.05c0,1.05,0.86,1.91,1.91,1.91h0.05
					c1.05,0,1.91-0.86,1.91-1.91v-0.05c0-1.05-0.86-1.91-1.91-1.91H192.79z"/>
			</g>
			<g>
				<path fill="#005DFF" d="M192.79,250.99c-1.05,0-1.91,0.86-1.91,1.91v0.05c0,1.05,0.86,1.91,1.91,1.91h0.05
					c1.05,0,1.91-0.86,1.91-1.91v-0.05c0-1.05-0.86-1.91-1.91-1.91H192.79z"/>
			</g>
			<g>
				<path fill="#005DFF" d="M192.79,308.68c-1.05,0-1.91,0.86-1.91,1.91v0.05c0,1.05,0.86,1.91,1.91,1.91h0.05
					c1.05,0,1.91-0.86,1.91-1.91v-0.05c0-1.05-0.86-1.91-1.91-1.91H192.79z"/>
			</g>
			<g>
				<path fill="#005DFF" d="M192.79,366.37c-1.05,0-1.91,0.86-1.91,1.91v0.05c0,1.05,0.86,1.91,1.91,1.91h0.05
					c1.05,0,1.91-0.86,1.91-1.91v-0.05c0-1.05-0.86-1.91-1.91-1.91H192.79z"/>
			</g>
			<g>
				<path fill="#005DFF" d="M192.79,424.06c-1.05,0-1.91,0.86-1.91,1.91v0.05c0,1.05,0.86,1.91,1.91,1.91h0.05
					c1.05,0,1.91-0.86,1.91-1.91v-0.05c0-1.05-0.86-1.91-1.91-1.91H192.79z"/>
			</g>
			<g>
				<path fill="#005DFF" d="M249.69,20.23c-1.05,0-1.91,0.86-1.91,1.91v0.05c0,1.05,0.86,1.91,1.91,1.91h0.05
					c1.05,0,1.91-0.86,1.91-1.91v-0.05c0-1.05-0.86-1.91-1.91-1.91H249.69z"/>
			</g>
			<g>
				<path fill="#005DFF" d="M249.69,77.92c-1.05,0-1.91,0.86-1.91,1.91v0.05c0,1.05,0.86,1.91,1.91,1.91h0.05
					c1.05,0,1.91-0.86,1.91-1.91v-0.05c0-1.05-0.86-1.91-1.91-1.91H249.69z"/>
			</g>
			<g>
				<path fill="#005DFF" d="M249.69,135.61c-1.05,0-1.91,0.86-1.91,1.91v0.05c0,1.05,0.86,1.91,1.91,1.91h0.05
					c1.05,0,1.91-0.86,1.91-1.91v-0.05c0-1.05-0.86-1.91-1.91-1.91H249.69z"/>
			</g>
			<g>
				<path fill="#005DFF" d="M249.69,193.3c-1.05,0-1.91,0.86-1.91,1.91v0.05c0,1.05,0.86,1.91,1.91,1.91h0.05
					c1.05,0,1.91-0.86,1.91-1.91v-0.05c0-1.05-0.86-1.91-1.91-1.91H249.69z"/>
			</g>
			<g>
				<path fill="#005DFF" d="M249.69,250.99c-1.05,0-1.91,0.86-1.91,1.91v0.05c0,1.05,0.86,1.91,1.91,1.91h0.05
					c1.05,0,1.91-0.86,1.91-1.91v-0.05c0-1.05-0.86-1.91-1.91-1.91H249.69z"/>
			</g>
			<g>
				<path fill="#005DFF" d="M249.69,308.68c-1.05,0-1.91,0.86-1.91,1.91v0.05c0,1.05,0.86,1.91,1.91,1.91h0.05
					c1.05,0,1.91-0.86,1.91-1.91v-0.05c0-1.05-0.86-1.91-1.91-1.91H249.69z"/>
			</g>
			<g>
				<path fill="#005DFF" d="M249.69,366.37c-1.05,0-1.91,0.86-1.91,1.91v0.05c0,1.05,0.86,1.91,1.91,1.91h0.05
					c1.05,0,1.91-0.86,1.91-1.91v-0.05c0-1.05-0.86-1.91-1.91-1.91H249.69z"/>
			</g>
			<g>
				<path fill="#005DFF" d="M249.69,424.06c-1.05,0-1.91,0.86-1.91,1.91v0.05c0,1.05,0.86,1.91,1.91,1.91h0.05
					c1.05,0,1.91-0.86,1.91-1.91v-0.05c0-1.05-0.86-1.91-1.91-1.91H249.69z"/>
			</g>
			<g>
				<path fill="#005DFF" d="M306.58,20.23c-1.05,0-1.91,0.86-1.91,1.91v0.05c0,1.05,0.86,1.91,1.91,1.91h0.05
					c1.05,0,1.91-0.86,1.91-1.91v-0.05c0-1.05-0.86-1.91-1.91-1.91H306.58z"/>
			</g>
			<g>
				<path fill="#005DFF" d="M306.58,77.92c-1.05,0-1.91,0.86-1.91,1.91v0.05c0,1.05,0.86,1.91,1.91,1.91h0.05
					c1.05,0,1.91-0.86,1.91-1.91v-0.05c0-1.05-0.86-1.91-1.91-1.91H306.58z"/>
			</g>
			<g>
				<path fill="#005DFF" d="M306.58,135.61c-1.05,0-1.91,0.86-1.91,1.91v0.05c0,1.05,0.86,1.91,1.91,1.91h0.05
					c1.05,0,1.91-0.86,1.91-1.91v-0.05c0-1.05-0.86-1.91-1.91-1.91H306.58z"/>
			</g>
			<g>
				<path fill="#005DFF" d="M306.58,193.3c-1.05,0-1.91,0.86-1.91,1.91v0.05c0,1.05,0.86,1.91,1.91,1.91h0.05
					c1.05,0,1.91-0.86,1.91-1.91v-0.05c0-1.05-0.86-1.91-1.91-1.91H306.58z"/>
			</g>
			<g>
				<path fill="#005DFF" d="M306.58,250.99c-1.05,0-1.91,0.86-1.91,1.91v0.05c0,1.05,0.86,1.91,1.91,1.91h0.05
					c1.05,0,1.91-0.86,1.91-1.91v-0.05c0-1.05-0.86-1.91-1.91-1.91H306.58z"/>
			</g>
			<g>
				<path fill="#005DFF" d="M306.58,308.68c-1.05,0-1.91,0.86-1.91,1.91v0.05c0,1.05,0.86,1.91,1.91,1.91h0.05
					c1.05,0,1.91-0.86,1.91-1.91v-0.05c0-1.05-0.86-1.91-1.91-1.91H306.58z"/>
			</g>
			<g>
				<path fill="#005DFF" d="M306.58,366.37c-1.05,0-1.91,0.86-1.91,1.91v0.05c0,1.05,0.86,1.91,1.91,1.91h0.05
					c1.05,0,1.91-0.86,1.91-1.91v-0.05c0-1.05-0.86-1.91-1.91-1.91H306.58z"/>
			</g>
			<g>
				<path fill="#005DFF" d="M306.58,424.06c-1.05,0-1.91,0.86-1.91,1.91v0.05c0,1.05,0.86,1.91,1.91,1.91h0.05
					c1.05,0,1.91-0.86,1.91-1.91v-0.05c0-1.05-0.86-1.91-1.91-1.91H306.58z"/>
			</g>
			<g>
				<path fill="#005DFF" d="M363.48,20.23c-1.05,0-1.91,0.86-1.91,1.91v0.05c0,1.05,0.86,1.91,1.91,1.91h0.05
					c1.05,0,1.91-0.86,1.91-1.91v-0.05c0-1.05-0.86-1.91-1.91-1.91H363.48z"/>
			</g>
			<g>
				<path fill="#005DFF" d="M363.48,77.92c-1.05,0-1.91,0.86-1.91,1.91v0.05c0,1.05,0.86,1.91,1.91,1.91h0.05
					c1.05,0,1.91-0.86,1.91-1.91v-0.05c0-1.05-0.86-1.91-1.91-1.91H363.48z"/>
			</g>
			<g>
				<path fill="#005DFF" d="M363.48,135.61c-1.05,0-1.91,0.86-1.91,1.91v0.05c0,1.05,0.86,1.91,1.91,1.91h0.05
					c1.05,0,1.91-0.86,1.91-1.91v-0.05c0-1.05-0.86-1.91-1.91-1.91H363.48z"/>
			</g>
			<g>
				<path fill="#005DFF" d="M363.48,193.3c-1.05,0-1.91,0.86-1.91,1.91v0.05c0,1.05,0.86,1.91,1.91,1.91h0.05
					c1.05,0,1.91-0.86,1.91-1.91v-0.05c0-1.05-0.86-1.91-1.91-1.91H363.48z"/>
			</g>
			<g>
				<path fill="#005DFF" d="M363.48,250.99c-1.05,0-1.91,0.86-1.91,1.91v0.05c0,1.05,0.86,1.91,1.91,1.91h0.05
					c1.05,0,1.91-0.86,1.91-1.91v-0.05c0-1.05-0.86-1.91-1.91-1.91H363.48z"/>
			</g>
			<g>
				<path fill="#005DFF" d="M363.48,308.68c-1.05,0-1.91,0.86-1.91,1.91v0.05c0,1.05,0.86,1.91,1.91,1.91h0.05
					c1.05,0,1.91-0.86,1.91-1.91v-0.05c0-1.05-0.86-1.91-1.91-1.91H363.48z"/>
			</g>
			<g>
				<path fill="#005DFF" d="M363.48,366.37c-1.05,0-1.91,0.86-1.91,1.91v0.05c0,1.05,0.86,1.91,1.91,1.91h0.05
					c1.05,0,1.91-0.86,1.91-1.91v-0.05c0-1.05-0.86-1.91-1.91-1.91H363.48z"/>
			</g>
			<g>
				<path fill="#005DFF" d="M363.48,424.06c-1.05,0-1.91,0.86-1.91,1.91v0.05c0,1.05,0.86,1.91,1.91,1.91h0.05
					c1.05,0,1.91-0.86,1.91-1.91v-0.05c0-1.05-0.86-1.91-1.91-1.91H363.48z"/>
			</g>
			<g>
				<path fill="#005DFF" d="M420.38,20.23c-1.05,0-1.91,0.86-1.91,1.91v0.05c0,1.05,0.86,1.91,1.91,1.91h0.05
					c1.05,0,1.91-0.86,1.91-1.91v-0.05c0-1.05-0.86-1.91-1.91-1.91H420.38z"/>
			</g>
			<g>
				<path fill="#005DFF" d="M420.38,77.92c-1.05,0-1.91,0.86-1.91,1.91v0.05c0,1.05,0.86,1.91,1.91,1.91h0.05
					c1.05,0,1.91-0.86,1.91-1.91v-0.05c0-1.05-0.86-1.91-1.91-1.91H420.38z"/>
			</g>
			<g>
				<path fill="#005DFF" d="M420.38,135.61c-1.05,0-1.91,0.86-1.91,1.91v0.05c0,1.05,0.86,1.91,1.91,1.91h0.05
					c1.05,0,1.91-0.86,1.91-1.91v-0.05c0-1.05-0.86-1.91-1.91-1.91H420.38z"/>
			</g>
			<g>
				<path fill="#005DFF" d="M420.38,193.3c-1.05,0-1.91,0.86-1.91,1.91v0.05c0,1.05,0.86,1.91,1.91,1.91h0.05
					c1.05,0,1.91-0.86,1.91-1.91v-0.05c0-1.05-0.86-1.91-1.91-1.91H420.38z"/>
			</g>
			<g>
				<path fill="#005DFF" d="M420.38,250.99c-1.05,0-1.91,0.86-1.91,1.91v0.05c0,1.05,0.86,1.91,1.91,1.91h0.05
					c1.05,0,1.91-0.86,1.91-1.91v-0.05c0-1.05-0.86-1.91-1.91-1.91H420.38z"/>
			</g>
			<g>
				<path fill="#005DFF" d="M420.38,308.68c-1.05,0-1.91,0.86-1.91,1.91v0.05c0,1.05,0.86,1.91,1.91,1.91h0.05
					c1.05,0,1.91-0.86,1.91-1.91v-0.05c0-1.05-0.86-1.91-1.91-1.91H420.38z"/>
			</g>
			<g>
				<path fill="#005DFF" d="M420.38,366.37c-1.05,0-1.91,0.86-1.91,1.91v0.05c0,1.05,0.86,1.91,1.91,1.91h0.05
					c1.05,0,1.91-0.86,1.91-1.91v-0.05c0-1.05-0.86-1.91-1.91-1.91H420.38z"/>
			</g>
			<g>
				<path fill="#005DFF" d="M420.38,424.06c-1.05,0-1.91,0.86-1.91,1.91v0.05c0,1.05,0.86,1.91,1.91,1.91h0.05
					c1.05,0,1.91-0.86,1.91-1.91v-0.05c0-1.05-0.86-1.91-1.91-1.91H420.38z"/>
			</g>
			<g>
				<path fill="#005DFF" d="M477.27,20.23c-1.05,0-1.91,0.86-1.91,1.91v0.05c0,1.05,0.86,1.91,1.91,1.91h0.05
					c1.05,0,1.91-0.86,1.91-1.91v-0.05c0-1.05-0.86-1.91-1.91-1.91H477.27z"/>
			</g>
			<g>
				<path fill="#005DFF" d="M477.27,77.92c-1.05,0-1.91,0.86-1.91,1.91v0.05c0,1.05,0.86,1.91,1.91,1.91h0.05
					c1.05,0,1.91-0.86,1.91-1.91v-0.05c0-1.05-0.86-1.91-1.91-1.91H477.27z"/>
			</g>
			<g>
				<path fill="#005DFF" d="M477.27,135.61c-1.05,0-1.91,0.86-1.91,1.91v0.05c0,1.05,0.86,1.91,1.91,1.91h0.05
					c1.05,0,1.91-0.86,1.91-1.91v-0.05c0-1.05-0.86-1.91-1.91-1.91H477.27z"/>
			</g>
			<g>
				<path fill="#005DFF" d="M477.27,193.3c-1.05,0-1.91,0.86-1.91,1.91v0.05c0,1.05,0.86,1.91,1.91,1.91h0.05
					c1.05,0,1.91-0.86,1.91-1.91v-0.05c0-1.05-0.86-1.91-1.91-1.91H477.27z"/>
			</g>
			<g>
				<path fill="#005DFF" d="M477.27,250.99c-1.05,0-1.91,0.86-1.91,1.91v0.05c0,1.05,0.86,1.91,1.91,1.91h0.05
					c1.05,0,1.91-0.86,1.91-1.91v-0.05c0-1.05-0.86-1.91-1.91-1.91H477.27z"/>
			</g>
			<g>
				<path fill="#005DFF" d="M477.27,308.68c-1.05,0-1.91,0.86-1.91,1.91v0.05c0,1.05,0.86,1.91,1.91,1.91h0.05
					c1.05,0,1.91-0.86,1.91-1.91v-0.05c0-1.05-0.86-1.91-1.91-1.91H477.27z"/>
			</g>
			<g>
				<path fill="#005DFF" d="M477.27,366.37c-1.05,0-1.91,0.86-1.91,1.91v0.05c0,1.05,0.86,1.91,1.91,1.91h0.05
					c1.05,0,1.91-0.86,1.91-1.91v-0.05c0-1.05-0.86-1.91-1.91-1.91H477.27z"/>
			</g>
			<g>
				<path fill="#005DFF" d="M477.27,424.06c-1.05,0-1.91,0.86-1.91,1.91v0.05c0,1.05,0.86,1.91,1.91,1.91h0.05
					c1.05,0,1.91-0.86,1.91-1.91v-0.05c0-1.05-0.86-1.91-1.91-1.91H477.27z"/>
			</g>
			<g>
				<path fill="#005DFF" d="M534.17,20.23c-1.05,0-1.91,0.86-1.91,1.91v0.05c0,1.05,0.86,1.91,1.91,1.91h0.05
					c1.05,0,1.91-0.86,1.91-1.91v-0.05c0-1.05-0.86-1.91-1.91-1.91H534.17z"/>
			</g>
			<g>
				<path fill="#005DFF" d="M534.17,77.92c-1.05,0-1.91,0.86-1.91,1.91v0.05c0,1.05,0.86,1.91,1.91,1.91h0.05
					c1.05,0,1.91-0.86,1.91-1.91v-0.05c0-1.05-0.86-1.91-1.91-1.91H534.17z"/>
			</g>
			<g>
				<path fill="#005DFF" d="M534.17,135.61c-1.05,0-1.91,0.86-1.91,1.91v0.05c0,1.05,0.86,1.91,1.91,1.91h0.05
					c1.05,0,1.91-0.86,1.91-1.91v-0.05c0-1.05-0.86-1.91-1.91-1.91H534.17z"/>
			</g>
			<g>
				<path fill="#005DFF" d="M534.17,193.3c-1.05,0-1.91,0.86-1.91,1.91v0.05c0,1.05,0.86,1.91,1.91,1.91h0.05
					c1.05,0,1.91-0.86,1.91-1.91v-0.05c0-1.05-0.86-1.91-1.91-1.91H534.17z"/>
			</g>
			<g>
				<path fill="#005DFF" d="M534.17,250.99c-1.05,0-1.91,0.86-1.91,1.91v0.05c0,1.05,0.86,1.91,1.91,1.91h0.05
					c1.05,0,1.91-0.86,1.91-1.91v-0.05c0-1.05-0.86-1.91-1.91-1.91H534.17z"/>
			</g>
			<g>
				<path fill="#005DFF" d="M534.17,308.68c-1.05,0-1.91,0.86-1.91,1.91v0.05c0,1.05,0.86,1.91,1.91,1.91h0.05
					c1.05,0,1.91-0.86,1.91-1.91v-0.05c0-1.05-0.86-1.91-1.91-1.91H534.17z"/>
			</g>
			<g>
				<path fill="#005DFF" d="M534.17,366.37c-1.05,0-1.91,0.86-1.91,1.91v0.05c0,1.05,0.86,1.91,1.91,1.91h0.05
					c1.05,0,1.91-0.86,1.91-1.91v-0.05c0-1.05-0.86-1.91-1.91-1.91H534.17z"/>
			</g>
			<g>
				<path fill="#005DFF" d="M534.17,424.06c-1.05,0-1.91,0.86-1.91,1.91v0.05c0,1.05,0.86,1.91,1.91,1.91h0.05
					c1.05,0,1.91-0.86,1.91-1.91v-0.05c0-1.05-0.86-1.91-1.91-1.91H534.17z"/>
			</g>
			<g>
				<path fill="#005DFF" d="M591.07,20.23c-1.05,0-1.91,0.86-1.91,1.91v0.05c0,1.05,0.86,1.91,1.91,1.91h0.05
					c1.05,0,1.91-0.86,1.91-1.91v-0.05c0-1.05-0.86-1.91-1.91-1.91H591.07z"/>
			</g>
			<g>
				<path fill="#005DFF" d="M591.07,77.92c-1.05,0-1.91,0.86-1.91,1.91v0.05c0,1.05,0.86,1.91,1.91,1.91h0.05
					c1.05,0,1.91-0.86,1.91-1.91v-0.05c0-1.05-0.86-1.91-1.91-1.91H591.07z"/>
			</g>
			<g>
				<path fill="#005DFF" d="M591.07,135.61c-1.05,0-1.91,0.86-1.91,1.91v0.05c0,1.05,0.86,1.91,1.91,1.91h0.05
					c1.05,0,1.91-0.86,1.91-1.91v-0.05c0-1.05-0.86-1.91-1.91-1.91H591.07z"/>
			</g>
			<g>
				<path fill="#005DFF" d="M591.07,193.3c-1.05,0-1.91,0.86-1.91,1.91v0.05c0,1.05,0.86,1.91,1.91,1.91h0.05
					c1.05,0,1.91-0.86,1.91-1.91v-0.05c0-1.05-0.86-1.91-1.91-1.91H591.07z"/>
			</g>
			<g>
				<path fill="#005DFF" d="M591.07,250.99c-1.05,0-1.91,0.86-1.91,1.91v0.05c0,1.05,0.86,1.91,1.91,1.91h0.05
					c1.05,0,1.91-0.86,1.91-1.91v-0.05c0-1.05-0.86-1.91-1.91-1.91H591.07z"/>
			</g>
			<g>
				<path fill="#005DFF" d="M591.07,308.68c-1.05,0-1.91,0.86-1.91,1.91v0.05c0,1.05,0.86,1.91,1.91,1.91h0.05
					c1.05,0,1.91-0.86,1.91-1.91v-0.05c0-1.05-0.86-1.91-1.91-1.91H591.07z"/>
			</g>
			<g>
				<path fill="#005DFF" d="M591.07,366.37c-1.05,0-1.91,0.86-1.91,1.91v0.05c0,1.05,0.86,1.91,1.91,1.91h0.05
					c1.05,0,1.91-0.86,1.91-1.91v-0.05c0-1.05-0.86-1.91-1.91-1.91H591.07z"/>
			</g>
			<g>
				<path fill="#005DFF" d="M591.07,424.06c-1.05,0-1.91,0.86-1.91,1.91v0.05c0,1.05,0.86,1.91,1.91,1.91h0.05
					c1.05,0,1.91-0.86,1.91-1.91v-0.05c0-1.05-0.86-1.91-1.91-1.91H591.07z"/>
			</g>
			<g>
				<path fill="#005DFF" d="M647.97,20.23c-1.05,0-1.91,0.86-1.91,1.91v0.05c0,1.05,0.86,1.91,1.91,1.91h0.05
					c1.05,0,1.91-0.86,1.91-1.91v-0.05c0-1.05-0.86-1.91-1.91-1.91H647.97z"/>
			</g>
			<g>
				<path fill="#005DFF" d="M647.97,77.92c-1.05,0-1.91,0.86-1.91,1.91v0.05c0,1.05,0.86,1.91,1.91,1.91h0.05
					c1.05,0,1.91-0.86,1.91-1.91v-0.05c0-1.05-0.86-1.91-1.91-1.91H647.97z"/>
			</g>
			<g>
				<path fill="#005DFF" d="M647.97,135.61c-1.05,0-1.91,0.86-1.91,1.91v0.05c0,1.05,0.86,1.91,1.91,1.91h0.05
					c1.05,0,1.91-0.86,1.91-1.91v-0.05c0-1.05-0.86-1.91-1.91-1.91H647.97z"/>
			</g>
			<g>
				<path fill="#005DFF" d="M647.97,193.3c-1.05,0-1.91,0.86-1.91,1.91v0.05c0,1.05,0.86,1.91,1.91,1.91h0.05
					c1.05,0,1.91-0.86,1.91-1.91v-0.05c0-1.05-0.86-1.91-1.91-1.91H647.97z"/>
			</g>
			<g>
				<path fill="#005DFF" d="M647.97,250.99c-1.05,0-1.91,0.86-1.91,1.91v0.05c0,1.05,0.86,1.91,1.91,1.91h0.05
					c1.05,0,1.91-0.86,1.91-1.91v-0.05c0-1.05-0.86-1.91-1.91-1.91H647.97z"/>
			</g>
			<g>
				<path fill="#005DFF" d="M647.97,308.68c-1.05,0-1.91,0.86-1.91,1.91v0.05c0,1.05,0.86,1.91,1.91,1.91h0.05
					c1.05,0,1.91-0.86,1.91-1.91v-0.05c0-1.05-0.86-1.91-1.91-1.91H647.97z"/>
			</g>
			<g>
				<path fill="#005DFF" d="M647.97,366.37c-1.05,0-1.91,0.86-1.91,1.91v0.05c0,1.05,0.86,1.91,1.91,1.91h0.05
					c1.05,0,1.91-0.86,1.91-1.91v-0.05c0-1.05-0.86-1.91-1.91-1.91H647.97z"/>
			</g>
			<g>
				<path fill="#005DFF" d="M647.97,424.06c-1.05,0-1.91,0.86-1.91,1.91v0.05c0,1.05,0.86,1.91,1.91,1.91h0.05
					c1.05,0,1.91-0.86,1.91-1.91v-0.05c0-1.05-0.86-1.91-1.91-1.91H647.97z"/>
			</g>
			<g>
				<path fill="#005DFF" d="M704.86,20.23c-1.05,0-1.91,0.86-1.91,1.91v0.05c0,1.05,0.86,1.91,1.91,1.91h0.05
					c1.05,0,1.91-0.86,1.91-1.91v-0.05c0-1.05-0.86-1.91-1.91-1.91H704.86z"/>
			</g>
			<g>
				<path fill="#005DFF" d="M704.86,77.92c-1.05,0-1.91,0.86-1.91,1.91v0.05c0,1.05,0.86,1.91,1.91,1.91h0.05
					c1.05,0,1.91-0.86,1.91-1.91v-0.05c0-1.05-0.86-1.91-1.91-1.91H704.86z"/>
			</g>
			<g>
				<path fill="#005DFF" d="M704.86,135.61c-1.05,0-1.91,0.86-1.91,1.91v0.05c0,1.05,0.86,1.91,1.91,1.91h0.05
					c1.05,0,1.91-0.86,1.91-1.91v-0.05c0-1.05-0.86-1.91-1.91-1.91H704.86z"/>
			</g>
			<g>
				<path fill="#005DFF" d="M704.86,193.3c-1.05,0-1.91,0.86-1.91,1.91v0.05c0,1.05,0.86,1.91,1.91,1.91h0.05
					c1.05,0,1.91-0.86,1.91-1.91v-0.05c0-1.05-0.86-1.91-1.91-1.91H704.86z"/>
			</g>
			<g>
				<path fill="#005DFF" d="M704.86,250.99c-1.05,0-1.91,0.86-1.91,1.91v0.05c0,1.05,0.86,1.91,1.91,1.91h0.05
					c1.05,0,1.91-0.86,1.91-1.91v-0.05c0-1.05-0.86-1.91-1.91-1.91H704.86z"/>
			</g>
			<g>
				<path fill="#005DFF" d="M704.86,308.68c-1.05,0-1.91,0.86-1.91,1.91v0.05c0,1.05,0.86,1.91,1.91,1.91h0.05
					c1.05,0,1.91-0.86,1.91-1.91v-0.05c0-1.05-0.86-1.91-1.91-1.91H704.86z"/>
			</g>
			<g>
				<path fill="#005DFF" d="M704.86,366.37c-1.05,0-1.91,0.86-1.91,1.91v0.05c0,1.05,0.86,1.91,1.91,1.91h0.05
					c1.05,0,1.91-0.86,1.91-1.91v-0.05c0-1.05-0.86-1.91-1.91-1.91H704.86z"/>
			</g>
			<g>
				<path fill="#005DFF" d="M704.86,424.06c-1.05,0-1.91,0.86-1.91,1.91v0.05c0,1.05,0.86,1.91,1.91,1.91h0.05
					c1.05,0,1.91-0.86,1.91-1.91v-0.05c0-1.05-0.86-1.91-1.91-1.91H704.86z"/>
			</g>
			<g>
				<path fill="#005DFF" d="M761.76,20.23c-1.05,0-1.91,0.86-1.91,1.91v0.05c0,1.05,0.86,1.91,1.91,1.91h0.05
					c1.05,0,1.91-0.86,1.91-1.91v-0.05c0-1.05-0.86-1.91-1.91-1.91H761.76z"/>
			</g>
			<g>
				<path fill="#005DFF" d="M761.76,77.92c-1.05,0-1.91,0.86-1.91,1.91v0.05c0,1.05,0.86,1.91,1.91,1.91h0.05
					c1.05,0,1.91-0.86,1.91-1.91v-0.05c0-1.05-0.86-1.91-1.91-1.91H761.76z"/>
			</g>
			<g>
				<path fill="#005DFF" d="M761.76,135.61c-1.05,0-1.91,0.86-1.91,1.91v0.05c0,1.05,0.86,1.91,1.91,1.91h0.05
					c1.05,0,1.91-0.86,1.91-1.91v-0.05c0-1.05-0.86-1.91-1.91-1.91H761.76z"/>
			</g>
			<g>
				<path fill="#005DFF" d="M761.76,193.3c-1.05,0-1.91,0.86-1.91,1.91v0.05c0,1.05,0.86,1.91,1.91,1.91h0.05
					c1.05,0,1.91-0.86,1.91-1.91v-0.05c0-1.05-0.86-1.91-1.91-1.91H761.76z"/>
			</g>
			<g>
				<path fill="#005DFF" d="M761.76,250.99c-1.05,0-1.91,0.86-1.91,1.91v0.05c0,1.05,0.86,1.91,1.91,1.91h0.05
					c1.05,0,1.91-0.86,1.91-1.91v-0.05c0-1.05-0.86-1.91-1.91-1.91H761.76z"/>
			</g>
			<g>
				<path fill="#005DFF" d="M761.76,308.68c-1.05,0-1.91,0.86-1.91,1.91v0.05c0,1.05,0.86,1.91,1.91,1.91h0.05
					c1.05,0,1.91-0.86,1.91-1.91v-0.05c0-1.05-0.86-1.91-1.91-1.91H761.76z"/>
			</g>
			<g>
				<path fill="#005DFF" d="M761.76,366.37c-1.05,0-1.91,0.86-1.91,1.91v0.05c0,1.05,0.86,1.91,1.91,1.91h0.05
					c1.05,0,1.91-0.86,1.91-1.91v-0.05c0-1.05-0.86-1.91-1.91-1.91H761.76z"/>
			</g>
			<g>
				<path fill="#005DFF" d="M818.66,366.37c-1.05,0-1.91,0.86-1.91,1.91v0.05c0,1.05,0.86,1.91,1.91,1.91h0.05
					c1.05,0,1.91-0.86,1.91-1.91v-0.05c0-1.05-0.86-1.91-1.91-1.91H818.66z"/>
			</g>
			<g>
				<path fill="#005DFF" d="M761.76,424.06c-1.05,0-1.91,0.86-1.91,1.91v0.05c0,1.05,0.86,1.91,1.91,1.91h0.05
					c1.05,0,1.91-0.86,1.91-1.91v-0.05c0-1.05-0.86-1.91-1.91-1.91H761.76z"/>
			</g>
			<g>
				<path fill="#005DFF" d="M818.66,20.23c-1.05,0-1.91,0.86-1.91,1.91v0.05c0,1.05,0.86,1.91,1.91,1.91h0.05
					c1.05,0,1.91-0.86,1.91-1.91v-0.05c0-1.05-0.86-1.91-1.91-1.91H818.66z"/>
			</g>
			<g>
				<path fill="#005DFF" d="M818.66,77.92c-1.05,0-1.91,0.86-1.91,1.91v0.05c0,1.05,0.86,1.91,1.91,1.91h0.05
					c1.05,0,1.91-0.86,1.91-1.91v-0.05c0-1.05-0.86-1.91-1.91-1.91H818.66z"/>
			</g>
			<g>
				<path fill="#005DFF" d="M818.66,135.61c-1.05,0-1.91,0.86-1.91,1.91v0.05c0,1.05,0.86,1.91,1.91,1.91h0.05
					c1.05,0,1.91-0.86,1.91-1.91v-0.05c0-1.05-0.86-1.91-1.91-1.91H818.66z"/>
			</g>
			<g>
				<path fill="#005DFF" d="M818.66,193.3c-1.05,0-1.91,0.86-1.91,1.91v0.05c0,1.05,0.86,1.91,1.91,1.91h0.05
					c1.05,0,1.91-0.86,1.91-1.91v-0.05c0-1.05-0.86-1.91-1.91-1.91H818.66z"/>
			</g>
			<g>
				<path fill="#005DFF" d="M818.66,250.99c-1.05,0-1.91,0.86-1.91,1.91v0.05c0,1.05,0.86,1.91,1.91,1.91h0.05
					c1.05,0,1.91-0.86,1.91-1.91v-0.05c0-1.05-0.86-1.91-1.91-1.91H818.66z"/>
			</g>
			<g>
				<path fill="#005DFF" d="M818.66,308.68c-1.05,0-1.91,0.86-1.91,1.91v0.05c0,1.05,0.86,1.91,1.91,1.91h0.05
					c1.05,0,1.91-0.86,1.91-1.91v-0.05c0-1.05-0.86-1.91-1.91-1.91H818.66z"/>
			</g>
			<g>
				<path fill="#005DFF" d="M818.66,424.06c-1.05,0-1.91,0.86-1.91,1.91v0.05c0,1.05,0.86,1.91,1.91,1.91h0.05
					c1.05,0,1.91-0.86,1.91-1.91v-0.05c0-1.05-0.86-1.91-1.91-1.91H818.66z"/>
			</g>
			<g>
				<path fill="#005DFF" d="M875.55,20.23c-1.05,0-1.91,0.86-1.91,1.91v0.05c0,1.05,0.86,1.91,1.91,1.91h0.05
					c1.05,0,1.91-0.86,1.91-1.91v-0.05c0-1.05-0.86-1.91-1.91-1.91H875.55z"/>
			</g>
			<g>
				<path fill="#005DFF" d="M875.55,77.92c-1.05,0-1.91,0.86-1.91,1.91v0.05c0,1.05,0.86,1.91,1.91,1.91h0.05
					c1.05,0,1.91-0.86,1.91-1.91v-0.05c0-1.05-0.86-1.91-1.91-1.91H875.55z"/>
			</g>
			<g>
				<path fill="#005DFF" d="M875.55,135.61c-1.05,0-1.91,0.86-1.91,1.91v0.05c0,1.05,0.86,1.91,1.91,1.91h0.05
					c1.05,0,1.91-0.86,1.91-1.91v-0.05c0-1.05-0.86-1.91-1.91-1.91H875.55z"/>
			</g>
			<g>
				<path fill="#005DFF" d="M875.55,193.3c-1.05,0-1.91,0.86-1.91,1.91v0.05c0,1.05,0.86,1.91,1.91,1.91h0.05
					c1.05,0,1.91-0.86,1.91-1.91v-0.05c0-1.05-0.86-1.91-1.91-1.91H875.55z"/>
			</g>
			<g>
				<path fill="#005DFF" d="M875.55,250.99c-1.05,0-1.91,0.86-1.91,1.91v0.05c0,1.05,0.86,1.91,1.91,1.91h0.05
					c1.05,0,1.91-0.86,1.91-1.91v-0.05c0-1.05-0.86-1.91-1.91-1.91H875.55z"/>
			</g>
			<g>
				<path fill="#005DFF" d="M875.55,308.68c-1.05,0-1.91,0.86-1.91,1.91v0.05c0,1.05,0.86,1.91,1.91,1.91h0.05
					c1.05,0,1.91-0.86,1.91-1.91v-0.05c0-1.05-0.86-1.91-1.91-1.91H875.55z"/>
			</g>
			<g>
				<path fill="#005DFF" d="M875.55,366.37c-1.05,0-1.91,0.86-1.91,1.91v0.05c0,1.05,0.86,1.91,1.91,1.91h0.05
					c1.05,0,1.91-0.86,1.91-1.91v-0.05c0-1.05-0.86-1.91-1.91-1.91H875.55z"/>
			</g>
			<g>
				<path fill="#005DFF" d="M875.55,424.06c-1.05,0-1.91,0.86-1.91,1.91v0.05c0,1.05,0.86,1.91,1.91,1.91h0.05
					c1.05,0,1.91-0.86,1.91-1.91v-0.05c0-1.05-0.86-1.91-1.91-1.91H875.55z"/>
			</g>
		</g>
	</g>
	<g>
		<path fill="#FAD62A" d="M591.03,327.33c-1.65,0-2.99-1.34-2.99-2.99v-10.73h-10.72c-1.65,0-3-1.34-3-2.99s1.34-3,3-3h10.72v-10.72
			c0-1.65,1.34-2.99,2.99-2.99s2.99,1.34,2.99,2.99v10.72h10.73c1.65,0,2.99,1.34,2.99,3s-1.34,2.99-2.99,2.99h-10.73v10.73
			C594.02,325.98,592.68,327.33,591.03,327.33z"/>
		<path fill="#FAD62A" d="M591.03,294.4c1.38,0,2.49,1.12,2.49,2.49v11.22h11.23c1.38,0,2.49,1.12,2.49,2.5
			c0,1.38-1.12,2.49-2.49,2.49h-11.23v11.22c0,1.38-1.12,2.49-2.49,2.49c-1.38,0-2.49-1.12-2.49-2.49v-11.22h-11.22
			c-1.38,0-2.5-1.12-2.5-2.49c0-1.38,1.12-2.5,2.5-2.5h11.22v-11.22C588.53,295.51,589.65,294.4,591.03,294.4 M591.03,293.4
			c-1.93,0-3.49,1.57-3.49,3.49v10.22h-10.22c-1.93,0-3.5,1.57-3.5,3.5c0,1.93,1.57,3.49,3.5,3.49h10.22v10.22
			c0,1.93,1.57,3.49,3.49,3.49c1.93,0,3.49-1.57,3.49-3.49v-10.22h10.23c1.93,0,3.49-1.57,3.49-3.49c0-1.93-1.57-3.5-3.49-3.5
			h-10.23v-10.22C594.52,294.97,592.95,293.4,591.03,293.4L591.03,293.4z"/>
	</g>
</g>
</svg>
