<?xml version="1.0" encoding="utf-8"?>
<!-- Generator: Adobe Illustrator 24.3.0, SVG Export Plug-In . SVG Version: 6.00 Build 0)  -->
<svg version="1.1" id="Layer_1" xmlns="http://www.w3.org/2000/svg" xmlns:xlink="http://www.w3.org/1999/xlink" x="0px" y="0px"
	 viewBox="0 0 400 300" enable-background="new 0 0 400 300" xml:space="preserve">
<g>
	<g>
		<path fill="#005DFF" d="M20.56,31.86L20.56,31.86c0,2.18,1.77,3.95,3.95,3.95h0c2.18,0,3.95-1.77,3.95-3.95v0
			c0-2.18-1.77-3.95-3.95-3.95h0C22.33,27.9,20.56,29.67,20.56,31.86z"/>
		<path fill="#005DFF" d="M20.56,149.88L20.56,149.88c0,2.18,1.77,3.95,3.95,3.95h0c2.18,0,3.95-1.77,3.95-3.95v0
			c0-2.18-1.77-3.95-3.95-3.95h0C22.33,145.92,20.56,147.69,20.56,149.88z"/>
		<path fill="#005DFF" d="M20.56,267.9L20.56,267.9c0,2.18,1.77,3.95,3.95,3.95h0c2.18,0,3.95-1.77,3.95-3.95l0,0
			c0-2.18-1.77-3.95-3.95-3.95h0C22.33,263.94,20.56,265.71,20.56,267.9z"/>
		<path fill="#005DFF" d="M136.96,31.86L136.96,31.86c0,2.18,1.77,3.95,3.95,3.95l0,0c2.18,0,3.95-1.77,3.95-3.95v0
			c0-2.18-1.77-3.95-3.95-3.95l0,0C138.73,27.9,136.96,29.67,136.96,31.86z"/>
		<path fill="#005DFF" d="M136.96,149.88L136.96,149.88c0,2.18,1.77,3.95,3.95,3.95l0,0c2.18,0,3.95-1.77,3.95-3.95v0
			c0-2.18-1.77-3.95-3.95-3.95l0,0C138.73,145.92,136.96,147.69,136.96,149.88z"/>
		<path fill="#005DFF" d="M136.96,267.9L136.96,267.9c0,2.18,1.77,3.95,3.95,3.95l0,0c2.18,0,3.95-1.77,3.95-3.95l0,0
			c0-2.18-1.77-3.95-3.95-3.95l0,0C138.73,263.94,136.96,265.71,136.96,267.9z"/>
		<path fill="#005DFF" d="M253.36,31.86L253.36,31.86c0,2.18,1.77,3.95,3.95,3.95h0c2.18,0,3.95-1.77,3.95-3.95v0
			c0-2.18-1.77-3.95-3.95-3.95h0C255.13,27.9,253.36,29.67,253.36,31.86z"/>
		<path fill="#005DFF" d="M253.36,149.88L253.36,149.88c0,2.18,1.77,3.95,3.95,3.95h0c2.18,0,3.95-1.77,3.95-3.95v0
			c0-2.18-1.77-3.95-3.95-3.95h0C255.13,145.92,253.36,147.69,253.36,149.88z"/>
		<path fill="#005DFF" d="M253.36,267.9L253.36,267.9c0,2.18,1.77,3.95,3.95,3.95h0c2.18,0,3.95-1.77,3.95-3.95l0,0
			c0-2.18-1.77-3.95-3.95-3.95h0C255.13,263.94,253.36,265.71,253.36,267.9z"/>
		<path fill="#005DFF" d="M369.76,31.86L369.76,31.86c0,2.18,1.77,3.95,3.95,3.95l0,0c2.18,0,3.95-1.77,3.95-3.95v0
			c0-2.18-1.77-3.95-3.95-3.95l0,0C371.53,27.9,369.76,29.67,369.76,31.86z"/>
		<path fill="#005DFF" d="M369.76,149.88L369.76,149.88c0,2.18,1.77,3.95,3.95,3.95l0,0c2.18,0,3.95-1.77,3.95-3.95v0
			c0-2.18-1.77-3.95-3.95-3.95l0,0C371.53,145.92,369.76,147.69,369.76,149.88z"/>
		<path fill="#005DFF" d="M369.76,267.9L369.76,267.9c0,2.18,1.77,3.95,3.95,3.95l0,0c2.18,0,3.95-1.77,3.95-3.95l0,0
			c0-2.18-1.77-3.95-3.95-3.95l0,0C371.53,263.94,369.76,265.71,369.76,267.9z"/>
	</g>
</g>
</svg>
