<?xml version="1.0" encoding="utf-8"?>
<!-- Generator: Adobe Illustrator 25.0.0, SVG Export Plug-In . SVG Version: 6.00 Build 0)  -->
<svg version="1.1" id="Layer_1" xmlns="http://www.w3.org/2000/svg" xmlns:xlink="http://www.w3.org/1999/xlink" x="0px" y="0px"
	 viewBox="0 0 141.5 148.2" enable-background="new 0 0 141.5 148.2" xml:space="preserve">
<g>
	<path fill="#FFB9C8" d="M109.5,146.3c-7.2,0-14-2.8-19-7.9c-5.1-5.1-7.9-11.8-7.9-19c0-7.2,2.8-14,7.9-19l19.8-19.8
		c2.1-2.1,3.2-4.9,3.2-7.8c0-3-1.1-5.8-3.2-7.8c-2.1-2.1-4.9-3.2-7.8-3.2c-3,0-5.8,1.1-7.8,3.2L79.4,80h0l-4.7,4.7
		c-5.1,5.1-11.8,7.9-19,7.9c-7.2,0-14-2.8-19-7.9c-10.5-10.5-10.5-27.6,0-38.1l9.3-9.3c4.3-4.3,4.3-11.3,0-15.7
		c-4.3-4.3-11.3-4.3-15.7,0L13.7,38.2L2.5,27l16.6-16.6c10.5-10.5,27.6-10.5,38.1,0c10.5,10.5,10.5,27.6,0,38.1l-9.3,9.3
		c-4.3,4.3-4.3,11.3,0,15.7c2.1,2.1,4.9,3.2,7.8,3.2c3,0,5.8-1.1,7.8-3.2l19.8-19.8c10.5-10.5,27.6-10.5,38.1,0
		c5.1,5.1,7.9,11.8,7.9,19c0,7.2-2.8,14-7.9,19l-19.8,19.8c-2.1,2.1-3.2,4.9-3.2,7.8c0,3,1.1,5.8,3.2,7.8c2.1,2.1,4.9,3.2,7.8,3.2
		c3,0,5.8-1.1,7.8-3.2l11-11l11.2,11.2l-11,11C123.5,143.5,116.7,146.3,109.5,146.3z"/>
</g>
</svg>
