<?xml version="1.0" encoding="utf-8"?>
<!-- Generator: Adobe Illustrator 24.3.0, SVG Export Plug-In . SVG Version: 6.00 Build 0)  -->
<svg version="1.1" id="Layer_1" xmlns="http://www.w3.org/2000/svg" xmlns:xlink="http://www.w3.org/1999/xlink" x="0px" y="0px"
	 viewBox="0 0 384.69 277.41" enable-background="new 0 0 384.69 277.41" xml:space="preserve">
<g>
	<polygon fill="#FAD62A" points="3.48,276.16 187.48,221.85 116.28,118.79 	"/>
	<g>
		
			<ellipse transform="matrix(0.8345 -0.551 0.551 0.8345 -65.7387 114.1061)" fill="#152238" cx="157.07" cy="166.48" rx="39.38" ry="63.5"/>
	</g>
	<g>
		<path fill="#B559EF" d="M244.59,191.17l-9.84-20c-2.74-5.57-3.15-11.9-1.13-17.81c2.01-5.91,6.19-10.68,11.77-13.42
			c5.57-2.74,11.9-3.15,17.81-1.13c5.91,2.01,10.68,6.19,13.42,11.76l2.7,5.48l0,0l2.81,5.7c1.49,3.04,4.1,5.32,7.34,6.42
			c3.24,1.1,6.7,0.89,9.73-0.61c3.04-1.49,5.32-4.1,6.42-7.34c1.1-3.24,0.89-6.69-0.61-9.73l-11.76-23.9
			c-2.74-5.57-3.15-11.9-1.13-17.81c2.01-5.91,6.19-10.68,11.77-13.42c5.57-2.74,11.9-3.15,17.81-1.13
			c5.91,2.01,10.68,6.19,13.42,11.77l11.76,23.9c1.49,3.04,4.1,5.32,7.34,6.42c3.24,1.1,6.7,0.89,9.73-0.61
			c3.04-1.49,5.32-4.1,6.42-7.34c1.1-3.24,0.89-6.69-0.61-9.73l-6.51-13.22l9.49-4.67l6.51,13.22c2.74,5.57,3.15,11.9,1.13,17.81
			c-2.01,5.91-6.19,10.68-11.77,13.42c-5.57,2.74-11.9,3.15-17.81,1.13c-5.91-2.01-10.68-6.19-13.42-11.77l-11.76-23.9
			c-1.49-3.04-4.1-5.32-7.34-6.42c-3.24-1.1-6.7-0.89-9.73,0.61c-3.04,1.49-5.32,4.1-6.42,7.34c-1.1,3.24-0.89,6.69,0.61,9.73
			l11.76,23.9c2.74,5.57,3.15,11.9,1.13,17.81c-2.01,5.91-6.19,10.68-11.77,13.42c-5.57,2.74-11.9,3.15-17.81,1.13
			c-5.91-2.01-10.68-6.19-13.42-11.77l-2.7-5.48l0,0l-0.01-0.01l-2.8-5.69c-1.49-3.04-4.1-5.32-7.34-6.42
			c-3.24-1.1-6.69-0.89-9.73,0.61c-3.04,1.49-5.32,4.1-6.42,7.34c-1.1,3.24-0.89,6.69,0.61,9.73l9.84,20L244.59,191.17z"/>
	</g>
	<path fill="#FAD62A" d="M236.57,105.71l-7.32,1.46c-1.53,0.31-2.86,1.22-3.7,2.53l-4,6.29c-0.67,1.05-2.28,0.75-2.53-0.47
		l-1.46-7.32c-0.31-1.53-1.22-2.86-2.53-3.7l-6.29-4c-1.05-0.67-0.75-2.28,0.47-2.53l7.32-1.46c1.53-0.31,2.86-1.22,3.7-2.53l4-6.29
		c0.67-1.05,2.28-0.75,2.53,0.47l1.46,7.32c0.31,1.53,1.22,2.86,2.53,3.7l6.29,4C238.1,103.85,237.8,105.47,236.57,105.71z"/>
	<circle fill="none" stroke="#E51B2B" stroke-width="4.736" stroke-miterlimit="10" cx="160.22" cy="144.7" r="11.03"/>
	<circle fill="#0048D0" cx="171.25" cy="66.17" r="5.45"/>
	<g>
		<circle fill="#FAD62A" cx="259.31" cy="33.84" r="29.93"/>
		<polygon fill="#152238" points="247.02,46.1 254.56,47.56 274.03,23.26 252.12,19.02 250.82,25.69 261.68,27.79 		"/>
	</g>
</g>
</svg>
