<?xml version="1.0" encoding="utf-8"?>
<!-- Generator: Adobe Illustrator 25.0.1, SVG Export Plug-In . SVG Version: 6.00 Build 0)  -->
<svg version="1.1" id="Layer_1" xmlns="http://www.w3.org/2000/svg" xmlns:xlink="http://www.w3.org/1999/xlink" x="0px" y="0px"
	 viewBox="0 0 65.2 52.8" enable-background="new 0 0 65.2 52.8" xml:space="preserve">
<g>
	<rect x="13.1" y="15.8" fill="#06984B" width="40.2" height="32.2"/>
	<g>
		<rect x="8" y="16.5" fill="#00CF4C" width="7.7" height="30.9"/>
		<path fill="#2F3A4E" d="M15.6,21.1H7.8c-1.3,0-2.3-1-2.3-2.3v0c0-1.3,1-2.3,2.3-2.3h7.9c1.3,0,2.3,1,2.3,2.3v0
			C17.9,20.1,16.9,21.1,15.6,21.1z"/>
		<path fill="#2F3A4E" d="M15.7,47.4h-8c-1.2,0-2.2-1-2.2-2.2v0c0-1.2,1-2.2,2.2-2.2h8c1.2,0,2.2,1,2.2,2.2v0
			C17.9,46.4,16.9,47.4,15.7,47.4z"/>
	</g>
	<g>
		<rect x="49.5" y="16.5" fill="#00CF4C" width="7.7" height="30.9"/>
		<path fill="#2F3A4E" d="M57.1,21.1h-7.9c-1.3,0-2.3-1-2.3-2.3v0c0-1.3,1-2.3,2.3-2.3h7.9c1.3,0,2.3,1,2.3,2.3v0
			C59.4,20.1,58.4,21.1,57.1,21.1z"/>
		<path fill="#2F3A4E" d="M57.2,47.4h-8c-1.2,0-2.2-1-2.2-2.2v0c0-1.2,1-2.2,2.2-2.2h8c1.2,0,2.2,1,2.2,2.2v0
			C59.4,46.4,58.4,47.4,57.2,47.4z"/>
	</g>
	<path fill="#006147" d="M62.6,52.1H2.3c-0.8,0-1.4-0.6-1.4-1.4v-3.2c0-0.8,0.6-1.4,1.4-1.4h60.3c0.8,0,1.4,0.6,1.4,1.4v3.2
		C64,51.5,63.4,52.1,62.6,52.1z"/>
	<path fill="#005247" d="M40.8,46.2V28.9c0-4.6-3.8-8.4-8.4-8.4s-8.4,3.8-8.4,8.4v17.2H40.8z"/>
	<path fill="#00CF4C" d="M30.5,1.3L1.3,15.8c-1,0.5-0.7,2.1,0.5,2.1h61.3c1.2,0,1.5-1.6,0.5-2.1L34.4,1.3
		C33.2,0.7,31.7,0.7,30.5,1.3z"/>
	<circle fill="#FAD62A" cx="32.4" cy="10.2" r="4.6"/>
</g>
</svg>
