<?xml version="1.0" encoding="utf-8"?>
<!-- Generator: Adobe Illustrator 25.0.1, SVG Export Plug-In . SVG Version: 6.00 Build 0)  -->
<svg version="1.1" id="Layer_1" xmlns="http://www.w3.org/2000/svg" xmlns:xlink="http://www.w3.org/1999/xlink" x="0px" y="0px"
	 viewBox="0 0 95 68.2" enable-background="new 0 0 95 68.2" xml:space="preserve">
<g>
	<g>
		<polygon fill="#FFFFFF" points="27.7,54.3 27.7,6.2 14.3,0.8 14.3,67.6 		"/>
		
			<linearGradient id="SVGID_1_" gradientUnits="userSpaceOnUse" x1="-75.7827" y1="164.4203" x2="-75.7827" y2="97.5751" gradientTransform="matrix(1 0 0 1 96.7922 -96.792)">
			<stop  offset="0" style="stop-color:#FFFFFF"/>
			<stop  offset="0.106" style="stop-color:#FBFBFB"/>
			<stop  offset="0.2047" style="stop-color:#F0F0F0"/>
			<stop  offset="0.3006" style="stop-color:#DDDDDD"/>
			<stop  offset="0.3947" style="stop-color:#C3C3C3"/>
			<stop  offset="0.4875" style="stop-color:#A0A0A0"/>
			<stop  offset="0.5794" style="stop-color:#767676"/>
			<stop  offset="0.6706" style="stop-color:#454545"/>
			<stop  offset="0.7589" style="stop-color:#0D0D0D"/>
			<stop  offset="0.7771" style="stop-color:#000000"/>
			<stop  offset="0.7874" style="stop-color:#0D0C0C"/>
			<stop  offset="0.803" style="stop-color:#1A1718"/>
			<stop  offset="0.824" style="stop-color:#211D1E"/>
			<stop  offset="0.8729" style="stop-color:#231F20"/>
			<stop  offset="0.8851" style="stop-color:#141213"/>
			<stop  offset="0.9019" style="stop-color:#090808"/>
			<stop  offset="0.9257" style="stop-color:#020202"/>
			<stop  offset="0.9914" style="stop-color:#000000"/>
		</linearGradient>
		<polygon opacity="0.5" fill="url(#SVGID_1_)" points="27.7,54.3 27.7,6.2 14.3,0.8 14.3,67.6 		"/>
		<polygon fill="#FFFFFF" points="14.3,0.8 1,14.1 1,33 27.7,6.2 		"/>
	</g>
	<g>
		<path fill="#FFFFFF" d="M34.6,24.6h8.5c2.3,0,5,0.8,5,4.6c0,2.8-1.6,4.6-5.2,4.6h-7.3v7.2h-1.1V24.6z M35.7,32.9H43
			c2,0,4.1-0.8,4.1-3.7c0-3.7-3-3.7-4.4-3.7h-7.1V32.9z"/>
		<path fill="#FFFFFF" d="M65.4,24.6h1.2l6.7,15.1L80,24.6h1.2l-7.3,16.4h-1.2L65.4,24.6z"/>
		<path fill="#FFFFFF" d="M85.6,24.6h1.2l7.5,16.4h-1.2l-2.4-5.3h-9.1l-2.4,5.3H78L85.6,24.6z M82,34.8h8.2l-4.1-9L82,34.8z"/>
		<path fill="#FFFFFF" d="M64.6,41.1l-3.4-7.6c2-0.7,2.8-2.2,2.8-4.3c0-3.7-2.7-4.6-5-4.6h-8.5v16.4h1.1v-7.2h7.3
			c0.4,0,0.8,0,1.2-0.1l3.2,7.3H64.6z M51.6,32.9v-7.4h7.1c1.4,0,4.4,0,4.4,3.7c0,2.9-2.1,3.7-4.1,3.7H51.6z"/>
	</g>
</g>
</svg>
