<?xml version="1.0" encoding="utf-8"?>
<!-- Generator: Adobe Illustrator 25.0.1, SVG Export Plug-In . SVG Version: 6.00 Build 0)  -->
<svg version="1.1" id="Layer_1" xmlns="http://www.w3.org/2000/svg" xmlns:xlink="http://www.w3.org/1999/xlink" x="0px" y="0px"
	 viewBox="0 0 36.8 52.4" enable-background="new 0 0 36.8 52.4" xml:space="preserve">
<g>
	<g>
		<g>
			<g>
				<path fill="#08C55C" d="M29,8l-3-7.5H1.8C1,0.5,0.3,1.1,0.3,2v48.5C0.3,51.3,1,52,1.8,52H35c0.8,0,1.5-0.7,1.5-1.5V11L29,8z"/>
			</g>
		</g>
		<path fill="#152238" d="M27.5,11h9.1L26,0.5v9.1C26,10.3,26.6,11,27.5,11z"/>
	</g>
	<path fill="#FFFFFF" d="M25.6,21.2L14.2,32.6l-4-4c-0.2-0.2-0.5-0.2-0.7,0L9,29c-0.2,0.2-0.2,0.5,0,0.7l4.8,4.8
		c0.2,0.2,0.5,0.2,0.7,0l12.2-12.2c0.2-0.2,0.2-0.5,0-0.7l-0.5-0.5C26.1,21,25.7,21,25.6,21.2L25.6,21.2z"/>
</g>
</svg>
