<?xml version="1.0" encoding="utf-8"?>
<!-- Generator: Adobe Illustrator 25.0.1, SVG Export Plug-In . SVG Version: 6.00 Build 0)  -->
<svg version="1.1" id="Layer_1" xmlns="http://www.w3.org/2000/svg" xmlns:xlink="http://www.w3.org/1999/xlink" x="0px" y="0px"
	 viewBox="0 0 36.8 52.4" enable-background="new 0 0 36.8 52.4" xml:space="preserve">
<g>
	<g>
		<g>
			<path fill="#005DFF" d="M29,8l-3-7.5H1.8C1,0.5,0.3,1.1,0.3,2v48.5C0.3,51.3,1,52,1.8,52H35c0.8,0,1.5-0.7,1.5-1.5V11L29,8z"/>
		</g>
	</g>
	<g>
		<path fill="#FFFFFF" d="M11.3,26.3h2.4v6c0,0.7,0.5,1.2,1.2,1.2H22c0.7,0,1.2-0.5,1.2-1.2v-6h2.4c0.5,0,0.9-0.3,1.1-0.7
			c0.2-0.4,0.1-1-0.3-1.3l-7.1-7.1c-0.5-0.5-1.2-0.5-1.7,0l-7.1,7.1c-0.3,0.3-0.4,0.9-0.3,1.3C10.4,26,10.8,26.3,11.3,26.3
			L11.3,26.3z"/>
		<path fill="#FFFFFF" d="M26.7,33.4c-0.7,0-1.2,0.5-1.2,1.2v1.2H11.3v-1.2c0-0.7-0.5-1.2-1.2-1.2S8.9,34,8.9,34.6V37
			c0,0.7,0.5,1.2,1.2,1.2h16.7c0.7,0,1.2-0.5,1.2-1.2v-2.4C27.9,34,27.4,33.4,26.7,33.4z"/>
	</g>
	<path fill="#152238" d="M27.5,11h9.1L26,0.5v9.1C26,10.3,26.6,11,27.5,11z"/>
</g>
</svg>
