<?xml version="1.0" encoding="utf-8"?>
<!-- Generator: Adobe Illustrator 25.0.0, SVG Export Plug-In . SVG Version: 6.00 Build 0)  -->
<svg version="1.1" id="Layer_1" xmlns="http://www.w3.org/2000/svg" xmlns:xlink="http://www.w3.org/1999/xlink" x="0px" y="0px"
	 viewBox="0 0 77.6 78.2" enable-background="new 0 0 77.6 78.2" xml:space="preserve">
<g>
	<g>
		<circle fill="#FFEB41" cx="38.9" cy="38.9" r="38.1"/>
	</g>
	<g>
		<circle fill="none" cx="38.9" cy="38.9" r="38.1"/>
	</g>
	<g>
		<defs>
			<circle id="SVGID_1_" cx="38.1" cy="38.9" r="38.1"/>
		</defs>
		<clipPath id="SVGID_2_">
			<use xlink:href="#SVGID_1_"  overflow="visible"/>
		</clipPath>
		<g clip-path="url(#SVGID_2_)">
			<g>
				<path fill="#152238" d="M53.7,58c-9.5,2.6-21.7,2.6-31.2,0c-2.7-0.6-4.9-3.2-4.9-5.5c-0.2-10.7-0.2-16,0-26.7
					c0.1-2.3,2.3-4.8,4.9-5.5c9.5-2.6,21.7-2.6,31.2,0c2.7,0.6,4.9,3.2,4.9,5.5c0.2,10.7,0.2,16,0,26.7C58.6,54.8,56.3,57.4,53.7,58
					z"/>
				<g>
					<g>
						<path fill="#FFEB41" d="M31.1,24.3c6.2-0.5,9.2-0.5,15.4,0.1c-4.1,9.9-6.3,15.5-10.5,25.9c-2,0-3-0.1-5-0.2
							c3.6-8.5,5.5-13.2,9.1-22c-3.6-0.1-5.4,0-9.1,0.2C31.1,26.7,31.1,25.9,31.1,24.3z"/>
					</g>
					<path fill="#FFEB41" d="M46.5,55.6c-6.8,0.7-10.2,0.7-16.9,0c0-0.8,0-1.2,0-2c6.8,0.6,10.2,0.6,17,0
						C46.5,54.4,46.5,54.8,46.5,55.6z"/>
				</g>
			</g>
			<g>
				<path fill="#152238" d="M51.4,104.9c-6.5,8.4-20.2,8.4-26.7,0c-2.3-2.2-4.3-6.5-4.5-8.8c-1.1-10.7-1.5-16-2-26.7
					c-0.1-2.3,1.9-3.1,4.5-2.1c9,3.7,21.8,3.7,30.7,0c2.6-1,4.7-0.2,4.5,2.1c-0.6,10.7-1,16-2,26.7C55.7,98.4,53.7,102.7,51.4,104.9
					z"/>
				<g>
					<g>
						<path fill="#FFEB41" d="M31.3,75c6,1.2,8.9,1.1,14.9-0.3c-3.4,9-6.7,18.1-9.9,27.2c-1.8-0.2-2.6-0.4-4.4-1
							c3-7.6,4.7-12.1,8.2-21.2c-3.5,0.2-5.2,0.1-8.7-0.7C31.4,77.4,31.4,76.6,31.3,75z"/>
					</g>
				</g>
			</g>
			<g>
				<path fill="#152238" d="M53.4,11.1c-9-3.7-21.8-3.7-30.7,0c-2.6,1-4.7,0.2-4.5-2.1c0.6-10.7,1-16,2-26.7
					c0.2-2.3,2.3-6.6,4.5-8.8c6.5-8.4,20.2-8.4,26.7,0c2.3,2.2,4.3,6.5,4.5,8.8C57-7,57.4-1.7,58,9C58.1,11.2,56.1,12,53.4,11.1z"/>
				<g>
					<path fill="#FFEB41" d="M46.3,5.4c-6.6-1.5-9.9-1.5-16.5,0c0-0.8,0-1.2,0-2c6.6-1.6,9.8-1.6,16.4,0C46.3,4.2,46.3,4.6,46.3,5.4
						z"/>
				</g>
			</g>
		</g>
	</g>
</g>
</svg>
