<?xml version="1.0" encoding="utf-8"?>
<!-- Generator: Adobe Illustrator 24.3.0, SVG Export Plug-In . SVG Version: 6.00 Build 0)  -->
<svg version="1.1" id="Layer_1" xmlns="http://www.w3.org/2000/svg" xmlns:xlink="http://www.w3.org/1999/xlink" x="0px" y="0px"
	 viewBox="0 0 141.51 148.17" enable-background="new 0 0 141.51 148.17" xml:space="preserve">
<g>
	<path fill="#FAD62A" d="M108.96,145.39c-7.21,0-13.97-2.79-19.04-7.87c-5.07-5.07-7.87-11.84-7.87-19.04
		c0-7.21,2.79-13.97,7.87-19.04l19.84-19.84c4.32-4.32,4.32-11.34,0-15.66c-4.32-4.32-11.34-4.32-15.66,0L74.26,83.78
		c-5.07,5.07-11.83,7.87-19.04,7.87s-13.97-2.79-19.04-7.87c-10.5-10.5-10.5-27.59,0-38.09l4.55-4.55h0l0.01-0.01l4.73-4.73
		c4.32-4.32,4.32-11.34,0-15.66c-4.32-4.31-11.34-4.32-15.66,0l-16.6,16.6L1.98,26.14l16.6-16.6c10.5-10.5,27.59-10.5,38.09,0
		c10.5,10.5,10.5,27.59,0,38.09l-4.55,4.55h0l-4.73,4.73c-4.32,4.32-4.32,11.34,0,15.66c2.08,2.08,4.86,3.22,7.83,3.22
		s5.75-1.14,7.83-3.22l19.84-19.84c10.5-10.5,27.59-10.5,38.09,0c10.5,10.5,10.5,27.59,0,38.09l-19.84,19.84
		c-2.08,2.08-3.22,4.86-3.22,7.83c0,2.97,1.14,5.75,3.22,7.83c2.08,2.08,4.86,3.22,7.83,3.22c2.97,0,5.75-1.14,7.83-3.22
		l10.97-10.97l11.22,11.22L128,137.52C122.93,142.59,116.17,145.39,108.96,145.39z"/>
</g>
</svg>
