<?xml version="1.0" encoding="utf-8"?>
<!-- Generator: Adobe Illustrator 24.3.0, SVG Export Plug-In . SVG Version: 6.00 Build 0)  -->
<svg version="1.1" id="Layer_1" xmlns="http://www.w3.org/2000/svg" xmlns:xlink="http://www.w3.org/1999/xlink" x="0px" y="0px"
	 viewBox="0 0 100 100" enable-background="new 0 0 100 100" xml:space="preserve">
<g>
	<path fill="#E51B2B" d="M49.3,25.74l4.28,10.65c0.89,2.22,2.65,3.98,4.87,4.87l10.65,4.28c1.78,0.72,1.78,3.24,0,3.96l-10.65,4.28
		c-2.22,0.89-3.98,2.65-4.87,4.87L49.3,69.3c-0.72,1.78-3.24,1.78-3.96,0l-4.28-10.65c-0.89-2.22-2.65-3.98-4.87-4.87L25.54,49.5
		c-1.78-0.72-1.78-3.24,0-3.96l10.65-4.28c2.22-0.89,3.98-2.65,4.87-4.87l4.28-10.65C46.06,23.96,48.58,23.96,49.3,25.74z"/>
	<circle fill="#FAD62A" cx="90.28" cy="34.25" r="3.07"/>
	<circle fill="#FAD62A" cx="28.41" cy="89.69" r="5.41"/>
	<circle fill="#FAD62A" cx="13.4" cy="10.72" r="6.58"/>
</g>
</svg>
