<svg xmlns="http://www.w3.org/2000/svg" viewBox="0 0 49.01 49.02"><defs><style>.cls-1{fill:#e51b2b;}.cls-2{fill:#fff;}</style></defs><title>Asset 6</title><g id="Layer_2" data-name="Layer 2"><g id="Layer_1-2" data-name="Layer 1"><path class="cls-1" d="M0,24.51A24.51,24.51,0,1,1,24.51,49,24.51,24.51,0,0,1,0,24.51"/><rect class="cls-2" x="13.37" y="16.57" width="3.26" height="15.85"/><path class="cls-2" d="M19.31,28.11a4.46,4.46,0,0,1,2.1-3.89,4,4,0,0,1-1.72-3.41c0-2.64,1.92-4.58,5.11-4.58s5.16,2,5.16,4.62a3.86,3.86,0,0,1-1.77,3.37,4.48,4.48,0,0,1,2.1,3.89c0,2.77-2.07,4.64-5.49,4.64s-5.49-1.87-5.49-4.64m3.26-.25a2,2,0,0,0,2.23,2.06,2.06,2.06,0,1,0,0-4.11,2,2,0,0,0-2.23,2.05m4.35-6.92A2,2,0,0,0,24.8,19a1.94,1.94,0,1,0,0,3.87,1.91,1.91,0,0,0,2.12-1.95"/><polygon class="cls-2" points="37.66 19.89 37.66 23.11 40.88 23.11 40.88 25.32 37.66 25.32 37.66 28.54 35.44 28.54 35.44 25.32 32.22 25.32 32.22 23.11 35.44 23.11 35.44 19.89 37.66 19.89"/></g></g></svg>