<svg id="Layer_1" data-name="Layer 1" xmlns="http://www.w3.org/2000/svg" viewBox="0 0 221 33"><defs><style>.cls-1{fill:#ff9000;}.cls-2{fill:#ed3036;}.cls-3{fill:#2ecb67;}.cls-4,.cls-6{fill:#0d9ee6;}.cls-4{fill-rule:evenodd;}.cls-5{fill:#e1268f;}</style></defs><title>Artboard 1</title><path class="cls-1" d="M107.07,31.67A13.69,13.69,0,1,1,120.77,18a13.7,13.7,0,0,1-13.7,13.69m0-19.43A5.74,5.74,0,1,0,112.81,18a5.74,5.74,0,0,0-5.74-5.74"/><path class="cls-1" d="M107.07,14a4,4,0,1,0,4,4,4,4,0,0,0-4-4"/><path class="cls-2" d="M59.67,31.34a4,4,0,0,1-3-1.4l-8.9-10.48v7.9a4,4,0,0,1-8,0V8.63a4,4,0,0,1,7-2.58l8.9,10.48V8.63a4,4,0,1,1,8,0V27.36A4,4,0,0,1,61,31.1a4.08,4.08,0,0,1-1.37.24"/><path class="cls-3" d="M88.78,14H79.07a4,4,0,0,0,0,8H83.2a5.74,5.74,0,1,1-4.13-9.72h5.2a4,4,0,0,0,0-8h-5.4A13.69,13.69,0,1,0,92.77,18a4,4,0,0,0-4-4"/><polygon class="cls-4" points="29.55 4.64 31.78 1.53 34.02 4.64 29.55 4.64"/><path class="cls-5" d="M22.65,17a8.47,8.47,0,0,0,.83-3.66,8.8,8.8,0,0,0-8.9-8.66H5a4,4,0,0,0-4,4V27.36a4,4,0,0,0,4,4H16a4.1,4.1,0,0,0,.62-.05,8.77,8.77,0,0,0,8.28-8.64A8.49,8.49,0,0,0,22.65,17M8.93,12.6h5.43a1.16,1.16,0,0,1,0,2.32H8.93V12.6m6.82,10.78H8.93V21.07h6.82a1.16,1.16,0,0,1,0,2.31"/><path class="cls-6" d="M33.83,8.77a2.69,2.69,0,0,0-4.09,0,1.64,1.64,0,0,0-2.61-.23V27.36a4,4,0,0,0,4,4h1.35a4,4,0,0,0,4-4V8.54a1.62,1.62,0,0,0-1-.53,1.67,1.67,0,0,0-1.6.76"/><path class="cls-6" d="M129.75,5.09h2.77V31.83h-2.77Zm2,17V19.65H138a6.64,6.64,0,0,0,3.5-.82,5.17,5.17,0,0,0,2-2.19,6.92,6.92,0,0,0,.65-3.05,7,7,0,0,0-.65-3.08,5.06,5.06,0,0,0-2-2.17,6.84,6.84,0,0,0-3.5-.8h-6.2V5.09h5.73a11.76,11.76,0,0,1,5.3,1.06A7.19,7.19,0,0,1,146,9.07a8.63,8.63,0,0,1,1,4.27v.51a8.66,8.66,0,0,1-1,4.25A7.17,7.17,0,0,1,142.82,21a11.77,11.77,0,0,1-5.3,1.05Z"/><path class="cls-6" d="M152.73,5.2h2.77V31.83h-2.77Zm2,24.12h12.51v2.51H154.77Z"/><path class="cls-6" d="M182.13,32.45a12,12,0,0,1-6.06-1.38,8.82,8.82,0,0,1-3.61-3.89,13.09,13.09,0,0,1-1.2-5.74V5.2H174V21.77a9.65,9.65,0,0,0,.89,4.26,6.52,6.52,0,0,0,2.7,2.85,9.09,9.09,0,0,0,4.51,1,9,9,0,0,0,4.45-1,6.52,6.52,0,0,0,2.7-2.85,9.66,9.66,0,0,0,.91-4.28V5.2H193V21.44a13.09,13.09,0,0,1-1.2,5.74,8.85,8.85,0,0,1-3.6,3.89,11.9,11.9,0,0,1-6,1.38"/><path class="cls-6" d="M209.3,32.45a13.25,13.25,0,0,1-5.65-1.07A7.77,7.77,0,0,1,199,24.06h2.77a5.77,5.77,0,0,0,.75,2.87,5.38,5.38,0,0,0,2.41,2.15,9.91,9.91,0,0,0,4.39.82,10.37,10.37,0,0,0,4.18-.73,5.54,5.54,0,0,0,2.48-2,4.89,4.89,0,0,0,.82-2.77,4.07,4.07,0,0,0-1.51-3.23,8,8,0,0,0-4.54-1.55l-3.07-.29a9,9,0,0,1-5.45-2.14,6.26,6.26,0,0,1-2-4.87,7.49,7.49,0,0,1,1.1-4,7.67,7.67,0,0,1,3.12-2.77,10.71,10.71,0,0,1,4.87-1,10.89,10.89,0,0,1,4.94,1,7.58,7.58,0,0,1,3.16,2.86,8.09,8.09,0,0,1,1.09,4.24h-2.77A5.86,5.86,0,0,0,215,9.91,4.92,4.92,0,0,0,213,7.85a7.61,7.61,0,0,0-3.68-.79,7.77,7.77,0,0,0-3.56.73,4.91,4.91,0,0,0-2.08,1.94,5.27,5.27,0,0,0-.67,2.62,4,4,0,0,0,1.27,3,5.71,5.71,0,0,0,3.69,1.42l3.06.3a12.43,12.43,0,0,1,4.62,1.18,7.51,7.51,0,0,1,2.93,2.52,6.44,6.44,0,0,1,1,3.63,7.23,7.23,0,0,1-1.25,4.16,8.33,8.33,0,0,1-3.56,2.84,13.34,13.34,0,0,1-5.44,1"/></svg>