<?xml version="1.0" encoding="iso-8859-1"?>
<!-- Generator: Adobe Illustrator 23.0.1, SVG Export Plug-In . SVG Version: 6.00 Build 0)  -->
<svg version="1.1" id="Layer_1" xmlns="http://www.w3.org/2000/svg" xmlns:xlink="http://www.w3.org/1999/xlink" x="0px" y="0px"
	 viewBox="0 0 500 128" style="enable-background:new 0 0 500 128;" xml:space="preserve">
<path style="fill:#FF9000;" d="M441.215,127.441c-31.302,0-56.785-25.468-56.785-56.77c0-31.307,25.482-56.785,56.785-56.785
	c31.326,0,56.785,25.478,56.785,56.785C498,101.973,472.541,127.441,441.215,127.441 M441.215,46.879
	c-13.108,0-23.774,10.67-23.774,23.792c0,13.104,10.665,23.774,23.774,23.774c13.125,0,23.78-10.67,23.78-23.774
	C464.996,57.549,454.34,46.879,441.215,46.879"/>
<path style="fill:#F79531;" d="M441.215,54.158c-9.107,0-16.496,7.412-16.496,16.513c0,9.094,7.389,16.505,16.496,16.505
	c9.094,0,16.509-7.411,16.509-16.505C457.724,61.571,450.309,54.158,441.215,54.158"/>
<path style="fill:#ED3036;" d="M244.636,126.091c-4.752,0-9.374-2.061-12.578-5.822l-36.902-43.459v32.78
	c0,9.12-7.378,16.502-16.492,16.502c-9.114,0-16.495-7.381-16.495-16.502V31.883c0-6.927,4.315-13.104,10.816-15.496
	c6.487-2.381,13.779-0.455,18.254,4.805l36.899,43.463V31.883c0-9.11,7.378-16.508,16.499-16.508
	c9.107,0,16.512,7.398,16.512,16.508v77.706c0,6.915-4.342,13.112-10.826,15.485C248.467,125.748,246.538,126.091,244.636,126.091"
	/>
<path style="fill:#2ECB67;" d="M365.372,54.158h-40.273c-9.107,0-16.482,7.393-16.482,16.513c0,9.107,7.375,16.495,16.482,16.495
	h17.123c-4.342,4.486-10.415,7.279-17.123,7.279c-13.098,0-23.78-10.67-23.78-23.774c0-13.122,10.682-23.79,23.78-23.79l0.794,0.039
	h20.754v-0.01c9.1,0,16.485-7.388,16.485-16.508c0-9.11-7.395-16.488-16.499-16.488h-20.92h-1.402h-0.1
	c-30.895,0.476-55.874,25.752-55.874,56.757c0,31.302,25.462,56.769,56.761,56.769c31.312,0,56.795-25.467,56.795-56.769
	C381.894,61.551,374.506,54.158,365.372,54.158"/>
<polygon style="fill-rule:evenodd;clip-rule:evenodd;fill:#0D9EE6;" points="119.754,15.374 129.001,2.451 138.261,15.374 "/>
<path style="fill:#E1268F;" d="M91.106,66.433c2.206-4.605,3.454-9.747,3.454-15.157c0-19.8-16.569-35.9-36.912-35.9H17.719
	c-9.114,0-16.499,7.398-16.499,16.508v38.838v38.867c0,9.12,7.385,16.502,16.499,16.502h45.625c0.891,0,1.749-0.086,2.57-0.223
	c19.172-1.295,34.339-16.845,34.339-35.807C100.253,81.026,96.785,72.747,91.106,66.433 M34.221,48.378h22.522
	c2.653,0,4.795,2.143,4.795,4.795c0,2.661-2.142,4.813-4.795,4.813H34.221V48.378 M62.496,93.083H34.221v-9.611h28.276
	c2.643,0,4.785,2.153,4.785,4.817C67.282,90.924,65.139,93.083,62.496,93.083"/>
<path style="fill:#0D9EE6;" d="M137.466,32.496c-2.056-2.408-5.076-3.93-8.466-3.93c-3.394,0-6.434,1.522-8.466,3.93
	c-1.432-2.175-3.938-3.487-6.651-3.179c-1.672,0.182-2.867,0.965-4.185,2.198v78.072c0,9.122,7.405,16.503,16.512,16.503h5.583
	c9.097,0,16.489-7.381,16.489-16.503V31.515c-1.302-1.233-2.496-2.016-4.178-2.198C141.388,29.009,138.885,30.321,137.466,32.496"/>
</svg>
