<svg xmlns="http://www.w3.org/2000/svg" viewBox="0 0 95.86 95.7"><defs><style>.cls-1{fill:#fff;}.cls-2{fill:none;stroke:#fff;stroke-miterlimit:10;stroke-width:3.61px;}</style></defs><title>Asset 7</title><g id="Layer_2" data-name="Layer 2"><g id="Layer_1-2" data-name="Layer 1"><path class="cls-1" d="M26.6,49.73H0V40.27A17.16,17.16,0,0,1,17.13,23.13H26.6Zm-23-3.61H23V26.74H17.13A13.54,13.54,0,0,0,3.61,40.27Z"/><path class="cls-1" d="M72.57,49.73H46V23.13h26.6Zm-23-3.61H69V26.74H49.59Z"/><path class="cls-1" d="M26.6,72.72H0V46.12H26.6Zm-23-3.62H23V49.73H3.61Z"/><path class="cls-1" d="M72.57,72.72H46V46.12h26.6Zm-23-3.62H69V49.73H49.59Z"/><path class="cls-1" d="M49.58,49.73H23V23.13H49.58Zm-23-3.61H46V26.74H26.6Z"/><rect class="cls-2" x="24.79" y="47.92" width="22.99" height="22.99"/><path class="cls-1" d="M26.6,95.7H0V69.11H26.6Zm-23-3.61H23V72.72H3.61Z"/><path class="cls-1" d="M49.58,95.7H23V69.11H49.58Zm-23-3.61H46V72.72H26.6Z"/><path class="cls-1" d="M56,95.7H46V69.1h26.6V79.16A16.56,16.56,0,0,1,56,95.7Zm-6.45-3.61H56A12.94,12.94,0,0,0,69,79.16V72.72H49.58Z"/><path class="cls-1" d="M59.55,37.81a1.77,1.77,0,0,1-.64-.12,1.8,1.8,0,0,1-1.17-1.56L56.53,19a1.78,1.78,0,0,1,.52-1.4l17-17a1.81,1.81,0,0,1,3.08,1.15l1.21,17.18a1.78,1.78,0,0,1-.52,1.4l-17,17A1.8,1.8,0,0,1,59.55,37.81Zm.64-18.29.88,12.41L74.7,18.29,73.83,5.88Z"/><path class="cls-1" d="M77,39.33h-.12L59.73,38.11A1.8,1.8,0,0,1,58.58,35l17-17a1.83,1.83,0,0,1,1.4-.53l17.18,1.22a1.81,1.81,0,0,1,1.15,3.08l-17,17A1.81,1.81,0,0,1,77,39.33Zm-13.1-4.54,12.41.88L90,22l-12.41-.88Z"/><path class="cls-1" d="M35.93,61.43a1.81,1.81,0,0,1-1.28-3.09L58.27,34.72a1.81,1.81,0,1,1,2.55,2.56L37.2,60.9A1.8,1.8,0,0,1,35.93,61.43Z"/></g></g></svg>