<svg xmlns="http://www.w3.org/2000/svg" xmlns:xlink="http://www.w3.org/1999/xlink" viewBox="0 0 457.15 457.15"><defs><style>.cls-1,.cls-3{fill:none;}.cls-2{clip-path:url(#clip-path);}.cls-3{stroke:#73a6ff;stroke-miterlimit:10;stroke-width:1.8px;}</style><clipPath id="clip-path"><path class="cls-1" d="M241.93,78.85a19.39,19.39,0,0,1-21.73,0,39.54,39.54,0,0,0-23.54-6.79c-21.95.7-38.39,20.11-38.4,42.07,0,22.93,14.94,49.07,31.3,70.79A3.27,3.27,0,0,1,185,189.5c-21.72-16.36-47.86-31.31-70.79-31.29h0c-22,0-41.37,16.44-42.07,38.39a39.54,39.54,0,0,0,6.79,23.54,19.39,19.39,0,0,1,0,21.73,39.56,39.56,0,0,0-6.79,23.54c.7,22,20.11,38.39,42.07,38.4,22.93,0,49.07-14.94,70.79-31.29a3.27,3.27,0,0,1,4.58,4.57c-16.36,21.73-31.31,47.86-31.3,70.79,0,22,16.45,41.38,38.4,42.08a39.55,39.55,0,0,0,23.54-6.8,19.33,19.33,0,0,1,10.87-3.32h0a19.4,19.4,0,0,1,10.86,3.32,39.57,39.57,0,0,0,23.54,6.8c22-.7,38.39-20.11,38.4-42.08,0-22.93-14.94-49.06-31.29-70.79a3.26,3.26,0,0,1,4.57-4.57c21.73,16.35,47.86,31.3,70.79,31.29,22,0,41.38-16.44,42.08-38.4a39.57,39.57,0,0,0-6.8-23.54A19.32,19.32,0,0,1,379.9,231h0a19.41,19.41,0,0,1,3.32-10.87A39.48,39.48,0,0,0,390,196.6c-.7-21.95-20.11-38.39-42.08-38.4-22.93,0-49.06,14.94-70.79,31.3a3.27,3.27,0,0,1-4.57-4.58c16.35-21.72,31.3-47.86,31.29-70.79,0-22-16.44-41.37-38.4-42.07-.43,0-.87,0-1.3,0a39.52,39.52,0,0,0-22.24,6.81"/></clipPath></defs><title>Asset 8</title><g id="Layer_2" data-name="Layer 2"><g id="Layer_1-2" data-name="Layer 1"><g class="cls-2"><line class="cls-3" x1="0.64" y1="228.36" x2="228.36" y2="0.64"/><line class="cls-3" x1="6.8" y1="234.53" x2="234.53" y2="6.8"/><line class="cls-3" x1="12.97" y1="240.69" x2="240.69" y2="12.97"/><line class="cls-3" x1="19.14" y1="246.86" x2="246.86" y2="19.14"/><line class="cls-3" x1="25.3" y1="253.03" x2="253.03" y2="25.3"/><line class="cls-3" x1="31.47" y1="259.19" x2="259.19" y2="31.47"/><line class="cls-3" x1="37.63" y1="265.36" x2="265.36" y2="37.63"/><line class="cls-3" x1="43.8" y1="271.52" x2="271.52" y2="43.8"/><line class="cls-3" x1="49.97" y1="277.69" x2="277.69" y2="49.97"/><line class="cls-3" x1="56.13" y1="283.86" x2="283.86" y2="56.13"/><line class="cls-3" x1="62.3" y1="290.02" x2="290.02" y2="62.3"/><line class="cls-3" x1="68.47" y1="296.19" x2="296.19" y2="68.47"/><line class="cls-3" x1="74.63" y1="302.36" x2="302.36" y2="74.63"/><line class="cls-3" x1="80.8" y1="308.52" x2="308.52" y2="80.8"/><line class="cls-3" x1="86.97" y1="314.69" x2="314.69" y2="86.97"/><line class="cls-3" x1="93.13" y1="320.86" x2="320.86" y2="93.13"/><line class="cls-3" x1="99.3" y1="327.02" x2="327.02" y2="99.3"/><line class="cls-3" x1="105.47" y1="333.19" x2="333.19" y2="105.47"/><line class="cls-3" x1="111.63" y1="339.36" x2="339.36" y2="111.63"/><line class="cls-3" x1="117.8" y1="345.52" x2="345.52" y2="117.8"/><line class="cls-3" x1="123.97" y1="351.69" x2="351.69" y2="123.96"/><line class="cls-3" x1="130.13" y1="357.85" x2="357.85" y2="130.13"/><line class="cls-3" x1="136.3" y1="364.02" x2="364.02" y2="136.3"/><line class="cls-3" x1="142.46" y1="370.19" x2="370.19" y2="142.46"/><line class="cls-3" x1="148.63" y1="376.35" x2="376.35" y2="148.63"/><line class="cls-3" x1="154.8" y1="382.52" x2="382.52" y2="154.8"/><line class="cls-3" x1="160.96" y1="388.69" x2="388.69" y2="160.96"/><line class="cls-3" x1="167.13" y1="394.85" x2="394.85" y2="167.13"/><line class="cls-3" x1="173.3" y1="401.02" x2="401.02" y2="173.3"/><line class="cls-3" x1="179.46" y1="407.19" x2="407.19" y2="179.46"/><line class="cls-3" x1="185.63" y1="413.35" x2="413.35" y2="185.63"/><line class="cls-3" x1="191.8" y1="419.52" x2="419.52" y2="191.8"/><line class="cls-3" x1="197.96" y1="425.69" x2="425.69" y2="197.96"/><line class="cls-3" x1="204.13" y1="431.85" x2="431.85" y2="204.13"/><line class="cls-3" x1="210.3" y1="438.02" x2="438.02" y2="210.29"/><line class="cls-3" x1="216.46" y1="444.18" x2="444.18" y2="216.46"/><line class="cls-3" x1="222.63" y1="450.35" x2="450.35" y2="222.63"/><line class="cls-3" x1="228.79" y1="456.52" x2="456.52" y2="228.79"/></g></g></g></svg>