<svg id="Layer_1" data-name="Layer 1" xmlns="http://www.w3.org/2000/svg" viewBox="0 0 72 72"><defs><style>.cls-1{fill:#a73bec;}.cls-2{fill:#fff;}</style></defs><title>Artboard 1</title><path class="cls-1" d="M33.41,69.73,2,38.3a3.54,3.54,0,0,1,0-5L33.41,1.85a3.56,3.56,0,0,1,5,0L69.86,33.28a3.55,3.55,0,0,1,0,5L38.43,69.73a3.54,3.54,0,0,1-5,0"/><path class="cls-2" d="M33.34,33.05a4.22,4.22,0,1,1,0,6,4.22,4.22,0,0,1,0-6"/><path class="cls-2" d="M33.18,14.28a4.22,4.22,0,1,1,0,6,4.22,4.22,0,0,1,0-6"/><path class="cls-2" d="M51.46,32.56a4.22,4.22,0,1,1,0,6,4.24,4.24,0,0,1,0-6"/><path class="cls-2" d="M14.41,33.05a4.22,4.22,0,1,1,0,6,4.22,4.22,0,0,1,0-6"/><path class="cls-2" d="M32.7,51.33a4.22,4.22,0,1,1,0,6,4.21,4.21,0,0,1,0-6"/></svg>