<svg id="Layer_1" data-name="Layer 1" xmlns="http://www.w3.org/2000/svg" viewBox="0 0 183.41 45.51"><defs><style>.cls-1{fill:#fff;}</style></defs><title>happy-tv_logo</title><path class="cls-1" d="M15.08,1.85,14,10a36.42,36.42,0,0,1-1.4,6q5.22-4.72,10-4.73,3.63,0,5.38,1.86c1.18,1.24,1.59,3,1.26,5.28L26.6,37.05H17.49l2.27-16a2.75,2.75,0,0,0-.1-1.59c-.17-.25-.56-.38-1.16-.38-1.68,0-3.77,1-6.29,2.92l-2.06,15H1L5.93,1.85Z" transform="translate(-1 -1.85)"/><path class="cls-1" d="M56.82,37.05H49.73V32.32a12.21,12.21,0,0,1-10,5.33c-3.31.17-5.51-.88-6.59-3.17S31.93,28.7,32.63,24a25.31,25.31,0,0,1,1.56-5.83,13.3,13.3,0,0,1,2.19-3.69,7.45,7.45,0,0,1,3.17-2,15.6,15.6,0,0,1,3.77-.88q1.78-.18,4.65-.18a54.21,54.21,0,0,1,6.54.5,38.65,38.65,0,0,1,5.73,1.06ZM50.48,17.64l-3-.05a5.42,5.42,0,0,0-3.85,1.13c-.79.75-1.37,2.46-1.73,5.1a21.28,21.28,0,0,0-.41,5.53c.17.81.77,1.2,1.81,1.16q2.71-.15,5.94-4.38Z" transform="translate(-1 -1.85)"/><path class="cls-1" d="M72.66,12.06v4.57q5-5.17,10.21-5.18,8.7,0,6.89,13.68a26.94,26.94,0,0,1-1.54,6.49,9.29,9.29,0,0,1-2.64,3.87,9.17,9.17,0,0,1-3.34,1.79,16.44,16.44,0,0,1-4.2.47,36.31,36.31,0,0,1-7.14-.7,33.34,33.34,0,0,1-.35,4.72l-.76,4.58H60.64l4.78-34.29Zm-.75,19.81h3c2,0,3.38-.39,4-1.16s1.13-2.58,1.53-5.43a19,19,0,0,0,.26-5.4A1.56,1.56,0,0,0,79,18.6q-2.56,0-5.79,3.11Z" transform="translate(-1 -1.85)"/><path class="cls-1" d="M103.08,12.06v4.57q5-5.17,10.21-5.18,8.7,0,6.89,13.68a27,27,0,0,1-1.53,6.49,8.91,8.91,0,0,1-6,5.66,16.49,16.49,0,0,1-4.2.47,36.34,36.34,0,0,1-7.15-.7,31.93,31.93,0,0,1-.35,4.72l-.75,4.58H91.06l4.78-34.29Zm-.75,19.81h3c2,0,3.38-.39,4-1.16s1.13-2.58,1.53-5.43a18.89,18.89,0,0,0,.25-5.4,1.56,1.56,0,0,0-1.71-1.28q-2.57,0-5.78,3.11Z" transform="translate(-1 -1.85)"/><path class="cls-1" d="M142.51,12.05h9.75a64.76,64.76,0,0,1-3.47,12.85,72,72,0,0,1-4.72,10.64,25.8,25.8,0,0,1-8.33,9.05,19.72,19.72,0,0,1-10.68,2.77l-.76-5.18,1.16-.35,1.21-.38,1-.35c.52-.19.89-.33,1.1-.43l1-.46a5,5,0,0,0,1.06-.59,11.42,11.42,0,0,1,.93-.68,6.87,6.87,0,0,0,1-.86c.31-.32.61-.67.91-1h-3.52a3.07,3.07,0,0,1-2.06-.73,3.1,3.1,0,0,1-1.06-1.89L123.5,12.05h10l1.31,18.46a.71.71,0,0,0,.8.81h1.61a72.77,72.77,0,0,0,5.33-19.27" transform="translate(-1 -1.85)"/><path class="cls-1" d="M158.29,35.31a2.24,2.24,0,0,1-2.1,1.89c-1.25,0-1.93-.91-1.52-2.45l3.06-11.34H154.6a1.74,1.74,0,1,1,0-3.47h11a1.74,1.74,0,1,1,0,3.47h-4.08Z" transform="translate(-1 -1.85)"/><path class="cls-1" d="M174.83,35.8a3,3,0,0,1-2.49,1.52h-.17c-1,0-1.59-.54-1.76-1.67l-2-13.27a5.39,5.39,0,0,1-.07-.88,1.77,1.77,0,0,1,2-1.7,1.8,1.8,0,0,1,2,1.73l1.24,10.34L180.74,21a2.3,2.3,0,0,1,2-1.19c1,0,1.71.44,1.71,1.39a2.22,2.22,0,0,1-.34,1.07Z" transform="translate(-1 -1.85)"/></svg>