<svg xmlns="http://www.w3.org/2000/svg" viewBox="0 0 85.19 99.78"><defs><style>.cls-1{fill:#fff;}</style></defs><title>Asset 10</title><g id="Layer_2" data-name="Layer 2"><g id="Layer_1-2" data-name="Layer 1"><path class="cls-1" d="M42.6,51.47a1.69,1.69,0,0,1-.84-.23L1.91,27a1.6,1.6,0,0,1-.57-2.15A10.46,10.46,0,0,1,5.05,21L37.13,1.5a10.68,10.68,0,0,1,10.93,0L80.14,21a10.46,10.46,0,0,1,3.71,3.85A1.61,1.61,0,0,1,83.29,27L43.43,51.24A1.68,1.68,0,0,1,42.6,51.47ZM5,25.18,42.6,48,80.17,25.18a7.37,7.37,0,0,0-1.69-1.41L46.4,4.24a7.42,7.42,0,0,0-7.61,0L6.71,23.77A7.12,7.12,0,0,0,5,25.18Z"/><path class="cls-1" d="M42.6,99.78a10.52,10.52,0,0,1-5.46-1.53L5.06,78.8a10.59,10.59,0,0,1-5.06-9V30a10.5,10.5,0,0,1,1.34-5.13,1.6,1.6,0,0,1,1-.77,1.63,1.63,0,0,1,1.24.18L43.43,48.5a1.62,1.62,0,0,1,.77,1.37V98.18A1.6,1.6,0,0,1,42.6,99.78ZM3.49,28a7.31,7.31,0,0,0-.29,2v39.8a7.36,7.36,0,0,0,3.52,6.25L38.8,95.52a7.46,7.46,0,0,0,2.2.88V50.77Z"/><path class="cls-1" d="M42.6,99.78a1.6,1.6,0,0,1-1.6-1.6V49.87a1.61,1.61,0,0,1,.76-1.37L81.62,24.29a1.64,1.64,0,0,1,1.24-.18,1.6,1.6,0,0,1,1,.77A10.5,10.5,0,0,1,85.19,30v39.8a10.59,10.59,0,0,1-5.06,9L48.05,98.25A10.51,10.51,0,0,1,42.6,99.78Zm1.6-49V96.4a7.29,7.29,0,0,0,2.19-.88L78.47,76.06A7.36,7.36,0,0,0,82,69.81V30a7.31,7.31,0,0,0-.29-2Z"/><path class="cls-1" d="M18.27,55.2c2.18-.93,5.27,1.43,6.9,5.28s1.21,7.71-1,8.64-5.26-1.44-6.9-5.29-1.2-7.71,1-8.63"/><path class="cls-1" d="M51.51,73.81c2-3,5.23-4.26,7.33-2.89s2.22,4.9.27,7.87-5.22,4.27-7.32,2.89-2.22-4.89-.28-7.87"/><path class="cls-1" d="M67,45.69c2-3,5.23-4.27,7.32-2.89s2.22,4.89.28,7.87-5.23,4.26-7.33,2.89-2.22-4.9-.27-7.87"/><path class="cls-1" d="M42.64,21c3.24,0,5.87,1.65,5.87,3.7s-2.63,3.7-5.87,3.7-5.87-1.66-5.87-3.7S39.4,21,42.64,21"/><path class="cls-1" d="M60.87,21c3.25,0,5.87,1.65,5.87,3.7s-2.62,3.7-5.87,3.7S55,26.71,55,24.67,57.63,21,60.87,21"/><path class="cls-1" d="M24.4,21c3.24,0,5.87,1.65,5.87,3.7s-2.63,3.7-5.87,3.7-5.87-1.66-5.87-3.7S21.16,21,24.4,21"/></g></g></svg>