<svg xmlns="http://www.w3.org/2000/svg" viewBox="0 0 69.95 69.96"><defs><style>.cls-1{fill:#ff9000;}.cls-2{fill:#fff;}</style></defs><title>kockica-orange</title><g id="Layer_2" data-name="Layer 2"><g id="Layer_1-2" data-name="Layer 1"><path class="cls-1" d="M32.46,68.91,1,37.49a3.55,3.55,0,0,1,0-5L32.46,1a3.55,3.55,0,0,1,5,0L68.91,32.46a3.55,3.55,0,0,1,0,5L37.49,68.91a3.55,3.55,0,0,1-5,0"/><path class="cls-2" d="M32.4,32.24a4.22,4.22,0,1,1,0,6,4.21,4.21,0,0,1,0-6"/><path class="cls-2" d="M50.52,31.75a4.22,4.22,0,1,1,0,6,4.22,4.22,0,0,1,0-6"/><path class="cls-2" d="M13.47,32.23a4.22,4.22,0,1,1,0,6,4.24,4.24,0,0,1,0-6"/></g></g></svg>