<svg xmlns="http://www.w3.org/2000/svg" viewBox="0 0 75.95 75.95"><defs><style>.cls-1{fill:#fff;}</style></defs><title>Asset 9</title><g id="Layer_2" data-name="Layer 2"><g id="Layer_1-2" data-name="Layer 1"><path class="cls-1" d="M27.27,27.26H0V0H27.27ZM2.92,24.34H24.35V2.92H2.92Z"/><path class="cls-1" d="M76,27.26H48.69V0H76ZM51.61,24.34H73V2.92H51.61Z"/><path class="cls-1" d="M27.27,51.61H0V24.34H27.27ZM2.92,48.69H24.35V27.26H2.92Z"/><path class="cls-1" d="M76,51.61H48.69V24.34H76ZM51.61,48.69H73V27.26H51.61Z"/><path class="cls-1" d="M51.61,27.26H24.34V0H51.61ZM27.26,24.34H48.69V2.92H27.26Z"/><path class="cls-1" d="M51.61,51.61H24.34V24.34H51.61ZM27.26,48.69H48.69V27.26H27.26Z"/><path class="cls-1" d="M27.27,76H0V48.69H27.27ZM2.92,73H24.35V51.61H2.92Z"/><path class="cls-1" d="M51.61,76H24.34V48.69H51.61ZM27.26,73H48.69V51.61H27.26Z"/><path class="cls-1" d="M76,76H48.69V48.69H76ZM51.61,73H73V51.61H51.61Z"/><path class="cls-1" d="M14.07,31.35l1.25,3.83a.45.45,0,0,0,.43.32h4a.46.46,0,0,1,.27.83L16.79,38.7a.47.47,0,0,0-.16.52l1.24,3.83a.46.46,0,0,1-.7.52L13.9,41.2a.45.45,0,0,0-.54,0L10.1,43.57a.46.46,0,0,1-.71-.52l1.25-3.83a.48.48,0,0,0-.17-.52L7.21,36.33a.46.46,0,0,1,.27-.83h4a.46.46,0,0,0,.44-.32l1.24-3.83a.46.46,0,0,1,.88,0"/><path class="cls-1" d="M62.76,56.33,64,60.16a.45.45,0,0,0,.43.32h4a.46.46,0,0,1,.27.83l-3.27,2.37a.47.47,0,0,0-.16.52L66.56,68a.46.46,0,0,1-.7.52l-3.27-2.37a.45.45,0,0,0-.54,0l-3.26,2.37a.46.46,0,0,1-.71-.52l1.25-3.83a.48.48,0,0,0-.17-.52L55.9,61.31a.46.46,0,0,1,.27-.83h4a.46.46,0,0,0,.44-.32l1.24-3.83a.46.46,0,0,1,.88,0"/><path class="cls-1" d="M38.41,7.64l1.25,3.83a.46.46,0,0,0,.44.32h4a.46.46,0,0,1,.27.83L41.14,15a.48.48,0,0,0-.17.52l1.25,3.83a.46.46,0,0,1-.71.52l-3.26-2.37a.45.45,0,0,0-.54,0l-3.27,2.37a.46.46,0,0,1-.7-.52L35,15.51a.47.47,0,0,0-.16-.52l-3.27-2.37a.46.46,0,0,1,.27-.83h4a.45.45,0,0,0,.43-.32l1.25-3.83a.45.45,0,0,1,.87,0"/><rect class="cls-1" x="10.67" y="10.32" width="5.74" height="5.74"/><rect class="cls-1" x="59.45" y="10.32" width="5.74" height="5.74"/><rect class="cls-1" x="59.45" y="34.48" width="5.74" height="5.74"/><rect class="cls-1" x="35.11" y="34.48" width="5.74" height="5.74"/><rect class="cls-1" x="35.11" y="59.45" width="5.74" height="5.74"/><rect class="cls-1" x="10.76" y="59.45" width="5.74" height="5.74"/></g></g></svg>