<svg xmlns="http://www.w3.org/2000/svg" viewBox="0 0 86.53 90.96"><defs><style>.cls-1{fill:#a73bec;}.cls-2{fill:#06e46b;}.cls-3{fill:#ff9000;}.cls-4{fill:#fad62a;}</style></defs><title>Asset 1</title><g id="Layer_2" data-name="Layer 2"><g id="Layer_1-2" data-name="Layer 1"><path class="cls-1" d="M42.48,21.61l4.28,10.64a8.75,8.75,0,0,0,4.87,4.88l10.65,4.28a2.13,2.13,0,0,1,0,4L51.63,49.64a8.75,8.75,0,0,0-4.87,4.88L42.48,65.16a2.13,2.13,0,0,1-4,0L34.25,54.52a8.79,8.79,0,0,0-4.88-4.88L18.72,45.36a2.13,2.13,0,0,1,0-4l10.65-4.28a8.79,8.79,0,0,0,4.88-4.88l4.27-10.64a2.13,2.13,0,0,1,4,0"/><path class="cls-2" d="M80.39,30.11a3.07,3.07,0,1,1,3.07,3.07,3.07,3.07,0,0,1-3.07-3.07"/><path class="cls-3" d="M16.19,85.55A5.41,5.41,0,1,1,21.59,91a5.4,5.4,0,0,1-5.4-5.41"/><path class="cls-4" d="M0,6.58a6.58,6.58,0,1,1,6.58,6.58A6.57,6.57,0,0,1,0,6.58"/></g></g></svg>